<svg width="600" height="360" viewBox="0 0 600 360" fill="none" xmlns="http://www.w3.org/2000/svg">
<g clip-path="url(#clip0_50_3973)">
<rect width="600" height="360" rx="4" fill="#FDFCFA"/>
<rect width="600" height="56" fill="#D6E6F7"/>
<path d="M71.2944 35.1033C71.2944 38.9485 68.9572 41.5119 65.4028 41.5119C63.6364 41.5119 62.247 40.8011 61.3207 39.5301V41.3719H57.6909V23.8909H61.3207V30.5688C62.2146 29.2979 63.6041 28.587 65.3274 28.587C68.8818 28.5762 71.2944 31.1935 71.2944 35.1033ZM67.6108 34.9849C67.6108 32.9599 66.3399 31.4951 64.4765 31.4951C62.6132 31.4951 61.3207 32.9276 61.3207 34.9849C61.3207 37.0744 62.6132 38.4961 64.4765 38.4961C66.3399 38.5069 67.6108 37.0636 67.6108 34.9849Z" fill="#314F8F"/>
<path d="M86.5888 35.0387C86.5888 38.9054 83.853 41.5227 79.8032 41.5227C75.7211 41.5227 72.9961 38.9054 72.9961 35.0387C72.9961 31.1505 75.7319 28.5762 79.8032 28.5762C83.8638 28.5762 86.5888 31.1505 86.5888 35.0387ZM76.6366 35.0818C76.6366 37.1498 77.9076 38.5715 79.7925 38.5715C81.6558 38.5715 82.9483 37.1606 82.9483 35.0818C82.9483 33.0138 81.6558 31.5921 79.7925 31.5921C77.9183 31.5921 76.6366 33.0138 76.6366 35.0818Z" fill="#314F8F"/>
<path d="M97.2413 40.661C96.2935 41.2104 95.1195 41.5335 93.9454 41.5335C91.6836 41.5335 89.9603 40.241 89.9603 37.6237V31.7536H88.1938V29.2548H89.9603V25.7651H93.5685V29.2548H97.0151V31.7752H93.5685V37.0098C93.5685 38.0653 94.0101 38.4961 94.7963 38.4746C95.2595 38.4746 95.8303 38.3022 96.4873 38.0114L97.2413 40.661Z" fill="#314F8F"/>
<path d="M107.689 40.661C106.741 41.2104 105.567 41.5335 104.393 41.5335C102.131 41.5335 100.408 40.241 100.408 37.6237V31.7536H98.6416V29.2548H100.408V25.7651H104.016V29.2548H107.463V31.7752H104.016V37.0098C104.016 38.0653 104.458 38.4961 105.244 38.4746C105.707 38.4746 106.278 38.3022 106.935 38.0114L107.689 40.661Z" fill="#314F8F"/>
<path d="M121.853 36.1373H112.751C113.171 37.7421 114.399 38.6792 116.026 38.6792C117.232 38.6792 118.363 38.2161 119.235 37.3329L121.142 39.2608C119.871 40.6718 118.008 41.5012 115.713 41.5012C111.653 41.5012 109.089 38.9054 109.089 35.0602C109.089 31.1504 111.75 28.5547 115.616 28.5547C120.086 28.5762 122.165 31.5166 121.853 36.1373ZM118.46 33.9939C118.417 32.3244 117.329 31.2366 115.649 31.2366C114.044 31.2366 112.967 32.3137 112.676 33.9939H118.46Z" fill="#314F8F"/>
<path d="M133.894 29.9441L132.645 32.4214C131.255 31.6459 129.834 31.1935 128.778 31.1935C127.927 31.1935 127.313 31.4736 127.313 32.1414C127.313 34.0478 134.013 33.0892 133.991 37.5698C133.991 40.1656 131.708 41.5335 128.832 41.5335C126.786 41.5335 124.771 40.9196 123.339 39.7671L124.524 37.3113C125.848 38.3238 127.539 38.8946 128.94 38.8946C129.855 38.8946 130.545 38.5931 130.545 37.9037C130.545 35.8788 123.974 36.9559 123.974 32.5076C123.974 29.8903 126.215 28.5439 128.972 28.5439C130.695 28.5331 132.483 29.0501 133.894 29.9441Z" fill="#314F8F"/>
<path d="M144.676 40.661C143.728 41.2104 142.554 41.5335 141.38 41.5335C139.118 41.5335 137.395 40.241 137.395 37.6237V31.7536H135.628V29.2548H137.395V25.7651H141.003V29.2548H144.45V31.7752H141.003V37.0098C141.003 38.0653 141.445 38.4961 142.231 38.4746C142.694 38.4746 143.265 38.3022 143.922 38.0114L144.676 40.661Z" fill="#314F8F"/>
<path d="M148.467 40.6933C148.467 41.1888 148.09 41.5658 147.638 41.5658C147.185 41.5658 146.841 41.1888 146.841 40.6933C146.841 40.2302 147.196 39.864 147.638 39.864C148.079 39.864 148.467 40.2194 148.467 40.6933Z" fill="#314F8F"/>
<path d="M159.453 38.9485C158.419 40.6395 156.664 41.4042 154.553 41.4042C152.119 41.4042 150.492 39.8748 150.492 37.796C150.492 35.7496 152.237 34.5002 155.059 34.5002H159.421V33.2938C159.4 31.2258 158.193 29.9764 155.748 29.9764C154.219 29.9764 152.916 30.5904 151.623 31.5813L151.16 30.8273C152.625 29.7718 154.036 29.0824 155.899 29.0824C158.796 29.0824 160.38 30.6873 160.401 33.2292L160.444 41.3827H159.475L159.453 38.9485ZM159.453 37.3652V35.3618H155.167C152.765 35.3618 151.44 36.1912 151.44 37.7637C151.44 39.3901 152.689 40.4995 154.693 40.4995C156.976 40.4995 158.7 39.5193 159.453 37.3652Z" fill="#314F8F"/>
<path d="M165.604 25.5604C165.604 26.0559 165.227 26.4328 164.774 26.4328C164.333 26.4328 163.945 26.0559 163.945 25.5604C163.945 25.0973 164.322 24.7095 164.774 24.7095C165.227 24.7095 165.604 25.0865 165.604 25.5604ZM164.279 41.3827V29.104H165.248V41.3827H164.279Z" fill="#314F8F"/>
<path d="M48.0291 28.07H47.3506V30.6227H48.0291V28.07Z" fill="black"/>
<path d="M42.7412 39.0024L45.3047 39.2178V37.6776H42.7412V39.0024Z" fill="black"/>
<path d="M34.0166 38.3023L36.58 38.5069V37.7206H34.0166V38.3023Z" fill="black"/>
<path d="M35.2983 44H31.4101C31.1193 44 30.8823 43.7631 30.8823 43.4723V43.4615C30.8823 42.3521 31.7871 41.4473 32.8965 41.4473H34.0166V38.2915L36.5693 38.4854V42.7291C36.5801 43.4292 36.0092 44 35.2983 44Z" fill="#388AEB"/>
<path d="M44.0231 44H47.9113C48.2021 44 48.4391 43.7631 48.4391 43.4723V43.4615C48.4391 42.3521 47.5343 41.4474 46.4249 41.4474H45.3048V39.1424L42.7521 38.9485V42.7183C42.7413 43.4292 43.3122 44 44.0231 44Z" fill="#388AEB"/>
<path d="M45.9292 37.753H33.392C32.5842 37.753 31.938 37.0959 31.938 36.2989V25.2912C31.938 21.7045 34.8676 18.7748 38.4543 18.7748H40.8885C44.4752 18.7748 47.4048 21.7045 47.4048 25.2912V36.2989C47.3941 37.0959 46.7263 37.753 45.9292 37.753Z" fill="#388AEB"/>
<path d="M31.141 28.0593C27.9313 28.0593 25.314 30.6766 25.314 33.8863V35.9973C24.5278 36.5143 24 37.3975 24 38.41C24 39.7779 24.9694 40.9519 26.3049 41.2319C26.3696 41.2427 26.4234 41.2427 26.488 41.2427C26.9189 41.2427 27.2959 40.9411 27.382 40.5103C27.4251 40.2733 27.382 40.0256 27.2528 39.8317C27.1128 39.6271 26.9189 39.4871 26.6819 39.444C26.1865 39.3471 25.8418 38.9055 25.8418 38.41C25.8418 37.8284 26.3157 37.3545 26.8973 37.3545C27.3389 37.3545 27.7375 37.6345 27.8883 38.033C27.9744 38.2592 28.1468 38.4423 28.3622 38.5392C28.5884 38.6362 28.8253 38.6469 29.0623 38.5608C29.5254 38.3884 29.7731 37.8499 29.59 37.3868C29.2885 36.5897 28.653 35.9866 27.8775 35.6957V33.8755C27.8775 32.0768 29.3531 30.6012 31.1518 30.6012H33.963V28.0485H31.141V28.0593Z" fill="#388AEB"/>
<path d="M55.3104 20.272C55.3104 18.9041 54.341 17.7301 53.0055 17.45C52.9408 17.4393 52.887 17.4393 52.8224 17.4393C52.3915 17.4393 52.0145 17.7409 51.9284 18.1717C51.8853 18.4086 51.9284 18.6564 52.0576 18.8502C52.1976 19.0549 52.3915 19.1949 52.6285 19.238C53.1239 19.3349 53.4686 19.7765 53.4686 20.272C53.4686 20.8536 52.9947 21.3275 52.4131 21.3275C51.9715 21.3275 51.5729 21.0475 51.4222 20.649C51.336 20.4228 51.1637 20.2397 50.9482 20.1427C50.7328 20.0458 50.4851 20.035 50.2481 20.1212C49.785 20.2935 49.5373 20.8321 49.7204 21.2952C50.0219 22.0923 50.6574 22.6954 51.4329 22.9862V24.8065C51.4329 26.6052 49.9573 28.0808 48.1586 28.0808H48.0078V30.6335H48.1801C51.3898 30.6335 54.0071 28.0162 54.0071 24.8065V22.6954C54.7934 22.1676 55.3104 21.2844 55.3104 20.272Z" fill="#388AEB"/>
<path d="M39.6608 36.2127C40.089 36.2127 40.4362 35.8655 40.4362 35.4372C40.4362 35.0089 40.089 34.6617 39.6608 34.6617C39.2325 34.6617 38.8853 35.0089 38.8853 35.4372C38.8853 35.8655 39.2325 36.2127 39.6608 36.2127Z" fill="#314F8F"/>
<path d="M43.4952 36.2127C43.9235 36.2127 44.2707 35.8655 44.2707 35.4372C44.2707 35.0089 43.9235 34.6617 43.4952 34.6617C43.0669 34.6617 42.7197 35.0089 42.7197 35.4372C42.7197 35.8655 43.0669 36.2127 43.4952 36.2127Z" fill="#314F8F"/>
<path d="M35.8263 36.2127C36.2546 36.2127 36.6018 35.8655 36.6018 35.4372C36.6018 35.0089 36.2546 34.6617 35.8263 34.6617C35.398 34.6617 35.0508 35.0089 35.0508 35.4372C35.0508 35.8655 35.398 36.2127 35.8263 36.2127Z" fill="#314F8F"/>
<path d="M47.8357 19.0979H46.5109C45.9185 16.4699 43.8505 14.3911 41.2224 13.8095V12.8509C41.2224 12.3878 40.8347 12 40.3715 12H38.9713C38.5082 12 38.1204 12.3878 38.1204 12.8509V13.8095C37.9696 13.9172 37.9266 14.0141 37.7865 14.0572C37.6142 14.1003 37.3665 14.1219 37.2157 14.0788C35.0184 14.8973 33.3382 16.7822 32.8212 19.1087H31.4964C31.0333 19.1087 30.6455 19.4965 30.6455 19.9596V21.3598C30.6455 21.823 31.0333 22.2107 31.4964 22.2107H47.8357C48.2988 22.2107 48.6866 21.823 48.6866 21.3598V19.9596C48.6758 19.4749 48.2988 19.0979 47.8357 19.0979Z" fill="#314F8F"/>
<path d="M38.1206 17.1269V13.7879C37.819 13.8526 37.5066 13.9495 37.2158 14.0572L38.1206 17.1269Z" fill="black"/>
<path d="M42.8596 23.3848H36.451C35.1585 23.3848 34.1138 24.4295 34.1138 25.722V29.2225C34.1138 30.515 35.1585 31.5598 36.451 31.5598H38.9714L42.0518 33.8109C42.3103 34.0047 42.6765 33.8216 42.6765 33.4985V31.5705H42.8489C44.1414 31.5705 45.1861 30.5258 45.1861 29.2333V25.7328C45.1969 24.4295 44.1521 23.3848 42.8596 23.3848Z" fill="white"/>
<path d="M37.0219 28.5332C36.4403 28.5332 35.9556 28.0593 35.9556 27.4669V26.5513C35.9556 25.9697 36.4295 25.485 37.0219 25.485C37.6035 25.485 38.0882 25.959 38.0882 26.5513V27.4669C38.0774 28.0593 37.6035 28.5332 37.0219 28.5332Z" fill="black"/>
<path d="M42.2997 28.5332C42.8813 28.5332 43.366 28.0593 43.366 27.4669V26.5513C43.366 25.9697 42.8921 25.485 42.2997 25.485C41.7181 25.485 41.2334 25.959 41.2334 26.5513V27.4669C41.2442 28.0593 41.7181 28.5332 42.2997 28.5332Z" fill="black"/>
<path d="M564 29C564.552 29 565 28.5523 565 28C565 27.4477 564.552 27 564 27C563.448 27 563 27.4477 563 28C563 28.5523 563.448 29 564 29Z" stroke="#212427" stroke-width="2" stroke-linecap="round" stroke-linejoin="round"/>
<path d="M571 29C571.552 29 572 28.5523 572 28C572 27.4477 571.552 27 571 27C570.448 27 570 27.4477 570 28C570 28.5523 570.448 29 571 29Z" stroke="#212427" stroke-width="2" stroke-linecap="round" stroke-linejoin="round"/>
<path d="M557 29C557.552 29 558 28.5523 558 28C558 27.4477 557.552 27 557 27C556.448 27 556 27.4477 556 28C556 28.5523 556.448 29 557 29Z" stroke="#212427" stroke-width="2" stroke-linecap="round" stroke-linejoin="round"/>
<rect x="24.5" y="72.5" width="551" height="223" rx="5.5" stroke="black" stroke-opacity="0.06"/>
<mask id="path-33-inside-1_50_3973" fill="white">
<path d="M24 72H576V112H24V72Z"/>
</mask>
<path d="M576 111H24V113H576V111Z" fill="black" fill-opacity="0.06" mask="url(#path-33-inside-1_50_3973)"/>
<g clip-path="url(#clip1_50_3973)">
<path d="M44.0002 98.6667C47.6821 98.6667 50.6668 95.6819 50.6668 92C50.6668 88.3181 47.6821 85.3333 44.0002 85.3333C40.3183 85.3333 37.3335 88.3181 37.3335 92C37.3335 95.6819 40.3183 98.6667 44.0002 98.6667Z" stroke="#212427" stroke-width="1.33333" stroke-linecap="round" stroke-linejoin="round"/>
<path d="M42.6665 89.3333L46.6665 92L42.6665 94.6667V89.3333Z" stroke="#212427" stroke-width="1.33333" stroke-linecap="round" stroke-linejoin="round"/>
</g>
<path d="M76.544 86.928V98H75.088V89.744L71.408 98H70.384L66.688 89.728V98H65.232V86.928H66.8L70.896 96.08L74.992 86.928H76.544ZM86.5653 89.232L81.2853 102.128H79.7812L81.5093 97.904L77.9733 89.232H79.5893L82.3413 96.336L85.0613 89.232H86.5653ZM95.8625 90.432H94.0225V98H92.5665V90.432H91.4305V89.232H92.5665V88.608C92.5665 87.6267 92.8172 86.912 93.3185 86.464C93.8305 86.0053 94.6465 85.776 95.7665 85.776V86.992C95.1265 86.992 94.6732 87.12 94.4065 87.376C94.1505 87.6213 94.0225 88.032 94.0225 88.608V89.232H95.8625V90.432ZM98.3121 87.808C98.0348 87.808 97.8001 87.712 97.6081 87.52C97.4161 87.328 97.3201 87.0933 97.3201 86.816C97.3201 86.5387 97.4161 86.304 97.6081 86.112C97.8001 85.92 98.0348 85.824 98.3121 85.824C98.5788 85.824 98.8028 85.92 98.9841 86.112C99.1761 86.304 99.2721 86.5387 99.2721 86.816C99.2721 87.0933 99.1761 87.328 98.9841 87.52C98.8028 87.712 98.5788 87.808 98.3121 87.808ZM99.0161 89.232V98H97.5601V89.232H99.0161ZM102.954 90.656C103.21 90.1547 103.572 89.7653 104.042 89.488C104.522 89.2107 105.103 89.072 105.786 89.072V90.576H105.402C103.77 90.576 102.954 91.4613 102.954 93.232V98H101.498V89.232H102.954V90.656ZM110.57 98.144C109.898 98.144 109.296 98.032 108.762 97.808C108.229 97.5733 107.808 97.2533 107.498 96.848C107.189 96.432 107.018 95.9573 106.986 95.424H108.49C108.533 95.8613 108.736 96.2187 109.098 96.496C109.472 96.7733 109.957 96.912 110.554 96.912C111.109 96.912 111.546 96.7893 111.866 96.544C112.186 96.2987 112.346 95.9893 112.346 95.616C112.346 95.232 112.176 94.9493 111.834 94.768C111.493 94.576 110.965 94.3893 110.25 94.208C109.6 94.0373 109.066 93.8667 108.65 93.696C108.245 93.5147 107.893 93.2533 107.594 92.912C107.306 92.56 107.162 92.1013 107.162 91.536C107.162 91.088 107.296 90.6773 107.562 90.304C107.829 89.9307 108.208 89.6373 108.698 89.424C109.189 89.2 109.749 89.088 110.378 89.088C111.349 89.088 112.133 89.3333 112.73 89.824C113.328 90.3147 113.648 90.9867 113.69 91.84H112.234C112.202 91.3813 112.016 91.0133 111.674 90.736C111.344 90.4587 110.896 90.32 110.33 90.32C109.808 90.32 109.392 90.432 109.082 90.656C108.773 90.88 108.618 91.1733 108.618 91.536C108.618 91.824 108.709 92.064 108.89 92.256C109.082 92.4373 109.317 92.5867 109.594 92.704C109.882 92.8107 110.277 92.9333 110.778 93.072C111.408 93.2427 111.92 93.4133 112.314 93.584C112.709 93.744 113.045 93.9893 113.322 94.32C113.61 94.6507 113.76 95.0827 113.77 95.616C113.77 96.096 113.637 96.528 113.37 96.912C113.104 97.296 112.725 97.6 112.234 97.824C111.754 98.0373 111.2 98.144 110.57 98.144ZM117.602 90.432V95.6C117.602 96.0267 117.692 96.3307 117.874 96.512C118.055 96.6827 118.37 96.768 118.818 96.768H119.89V98H118.578C117.767 98 117.159 97.8133 116.754 97.44C116.348 97.0667 116.146 96.4533 116.146 95.6V90.432H115.01V89.232H116.146V87.024H117.602V89.232H119.89V90.432H117.602ZM127.696 90.432V95.6C127.696 96.0267 127.786 96.3307 127.968 96.512C128.149 96.6827 128.464 96.768 128.911 96.768H129.984V98H128.672C127.861 98 127.253 97.8133 126.848 97.44C126.442 97.0667 126.24 96.4533 126.24 95.6V90.432H125.104V89.232H126.24V87.024H127.696V89.232H129.984V90.432H127.696ZM139.748 93.28C139.748 93.5573 139.732 93.8507 139.7 94.16H132.692C132.745 95.024 133.038 95.7013 133.572 96.192C134.116 96.672 134.772 96.912 135.54 96.912C136.169 96.912 136.692 96.768 137.108 96.48C137.534 96.1813 137.833 95.7867 138.004 95.296H139.572C139.337 96.1387 138.868 96.8267 138.164 97.36C137.46 97.8827 136.585 98.144 135.54 98.144C134.708 98.144 133.961 97.9573 133.3 97.584C132.649 97.2107 132.137 96.6827 131.764 96C131.39 95.3067 131.204 94.5067 131.204 93.6C131.204 92.6933 131.385 91.8987 131.748 91.216C132.11 90.5333 132.617 90.0107 133.268 89.648C133.929 89.2747 134.686 89.088 135.54 89.088C136.372 89.088 137.108 89.2693 137.748 89.632C138.388 89.9947 138.878 90.496 139.22 91.136C139.572 91.7653 139.748 92.48 139.748 93.28ZM138.244 92.976C138.244 92.4213 138.121 91.9467 137.876 91.552C137.63 91.1467 137.294 90.8427 136.868 90.64C136.452 90.4267 135.988 90.32 135.476 90.32C134.74 90.32 134.11 90.5547 133.588 91.024C133.076 91.4933 132.782 92.144 132.708 92.976H138.244ZM144.774 98.144C144.102 98.144 143.499 98.032 142.966 97.808C142.432 97.5733 142.011 97.2533 141.702 96.848C141.392 96.432 141.222 95.9573 141.19 95.424H142.694C142.736 95.8613 142.939 96.2187 143.302 96.496C143.675 96.7733 144.16 96.912 144.758 96.912C145.312 96.912 145.75 96.7893 146.07 96.544C146.39 96.2987 146.55 95.9893 146.55 95.616C146.55 95.232 146.379 94.9493 146.038 94.768C145.696 94.576 145.168 94.3893 144.454 94.208C143.803 94.0373 143.27 93.8667 142.854 93.696C142.448 93.5147 142.096 93.2533 141.798 92.912C141.51 92.56 141.366 92.1013 141.366 91.536C141.366 91.088 141.499 90.6773 141.766 90.304C142.032 89.9307 142.411 89.6373 142.902 89.424C143.392 89.2 143.952 89.088 144.582 89.088C145.552 89.088 146.336 89.3333 146.934 89.824C147.531 90.3147 147.851 90.9867 147.894 91.84H146.438C146.406 91.3813 146.219 91.0133 145.878 90.736C145.547 90.4587 145.099 90.32 144.534 90.32C144.011 90.32 143.595 90.432 143.286 90.656C142.976 90.88 142.822 91.1733 142.822 91.536C142.822 91.824 142.912 92.064 143.094 92.256C143.286 92.4373 143.52 92.5867 143.798 92.704C144.086 92.8107 144.48 92.9333 144.982 93.072C145.611 93.2427 146.123 93.4133 146.518 93.584C146.912 93.744 147.248 93.9893 147.526 94.32C147.814 94.6507 147.963 95.0827 147.974 95.616C147.974 96.096 147.84 96.528 147.574 96.912C147.307 97.296 146.928 97.6 146.438 97.824C145.958 98.0373 145.403 98.144 144.774 98.144ZM151.805 90.432V95.6C151.805 96.0267 151.896 96.3307 152.077 96.512C152.258 96.6827 152.573 96.768 153.021 96.768H154.093V98H152.781C151.97 98 151.362 97.8133 150.957 97.44C150.552 97.0667 150.349 96.4533 150.349 95.6V90.432H149.213V89.232H150.349V87.024H151.805V89.232H154.093V90.432H151.805Z" fill="#212427"/>
<circle cx="557" cy="92" r="7" fill="#54CA6E"/>
<g filter="url(#filter0_d_50_3973)">
<rect x="24" y="312" width="217" height="32" rx="6" fill="#388AEB" shape-rendering="crispEdges"/>
<rect x="24.5" y="312.5" width="216" height="31" rx="5.5" stroke="#388AEB" shape-rendering="crispEdges"/>
<g clip-path="url(#clip2_50_3973)">
<path d="M73.0002 334.667C76.6821 334.667 79.6668 331.682 79.6668 328C79.6668 324.318 76.6821 321.333 73.0002 321.333C69.3183 321.333 66.3335 324.318 66.3335 328C66.3335 331.682 69.3183 334.667 73.0002 334.667Z" stroke="#FDFCFA" stroke-width="1.33333" stroke-linecap="round" stroke-linejoin="round"/>
<path d="M71.6665 325.333L75.6665 328L71.6665 330.667V325.333Z" stroke="#FDFCFA" stroke-width="1.33333" stroke-linecap="round" stroke-linejoin="round"/>
</g>
<path d="M89.602 328.114C89.602 327.162 89.8167 326.308 90.246 325.552C90.6753 324.787 91.2587 324.189 91.996 323.76C92.7427 323.331 93.5687 323.116 94.474 323.116C95.538 323.116 96.4667 323.373 97.26 323.886C98.0533 324.399 98.632 325.127 98.996 326.07H97.47C97.1993 325.482 96.8073 325.029 96.294 324.712C95.79 324.395 95.1833 324.236 94.474 324.236C93.7927 324.236 93.1813 324.395 92.64 324.712C92.0987 325.029 91.674 325.482 91.366 326.07C91.058 326.649 90.904 327.33 90.904 328.114C90.904 328.889 91.058 329.57 91.366 330.158C91.674 330.737 92.0987 331.185 92.64 331.502C93.1813 331.819 93.7927 331.978 94.474 331.978C95.1833 331.978 95.79 331.824 96.294 331.516C96.8073 331.199 97.1993 330.746 97.47 330.158H98.996C98.632 331.091 98.0533 331.815 97.26 332.328C96.4667 332.832 95.538 333.084 94.474 333.084C93.5687 333.084 92.7427 332.874 91.996 332.454C91.2587 332.025 90.6753 331.432 90.246 330.676C89.8167 329.92 89.602 329.066 89.602 328.114ZM102.166 326.574C102.39 326.135 102.708 325.795 103.118 325.552C103.538 325.309 104.047 325.188 104.644 325.188V326.504H104.308C102.88 326.504 102.166 327.279 102.166 328.828V333H100.892V325.328H102.166V326.574ZM113.115 328.87C113.115 329.113 113.101 329.369 113.073 329.64H106.941C106.988 330.396 107.244 330.989 107.711 331.418C108.187 331.838 108.761 332.048 109.433 332.048C109.984 332.048 110.441 331.922 110.805 331.67C111.178 331.409 111.44 331.063 111.589 330.634H112.961C112.756 331.371 112.345 331.973 111.729 332.44C111.113 332.897 110.348 333.126 109.433 333.126C108.705 333.126 108.052 332.963 107.473 332.636C106.904 332.309 106.456 331.847 106.129 331.25C105.802 330.643 105.639 329.943 105.639 329.15C105.639 328.357 105.798 327.661 106.115 327.064C106.432 326.467 106.876 326.009 107.445 325.692C108.024 325.365 108.686 325.202 109.433 325.202C110.161 325.202 110.805 325.361 111.365 325.678C111.925 325.995 112.354 326.434 112.653 326.994C112.961 327.545 113.115 328.17 113.115 328.87ZM111.799 328.604C111.799 328.119 111.692 327.703 111.477 327.358C111.262 327.003 110.968 326.737 110.595 326.56C110.231 326.373 109.825 326.28 109.377 326.28C108.733 326.28 108.182 326.485 107.725 326.896C107.277 327.307 107.02 327.876 106.955 328.604H111.799ZM114.321 329.136C114.321 328.352 114.479 327.666 114.797 327.078C115.114 326.481 115.548 326.019 116.099 325.692C116.659 325.365 117.279 325.202 117.961 325.202C118.633 325.202 119.216 325.347 119.711 325.636C120.205 325.925 120.574 326.289 120.817 326.728V325.328H122.105V333H120.817V331.572C120.565 332.02 120.187 332.393 119.683 332.692C119.188 332.981 118.609 333.126 117.947 333.126C117.265 333.126 116.649 332.958 116.099 332.622C115.548 332.286 115.114 331.815 114.797 331.208C114.479 330.601 114.321 329.911 114.321 329.136ZM120.817 329.15C120.817 328.571 120.7 328.067 120.467 327.638C120.233 327.209 119.916 326.882 119.515 326.658C119.123 326.425 118.689 326.308 118.213 326.308C117.737 326.308 117.303 326.42 116.911 326.644C116.519 326.868 116.206 327.195 115.973 327.624C115.739 328.053 115.623 328.557 115.623 329.136C115.623 329.724 115.739 330.237 115.973 330.676C116.206 331.105 116.519 331.437 116.911 331.67C117.303 331.894 117.737 332.006 118.213 332.006C118.689 332.006 119.123 331.894 119.515 331.67C119.916 331.437 120.233 331.105 120.467 330.676C120.7 330.237 120.817 329.729 120.817 329.15ZM125.812 326.378V330.9C125.812 331.273 125.891 331.539 126.05 331.698C126.208 331.847 126.484 331.922 126.876 331.922H127.814V333H126.666C125.956 333 125.424 332.837 125.07 332.51C124.715 332.183 124.538 331.647 124.538 330.9V326.378H123.544V325.328H124.538V323.396H125.812V325.328H127.814V326.378H125.812ZM136.357 328.87C136.357 329.113 136.343 329.369 136.315 329.64H130.183C130.23 330.396 130.487 330.989 130.953 331.418C131.429 331.838 132.003 332.048 132.675 332.048C133.226 332.048 133.683 331.922 134.047 331.67C134.421 331.409 134.682 331.063 134.831 330.634H136.203C135.998 331.371 135.587 331.973 134.971 332.44C134.355 332.897 133.59 333.126 132.675 333.126C131.947 333.126 131.294 332.963 130.715 332.636C130.146 332.309 129.698 331.847 129.371 331.25C129.045 330.643 128.881 329.943 128.881 329.15C128.881 328.357 129.04 327.661 129.357 327.064C129.675 326.467 130.118 326.009 130.687 325.692C131.266 325.365 131.929 325.202 132.675 325.202C133.403 325.202 134.047 325.361 134.607 325.678C135.167 325.995 135.597 326.434 135.895 326.994C136.203 327.545 136.357 328.17 136.357 328.87ZM135.041 328.604C135.041 328.119 134.934 327.703 134.719 327.358C134.505 327.003 134.211 326.737 133.837 326.56C133.473 326.373 133.067 326.28 132.619 326.28C131.975 326.28 131.425 326.485 130.967 326.896C130.519 327.307 130.263 327.876 130.197 328.604H135.041ZM145.509 325.188C146.443 325.188 147.199 325.473 147.777 326.042C148.356 326.602 148.645 327.414 148.645 328.478V333H147.385V328.66C147.385 327.895 147.194 327.311 146.811 326.91C146.429 326.499 145.906 326.294 145.243 326.294C144.571 326.294 144.035 326.504 143.633 326.924C143.241 327.344 143.045 327.955 143.045 328.758V333H141.771V325.328H143.045V326.42C143.297 326.028 143.638 325.725 144.067 325.51C144.506 325.295 144.987 325.188 145.509 325.188ZM157.726 328.87C157.726 329.113 157.712 329.369 157.684 329.64H151.552C151.599 330.396 151.856 330.989 152.322 331.418C152.798 331.838 153.372 332.048 154.044 332.048C154.595 332.048 155.052 331.922 155.416 331.67C155.79 331.409 156.051 331.063 156.2 330.634H157.572C157.367 331.371 156.956 331.973 156.34 332.44C155.724 332.897 154.959 333.126 154.044 333.126C153.316 333.126 152.663 332.963 152.084 332.636C151.515 332.309 151.067 331.847 150.74 331.25C150.414 330.643 150.25 329.943 150.25 329.15C150.25 328.357 150.409 327.661 150.726 327.064C151.044 326.467 151.487 326.009 152.056 325.692C152.635 325.365 153.298 325.202 154.044 325.202C154.772 325.202 155.416 325.361 155.976 325.678C156.536 325.995 156.966 326.434 157.264 326.994C157.572 327.545 157.726 328.17 157.726 328.87ZM156.41 328.604C156.41 328.119 156.303 327.703 156.088 327.358C155.874 327.003 155.58 326.737 155.206 326.56C154.842 326.373 154.436 326.28 153.988 326.28C153.344 326.28 152.794 326.485 152.336 326.896C151.888 327.307 151.632 327.876 151.566 328.604H156.41ZM169.628 325.328L167.234 333H165.918L164.07 326.91L162.222 333H160.906L158.498 325.328H159.8L161.564 331.768L163.468 325.328H164.77L166.632 331.782L168.368 325.328H169.628ZM176.179 326.378V330.9C176.179 331.273 176.258 331.539 176.417 331.698C176.576 331.847 176.851 331.922 177.243 331.922H178.181V333H177.033C176.324 333 175.792 332.837 175.437 332.51C175.082 332.183 174.905 331.647 174.905 330.9V326.378H173.911V325.328H174.905V323.396H176.179V325.328H178.181V326.378H176.179ZM186.724 328.87C186.724 329.113 186.71 329.369 186.682 329.64H180.55C180.597 330.396 180.854 330.989 181.32 331.418C181.796 331.838 182.37 332.048 183.042 332.048C183.593 332.048 184.05 331.922 184.414 331.67C184.788 331.409 185.049 331.063 185.198 330.634H186.57C186.365 331.371 185.954 331.973 185.338 332.44C184.722 332.897 183.957 333.126 183.042 333.126C182.314 333.126 181.661 332.963 181.082 332.636C180.513 332.309 180.065 331.847 179.738 331.25C179.412 330.643 179.248 329.943 179.248 329.15C179.248 328.357 179.407 327.661 179.724 327.064C180.042 326.467 180.485 326.009 181.054 325.692C181.633 325.365 182.296 325.202 183.042 325.202C183.77 325.202 184.414 325.361 184.974 325.678C185.534 325.995 185.964 326.434 186.262 326.994C186.57 327.545 186.724 328.17 186.724 328.87ZM185.408 328.604C185.408 328.119 185.301 327.703 185.086 327.358C184.872 327.003 184.578 326.737 184.204 326.56C183.84 326.373 183.434 326.28 182.986 326.28C182.342 326.28 181.792 326.485 181.334 326.896C180.886 327.307 180.63 327.876 180.564 328.604H185.408ZM191.122 333.126C190.534 333.126 190.007 333.028 189.54 332.832C189.073 332.627 188.705 332.347 188.434 331.992C188.163 331.628 188.014 331.213 187.986 330.746H189.302C189.339 331.129 189.517 331.441 189.834 331.684C190.161 331.927 190.585 332.048 191.108 332.048C191.593 332.048 191.976 331.941 192.256 331.726C192.536 331.511 192.676 331.241 192.676 330.914C192.676 330.578 192.527 330.331 192.228 330.172C191.929 330.004 191.467 329.841 190.842 329.682C190.273 329.533 189.806 329.383 189.442 329.234C189.087 329.075 188.779 328.847 188.518 328.548C188.266 328.24 188.14 327.839 188.14 327.344C188.14 326.952 188.257 326.593 188.49 326.266C188.723 325.939 189.055 325.683 189.484 325.496C189.913 325.3 190.403 325.202 190.954 325.202C191.803 325.202 192.489 325.417 193.012 325.846C193.535 326.275 193.815 326.863 193.852 327.61H192.578C192.55 327.209 192.387 326.887 192.088 326.644C191.799 326.401 191.407 326.28 190.912 326.28C190.455 326.28 190.091 326.378 189.82 326.574C189.549 326.77 189.414 327.027 189.414 327.344C189.414 327.596 189.493 327.806 189.652 327.974C189.82 328.133 190.025 328.263 190.268 328.366C190.52 328.459 190.865 328.567 191.304 328.688C191.855 328.837 192.303 328.987 192.648 329.136C192.993 329.276 193.287 329.491 193.53 329.78C193.782 330.069 193.913 330.447 193.922 330.914C193.922 331.334 193.805 331.712 193.572 332.048C193.339 332.384 193.007 332.65 192.578 332.846C192.158 333.033 191.673 333.126 191.122 333.126ZM197.275 326.378V330.9C197.275 331.273 197.354 331.539 197.513 331.698C197.671 331.847 197.947 331.922 198.339 331.922H199.277V333H198.129C197.419 333 196.887 332.837 196.533 332.51C196.178 332.183 196.001 331.647 196.001 330.9V326.378H195.007V325.328H196.001V323.396H197.275V325.328H199.277V326.378H197.275Z" fill="#FDFCFA"/>
</g>
<g filter="url(#filter1_d_50_3973)">
<rect x="253.5" y="312.5" width="170" height="31" rx="5.5" stroke="black" stroke-opacity="0.15" shape-rendering="crispEdges"/>
<path d="M271 326L277 321.333L283 326V333.333C283 333.687 282.86 334.026 282.609 334.276C282.359 334.526 282.02 334.667 281.667 334.667H272.333C271.98 334.667 271.641 334.526 271.391 334.276C271.14 334.026 271 333.687 271 333.333V326Z" stroke="#212427" stroke-width="1.33333" stroke-linecap="round" stroke-linejoin="round"/>
<path d="M275 334.667V328H279V334.667" stroke="#212427" stroke-width="1.33333" stroke-linecap="round" stroke-linejoin="round"/>
<path d="M302.142 323.242L298.46 333H296.99L293.308 323.242H294.666L297.732 331.656L300.798 323.242H302.142ZM304.197 324.082C303.954 324.082 303.749 323.998 303.581 323.83C303.413 323.662 303.329 323.457 303.329 323.214C303.329 322.971 303.413 322.766 303.581 322.598C303.749 322.43 303.954 322.346 304.197 322.346C304.43 322.346 304.626 322.43 304.785 322.598C304.953 322.766 305.037 322.971 305.037 323.214C305.037 323.457 304.953 323.662 304.785 323.83C304.626 323.998 304.43 324.082 304.197 324.082ZM304.813 325.328V333H303.539V325.328H304.813ZM313.984 328.87C313.984 329.113 313.97 329.369 313.942 329.64H307.81C307.857 330.396 308.114 330.989 308.58 331.418C309.056 331.838 309.63 332.048 310.302 332.048C310.853 332.048 311.31 331.922 311.674 331.67C312.048 331.409 312.309 331.063 312.458 330.634H313.83C313.625 331.371 313.214 331.973 312.598 332.44C311.982 332.897 311.217 333.126 310.302 333.126C309.574 333.126 308.921 332.963 308.342 332.636C307.773 332.309 307.325 331.847 306.998 331.25C306.672 330.643 306.508 329.943 306.508 329.15C306.508 328.357 306.667 327.661 306.984 327.064C307.302 326.467 307.745 326.009 308.314 325.692C308.893 325.365 309.556 325.202 310.302 325.202C311.03 325.202 311.674 325.361 312.234 325.678C312.794 325.995 313.224 326.434 313.522 326.994C313.83 327.545 313.984 328.17 313.984 328.87ZM312.668 328.604C312.668 328.119 312.561 327.703 312.346 327.358C312.132 327.003 311.838 326.737 311.464 326.56C311.1 326.373 310.694 326.28 310.246 326.28C309.602 326.28 309.052 326.485 308.594 326.896C308.146 327.307 307.89 327.876 307.824 328.604H312.668ZM325.886 325.328L323.492 333H322.176L320.328 326.91L318.48 333H317.164L314.756 325.328H316.058L317.822 331.768L319.726 325.328H321.028L322.89 331.782L324.626 325.328H325.886ZM330.407 329.136C330.407 328.352 330.565 327.666 330.883 327.078C331.2 326.481 331.634 326.019 332.185 325.692C332.745 325.365 333.37 325.202 334.061 325.202C334.658 325.202 335.213 325.342 335.727 325.622C336.24 325.893 336.632 326.252 336.903 326.7V322.64H338.191V333H336.903V331.558C336.651 332.015 336.277 332.393 335.783 332.692C335.288 332.981 334.709 333.126 334.047 333.126C333.365 333.126 332.745 332.958 332.185 332.622C331.634 332.286 331.2 331.815 330.883 331.208C330.565 330.601 330.407 329.911 330.407 329.136ZM336.903 329.15C336.903 328.571 336.786 328.067 336.553 327.638C336.319 327.209 336.002 326.882 335.601 326.658C335.209 326.425 334.775 326.308 334.299 326.308C333.823 326.308 333.389 326.42 332.997 326.644C332.605 326.868 332.292 327.195 332.059 327.624C331.825 328.053 331.709 328.557 331.709 329.136C331.709 329.724 331.825 330.237 332.059 330.676C332.292 331.105 332.605 331.437 332.997 331.67C333.389 331.894 333.823 332.006 334.299 332.006C334.775 332.006 335.209 331.894 335.601 331.67C336.002 331.437 336.319 331.105 336.553 330.676C336.786 330.237 336.903 329.729 336.903 329.15ZM339.868 329.136C339.868 328.352 340.026 327.666 340.344 327.078C340.661 326.481 341.095 326.019 341.646 325.692C342.206 325.365 342.826 325.202 343.508 325.202C344.18 325.202 344.763 325.347 345.258 325.636C345.752 325.925 346.121 326.289 346.364 326.728V325.328H347.652V333H346.364V331.572C346.112 332.02 345.734 332.393 345.23 332.692C344.735 332.981 344.156 333.126 343.494 333.126C342.812 333.126 342.196 332.958 341.646 332.622C341.095 332.286 340.661 331.815 340.344 331.208C340.026 330.601 339.868 329.911 339.868 329.136ZM346.364 329.15C346.364 328.571 346.247 328.067 346.014 327.638C345.78 327.209 345.463 326.882 345.062 326.658C344.67 326.425 344.236 326.308 343.76 326.308C343.284 326.308 342.85 326.42 342.458 326.644C342.066 326.868 341.753 327.195 341.52 327.624C341.286 328.053 341.17 328.557 341.17 329.136C341.17 329.724 341.286 330.237 341.52 330.676C341.753 331.105 342.066 331.437 342.458 331.67C342.85 331.894 343.284 332.006 343.76 332.006C344.236 332.006 344.67 331.894 345.062 331.67C345.463 331.437 345.78 331.105 346.014 330.676C346.247 330.237 346.364 329.729 346.364 329.15ZM352.521 333.126C351.933 333.126 351.405 333.028 350.939 332.832C350.472 332.627 350.103 332.347 349.833 331.992C349.562 331.628 349.413 331.213 349.385 330.746H350.701C350.738 331.129 350.915 331.441 351.233 331.684C351.559 331.927 351.984 332.048 352.507 332.048C352.992 332.048 353.375 331.941 353.655 331.726C353.935 331.511 354.075 331.241 354.075 330.914C354.075 330.578 353.925 330.331 353.627 330.172C353.328 330.004 352.866 329.841 352.241 329.682C351.671 329.533 351.205 329.383 350.841 329.234C350.486 329.075 350.178 328.847 349.917 328.548C349.665 328.24 349.539 327.839 349.539 327.344C349.539 326.952 349.655 326.593 349.889 326.266C350.122 325.939 350.453 325.683 350.883 325.496C351.312 325.3 351.802 325.202 352.353 325.202C353.202 325.202 353.888 325.417 354.411 325.846C354.933 326.275 355.213 326.863 355.251 327.61H353.977C353.949 327.209 353.785 326.887 353.487 326.644C353.197 326.401 352.805 326.28 352.311 326.28C351.853 326.28 351.489 326.378 351.219 326.574C350.948 326.77 350.813 327.027 350.813 327.344C350.813 327.596 350.892 327.806 351.051 327.974C351.219 328.133 351.424 328.263 351.667 328.366C351.919 328.459 352.264 328.567 352.703 328.688C353.253 328.837 353.701 328.987 354.047 329.136C354.392 329.276 354.686 329.491 354.929 329.78C355.181 330.069 355.311 330.447 355.321 330.914C355.321 331.334 355.204 331.712 354.971 332.048C354.737 332.384 354.406 332.65 353.977 332.846C353.557 333.033 353.071 333.126 352.521 333.126ZM360.927 325.188C361.506 325.188 362.028 325.314 362.495 325.566C362.962 325.809 363.326 326.177 363.587 326.672C363.858 327.167 363.993 327.769 363.993 328.478V333H362.733V328.66C362.733 327.895 362.542 327.311 362.159 326.91C361.776 326.499 361.254 326.294 360.591 326.294C359.919 326.294 359.382 326.504 358.981 326.924C358.589 327.344 358.393 327.955 358.393 328.758V333H357.119V322.64H358.393V326.42C358.645 326.028 358.99 325.725 359.429 325.51C359.877 325.295 360.376 325.188 360.927 325.188ZM367.348 326.756C367.609 326.299 367.992 325.925 368.496 325.636C369 325.347 369.574 325.202 370.218 325.202C370.909 325.202 371.529 325.365 372.08 325.692C372.631 326.019 373.065 326.481 373.382 327.078C373.699 327.666 373.858 328.352 373.858 329.136C373.858 329.911 373.699 330.601 373.382 331.208C373.065 331.815 372.626 332.286 372.066 332.622C371.515 332.958 370.899 333.126 370.218 333.126C369.555 333.126 368.972 332.981 368.468 332.692C367.973 332.403 367.6 332.034 367.348 331.586V333H366.074V322.64H367.348V326.756ZM372.556 329.136C372.556 328.557 372.439 328.053 372.206 327.624C371.973 327.195 371.655 326.868 371.254 326.644C370.862 326.42 370.428 326.308 369.952 326.308C369.485 326.308 369.051 326.425 368.65 326.658C368.258 326.882 367.941 327.213 367.698 327.652C367.465 328.081 367.348 328.581 367.348 329.15C367.348 329.729 367.465 330.237 367.698 330.676C367.941 331.105 368.258 331.437 368.65 331.67C369.051 331.894 369.485 332.006 369.952 332.006C370.428 332.006 370.862 331.894 371.254 331.67C371.655 331.437 371.973 331.105 372.206 330.676C372.439 330.237 372.556 329.724 372.556 329.136ZM378.881 333.126C378.162 333.126 377.509 332.963 376.921 332.636C376.342 332.309 375.885 331.847 375.549 331.25C375.222 330.643 375.059 329.943 375.059 329.15C375.059 328.366 375.227 327.675 375.563 327.078C375.908 326.471 376.375 326.009 376.963 325.692C377.551 325.365 378.209 325.202 378.937 325.202C379.665 325.202 380.323 325.365 380.911 325.692C381.499 326.009 381.961 326.467 382.297 327.064C382.642 327.661 382.815 328.357 382.815 329.15C382.815 329.943 382.638 330.643 382.283 331.25C381.938 331.847 381.466 332.309 380.869 332.636C380.272 332.963 379.609 333.126 378.881 333.126ZM378.881 332.006C379.338 332.006 379.768 331.899 380.169 331.684C380.57 331.469 380.892 331.147 381.135 330.718C381.387 330.289 381.513 329.766 381.513 329.15C381.513 328.534 381.392 328.011 381.149 327.582C380.906 327.153 380.589 326.835 380.197 326.63C379.805 326.415 379.38 326.308 378.923 326.308C378.456 326.308 378.027 326.415 377.635 326.63C377.252 326.835 376.944 327.153 376.711 327.582C376.478 328.011 376.361 328.534 376.361 329.15C376.361 329.775 376.473 330.303 376.697 330.732C376.93 331.161 377.238 331.483 377.621 331.698C378.004 331.903 378.424 332.006 378.881 332.006ZM384.014 329.136C384.014 328.352 384.173 327.666 384.49 327.078C384.807 326.481 385.241 326.019 385.792 325.692C386.352 325.365 386.973 325.202 387.654 325.202C388.326 325.202 388.909 325.347 389.404 325.636C389.899 325.925 390.267 326.289 390.51 326.728V325.328H391.798V333H390.51V331.572C390.258 332.02 389.88 332.393 389.376 332.692C388.881 332.981 388.303 333.126 387.64 333.126C386.959 333.126 386.343 332.958 385.792 332.622C385.241 332.286 384.807 331.815 384.49 331.208C384.173 330.601 384.014 329.911 384.014 329.136ZM390.51 329.15C390.51 328.571 390.393 328.067 390.16 327.638C389.927 327.209 389.609 326.882 389.208 326.658C388.816 326.425 388.382 326.308 387.906 326.308C387.43 326.308 386.996 326.42 386.604 326.644C386.212 326.868 385.899 327.195 385.666 327.624C385.433 328.053 385.316 328.557 385.316 329.136C385.316 329.724 385.433 330.237 385.666 330.676C385.899 331.105 386.212 331.437 386.604 331.67C386.996 331.894 387.43 332.006 387.906 332.006C388.382 332.006 388.816 331.894 389.208 331.67C389.609 331.437 389.927 331.105 390.16 330.676C390.393 330.237 390.51 329.729 390.51 329.15ZM395.225 326.574C395.449 326.135 395.766 325.795 396.177 325.552C396.597 325.309 397.106 325.188 397.703 325.188V326.504H397.367C395.939 326.504 395.225 327.279 395.225 328.828V333H393.951V325.328H395.225V326.574ZM398.698 329.136C398.698 328.352 398.856 327.666 399.174 327.078C399.491 326.481 399.925 326.019 400.476 325.692C401.036 325.365 401.661 325.202 402.352 325.202C402.949 325.202 403.504 325.342 404.018 325.622C404.531 325.893 404.923 326.252 405.194 326.7V322.64H406.482V333H405.194V331.558C404.942 332.015 404.568 332.393 404.074 332.692C403.579 332.981 403 333.126 402.338 333.126C401.656 333.126 401.036 332.958 400.476 332.622C399.925 332.286 399.491 331.815 399.174 331.208C398.856 330.601 398.698 329.911 398.698 329.136ZM405.194 329.15C405.194 328.571 405.077 328.067 404.844 327.638C404.61 327.209 404.293 326.882 403.892 326.658C403.5 326.425 403.066 326.308 402.59 326.308C402.114 326.308 401.68 326.42 401.288 326.644C400.896 326.868 400.583 327.195 400.35 327.624C400.116 328.053 400 328.557 400 329.136C400 329.724 400.116 330.237 400.35 330.676C400.583 331.105 400.896 331.437 401.288 331.67C401.68 331.894 402.114 332.006 402.59 332.006C403.066 332.006 403.5 331.894 403.892 331.67C404.293 331.437 404.61 331.105 404.844 330.676C405.077 330.237 405.194 329.729 405.194 329.15Z" fill="#212427"/>
</g>
<g filter="url(#filter2_d_50_3973)">
<rect x="436.5" y="312.5" width="139" height="31" rx="5.5" stroke="black" stroke-opacity="0.15" shape-rendering="crispEdges"/>
<path d="M454 328C454 326.409 454.632 324.883 455.757 323.757C456.883 322.632 458.409 322 460 322C461.677 322.006 463.287 322.661 464.493 323.827L466 325.333" stroke="#212427" stroke-width="1.33333" stroke-linecap="round" stroke-linejoin="round"/>
<path d="M466 322V325.333H462.667" stroke="#212427" stroke-width="1.33333" stroke-linecap="round" stroke-linejoin="round"/>
<path d="M466 328C466 329.591 465.368 331.117 464.243 332.243C463.117 333.368 461.591 334 460 334C458.323 333.994 456.713 333.339 455.507 332.173L454 330.667" stroke="#212427" stroke-width="1.33333" stroke-linecap="round" stroke-linejoin="round"/>
<path d="M457.333 330.667H454V334" stroke="#212427" stroke-width="1.33333" stroke-linecap="round" stroke-linejoin="round"/>
<path d="M482.216 333L479.892 329.01H478.352V333H477.078V323.242H480.228C480.965 323.242 481.586 323.368 482.09 323.62C482.603 323.872 482.986 324.213 483.238 324.642C483.49 325.071 483.616 325.561 483.616 326.112C483.616 326.784 483.42 327.377 483.028 327.89C482.645 328.403 482.067 328.744 481.292 328.912L483.742 333H482.216ZM478.352 327.988H480.228C480.919 327.988 481.437 327.82 481.782 327.484C482.127 327.139 482.3 326.681 482.3 326.112C482.3 325.533 482.127 325.085 481.782 324.768C481.446 324.451 480.928 324.292 480.228 324.292H478.352V327.988ZM492.4 325.328V333H491.126V331.866C490.883 332.258 490.542 332.566 490.104 332.79C489.674 333.005 489.198 333.112 488.676 333.112C488.078 333.112 487.542 332.991 487.066 332.748C486.59 332.496 486.212 332.123 485.932 331.628C485.661 331.133 485.526 330.531 485.526 329.822V325.328H486.786V329.654C486.786 330.41 486.977 330.993 487.36 331.404C487.742 331.805 488.265 332.006 488.928 332.006C489.609 332.006 490.146 331.796 490.538 331.376C490.93 330.956 491.126 330.345 491.126 329.542V325.328H492.4ZM498.289 325.188C499.222 325.188 499.978 325.473 500.557 326.042C501.135 326.602 501.425 327.414 501.425 328.478V333H500.165V328.66C500.165 327.895 499.973 327.311 499.591 326.91C499.208 326.499 498.685 326.294 498.023 326.294C497.351 326.294 496.814 326.504 496.413 326.924C496.021 327.344 495.825 327.955 495.825 328.758V333H494.551V325.328H495.825V326.42C496.077 326.028 496.417 325.725 496.847 325.51C497.285 325.295 497.766 325.188 498.289 325.188ZM506.762 329.136C506.762 328.352 506.921 327.666 507.238 327.078C507.555 326.481 507.989 326.019 508.54 325.692C509.1 325.365 509.721 325.202 510.402 325.202C511.074 325.202 511.657 325.347 512.152 325.636C512.647 325.925 513.015 326.289 513.258 326.728V325.328H514.546V333H513.258V331.572C513.006 332.02 512.628 332.393 512.124 332.692C511.629 332.981 511.051 333.126 510.388 333.126C509.707 333.126 509.091 332.958 508.54 332.622C507.989 332.286 507.555 331.815 507.238 331.208C506.921 330.601 506.762 329.911 506.762 329.136ZM513.258 329.15C513.258 328.571 513.141 328.067 512.908 327.638C512.675 327.209 512.357 326.882 511.956 326.658C511.564 326.425 511.13 326.308 510.654 326.308C510.178 326.308 509.744 326.42 509.352 326.644C508.96 326.868 508.647 327.195 508.414 327.624C508.181 328.053 508.064 328.557 508.064 329.136C508.064 329.724 508.181 330.237 508.414 330.676C508.647 331.105 508.96 331.437 509.352 331.67C509.744 331.894 510.178 332.006 510.654 332.006C511.13 332.006 511.564 331.894 511.956 331.67C512.357 331.437 512.675 331.105 512.908 330.676C513.141 330.237 513.258 329.729 513.258 329.15ZM517.973 322.64V333H516.699V322.64H517.973ZM521.418 322.64V333H520.144V322.64H521.418ZM528.876 326.378V330.9C528.876 331.273 528.955 331.539 529.114 331.698C529.273 331.847 529.548 331.922 529.94 331.922H530.878V333H529.73C529.021 333 528.489 332.837 528.134 332.51C527.779 332.183 527.602 331.647 527.602 330.9V326.378H526.608V325.328H527.602V323.396H528.876V325.328H530.878V326.378H528.876ZM539.422 328.87C539.422 329.113 539.408 329.369 539.38 329.64H533.248C533.294 330.396 533.551 330.989 534.018 331.418C534.494 331.838 535.068 332.048 535.74 332.048C536.29 332.048 536.748 331.922 537.112 331.67C537.485 331.409 537.746 331.063 537.896 330.634H539.268C539.062 331.371 538.652 331.973 538.036 332.44C537.42 332.897 536.654 333.126 535.74 333.126C535.012 333.126 534.358 332.963 533.78 332.636C533.21 332.309 532.762 331.847 532.436 331.25C532.109 330.643 531.946 329.943 531.946 329.15C531.946 328.357 532.104 327.661 532.422 327.064C532.739 326.467 533.182 326.009 533.752 325.692C534.33 325.365 534.993 325.202 535.74 325.202C536.468 325.202 537.112 325.361 537.672 325.678C538.232 325.995 538.661 326.434 538.96 326.994C539.268 327.545 539.422 328.17 539.422 328.87ZM538.106 328.604C538.106 328.119 537.998 327.703 537.784 327.358C537.569 327.003 537.275 326.737 536.902 326.56C536.538 326.373 536.132 326.28 535.684 326.28C535.04 326.28 534.489 326.485 534.032 326.896C533.584 327.307 533.327 327.876 533.262 328.604H538.106ZM543.819 333.126C543.231 333.126 542.704 333.028 542.237 332.832C541.771 332.627 541.402 332.347 541.131 331.992C540.861 331.628 540.711 331.213 540.683 330.746H541.999C542.037 331.129 542.214 331.441 542.531 331.684C542.858 331.927 543.283 332.048 543.805 332.048C544.291 332.048 544.673 331.941 544.953 331.726C545.233 331.511 545.373 331.241 545.373 330.914C545.373 330.578 545.224 330.331 544.925 330.172C544.627 330.004 544.165 329.841 543.539 329.682C542.97 329.533 542.503 329.383 542.139 329.234C541.785 329.075 541.477 328.847 541.215 328.548C540.963 328.24 540.837 327.839 540.837 327.344C540.837 326.952 540.954 326.593 541.187 326.266C541.421 325.939 541.752 325.683 542.181 325.496C542.611 325.3 543.101 325.202 543.651 325.202C544.501 325.202 545.187 325.417 545.709 325.846C546.232 326.275 546.512 326.863 546.549 327.61H545.275C545.247 327.209 545.084 326.887 544.785 326.644C544.496 326.401 544.104 326.28 543.609 326.28C543.152 326.28 542.788 326.378 542.517 326.574C542.247 326.77 542.111 327.027 542.111 327.344C542.111 327.596 542.191 327.806 542.349 327.974C542.517 328.133 542.723 328.263 542.965 328.366C543.217 328.459 543.563 328.567 544.001 328.688C544.552 328.837 545 328.987 545.345 329.136C545.691 329.276 545.985 329.491 546.227 329.78C546.479 330.069 546.61 330.447 546.619 330.914C546.619 331.334 546.503 331.712 546.269 332.048C546.036 332.384 545.705 332.65 545.275 332.846C544.855 333.033 544.37 333.126 543.819 333.126ZM549.972 326.378V330.9C549.972 331.273 550.051 331.539 550.21 331.698C550.369 331.847 550.644 331.922 551.036 331.922H551.974V333H550.826C550.117 333 549.585 332.837 549.23 332.51C548.875 332.183 548.698 331.647 548.698 330.9V326.378H547.704V325.328H548.698V323.396H549.972V325.328H551.974V326.378H549.972ZM556.233 333.126C555.645 333.126 555.118 333.028 554.651 332.832C554.185 332.627 553.816 332.347 553.545 331.992C553.275 331.628 553.125 331.213 553.097 330.746H554.413C554.451 331.129 554.628 331.441 554.945 331.684C555.272 331.927 555.697 332.048 556.219 332.048C556.705 332.048 557.087 331.941 557.367 331.726C557.647 331.511 557.787 331.241 557.787 330.914C557.787 330.578 557.638 330.331 557.339 330.172C557.041 330.004 556.579 329.841 555.953 329.682C555.384 329.533 554.917 329.383 554.553 329.234C554.199 329.075 553.891 328.847 553.629 328.548C553.377 328.24 553.251 327.839 553.251 327.344C553.251 326.952 553.368 326.593 553.601 326.266C553.835 325.939 554.166 325.683 554.595 325.496C555.025 325.3 555.515 325.202 556.065 325.202C556.915 325.202 557.601 325.417 558.123 325.846C558.646 326.275 558.926 326.863 558.963 327.61H557.689C557.661 327.209 557.498 326.887 557.199 326.644C556.91 326.401 556.518 326.28 556.023 326.28C555.566 326.28 555.202 326.378 554.931 326.574C554.661 326.77 554.525 327.027 554.525 327.344C554.525 327.596 554.605 327.806 554.763 327.974C554.931 328.133 555.137 328.263 555.379 328.366C555.631 328.459 555.977 328.567 556.415 328.688C556.966 328.837 557.414 328.987 557.759 329.136C558.105 329.276 558.399 329.491 558.641 329.78C558.893 330.069 559.024 330.447 559.033 330.914C559.033 331.334 558.917 331.712 558.683 332.048C558.45 332.384 558.119 332.65 557.689 332.846C557.269 333.033 556.784 333.126 556.233 333.126Z" fill="#212427"/>
</g>
</g>
<defs>
<filter id="filter0_d_50_3973" x="24" y="312" width="217" height="34" filterUnits="userSpaceOnUse" color-interpolation-filters="sRGB">
<feFlood flood-opacity="0" result="BackgroundImageFix"/>
<feColorMatrix in="SourceAlpha" type="matrix" values="0 0 0 0 0 0 0 0 0 0 0 0 0 0 0 0 0 0 127 0" result="hardAlpha"/>
<feOffset dy="2"/>
<feComposite in2="hardAlpha" operator="out"/>
<feColorMatrix type="matrix" values="0 0 0 0 0 0 0 0 0 0 0 0 0 0 0 0 0 0 0.02 0"/>
<feBlend mode="normal" in2="BackgroundImageFix" result="effect1_dropShadow_50_3973"/>
<feBlend mode="normal" in="SourceGraphic" in2="effect1_dropShadow_50_3973" result="shape"/>
</filter>
<filter id="filter1_d_50_3973" x="253" y="312" width="171" height="34" filterUnits="userSpaceOnUse" color-interpolation-filters="sRGB">
<feFlood flood-opacity="0" result="BackgroundImageFix"/>
<feColorMatrix in="SourceAlpha" type="matrix" values="0 0 0 0 0 0 0 0 0 0 0 0 0 0 0 0 0 0 127 0" result="hardAlpha"/>
<feOffset dy="2"/>
<feComposite in2="hardAlpha" operator="out"/>
<feColorMatrix type="matrix" values="0 0 0 0 0 0 0 0 0 0 0 0 0 0 0 0 0 0 0.02 0"/>
<feBlend mode="normal" in2="BackgroundImageFix" result="effect1_dropShadow_50_3973"/>
<feBlend mode="normal" in="SourceGraphic" in2="effect1_dropShadow_50_3973" result="shape"/>
</filter>
<filter id="filter2_d_50_3973" x="436" y="312" width="140" height="34" filterUnits="userSpaceOnUse" color-interpolation-filters="sRGB">
<feFlood flood-opacity="0" result="BackgroundImageFix"/>
<feColorMatrix in="SourceAlpha" type="matrix" values="0 0 0 0 0 0 0 0 0 0 0 0 0 0 0 0 0 0 127 0" result="hardAlpha"/>
<feOffset dy="2"/>
<feComposite in2="hardAlpha" operator="out"/>
<feColorMatrix type="matrix" values="0 0 0 0 0 0 0 0 0 0 0 0 0 0 0 0 0 0 0.02 0"/>
<feBlend mode="normal" in2="BackgroundImageFix" result="effect1_dropShadow_50_3973"/>
<feBlend mode="normal" in="SourceGraphic" in2="effect1_dropShadow_50_3973" result="shape"/>
</filter>
<clipPath id="clip0_50_3973">
<rect width="600" height="360" rx="4" fill="white"/>
</clipPath>
<clipPath id="clip1_50_3973">
<rect width="16" height="16" fill="white" transform="translate(36 84)"/>
</clipPath>
<clipPath id="clip2_50_3973">
<rect width="16" height="16" fill="white" transform="translate(65 320)"/>
</clipPath>
</defs>
</svg>
