<svg width="600" height="360" viewBox="0 0 600 360" fill="none" xmlns="http://www.w3.org/2000/svg">
<g clip-path="url(#clip0_43_3843)">
<rect width="600" height="360" rx="4" fill="#FDFCFA"/>
<rect width="600" height="56" fill="#D6E6F7"/>
<path d="M276.493 35.1034C276.493 38.9485 274.155 41.512 270.601 41.512C268.835 41.512 267.445 40.8011 266.519 39.5302V41.372H262.889V23.891H266.519V30.5689C267.413 29.2979 268.802 28.5871 270.526 28.5871C274.08 28.5763 276.493 31.1936 276.493 35.1034ZM272.809 34.9849C272.809 32.96 271.538 31.4952 269.675 31.4952C267.811 31.4952 266.519 32.9277 266.519 34.9849C266.519 37.0744 267.811 38.4962 269.675 38.4962C271.538 38.5069 272.809 37.0637 272.809 34.9849Z" fill="#314F8F"/>
<path d="M291.787 35.0388C291.787 38.9055 289.051 41.5228 285.001 41.5228C280.919 41.5228 278.194 38.9055 278.194 35.0388C278.194 31.1505 280.93 28.5763 285.001 28.5763C289.062 28.5763 291.787 31.1505 291.787 35.0388ZM281.835 35.0819C281.835 37.1498 283.106 38.5716 284.991 38.5716C286.854 38.5716 288.147 37.1606 288.147 35.0819C288.147 33.0139 286.854 31.5921 284.991 31.5921C283.117 31.5921 281.835 33.0139 281.835 35.0819Z" fill="#314F8F"/>
<path d="M302.44 40.6611C301.492 41.2104 300.318 41.5336 299.144 41.5336C296.882 41.5336 295.159 40.2411 295.159 37.6238V31.7537H293.392V29.2549H295.159V25.7651H298.767V29.2549H302.213V31.7752H298.767V37.0098C298.767 38.0654 299.208 38.4962 299.995 38.4747C300.458 38.4747 301.029 38.3023 301.686 38.0115L302.44 40.6611Z" fill="#314F8F"/>
<path d="M312.887 40.6611C311.939 41.2104 310.765 41.5336 309.591 41.5336C307.33 41.5336 305.606 40.2411 305.606 37.6238V31.7537H303.84V29.2549H305.606V25.7651H309.214V29.2549H312.661V31.7752H309.214V37.0098C309.214 38.0654 309.656 38.4962 310.442 38.4747C310.905 38.4747 311.476 38.3023 312.133 38.0115L312.887 40.6611Z" fill="#314F8F"/>
<path d="M327.051 36.1373H317.95C318.37 37.7422 319.598 38.6792 321.224 38.6792C322.43 38.6792 323.561 38.2161 324.434 37.3329L326.34 39.2608C325.069 40.6718 323.206 41.5012 320.912 41.5012C316.851 41.5012 314.288 38.9054 314.288 35.0602C314.288 31.1504 316.948 28.5547 320.815 28.5547C325.285 28.5762 327.363 31.5166 327.051 36.1373ZM323.658 33.9939C323.615 32.3245 322.527 31.2366 320.847 31.2366C319.242 31.2366 318.165 32.3137 317.874 33.9939H323.658Z" fill="#314F8F"/>
<path d="M339.092 29.9442L337.843 32.4215C336.454 31.646 335.032 31.1936 333.976 31.1936C333.125 31.1936 332.512 31.4736 332.512 32.1414C332.512 34.0479 339.211 33.0893 339.189 37.5699C339.189 40.1657 336.906 41.5336 334.03 41.5336C331.984 41.5336 329.97 40.9196 328.537 39.7672L329.722 37.3114C331.047 38.3239 332.738 38.8947 334.138 38.8947C335.053 38.8947 335.743 38.5931 335.743 37.9038C335.743 35.8789 329.173 36.956 329.173 32.5076C329.173 29.8903 331.413 28.544 334.17 28.544C335.894 28.5332 337.682 29.0502 339.092 29.9442Z" fill="#314F8F"/>
<path d="M349.874 40.6611C348.926 41.2104 347.752 41.5336 346.578 41.5336C344.316 41.5336 342.593 40.2411 342.593 37.6238V31.7537H340.827V29.2549H342.593V25.7651H346.201V29.2549H349.648V31.7752H346.201V37.0098C346.201 38.0654 346.643 38.4962 347.429 38.4747C347.892 38.4747 348.463 38.3023 349.12 38.0115L349.874 40.6611Z" fill="#314F8F"/>
<path d="M353.665 40.6934C353.665 41.1888 353.288 41.5658 352.836 41.5658C352.384 41.5658 352.039 41.1888 352.039 40.6934C352.039 40.2302 352.395 39.864 352.836 39.864C353.278 39.864 353.665 40.2194 353.665 40.6934Z" fill="#314F8F"/>
<path d="M364.652 38.9486C363.618 40.6396 361.862 41.4043 359.751 41.4043C357.317 41.4043 355.69 39.8748 355.69 37.7961C355.69 35.7496 357.435 34.5002 360.257 34.5002H364.619V33.2939C364.598 31.2259 363.392 29.9765 360.947 29.9765C359.417 29.9765 358.114 30.5904 356.821 31.5813L356.358 30.8274C357.823 29.7719 359.234 29.0825 361.097 29.0825C363.995 29.0825 365.578 30.6874 365.6 33.2293L365.643 41.3828H364.673L364.652 38.9486ZM364.652 37.3653V35.3619H360.365C357.963 35.3619 356.638 36.1912 356.638 37.7638C356.638 39.3902 357.888 40.4996 359.891 40.4996C362.174 40.4996 363.898 39.5194 364.652 37.3653Z" fill="#314F8F"/>
<path d="M370.802 25.5605C370.802 26.0559 370.425 26.4329 369.972 26.4329C369.531 26.4329 369.143 26.0559 369.143 25.5605C369.143 25.0973 369.52 24.7096 369.972 24.7096C370.425 24.7096 370.802 25.0866 370.802 25.5605ZM369.477 41.3828V29.1041H370.446V41.3828H369.477Z" fill="#314F8F"/>
<path d="M253.227 28.0701H252.549V30.6227H253.227V28.0701Z" fill="black"/>
<path d="M247.939 39.0024L250.503 39.2178V37.6776H247.939V39.0024Z" fill="black"/>
<path d="M239.215 38.3023L241.778 38.507V37.7207H239.215V38.3023Z" fill="black"/>
<path d="M240.497 44H236.608C236.318 44 236.081 43.7631 236.081 43.4723V43.4615C236.081 42.3521 236.985 41.4473 238.095 41.4473H239.215V38.2915L241.768 38.4854V42.7291C241.778 43.4292 241.207 44 240.497 44Z" fill="#388AEB"/>
<path d="M249.221 44H253.11C253.4 44 253.637 43.763 253.637 43.4722V43.4614C253.637 42.352 252.733 41.4473 251.623 41.4473H250.503V39.1424L247.95 38.9485V42.7183C247.94 43.4291 248.51 44 249.221 44Z" fill="#388AEB"/>
<path d="M251.127 37.7529H238.59C237.782 37.7529 237.136 37.0959 237.136 36.2988V25.2911C237.136 21.7044 240.066 18.7748 243.653 18.7748H246.087C249.673 18.7748 252.603 21.7044 252.603 25.2911V36.2988C252.592 37.0959 251.925 37.7529 251.127 37.7529Z" fill="#388AEB"/>
<path d="M236.339 28.0592C233.13 28.0592 230.512 30.6765 230.512 33.8862V35.9973C229.726 36.5143 229.198 37.3975 229.198 38.41C229.198 39.7779 230.168 40.9519 231.503 41.2319C231.568 41.2427 231.622 41.2427 231.686 41.2427C232.117 41.2427 232.494 40.9411 232.58 40.5103C232.623 40.2733 232.58 40.0256 232.451 39.8317C232.311 39.6271 232.117 39.487 231.88 39.444C231.385 39.347 231.04 38.9054 231.04 38.41C231.04 37.8283 231.514 37.3544 232.096 37.3544C232.537 37.3544 232.936 37.6345 233.086 38.033C233.173 38.2592 233.345 38.4423 233.56 38.5392C233.787 38.6361 234.024 38.6469 234.261 38.5607C234.724 38.3884 234.971 37.8499 234.788 37.3867C234.487 36.5897 233.851 35.9865 233.076 35.6957V33.8755C233.076 32.0767 234.551 30.6011 236.35 30.6011H239.161V28.0485H236.339V28.0592Z" fill="#388AEB"/>
<path d="M260.509 20.2719C260.509 18.904 259.539 17.73 258.204 17.45C258.139 17.4392 258.085 17.4392 258.021 17.4392C257.59 17.4392 257.213 17.7408 257.127 18.1716C257.084 18.4086 257.127 18.6563 257.256 18.8502C257.396 19.0548 257.59 19.1949 257.827 19.2379C258.322 19.3349 258.667 19.7765 258.667 20.2719C258.667 20.8536 258.193 21.3275 257.611 21.3275C257.17 21.3275 256.771 21.0474 256.62 20.6489C256.534 20.4227 256.362 20.2396 256.146 20.1427C255.931 20.0457 255.683 20.035 255.446 20.1211C254.983 20.2935 254.736 20.832 254.919 21.2952C255.22 22.0922 255.856 22.6954 256.631 22.9862V24.8064C256.631 26.6052 255.156 28.0807 253.357 28.0807H253.206V30.6334H253.378C256.588 30.6334 259.205 28.0161 259.205 24.8064V22.6954C259.992 22.1676 260.509 21.2844 260.509 20.2719Z" fill="#388AEB"/>
<path d="M244.859 36.2127C245.287 36.2127 245.634 35.8655 245.634 35.4372C245.634 35.0089 245.287 34.6617 244.859 34.6617C244.431 34.6617 244.083 35.0089 244.083 35.4372C244.083 35.8655 244.431 36.2127 244.859 36.2127Z" fill="#314F8F"/>
<path d="M248.693 36.2127C249.122 36.2127 249.469 35.8655 249.469 35.4372C249.469 35.0089 249.122 34.6617 248.693 34.6617C248.265 34.6617 247.918 35.0089 247.918 35.4372C247.918 35.8655 248.265 36.2127 248.693 36.2127Z" fill="#314F8F"/>
<path d="M241.025 36.2127C241.453 36.2127 241.8 35.8655 241.8 35.4372C241.8 35.0089 241.453 34.6617 241.025 34.6617C240.596 34.6617 240.249 35.0089 240.249 35.4372C240.249 35.8655 240.596 36.2127 241.025 36.2127Z" fill="#314F8F"/>
<path d="M253.034 19.0979H251.709C251.117 16.4699 249.049 14.3911 246.421 13.8095V12.8509C246.421 12.3878 246.033 12 245.57 12H244.17C243.706 12 243.319 12.3878 243.319 12.8509V13.8095C243.168 13.9172 243.125 14.0141 242.985 14.0572C242.812 14.1003 242.565 14.1219 242.414 14.0788C240.217 14.8973 238.536 16.7822 238.019 19.1087H236.695C236.231 19.1087 235.844 19.4965 235.844 19.9596V21.3598C235.844 21.823 236.231 22.2107 236.695 22.2107H253.034C253.497 22.2107 253.885 21.823 253.885 21.3598V19.9596C253.874 19.4749 253.497 19.0979 253.034 19.0979Z" fill="#314F8F"/>
<path d="M243.319 17.1269V13.788C243.017 13.8526 242.705 13.9495 242.414 14.0572L243.319 17.1269Z" fill="black"/>
<path d="M248.058 23.3848H241.649C240.357 23.3848 239.312 24.4295 239.312 25.722V29.2225C239.312 30.515 240.357 31.5598 241.649 31.5598H244.17L247.25 33.8109C247.509 34.0048 247.875 33.8216 247.875 33.4985V31.5706H248.047C249.34 31.5706 250.384 30.5258 250.384 29.2333V25.7328C250.395 24.4295 249.35 23.3848 248.058 23.3848Z" fill="white"/>
<path d="M242.22 28.5331C241.638 28.5331 241.154 28.0592 241.154 27.4668V26.5513C241.154 25.9697 241.628 25.485 242.22 25.485C242.802 25.485 243.286 25.9589 243.286 26.5513V27.4668C243.276 28.0592 242.802 28.5331 242.22 28.5331Z" fill="black"/>
<path d="M247.498 28.5331C248.08 28.5331 248.564 28.0592 248.564 27.4668V26.5513C248.564 25.9697 248.09 25.485 247.498 25.485C246.916 25.485 246.432 25.9589 246.432 26.5513V27.4668C246.442 28.0592 246.916 28.5331 247.498 28.5331Z" fill="black"/>
<path d="M240.711 200.5L237.351 194.662H235.524V200.5H233.13V185.905H238.17C239.29 185.905 240.235 186.101 241.005 186.493C241.789 186.885 242.37 187.41 242.748 188.068C243.14 188.726 243.336 189.461 243.336 190.273C243.336 191.225 243.056 192.093 242.496 192.877C241.95 193.647 241.103 194.172 239.955 194.452L243.567 200.5H240.711ZM235.524 192.751H238.17C239.066 192.751 239.738 192.527 240.186 192.079C240.648 191.631 240.879 191.029 240.879 190.273C240.879 189.517 240.655 188.929 240.207 188.509C239.759 188.075 239.08 187.858 238.17 187.858H235.524V192.751ZM256.878 188.929V200.5H254.484V199.135C254.106 199.611 253.609 199.989 252.993 200.269C252.391 200.535 251.747 200.668 251.061 200.668C250.151 200.668 249.332 200.479 248.604 200.101C247.89 199.723 247.323 199.163 246.903 198.421C246.497 197.679 246.294 196.783 246.294 195.733V188.929H248.667V195.376C248.667 196.412 248.926 197.21 249.444 197.77C249.962 198.316 250.669 198.589 251.565 198.589C252.461 198.589 253.168 198.316 253.686 197.77C254.218 197.21 254.484 196.412 254.484 195.376V188.929H256.878ZM265.874 188.74C266.784 188.74 267.596 188.929 268.31 189.307C269.038 189.685 269.605 190.245 270.011 190.987C270.417 191.729 270.62 192.625 270.62 193.675V200.5H268.247V194.032C268.247 192.996 267.988 192.205 267.47 191.659C266.952 191.099 266.245 190.819 265.349 190.819C264.453 190.819 263.739 191.099 263.207 191.659C262.689 192.205 262.43 192.996 262.43 194.032V200.5H260.036V188.929H262.43V190.252C262.822 189.776 263.319 189.405 263.921 189.139C264.537 188.873 265.188 188.74 265.874 188.74ZM279.512 188.74C280.422 188.74 281.234 188.929 281.948 189.307C282.676 189.685 283.243 190.245 283.649 190.987C284.055 191.729 284.258 192.625 284.258 193.675V200.5H281.885V194.032C281.885 192.996 281.626 192.205 281.108 191.659C280.59 191.099 279.883 190.819 278.987 190.819C278.091 190.819 277.377 191.099 276.845 191.659C276.327 192.205 276.068 192.996 276.068 194.032V200.5H273.674V188.929H276.068V190.252C276.46 189.776 276.957 189.405 277.559 189.139C278.175 188.873 278.826 188.74 279.512 188.74ZM288.53 187.396C288.096 187.396 287.732 187.249 287.438 186.955C287.144 186.661 286.997 186.297 286.997 185.863C286.997 185.429 287.144 185.065 287.438 184.771C287.732 184.477 288.096 184.33 288.53 184.33C288.95 184.33 289.307 184.477 289.601 184.771C289.895 185.065 290.042 185.429 290.042 185.863C290.042 186.297 289.895 186.661 289.601 186.955C289.307 187.249 288.95 187.396 288.53 187.396ZM289.706 188.929V200.5H287.312V188.929H289.706ZM298.687 188.74C299.597 188.74 300.409 188.929 301.123 189.307C301.851 189.685 302.418 190.245 302.824 190.987C303.23 191.729 303.433 192.625 303.433 193.675V200.5H301.06V194.032C301.06 192.996 300.801 192.205 300.283 191.659C299.765 191.099 299.058 190.819 298.162 190.819C297.266 190.819 296.552 191.099 296.02 191.659C295.502 192.205 295.243 192.996 295.243 194.032V200.5H292.849V188.929H295.243V190.252C295.635 189.776 296.132 189.405 296.734 189.139C297.35 188.873 298.001 188.74 298.687 188.74ZM311.149 188.74C312.045 188.74 312.836 188.922 313.522 189.286C314.222 189.636 314.768 190.077 315.16 190.609V188.929H317.575V200.689C317.575 201.753 317.351 202.698 316.903 203.524C316.455 204.364 315.804 205.022 314.95 205.498C314.11 205.974 313.102 206.212 311.926 206.212C310.358 206.212 309.056 205.841 308.02 205.099C306.984 204.371 306.396 203.377 306.256 202.117H308.629C308.811 202.719 309.196 203.202 309.784 203.566C310.386 203.944 311.1 204.133 311.926 204.133C312.892 204.133 313.669 203.839 314.257 203.251C314.859 202.663 315.16 201.809 315.16 200.689V198.757C314.754 199.303 314.201 199.765 313.501 200.143C312.815 200.507 312.031 200.689 311.149 200.689C310.141 200.689 309.217 200.437 308.377 199.933C307.551 199.415 306.893 198.701 306.403 197.791C305.927 196.867 305.689 195.824 305.689 194.662C305.689 193.5 305.927 192.471 306.403 191.575C306.893 190.679 307.551 189.986 308.377 189.496C309.217 188.992 310.141 188.74 311.149 188.74ZM315.16 194.704C315.16 193.906 314.992 193.213 314.656 192.625C314.334 192.037 313.907 191.589 313.375 191.281C312.843 190.973 312.269 190.819 311.653 190.819C311.037 190.819 310.463 190.973 309.931 191.281C309.399 191.575 308.965 192.016 308.629 192.604C308.307 193.178 308.146 193.864 308.146 194.662C308.146 195.46 308.307 196.16 308.629 196.762C308.965 197.364 309.399 197.826 309.931 198.148C310.477 198.456 311.051 198.61 311.653 198.61C312.269 198.61 312.843 198.456 313.375 198.148C313.907 197.84 314.334 197.392 314.656 196.804C314.992 196.202 315.16 195.502 315.16 194.704ZM335.603 185.905V187.858H331.718V200.5H329.324V187.858H325.418V185.905H335.603ZM348.633 194.431C348.633 194.865 348.605 195.257 348.549 195.607H339.708C339.778 196.531 340.121 197.273 340.737 197.833C341.353 198.393 342.109 198.673 343.005 198.673C344.293 198.673 345.203 198.134 345.735 197.056H348.318C347.968 198.12 347.331 198.995 346.407 199.681C345.497 200.353 344.363 200.689 343.005 200.689C341.899 200.689 340.905 200.444 340.023 199.954C339.155 199.45 338.469 198.75 337.965 197.854C337.475 196.944 337.23 195.894 337.23 194.704C337.23 193.514 337.468 192.471 337.944 191.575C338.434 190.665 339.113 189.965 339.981 189.475C340.863 188.985 341.871 188.74 343.005 188.74C344.097 188.74 345.07 188.978 345.924 189.454C346.778 189.93 347.443 190.602 347.919 191.47C348.395 192.324 348.633 193.311 348.633 194.431ZM346.134 193.675C346.12 192.793 345.805 192.086 345.189 191.554C344.573 191.022 343.81 190.756 342.9 190.756C342.074 190.756 341.367 191.022 340.779 191.554C340.191 192.072 339.841 192.779 339.729 193.675H346.134ZM355.189 200.689C354.279 200.689 353.46 200.528 352.732 200.206C352.018 199.87 351.451 199.422 351.031 198.862C350.611 198.288 350.387 197.651 350.359 196.951H352.837C352.879 197.441 353.11 197.854 353.53 198.19C353.964 198.512 354.503 198.673 355.147 198.673C355.819 198.673 356.337 198.547 356.701 198.295C357.079 198.029 357.268 197.693 357.268 197.287C357.268 196.853 357.058 196.531 356.638 196.321C356.232 196.111 355.581 195.88 354.685 195.628C353.817 195.39 353.11 195.159 352.564 194.935C352.018 194.711 351.542 194.368 351.136 193.906C350.744 193.444 350.548 192.835 350.548 192.079C350.548 191.463 350.73 190.903 351.094 190.399C351.458 189.881 351.976 189.475 352.648 189.181C353.334 188.887 354.118 188.74 355 188.74C356.316 188.74 357.373 189.076 358.171 189.748C358.983 190.406 359.417 191.309 359.473 192.457H357.079C357.037 191.939 356.827 191.526 356.449 191.218C356.071 190.91 355.56 190.756 354.916 190.756C354.286 190.756 353.803 190.875 353.467 191.113C353.131 191.351 352.963 191.666 352.963 192.058C352.963 192.366 353.075 192.625 353.299 192.835C353.523 193.045 353.796 193.213 354.118 193.339C354.44 193.451 354.916 193.598 355.546 193.78C356.386 194.004 357.072 194.235 357.604 194.473C358.15 194.697 358.619 195.033 359.011 195.481C359.403 195.929 359.606 196.524 359.62 197.266C359.62 197.924 359.438 198.512 359.074 199.03C358.71 199.548 358.192 199.954 357.52 200.248C356.862 200.542 356.085 200.689 355.189 200.689ZM364.999 190.882V197.287C364.999 197.721 365.097 198.036 365.293 198.232C365.503 198.414 365.853 198.505 366.343 198.505H367.813V200.5H365.923C364.845 200.5 364.019 200.248 363.445 199.744C362.871 199.24 362.584 198.421 362.584 197.287V190.882H361.219V188.929H362.584V186.052H364.999V188.929H367.813V190.882H364.999Z" fill="#212427"/>
<path d="M146.679 224.136V225.024H144.399V232.5H143.307V225.024H141.015V224.136H146.679ZM151.288 225.804C151.784 225.804 152.232 225.912 152.632 226.128C153.032 226.336 153.344 226.652 153.568 227.076C153.8 227.5 153.916 228.016 153.916 228.624V232.5H152.836V228.78C152.836 228.124 152.672 227.624 152.344 227.28C152.016 226.928 151.568 226.752 151 226.752C150.424 226.752 149.964 226.932 149.62 227.292C149.284 227.652 149.116 228.176 149.116 228.864V232.5H148.024V223.62H149.116V226.86C149.332 226.524 149.628 226.264 150.004 226.08C150.388 225.896 150.816 225.804 151.288 225.804ZM161.699 228.96C161.699 229.168 161.687 229.388 161.663 229.62H156.407C156.447 230.268 156.667 230.776 157.067 231.144C157.475 231.504 157.967 231.684 158.543 231.684C159.015 231.684 159.407 231.576 159.719 231.36C160.039 231.136 160.263 230.84 160.391 230.472H161.567C161.391 231.104 161.039 231.62 160.511 232.02C159.983 232.412 159.327 232.608 158.543 232.608C157.919 232.608 157.359 232.468 156.863 232.188C156.375 231.908 155.991 231.512 155.711 231C155.431 230.48 155.291 229.88 155.291 229.2C155.291 228.52 155.427 227.924 155.699 227.412C155.971 226.9 156.351 226.508 156.839 226.236C157.335 225.956 157.903 225.816 158.543 225.816C159.167 225.816 159.719 225.952 160.199 226.224C160.679 226.496 161.047 226.872 161.303 227.352C161.567 227.824 161.699 228.36 161.699 228.96ZM160.571 228.732C160.571 228.316 160.479 227.96 160.295 227.664C160.111 227.36 159.859 227.132 159.539 226.98C159.227 226.82 158.879 226.74 158.495 226.74C157.943 226.74 157.471 226.916 157.079 227.268C156.695 227.62 156.475 228.108 156.419 228.732H160.571ZM171.488 224.136V225.024H169.208V232.5H168.116V225.024H165.824V224.136H171.488ZM178.832 228.96C178.832 229.168 178.82 229.388 178.796 229.62H173.54C173.58 230.268 173.8 230.776 174.2 231.144C174.608 231.504 175.1 231.684 175.676 231.684C176.148 231.684 176.54 231.576 176.852 231.36C177.172 231.136 177.396 230.84 177.524 230.472H178.7C178.524 231.104 178.172 231.62 177.644 232.02C177.116 232.412 176.46 232.608 175.676 232.608C175.052 232.608 174.492 232.468 173.996 232.188C173.508 231.908 173.124 231.512 172.844 231C172.564 230.48 172.424 229.88 172.424 229.2C172.424 228.52 172.56 227.924 172.832 227.412C173.104 226.9 173.484 226.508 173.972 226.236C174.468 225.956 175.036 225.816 175.676 225.816C176.3 225.816 176.852 225.952 177.332 226.224C177.812 226.496 178.18 226.872 178.436 227.352C178.7 227.824 178.832 228.36 178.832 228.96ZM177.704 228.732C177.704 228.316 177.612 227.96 177.428 227.664C177.244 227.36 176.992 227.132 176.672 226.98C176.36 226.82 176.012 226.74 175.628 226.74C175.076 226.74 174.604 226.916 174.212 227.268C173.828 227.62 173.608 228.108 173.552 228.732H177.704ZM182.602 232.608C182.098 232.608 181.646 232.524 181.246 232.356C180.846 232.18 180.53 231.94 180.298 231.636C180.066 231.324 179.938 230.968 179.914 230.568H181.042C181.074 230.896 181.226 231.164 181.498 231.372C181.778 231.58 182.142 231.684 182.59 231.684C183.006 231.684 183.334 231.592 183.574 231.408C183.814 231.224 183.934 230.992 183.934 230.712C183.934 230.424 183.806 230.212 183.55 230.076C183.294 229.932 182.898 229.792 182.362 229.656C181.874 229.528 181.474 229.4 181.162 229.272C180.858 229.136 180.594 228.94 180.37 228.684C180.154 228.42 180.046 228.076 180.046 227.652C180.046 227.316 180.146 227.008 180.346 226.728C180.546 226.448 180.83 226.228 181.198 226.068C181.566 225.9 181.986 225.816 182.458 225.816C183.186 225.816 183.774 226 184.222 226.368C184.67 226.736 184.91 227.24 184.942 227.88H183.85C183.826 227.536 183.686 227.26 183.43 227.052C183.182 226.844 182.846 226.74 182.422 226.74C182.03 226.74 181.718 226.824 181.486 226.992C181.254 227.16 181.138 227.38 181.138 227.652C181.138 227.868 181.206 228.048 181.342 228.192C181.486 228.328 181.662 228.44 181.87 228.528C182.086 228.608 182.382 228.7 182.758 228.804C183.23 228.932 183.614 229.06 183.91 229.188C184.206 229.308 184.458 229.492 184.666 229.74C184.882 229.988 184.994 230.312 185.002 230.712C185.002 231.072 184.902 231.396 184.702 231.684C184.502 231.972 184.218 232.2 183.85 232.368C183.49 232.528 183.074 232.608 182.602 232.608ZM187.875 226.824V230.7C187.875 231.02 187.943 231.248 188.079 231.384C188.215 231.512 188.451 231.576 188.787 231.576H189.591V232.5H188.607C187.999 232.5 187.543 232.36 187.239 232.08C186.935 231.8 186.783 231.34 186.783 230.7V226.824H185.931V225.924H186.783V224.268H187.875V225.924H189.591V226.824H187.875ZM194.677 224.856C194.469 224.856 194.293 224.784 194.149 224.64C194.005 224.496 193.933 224.32 193.933 224.112C193.933 223.904 194.005 223.728 194.149 223.584C194.293 223.44 194.469 223.368 194.677 223.368C194.877 223.368 195.045 223.44 195.181 223.584C195.325 223.728 195.397 223.904 195.397 224.112C195.397 224.32 195.325 224.496 195.181 224.64C195.045 224.784 194.877 224.856 194.677 224.856ZM195.205 225.924V232.5H194.113V225.924H195.205ZM199.395 232.608C198.891 232.608 198.439 232.524 198.039 232.356C197.639 232.18 197.323 231.94 197.091 231.636C196.859 231.324 196.731 230.968 196.707 230.568H197.835C197.867 230.896 198.019 231.164 198.291 231.372C198.571 231.58 198.935 231.684 199.383 231.684C199.799 231.684 200.127 231.592 200.367 231.408C200.607 231.224 200.727 230.992 200.727 230.712C200.727 230.424 200.599 230.212 200.343 230.076C200.087 229.932 199.691 229.792 199.155 229.656C198.667 229.528 198.267 229.4 197.955 229.272C197.651 229.136 197.387 228.94 197.163 228.684C196.947 228.42 196.839 228.076 196.839 227.652C196.839 227.316 196.939 227.008 197.139 226.728C197.339 226.448 197.623 226.228 197.991 226.068C198.359 225.9 198.779 225.816 199.251 225.816C199.979 225.816 200.567 226 201.015 226.368C201.463 226.736 201.703 227.24 201.735 227.88H200.643C200.619 227.536 200.479 227.26 200.223 227.052C199.975 226.844 199.639 226.74 199.215 226.74C198.823 226.74 198.511 226.824 198.279 226.992C198.047 227.16 197.931 227.38 197.931 227.652C197.931 227.868 197.999 228.048 198.135 228.192C198.279 228.328 198.455 228.44 198.663 228.528C198.879 228.608 199.175 228.7 199.551 228.804C200.023 228.932 200.407 229.06 200.703 229.188C200.999 229.308 201.251 229.492 201.459 229.74C201.675 229.988 201.787 230.312 201.795 230.712C201.795 231.072 201.695 231.396 201.495 231.684C201.295 231.972 201.011 232.2 200.643 232.368C200.283 232.528 199.867 232.608 199.395 232.608ZM209.739 225.804C210.539 225.804 211.187 226.048 211.683 226.536C212.179 227.016 212.427 227.712 212.427 228.624V232.5H211.347V228.78C211.347 228.124 211.183 227.624 210.855 227.28C210.527 226.928 210.079 226.752 209.511 226.752C208.935 226.752 208.475 226.932 208.131 227.292C207.795 227.652 207.627 228.176 207.627 228.864V232.5H206.535V225.924H207.627V226.86C207.843 226.524 208.135 226.264 208.503 226.08C208.879 225.896 209.291 225.804 209.739 225.804ZM217.079 232.608C216.463 232.608 215.903 232.468 215.399 232.188C214.903 231.908 214.511 231.512 214.223 231C213.943 230.48 213.803 229.88 213.803 229.2C213.803 228.528 213.947 227.936 214.235 227.424C214.531 226.904 214.931 226.508 215.435 226.236C215.939 225.956 216.503 225.816 217.127 225.816C217.751 225.816 218.315 225.956 218.819 226.236C219.323 226.508 219.719 226.9 220.007 227.412C220.303 227.924 220.451 228.52 220.451 229.2C220.451 229.88 220.299 230.48 219.995 231C219.699 231.512 219.295 231.908 218.783 232.188C218.271 232.468 217.703 232.608 217.079 232.608ZM217.079 231.648C217.471 231.648 217.839 231.556 218.183 231.372C218.527 231.188 218.803 230.912 219.011 230.544C219.227 230.176 219.335 229.728 219.335 229.2C219.335 228.672 219.231 228.224 219.023 227.856C218.815 227.488 218.543 227.216 218.207 227.04C217.871 226.856 217.507 226.764 217.115 226.764C216.715 226.764 216.347 226.856 216.011 227.04C215.683 227.216 215.419 227.488 215.219 227.856C215.019 228.224 214.919 228.672 214.919 229.2C214.919 229.736 215.015 230.188 215.207 230.556C215.407 230.924 215.671 231.2 215.999 231.384C216.327 231.56 216.687 231.648 217.079 231.648ZM230.647 225.924L228.595 232.5H227.467L225.883 227.28L224.299 232.5H223.171L221.107 225.924H222.223L223.735 231.444L225.367 225.924H226.483L228.079 231.456L229.567 225.924H230.647ZM236.022 226.992C236.214 226.616 236.486 226.324 236.838 226.116C237.198 225.908 237.634 225.804 238.146 225.804V226.932H237.858C236.634 226.932 236.022 227.596 236.022 228.924V232.5H234.93V225.924H236.022V226.992ZM245.238 225.924V232.5H244.146V231.528C243.938 231.864 243.646 232.128 243.27 232.32C242.902 232.504 242.494 232.596 242.046 232.596C241.534 232.596 241.074 232.492 240.666 232.284C240.258 232.068 239.934 231.748 239.694 231.324C239.462 230.9 239.346 230.384 239.346 229.776V225.924H240.426V229.632C240.426 230.28 240.59 230.78 240.918 231.132C241.246 231.476 241.694 231.648 242.262 231.648C242.846 231.648 243.306 231.468 243.642 231.108C243.978 230.748 244.146 230.224 244.146 229.536V225.924H245.238ZM250.286 225.804C251.086 225.804 251.734 226.048 252.23 226.536C252.726 227.016 252.974 227.712 252.974 228.624V232.5H251.894V228.78C251.894 228.124 251.73 227.624 251.402 227.28C251.074 226.928 250.626 226.752 250.058 226.752C249.482 226.752 249.022 226.932 248.678 227.292C248.342 227.652 248.174 228.176 248.174 228.864V232.5H247.082V225.924H248.174V226.86C248.39 226.524 248.682 226.264 249.05 226.08C249.426 225.896 249.838 225.804 250.286 225.804ZM257.962 225.804C258.762 225.804 259.41 226.048 259.906 226.536C260.402 227.016 260.65 227.712 260.65 228.624V232.5H259.57V228.78C259.57 228.124 259.406 227.624 259.078 227.28C258.75 226.928 258.302 226.752 257.734 226.752C257.158 226.752 256.698 226.932 256.354 227.292C256.018 227.652 255.85 228.176 255.85 228.864V232.5H254.758V225.924H255.85V226.86C256.066 226.524 256.358 226.264 256.726 226.08C257.102 225.896 257.514 225.804 257.962 225.804ZM262.998 224.856C262.79 224.856 262.614 224.784 262.47 224.64C262.326 224.496 262.254 224.32 262.254 224.112C262.254 223.904 262.326 223.728 262.47 223.584C262.614 223.44 262.79 223.368 262.998 223.368C263.198 223.368 263.366 223.44 263.502 223.584C263.646 223.728 263.718 223.904 263.718 224.112C263.718 224.32 263.646 224.496 263.502 224.64C263.366 224.784 263.198 224.856 262.998 224.856ZM263.526 225.924V232.5H262.434V225.924H263.526ZM268.591 225.804C269.391 225.804 270.039 226.048 270.535 226.536C271.031 227.016 271.279 227.712 271.279 228.624V232.5H270.199V228.78C270.199 228.124 270.035 227.624 269.707 227.28C269.379 226.928 268.931 226.752 268.363 226.752C267.787 226.752 267.327 226.932 266.983 227.292C266.647 227.652 266.479 228.176 266.479 228.864V232.5H265.387V225.924H266.479V226.86C266.695 226.524 266.987 226.264 267.355 226.08C267.731 225.896 268.143 225.804 268.591 225.804ZM275.775 225.816C276.343 225.816 276.839 225.94 277.263 226.188C277.695 226.436 278.015 226.748 278.223 227.124V225.924H279.327V232.644C279.327 233.244 279.199 233.776 278.943 234.24C278.687 234.712 278.319 235.08 277.839 235.344C277.367 235.608 276.815 235.74 276.183 235.74C275.319 235.74 274.599 235.536 274.023 235.128C273.447 234.72 273.107 234.164 273.003 233.46H274.083C274.203 233.86 274.451 234.18 274.827 234.42C275.203 234.668 275.655 234.792 276.183 234.792C276.783 234.792 277.271 234.604 277.647 234.228C278.031 233.852 278.223 233.324 278.223 232.644V231.264C278.007 231.648 277.687 231.968 277.263 232.224C276.839 232.48 276.343 232.608 275.775 232.608C275.191 232.608 274.659 232.464 274.179 232.176C273.707 231.888 273.335 231.484 273.063 230.964C272.791 230.444 272.655 229.852 272.655 229.188C272.655 228.516 272.791 227.928 273.063 227.424C273.335 226.912 273.707 226.516 274.179 226.236C274.659 225.956 275.191 225.816 275.775 225.816ZM278.223 229.2C278.223 228.704 278.123 228.272 277.923 227.904C277.723 227.536 277.451 227.256 277.107 227.064C276.771 226.864 276.399 226.764 275.991 226.764C275.583 226.764 275.211 226.86 274.875 227.052C274.539 227.244 274.271 227.524 274.071 227.892C273.871 228.26 273.771 228.692 273.771 229.188C273.771 229.692 273.871 230.132 274.071 230.508C274.271 230.876 274.539 231.16 274.875 231.36C275.211 231.552 275.583 231.648 275.991 231.648C276.399 231.648 276.771 231.552 277.107 231.36C277.451 231.16 277.723 230.876 277.923 230.508C278.123 230.132 278.223 229.696 278.223 229.2ZM282.3 230.988L280.956 234.216H280.224L281.1 230.988H282.3ZM287.842 223.62V232.5H286.75V223.62H287.842ZM295.703 228.96C295.703 229.168 295.691 229.388 295.667 229.62H290.411C290.451 230.268 290.671 230.776 291.071 231.144C291.479 231.504 291.971 231.684 292.547 231.684C293.019 231.684 293.411 231.576 293.723 231.36C294.043 231.136 294.267 230.84 294.395 230.472H295.571C295.395 231.104 295.043 231.62 294.515 232.02C293.987 232.412 293.331 232.608 292.547 232.608C291.923 232.608 291.363 232.468 290.867 232.188C290.379 231.908 289.995 231.512 289.715 231C289.435 230.48 289.295 229.88 289.295 229.2C289.295 228.52 289.431 227.924 289.703 227.412C289.975 226.9 290.355 226.508 290.843 226.236C291.339 225.956 291.907 225.816 292.547 225.816C293.171 225.816 293.723 225.952 294.203 226.224C294.683 226.496 295.051 226.872 295.307 227.352C295.571 227.824 295.703 228.36 295.703 228.96ZM294.575 228.732C294.575 228.316 294.483 227.96 294.299 227.664C294.115 227.36 293.863 227.132 293.543 226.98C293.231 226.82 292.883 226.74 292.499 226.74C291.947 226.74 291.475 226.916 291.083 227.268C290.699 227.62 290.479 228.108 290.423 228.732H294.575ZM298.477 226.824V230.7C298.477 231.02 298.545 231.248 298.681 231.384C298.817 231.512 299.053 231.576 299.389 231.576H300.193V232.5H299.209C298.601 232.5 298.145 232.36 297.841 232.08C297.537 231.8 297.385 231.34 297.385 230.7V226.824H296.533V225.924H297.385V224.268H298.477V225.924H300.193V226.824H298.477ZM306.047 226.824V230.7C306.047 231.02 306.115 231.248 306.251 231.384C306.387 231.512 306.623 231.576 306.959 231.576H307.763V232.5H306.779C306.171 232.5 305.715 232.36 305.411 232.08C305.107 231.8 304.955 231.34 304.955 230.7V226.824H304.103V225.924H304.955V224.268H306.047V225.924H307.763V226.824H306.047ZM312.35 225.804C312.846 225.804 313.294 225.912 313.694 226.128C314.094 226.336 314.406 226.652 314.63 227.076C314.862 227.5 314.978 228.016 314.978 228.624V232.5H313.898V228.78C313.898 228.124 313.734 227.624 313.406 227.28C313.078 226.928 312.63 226.752 312.062 226.752C311.486 226.752 311.026 226.932 310.682 227.292C310.346 227.652 310.178 228.176 310.178 228.864V232.5H309.086V223.62H310.178V226.86C310.394 226.524 310.69 226.264 311.066 226.08C311.45 225.896 311.878 225.804 312.35 225.804ZM322.762 228.96C322.762 229.168 322.75 229.388 322.726 229.62H317.47C317.51 230.268 317.73 230.776 318.13 231.144C318.538 231.504 319.03 231.684 319.606 231.684C320.078 231.684 320.47 231.576 320.782 231.36C321.102 231.136 321.326 230.84 321.454 230.472H322.63C322.454 231.104 322.102 231.62 321.574 232.02C321.046 232.412 320.39 232.608 319.606 232.608C318.982 232.608 318.422 232.468 317.926 232.188C317.438 231.908 317.054 231.512 316.774 231C316.494 230.48 316.354 229.88 316.354 229.2C316.354 228.52 316.49 227.924 316.762 227.412C317.034 226.9 317.414 226.508 317.902 226.236C318.398 225.956 318.966 225.816 319.606 225.816C320.23 225.816 320.782 225.952 321.262 226.224C321.742 226.496 322.11 226.872 322.366 227.352C322.63 227.824 322.762 228.36 322.762 228.96ZM321.634 228.732C321.634 228.316 321.542 227.96 321.358 227.664C321.174 227.36 320.922 227.132 320.602 226.98C320.29 226.82 319.942 226.74 319.558 226.74C319.006 226.74 318.534 226.916 318.142 227.268C317.758 227.62 317.538 228.108 317.482 228.732H321.634ZM326.995 229.2C326.995 228.52 327.131 227.928 327.403 227.424C327.675 226.912 328.051 226.516 328.531 226.236C329.019 225.956 329.575 225.816 330.199 225.816C331.007 225.816 331.671 226.012 332.191 226.404C332.719 226.796 333.067 227.34 333.235 228.036H332.059C331.947 227.636 331.727 227.32 331.399 227.088C331.079 226.856 330.679 226.74 330.199 226.74C329.575 226.74 329.071 226.956 328.687 227.388C328.303 227.812 328.111 228.416 328.111 229.2C328.111 229.992 328.303 230.604 328.687 231.036C329.071 231.468 329.575 231.684 330.199 231.684C330.679 231.684 331.079 231.572 331.399 231.348C331.719 231.124 331.939 230.804 332.059 230.388H333.235C333.059 231.06 332.707 231.6 332.179 232.008C331.651 232.408 330.991 232.608 330.199 232.608C329.575 232.608 329.019 232.468 328.531 232.188C328.051 231.908 327.675 231.512 327.403 231C327.131 230.488 326.995 229.888 326.995 229.2ZM337.56 232.608C336.944 232.608 336.384 232.468 335.88 232.188C335.384 231.908 334.992 231.512 334.704 231C334.424 230.48 334.284 229.88 334.284 229.2C334.284 228.528 334.428 227.936 334.716 227.424C335.012 226.904 335.412 226.508 335.916 226.236C336.42 225.956 336.984 225.816 337.608 225.816C338.232 225.816 338.796 225.956 339.3 226.236C339.804 226.508 340.2 226.9 340.488 227.412C340.784 227.924 340.932 228.52 340.932 229.2C340.932 229.88 340.78 230.48 340.476 231C340.18 231.512 339.776 231.908 339.264 232.188C338.752 232.468 338.184 232.608 337.56 232.608ZM337.56 231.648C337.952 231.648 338.32 231.556 338.664 231.372C339.008 231.188 339.284 230.912 339.492 230.544C339.708 230.176 339.816 229.728 339.816 229.2C339.816 228.672 339.712 228.224 339.504 227.856C339.296 227.488 339.024 227.216 338.688 227.04C338.352 226.856 337.988 226.764 337.596 226.764C337.196 226.764 336.828 226.856 336.492 227.04C336.164 227.216 335.9 227.488 335.7 227.856C335.5 228.224 335.4 228.672 335.4 229.2C335.4 229.736 335.496 230.188 335.688 230.556C335.888 230.924 336.152 231.2 336.48 231.384C336.808 231.56 337.168 231.648 337.56 231.648ZM345.571 225.804C346.371 225.804 347.019 226.048 347.515 226.536C348.011 227.016 348.259 227.712 348.259 228.624V232.5H347.179V228.78C347.179 228.124 347.015 227.624 346.687 227.28C346.359 226.928 345.911 226.752 345.343 226.752C344.767 226.752 344.307 226.932 343.963 227.292C343.627 227.652 343.459 228.176 343.459 228.864V232.5H342.367V225.924H343.459V226.86C343.675 226.524 343.967 226.264 344.335 226.08C344.711 225.896 345.123 225.804 345.571 225.804ZM352.491 231.492L354.531 225.924H355.695L353.115 232.5H351.843L349.263 225.924H350.439L352.491 231.492ZM362.77 228.96C362.77 229.168 362.758 229.388 362.734 229.62H357.478C357.518 230.268 357.738 230.776 358.138 231.144C358.546 231.504 359.038 231.684 359.614 231.684C360.086 231.684 360.478 231.576 360.79 231.36C361.11 231.136 361.334 230.84 361.462 230.472H362.638C362.462 231.104 362.11 231.62 361.582 232.02C361.054 232.412 360.398 232.608 359.614 232.608C358.99 232.608 358.43 232.468 357.934 232.188C357.446 231.908 357.062 231.512 356.782 231C356.502 230.48 356.362 229.88 356.362 229.2C356.362 228.52 356.498 227.924 356.77 227.412C357.042 226.9 357.422 226.508 357.91 226.236C358.406 225.956 358.974 225.816 359.614 225.816C360.238 225.816 360.79 225.952 361.27 226.224C361.75 226.496 362.118 226.872 362.374 227.352C362.638 227.824 362.77 228.36 362.77 228.96ZM361.642 228.732C361.642 228.316 361.55 227.96 361.366 227.664C361.182 227.36 360.93 227.132 360.61 226.98C360.298 226.82 359.95 226.74 359.566 226.74C359.014 226.74 358.542 226.916 358.15 227.268C357.766 227.62 357.546 228.108 357.49 228.732H361.642ZM365.303 226.992C365.495 226.616 365.767 226.324 366.119 226.116C366.479 225.908 366.915 225.804 367.427 225.804V226.932H367.139C365.915 226.932 365.303 227.596 365.303 228.924V232.5H364.211V225.924H365.303V226.992ZM371.016 232.608C370.512 232.608 370.06 232.524 369.66 232.356C369.26 232.18 368.944 231.94 368.712 231.636C368.48 231.324 368.352 230.968 368.328 230.568H369.456C369.488 230.896 369.64 231.164 369.912 231.372C370.192 231.58 370.556 231.684 371.004 231.684C371.42 231.684 371.748 231.592 371.988 231.408C372.228 231.224 372.348 230.992 372.348 230.712C372.348 230.424 372.22 230.212 371.964 230.076C371.708 229.932 371.312 229.792 370.776 229.656C370.288 229.528 369.888 229.4 369.576 229.272C369.272 229.136 369.008 228.94 368.784 228.684C368.568 228.42 368.46 228.076 368.46 227.652C368.46 227.316 368.56 227.008 368.76 226.728C368.96 226.448 369.244 226.228 369.612 226.068C369.98 225.9 370.4 225.816 370.872 225.816C371.6 225.816 372.188 226 372.636 226.368C373.084 226.736 373.324 227.24 373.356 227.88H372.264C372.24 227.536 372.1 227.26 371.844 227.052C371.596 226.844 371.26 226.74 370.836 226.74C370.444 226.74 370.132 226.824 369.9 226.992C369.668 227.16 369.552 227.38 369.552 227.652C369.552 227.868 369.62 228.048 369.756 228.192C369.9 228.328 370.076 228.44 370.284 228.528C370.5 228.608 370.796 228.7 371.172 228.804C371.644 228.932 372.028 229.06 372.324 229.188C372.62 229.308 372.872 229.492 373.08 229.74C373.296 229.988 373.408 230.312 373.416 230.712C373.416 231.072 373.316 231.396 373.116 231.684C372.916 231.972 372.632 232.2 372.264 232.368C371.904 232.528 371.488 232.608 371.016 232.608ZM374.549 229.188C374.549 228.516 374.685 227.928 374.957 227.424C375.229 226.912 375.601 226.516 376.073 226.236C376.553 225.956 377.085 225.816 377.669 225.816C378.245 225.816 378.745 225.94 379.169 226.188C379.593 226.436 379.909 226.748 380.117 227.124V225.924H381.221V232.5H380.117V231.276C379.901 231.66 379.577 231.98 379.145 232.236C378.721 232.484 378.225 232.608 377.657 232.608C377.073 232.608 376.545 232.464 376.073 232.176C375.601 231.888 375.229 231.484 374.957 230.964C374.685 230.444 374.549 229.852 374.549 229.188ZM380.117 229.2C380.117 228.704 380.017 228.272 379.817 227.904C379.617 227.536 379.345 227.256 379.001 227.064C378.665 226.864 378.293 226.764 377.885 226.764C377.477 226.764 377.105 226.86 376.769 227.052C376.433 227.244 376.165 227.524 375.965 227.892C375.765 228.26 375.665 228.692 375.665 229.188C375.665 229.692 375.765 230.132 375.965 230.508C376.165 230.876 376.433 231.16 376.769 231.36C377.105 231.552 377.477 231.648 377.885 231.648C378.293 231.648 378.665 231.552 379.001 231.36C379.345 231.16 379.617 230.876 379.817 230.508C380.017 230.132 380.117 229.696 380.117 229.2ZM384.399 226.824V230.7C384.399 231.02 384.467 231.248 384.603 231.384C384.739 231.512 384.975 231.576 385.311 231.576H386.115V232.5H385.131C384.523 232.5 384.067 232.36 383.763 232.08C383.459 231.8 383.307 231.34 383.307 230.7V226.824H382.455V225.924H383.307V224.268H384.399V225.924H386.115V226.824H384.399ZM388.002 224.856C387.794 224.856 387.618 224.784 387.474 224.64C387.33 224.496 387.258 224.32 387.258 224.112C387.258 223.904 387.33 223.728 387.474 223.584C387.618 223.44 387.794 223.368 388.002 223.368C388.202 223.368 388.37 223.44 388.506 223.584C388.65 223.728 388.722 223.904 388.722 224.112C388.722 224.32 388.65 224.496 388.506 224.64C388.37 224.784 388.202 224.856 388.002 224.856ZM388.53 225.924V232.5H387.438V225.924H388.53ZM393.259 232.608C392.643 232.608 392.083 232.468 391.579 232.188C391.083 231.908 390.691 231.512 390.403 231C390.123 230.48 389.983 229.88 389.983 229.2C389.983 228.528 390.127 227.936 390.415 227.424C390.711 226.904 391.111 226.508 391.615 226.236C392.119 225.956 392.683 225.816 393.307 225.816C393.931 225.816 394.495 225.956 394.999 226.236C395.503 226.508 395.899 226.9 396.187 227.412C396.483 227.924 396.631 228.52 396.631 229.2C396.631 229.88 396.479 230.48 396.175 231C395.879 231.512 395.475 231.908 394.963 232.188C394.451 232.468 393.883 232.608 393.259 232.608ZM393.259 231.648C393.651 231.648 394.019 231.556 394.363 231.372C394.707 231.188 394.983 230.912 395.191 230.544C395.407 230.176 395.515 229.728 395.515 229.2C395.515 228.672 395.411 228.224 395.203 227.856C394.995 227.488 394.723 227.216 394.387 227.04C394.051 226.856 393.687 226.764 393.295 226.764C392.895 226.764 392.527 226.856 392.191 227.04C391.863 227.216 391.599 227.488 391.399 227.856C391.199 228.224 391.099 228.672 391.099 229.2C391.099 229.736 391.195 230.188 391.387 230.556C391.587 230.924 391.851 231.2 392.179 231.384C392.507 231.56 392.867 231.648 393.259 231.648ZM401.271 225.804C402.071 225.804 402.719 226.048 403.215 226.536C403.711 227.016 403.959 227.712 403.959 228.624V232.5H402.879V228.78C402.879 228.124 402.715 227.624 402.387 227.28C402.059 226.928 401.611 226.752 401.043 226.752C400.467 226.752 400.007 226.932 399.663 227.292C399.327 227.652 399.159 228.176 399.159 228.864V232.5H398.067V225.924H399.159V226.86C399.375 226.524 399.667 226.264 400.035 226.08C400.411 225.896 400.823 225.804 401.271 225.804ZM410.034 227.136C410.25 226.76 410.57 226.448 410.994 226.2C411.426 225.944 411.926 225.816 412.494 225.816C413.078 225.816 413.606 225.956 414.078 226.236C414.558 226.516 414.934 226.912 415.206 227.424C415.478 227.928 415.614 228.516 415.614 229.188C415.614 229.852 415.478 230.444 415.206 230.964C414.934 231.484 414.558 231.888 414.078 232.176C413.606 232.464 413.078 232.608 412.494 232.608C411.934 232.608 411.438 232.484 411.006 232.236C410.582 231.98 410.258 231.664 410.034 231.288V235.62H408.942V225.924H410.034V227.136ZM414.498 229.188C414.498 228.692 414.398 228.26 414.198 227.892C413.998 227.524 413.726 227.244 413.382 227.052C413.046 226.86 412.674 226.764 412.266 226.764C411.866 226.764 411.494 226.864 411.15 227.064C410.814 227.256 410.542 227.54 410.334 227.916C410.134 228.284 410.034 228.712 410.034 229.2C410.034 229.696 410.134 230.132 410.334 230.508C410.542 230.876 410.814 231.16 411.15 231.36C411.494 231.552 411.866 231.648 412.266 231.648C412.674 231.648 413.046 231.552 413.382 231.36C413.726 231.16 413.998 230.876 414.198 230.508C414.398 230.132 414.498 229.692 414.498 229.188ZM418.143 223.62V232.5H417.051V223.62H418.143ZM419.596 229.188C419.596 228.516 419.732 227.928 420.004 227.424C420.276 226.912 420.648 226.516 421.12 226.236C421.6 225.956 422.132 225.816 422.716 225.816C423.292 225.816 423.792 225.94 424.216 226.188C424.64 226.436 424.956 226.748 425.164 227.124V225.924H426.268V232.5H425.164V231.276C424.948 231.66 424.624 231.98 424.192 232.236C423.768 232.484 423.272 232.608 422.704 232.608C422.12 232.608 421.592 232.464 421.12 232.176C420.648 231.888 420.276 231.484 420.004 230.964C419.732 230.444 419.596 229.852 419.596 229.188ZM425.164 229.2C425.164 228.704 425.064 228.272 424.864 227.904C424.664 227.536 424.392 227.256 424.048 227.064C423.712 226.864 423.34 226.764 422.932 226.764C422.524 226.764 422.152 226.86 421.816 227.052C421.48 227.244 421.212 227.524 421.012 227.892C420.812 228.26 420.712 228.692 420.712 229.188C420.712 229.692 420.812 230.132 421.012 230.508C421.212 230.876 421.48 231.16 421.816 231.36C422.152 231.552 422.524 231.648 422.932 231.648C423.34 231.648 423.712 231.552 424.048 231.36C424.392 231.16 424.664 230.876 424.864 230.508C425.064 230.132 425.164 229.696 425.164 229.2ZM433.777 225.924L429.817 235.596H428.689L429.985 232.428L427.333 225.924H428.545L430.609 231.252L432.649 225.924H433.777ZM440.942 232.608C440.326 232.608 439.766 232.468 439.262 232.188C438.766 231.908 438.374 231.512 438.086 231C437.806 230.48 437.666 229.88 437.666 229.2C437.666 228.528 437.81 227.936 438.098 227.424C438.394 226.904 438.794 226.508 439.298 226.236C439.802 225.956 440.366 225.816 440.99 225.816C441.614 225.816 442.178 225.956 442.682 226.236C443.186 226.508 443.582 226.9 443.87 227.412C444.166 227.924 444.314 228.52 444.314 229.2C444.314 229.88 444.162 230.48 443.858 231C443.562 231.512 443.158 231.908 442.646 232.188C442.134 232.468 441.566 232.608 440.942 232.608ZM440.942 231.648C441.334 231.648 441.702 231.556 442.046 231.372C442.39 231.188 442.666 230.912 442.874 230.544C443.09 230.176 443.198 229.728 443.198 229.2C443.198 228.672 443.094 228.224 442.886 227.856C442.678 227.488 442.406 227.216 442.07 227.04C441.734 226.856 441.37 226.764 440.978 226.764C440.578 226.764 440.21 226.856 439.874 227.04C439.546 227.216 439.282 227.488 439.082 227.856C438.882 228.224 438.782 228.672 438.782 229.2C438.782 229.736 438.878 230.188 439.07 230.556C439.27 230.924 439.534 231.2 439.862 231.384C440.19 231.56 440.55 231.648 440.942 231.648ZM451.582 225.924V232.5H450.49V231.528C450.282 231.864 449.99 232.128 449.614 232.32C449.246 232.504 448.838 232.596 448.39 232.596C447.878 232.596 447.418 232.492 447.01 232.284C446.602 232.068 446.278 231.748 446.038 231.324C445.806 230.9 445.69 230.384 445.69 229.776V225.924H446.77V229.632C446.77 230.28 446.934 230.78 447.262 231.132C447.59 231.476 448.038 231.648 448.606 231.648C449.19 231.648 449.65 231.468 449.986 231.108C450.322 230.748 450.49 230.224 450.49 229.536V225.924H451.582ZM454.758 226.824V230.7C454.758 231.02 454.826 231.248 454.962 231.384C455.098 231.512 455.334 231.576 455.67 231.576H456.474V232.5H455.49C454.882 232.5 454.426 232.36 454.122 232.08C453.818 231.8 453.666 231.34 453.666 230.7V226.824H452.814V225.924H453.666V224.268H454.758V225.924H456.474V226.824H454.758ZM458.145 232.572C457.937 232.572 457.761 232.5 457.617 232.356C457.473 232.212 457.401 232.036 457.401 231.828C457.401 231.62 457.473 231.444 457.617 231.3C457.761 231.156 457.937 231.084 458.145 231.084C458.345 231.084 458.513 231.156 458.649 231.3C458.793 231.444 458.865 231.62 458.865 231.828C458.865 232.036 458.793 232.212 458.649 232.356C458.513 232.5 458.345 232.572 458.145 232.572Z" fill="#212427"/>
</g>
<defs>
<clipPath id="clip0_43_3843">
<rect width="600" height="360" rx="4" fill="white"/>
</clipPath>
</defs>
</svg>
