<svg width="540" height="40" viewBox="0 0 540 40" fill="none" xmlns="http://www.w3.org/2000/svg">
<mask id="path-1-inside-1_51_3589" fill="white">
<path d="M0 0H540V40H0V0Z"/>
</mask>
<path d="M0 0H540V40H0V0Z" fill="black" fill-opacity="0.04"/>
<path d="M540 39H0V41H540V39Z" fill="black" fill-opacity="0.06" mask="url(#path-1-inside-1_51_3589)"/>
<g opacity="0.25" clip-path="url(#clip0_51_3589)">
<path d="M19.9997 26.6667C23.6816 26.6667 26.6663 23.6819 26.6663 20C26.6663 16.3181 23.6816 13.3333 19.9997 13.3333C16.3178 13.3333 13.333 16.3181 13.333 20C13.333 23.6819 16.3178 26.6667 19.9997 26.6667Z" stroke="#212427" stroke-width="1.33333" stroke-linecap="round" stroke-linejoin="round"/>
<path d="M18.667 17.3333L22.667 20L18.667 22.6667V17.3333Z" stroke="#212427" stroke-width="1.33333" stroke-linecap="round" stroke-linejoin="round"/>
</g>
<path opacity="0.25" d="M52.544 14.928V26H51.088V17.744L47.408 26H46.384L42.688 17.728V26H41.232V14.928H42.8L46.896 24.08L50.992 14.928H52.544ZM62.5653 17.232L57.2853 30.128H55.7812L57.5093 25.904L53.9733 17.232H55.5893L58.3413 24.336L61.0613 17.232H62.5653ZM71.3985 26.144C70.7265 26.144 70.1238 26.032 69.5905 25.808C69.0572 25.5733 68.6358 25.2533 68.3265 24.848C68.0172 24.432 67.8465 23.9573 67.8145 23.424H69.3185C69.3612 23.8613 69.5638 24.2187 69.9265 24.496C70.2998 24.7733 70.7852 24.912 71.3825 24.912C71.9372 24.912 72.3745 24.7893 72.6945 24.544C73.0145 24.2987 73.1745 23.9893 73.1745 23.616C73.1745 23.232 73.0038 22.9493 72.6625 22.768C72.3212 22.576 71.7932 22.3893 71.0785 22.208C70.4278 22.0373 69.8945 21.8667 69.4785 21.696C69.0732 21.5147 68.7212 21.2533 68.4225 20.912C68.1345 20.56 67.9905 20.1013 67.9905 19.536C67.9905 19.088 68.1238 18.6773 68.3905 18.304C68.6572 17.9307 69.0358 17.6373 69.5265 17.424C70.0172 17.2 70.5772 17.088 71.2065 17.088C72.1772 17.088 72.9612 17.3333 73.5585 17.824C74.1558 18.3147 74.4758 18.9867 74.5185 19.84H73.0625C73.0305 19.3813 72.8438 19.0133 72.5025 18.736C72.1718 18.4587 71.7238 18.32 71.1585 18.32C70.6358 18.32 70.2198 18.432 69.9105 18.656C69.6012 18.88 69.4465 19.1733 69.4465 19.536C69.4465 19.824 69.5372 20.064 69.7185 20.256C69.9105 20.4373 70.1452 20.5867 70.4225 20.704C70.7105 20.8107 71.1052 20.9333 71.6065 21.072C72.2358 21.2427 72.7478 21.4133 73.1425 21.584C73.5372 21.744 73.8732 21.9893 74.1505 22.32C74.4385 22.6507 74.5878 23.0827 74.5985 23.616C74.5985 24.096 74.4652 24.528 74.1985 24.912C73.9318 25.296 73.5532 25.6 73.0625 25.824C72.5825 26.0373 72.0278 26.144 71.3985 26.144ZM84.6539 21.28C84.6539 21.5573 84.6379 21.8507 84.6059 22.16H77.5979C77.6512 23.024 77.9445 23.7013 78.4779 24.192C79.0219 24.672 79.6779 24.912 80.4459 24.912C81.0752 24.912 81.5979 24.768 82.0139 24.48C82.4405 24.1813 82.7392 23.7867 82.9099 23.296H84.4779C84.2432 24.1387 83.7739 24.8267 83.0699 25.36C82.3659 25.8827 81.4912 26.144 80.4459 26.144C79.6139 26.144 78.8672 25.9573 78.2059 25.584C77.5552 25.2107 77.0432 24.6827 76.6699 24C76.2965 23.3067 76.1099 22.5067 76.1099 21.6C76.1099 20.6933 76.2912 19.8987 76.6539 19.216C77.0165 18.5333 77.5232 18.0107 78.1739 17.648C78.8352 17.2747 79.5925 17.088 80.4459 17.088C81.2779 17.088 82.0139 17.2693 82.6539 17.632C83.2939 17.9947 83.7845 18.496 84.1259 19.136C84.4779 19.7653 84.6539 20.48 84.6539 21.28ZM83.1499 20.976C83.1499 20.4213 83.0272 19.9467 82.7819 19.552C82.5365 19.1467 82.2005 18.8427 81.7739 18.64C81.3579 18.4267 80.8939 18.32 80.3819 18.32C79.6459 18.32 79.0165 18.5547 78.4939 19.024C77.9819 19.4933 77.6885 20.144 77.6139 20.976H83.1499ZM86.0318 21.6C86.0318 20.6933 86.2131 19.904 86.5758 19.232C86.9384 18.5493 87.4398 18.0213 88.0798 17.648C88.7304 17.2747 89.4718 17.088 90.3038 17.088C91.3811 17.088 92.2664 17.3493 92.9598 17.872C93.6638 18.3947 94.1278 19.12 94.3518 20.048H92.7838C92.6344 19.5147 92.3411 19.0933 91.9038 18.784C91.4771 18.4747 90.9438 18.32 90.3038 18.32C89.4718 18.32 88.7998 18.608 88.2878 19.184C87.7758 19.7493 87.5198 20.5547 87.5198 21.6C87.5198 22.656 87.7758 23.472 88.2878 24.048C88.7998 24.624 89.4718 24.912 90.3038 24.912C90.9438 24.912 91.4771 24.7627 91.9038 24.464C92.3304 24.1653 92.6238 23.7387 92.7838 23.184H94.3518C94.1171 24.08 93.6478 24.8 92.9438 25.344C92.2398 25.8773 91.3598 26.144 90.3038 26.144C89.4718 26.144 88.7304 25.9573 88.0798 25.584C87.4398 25.2107 86.9384 24.6827 86.5758 24C86.2131 23.3173 86.0318 22.5173 86.0318 21.6ZM100.119 26.144C99.2972 26.144 98.5505 25.9573 97.8785 25.584C97.2172 25.2107 96.6945 24.6827 96.3105 24C95.9372 23.3067 95.7505 22.5067 95.7505 21.6C95.7505 20.704 95.9425 19.9147 96.3265 19.232C96.7212 18.5387 97.2545 18.0107 97.9265 17.648C98.5985 17.2747 99.3505 17.088 100.183 17.088C101.015 17.088 101.767 17.2747 102.439 17.648C103.111 18.0107 103.639 18.5333 104.023 19.216C104.417 19.8987 104.615 20.6933 104.615 21.6C104.615 22.5067 104.412 23.3067 104.007 24C103.612 24.6827 103.073 25.2107 102.391 25.584C101.708 25.9573 100.951 26.144 100.119 26.144ZM100.119 24.864C100.641 24.864 101.132 24.7413 101.591 24.496C102.049 24.2507 102.417 23.8827 102.695 23.392C102.983 22.9013 103.127 22.304 103.127 21.6C103.127 20.896 102.988 20.2987 102.711 19.808C102.433 19.3173 102.071 18.9547 101.623 18.72C101.175 18.4747 100.689 18.352 100.167 18.352C99.6332 18.352 99.1425 18.4747 98.6945 18.72C98.2572 18.9547 97.9052 19.3173 97.6385 19.808C97.3718 20.2987 97.2385 20.896 97.2385 21.6C97.2385 22.3147 97.3665 22.9173 97.6225 23.408C97.8892 23.8987 98.2412 24.2667 98.6785 24.512C99.1158 24.7467 99.5958 24.864 100.119 24.864ZM110.801 17.072C111.868 17.072 112.732 17.3973 113.393 18.048C114.054 18.688 114.385 19.616 114.385 20.832V26H112.945V21.04C112.945 20.1653 112.726 19.4987 112.289 19.04C111.852 18.5707 111.254 18.336 110.497 18.336C109.729 18.336 109.116 18.576 108.657 19.056C108.209 19.536 107.985 20.2347 107.985 21.152V26H106.529V17.232H107.985V18.48C108.273 18.032 108.662 17.6853 109.153 17.44C109.654 17.1947 110.204 17.072 110.801 17.072ZM116.219 21.584C116.219 20.688 116.401 19.904 116.763 19.232C117.126 18.5493 117.622 18.0213 118.251 17.648C118.891 17.2747 119.606 17.088 120.395 17.088C121.078 17.088 121.713 17.248 122.299 17.568C122.886 17.8773 123.334 18.288 123.643 18.8V14.16H125.115V26H123.643V24.352C123.355 24.8747 122.929 25.3067 122.363 25.648C121.798 25.9787 121.137 26.144 120.379 26.144C119.601 26.144 118.891 25.952 118.251 25.568C117.622 25.184 117.126 24.6453 116.763 23.952C116.401 23.2587 116.219 22.4693 116.219 21.584ZM123.643 21.6C123.643 20.9387 123.51 20.3627 123.243 19.872C122.977 19.3813 122.614 19.008 122.155 18.752C121.707 18.4853 121.211 18.352 120.667 18.352C120.123 18.352 119.627 18.48 119.179 18.736C118.731 18.992 118.374 19.3653 118.107 19.856C117.841 20.3467 117.707 20.9227 117.707 21.584C117.707 22.256 117.841 22.8427 118.107 23.344C118.374 23.8347 118.731 24.2133 119.179 24.48C119.627 24.736 120.123 24.864 120.667 24.864C121.211 24.864 121.707 24.736 122.155 24.48C122.614 24.2133 122.977 23.8347 123.243 23.344C123.51 22.8427 123.643 22.2613 123.643 21.6ZM133.617 18.432V23.6C133.617 24.0267 133.708 24.3307 133.889 24.512C134.071 24.6827 134.385 24.768 134.833 24.768H135.905V26H134.593C133.783 26 133.175 25.8133 132.769 25.44C132.364 25.0667 132.161 24.4533 132.161 23.6V18.432H131.025V17.232H132.161V15.024H133.617V17.232H135.905V18.432H133.617ZM145.67 21.28C145.67 21.5573 145.654 21.8507 145.622 22.16H138.614C138.667 23.024 138.96 23.7013 139.494 24.192C140.038 24.672 140.694 24.912 141.462 24.912C142.091 24.912 142.614 24.768 143.03 24.48C143.456 24.1813 143.755 23.7867 143.926 23.296H145.494C145.259 24.1387 144.79 24.8267 144.086 25.36C143.382 25.8827 142.507 26.144 141.462 26.144C140.63 26.144 139.883 25.9573 139.222 25.584C138.571 25.2107 138.059 24.6827 137.686 24C137.312 23.3067 137.126 22.5067 137.126 21.6C137.126 20.6933 137.307 19.8987 137.67 19.216C138.032 18.5333 138.539 18.0107 139.19 17.648C139.851 17.2747 140.608 17.088 141.462 17.088C142.294 17.088 143.03 17.2693 143.67 17.632C144.31 17.9947 144.8 18.496 145.142 19.136C145.494 19.7653 145.67 20.48 145.67 21.28ZM144.166 20.976C144.166 20.4213 144.043 19.9467 143.798 19.552C143.552 19.1467 143.216 18.8427 142.79 18.64C142.374 18.4267 141.91 18.32 141.398 18.32C140.662 18.32 140.032 18.5547 139.51 19.024C138.998 19.4933 138.704 20.144 138.63 20.976H144.166ZM150.695 26.144C150.023 26.144 149.421 26.032 148.887 25.808C148.354 25.5733 147.933 25.2533 147.623 24.848C147.314 24.432 147.143 23.9573 147.111 23.424H148.615C148.658 23.8613 148.861 24.2187 149.223 24.496C149.597 24.7733 150.082 24.912 150.679 24.912C151.234 24.912 151.671 24.7893 151.991 24.544C152.311 24.2987 152.471 23.9893 152.471 23.616C152.471 23.232 152.301 22.9493 151.959 22.768C151.618 22.576 151.09 22.3893 150.375 22.208C149.725 22.0373 149.191 21.8667 148.775 21.696C148.37 21.5147 148.018 21.2533 147.719 20.912C147.431 20.56 147.287 20.1013 147.287 19.536C147.287 19.088 147.421 18.6773 147.687 18.304C147.954 17.9307 148.333 17.6373 148.823 17.424C149.314 17.2 149.874 17.088 150.503 17.088C151.474 17.088 152.258 17.3333 152.855 17.824C153.453 18.3147 153.773 18.9867 153.815 19.84H152.359C152.327 19.3813 152.141 19.0133 151.799 18.736C151.469 18.4587 151.021 18.32 150.455 18.32C149.933 18.32 149.517 18.432 149.207 18.656C148.898 18.88 148.743 19.1733 148.743 19.536C148.743 19.824 148.834 20.064 149.015 20.256C149.207 20.4373 149.442 20.5867 149.719 20.704C150.007 20.8107 150.402 20.9333 150.903 21.072C151.533 21.2427 152.045 21.4133 152.439 21.584C152.834 21.744 153.17 21.9893 153.447 22.32C153.735 22.6507 153.885 23.0827 153.895 23.616C153.895 24.096 153.762 24.528 153.495 24.912C153.229 25.296 152.85 25.6 152.359 25.824C151.879 26.0373 151.325 26.144 150.695 26.144ZM157.727 18.432V23.6C157.727 24.0267 157.817 24.3307 157.999 24.512C158.18 24.6827 158.495 24.768 158.943 24.768H160.015V26H158.703C157.892 26 157.284 25.8133 156.879 25.44C156.473 25.0667 156.271 24.4533 156.271 23.6V18.432H155.135V17.232H156.271V15.024H157.727V17.232H160.015V18.432H157.727Z" fill="#212427"/>
<circle cx="521" cy="20" r="7" fill="#E1654A"/>
<defs>
<clipPath id="clip0_51_3589">
<rect width="16" height="16" fill="white" transform="translate(12 12)"/>
</clipPath>
</defs>
</svg>
