<svg width="280" height="200" viewBox="0 0 280 200" fill="none" xmlns="http://www.w3.org/2000/svg">
<g filter="url(#filter0_d_3317_15419)">
<g clip-path="url(#clip0_3317_15419)">
<rect x="-320" width="600" height="360" rx="4" fill="#FDFCFA"/>
<rect width="600" height="56" transform="translate(-320)" fill="#D6E6F7"/>
<path d="M244 29C244.552 29 245 28.5523 245 28C245 27.4477 244.552 27 244 27C243.448 27 243 27.4477 243 28C243 28.5523 243.448 29 244 29Z" stroke="#212427" stroke-width="2" stroke-linecap="round" stroke-linejoin="round"/>
<path d="M251 29C251.552 29 252 28.5523 252 28C252 27.4477 251.552 27 251 27C250.448 27 250 27.4477 250 28C250 28.5523 250.448 29 251 29Z" stroke="#212427" stroke-width="2" stroke-linecap="round" stroke-linejoin="round"/>
<path d="M237 29C237.552 29 238 28.5523 238 28C238 27.4477 237.552 27 237 27C236.448 27 236 27.4477 236 28C236 28.5523 236.448 29 237 29Z" stroke="#212427" stroke-width="2" stroke-linecap="round" stroke-linejoin="round"/>
<g clip-path="url(#clip1_3317_15419)">
<mask id="path-7-inside-1_3317_15419" fill="white">
<path d="M-296 72H244V112H-296V72Z"/>
</mask>
<path d="M244 111H-296V113H244V111Z" fill="black" fill-opacity="0.06" mask="url(#path-7-inside-1_3317_15419)"/>
<circle cx="225" cy="92" r="6" stroke="black" stroke-opacity="0.06" stroke-width="2"/>
<path d="M225 86C226.187 86 227.347 86.3519 228.333 87.0112C229.32 87.6705 230.089 88.6076 230.543 89.7039C230.997 90.8003 231.116 92.0067 230.885 93.1706C230.653 94.3344 230.082 95.4035 229.243 96.2427C228.404 97.0818 227.334 97.6532 226.171 97.8847C225.007 98.1162 223.8 97.9974 222.704 97.5433C221.608 97.0892 220.67 96.3201 220.011 95.3334C219.352 94.3467 219 93.1867 219 92" stroke="#E7C200" stroke-width="2"/>
<mask id="path-11-inside-2_3317_15419" fill="white">
<path d="M-296 112H244V152H-296V112Z"/>
</mask>
<path d="M-296 112H244V152H-296V112Z" fill="black" fill-opacity="0.04"/>
<path d="M244 151H-296V153H244V151Z" fill="black" fill-opacity="0.06" mask="url(#path-11-inside-2_3317_15419)"/>
<circle cx="225" cy="132" r="7" fill="#E1654A"/>
<mask id="path-14-inside-3_3317_15419" fill="white">
<path d="M-296 152H244V192H-296V152Z"/>
</mask>
<path d="M244 191H-296V193H244V191Z" fill="black" fill-opacity="0.06" mask="url(#path-14-inside-3_3317_15419)"/>
<circle cx="225" cy="172" r="7" fill="#54CA6E"/>
<mask id="path-17-inside-4_3317_15419" fill="white">
<path d="M-296 192H244V232H-296V192Z"/>
</mask>
<path d="M244 231H-296V233H244V231Z" fill="black" fill-opacity="0.06" mask="url(#path-17-inside-4_3317_15419)"/>
<rect width="12" height="224" transform="translate(244 72)" fill="black" fill-opacity="0.05"/>
<rect x="247" y="75" width="6" height="100" rx="3" fill="black" fill-opacity="0.15"/>
</g>
<rect x="-295.5" y="72.5" width="551" height="223" rx="5.5" stroke="black" stroke-opacity="0.06"/>
<path d="M217 153H225H233L226.414 159.586C225.633 160.367 224.367 160.367 223.586 159.586L217 153Z" fill="#212427"/>
<rect x="200" y="119" width="49" height="34" rx="6" fill="#212427"/>
<rect x="200" y="119" width="49" height="34" rx="6" fill="#212427"/>
<path d="M215.602 134.098C215.602 134.91 215.322 135.587 214.762 136.128C214.211 136.66 213.367 136.926 212.228 136.926H210.352V141H209.078V131.242H212.228C213.329 131.242 214.165 131.508 214.734 132.04C215.313 132.572 215.602 133.258 215.602 134.098ZM212.228 135.876C212.937 135.876 213.46 135.722 213.796 135.414C214.132 135.106 214.3 134.667 214.3 134.098C214.3 132.894 213.609 132.292 212.228 132.292H210.352V135.876H212.228ZM216.709 137.136C216.709 136.352 216.868 135.666 217.185 135.078C217.503 134.481 217.937 134.019 218.487 133.692C219.047 133.365 219.668 133.202 220.349 133.202C221.021 133.202 221.605 133.347 222.099 133.636C222.594 133.925 222.963 134.289 223.205 134.728V133.328H224.493V141H223.205V139.572C222.953 140.02 222.575 140.393 222.071 140.692C221.577 140.981 220.998 141.126 220.335 141.126C219.654 141.126 219.038 140.958 218.487 140.622C217.937 140.286 217.503 139.815 217.185 139.208C216.868 138.601 216.709 137.911 216.709 137.136ZM223.205 137.15C223.205 136.571 223.089 136.067 222.855 135.638C222.622 135.209 222.305 134.882 221.903 134.658C221.511 134.425 221.077 134.308 220.601 134.308C220.125 134.308 219.691 134.42 219.299 134.644C218.907 134.868 218.595 135.195 218.361 135.624C218.128 136.053 218.011 136.557 218.011 137.136C218.011 137.724 218.128 138.237 218.361 138.676C218.595 139.105 218.907 139.437 219.299 139.67C219.691 139.894 220.125 140.006 220.601 140.006C221.077 140.006 221.511 139.894 221.903 139.67C222.305 139.437 222.622 139.105 222.855 138.676C223.089 138.237 223.205 137.729 223.205 137.15ZM229.362 141.126C228.774 141.126 228.247 141.028 227.78 140.832C227.314 140.627 226.945 140.347 226.674 139.992C226.404 139.628 226.254 139.213 226.226 138.746H227.542C227.58 139.129 227.757 139.441 228.074 139.684C228.401 139.927 228.826 140.048 229.348 140.048C229.834 140.048 230.216 139.941 230.496 139.726C230.776 139.511 230.916 139.241 230.916 138.914C230.916 138.578 230.767 138.331 230.468 138.172C230.17 138.004 229.708 137.841 229.082 137.682C228.513 137.533 228.046 137.383 227.682 137.234C227.328 137.075 227.02 136.847 226.758 136.548C226.506 136.24 226.38 135.839 226.38 135.344C226.38 134.952 226.497 134.593 226.73 134.266C226.964 133.939 227.295 133.683 227.724 133.496C228.154 133.3 228.644 133.202 229.194 133.202C230.044 133.202 230.73 133.417 231.252 133.846C231.775 134.275 232.055 134.863 232.092 135.61H230.818C230.79 135.209 230.627 134.887 230.328 134.644C230.039 134.401 229.647 134.28 229.152 134.28C228.695 134.28 228.331 134.378 228.06 134.574C227.79 134.77 227.654 135.027 227.654 135.344C227.654 135.596 227.734 135.806 227.892 135.974C228.06 136.133 228.266 136.263 228.508 136.366C228.76 136.459 229.106 136.567 229.544 136.688C230.095 136.837 230.543 136.987 230.888 137.136C231.234 137.276 231.528 137.491 231.77 137.78C232.022 138.069 232.153 138.447 232.162 138.914C232.162 139.334 232.046 139.712 231.812 140.048C231.579 140.384 231.248 140.65 230.818 140.846C230.398 141.033 229.913 141.126 229.362 141.126ZM236.677 141.126C236.089 141.126 235.561 141.028 235.095 140.832C234.628 140.627 234.259 140.347 233.989 139.992C233.718 139.628 233.569 139.213 233.541 138.746H234.857C234.894 139.129 235.071 139.441 235.389 139.684C235.715 139.927 236.14 140.048 236.663 140.048C237.148 140.048 237.531 139.941 237.811 139.726C238.091 139.511 238.231 139.241 238.231 138.914C238.231 138.578 238.081 138.331 237.783 138.172C237.484 138.004 237.022 137.841 236.397 137.682C235.827 137.533 235.361 137.383 234.997 137.234C234.642 137.075 234.334 136.847 234.073 136.548C233.821 136.24 233.695 135.839 233.695 135.344C233.695 134.952 233.811 134.593 234.045 134.266C234.278 133.939 234.609 133.683 235.039 133.496C235.468 133.3 235.958 133.202 236.509 133.202C237.358 133.202 238.044 133.417 238.567 133.846C239.089 134.275 239.369 134.863 239.407 135.61H238.133C238.105 135.209 237.941 134.887 237.643 134.644C237.353 134.401 236.961 134.28 236.467 134.28C236.009 134.28 235.645 134.378 235.375 134.574C235.104 134.77 234.969 135.027 234.969 135.344C234.969 135.596 235.048 135.806 235.207 135.974C235.375 136.133 235.58 136.263 235.823 136.366C236.075 136.459 236.42 136.567 236.859 136.688C237.409 136.837 237.857 136.987 238.203 137.136C238.548 137.276 238.842 137.491 239.085 137.78C239.337 138.069 239.467 138.447 239.477 138.914C239.477 139.334 239.36 139.712 239.127 140.048C238.893 140.384 238.562 140.65 238.133 140.846C237.713 141.033 237.227 141.126 236.677 141.126Z" fill="#FDFCFA"/>
<g filter="url(#filter1_d_3317_15419)">
<path d="M227 187L226 176L235 182L231 183L234.5 188L233 189L229.5 184L227 187Z" fill="black"/>
<path d="M226.277 175.584L225.407 175.004L225.502 176.045L226.502 187.045L226.611 188.247L227.384 187.32L229.465 184.823L232.59 189.287L232.871 189.687L233.277 189.416L234.777 188.416L235.203 188.132L234.91 187.713L231.826 183.309L235.121 182.485L236.218 182.211L235.277 181.584L226.277 175.584Z" stroke="white"/>
</g>
</g>
</g>
<g filter="url(#filter2_d_3317_15419)">
<g clip-path="url(#clip2_3317_15419)">
<rect x="-407" width="600" height="360" rx="4" fill="#FDFCFA"/>
<rect width="600" height="56" transform="translate(-407)" fill="#D6E6F7"/>
<path d="M157 29C157.552 29 158 28.5523 158 28C158 27.4477 157.552 27 157 27C156.448 27 156 27.4477 156 28C156 28.5523 156.448 29 157 29Z" stroke="#212427" stroke-width="2" stroke-linecap="round" stroke-linejoin="round"/>
<path d="M164 29C164.552 29 165 28.5523 165 28C165 27.4477 164.552 27 164 27C163.448 27 163 27.4477 163 28C163 28.5523 163.448 29 164 29Z" stroke="#212427" stroke-width="2" stroke-linecap="round" stroke-linejoin="round"/>
<path d="M150 29C150.552 29 151 28.5523 151 28C151 27.4477 150.552 27 150 27C149.448 27 149 27.4477 149 28C149 28.5523 149.448 29 150 29Z" stroke="#212427" stroke-width="2" stroke-linecap="round" stroke-linejoin="round"/>
<g clip-path="url(#clip3_3317_15419)">
<mask id="path-32-inside-5_3317_15419" fill="white">
<path d="M-383 72H157V112H-383V72Z"/>
</mask>
<path d="M157 111H-383V113H157V111Z" fill="black" fill-opacity="0.06" mask="url(#path-32-inside-5_3317_15419)"/>
<circle cx="138" cy="92" r="6" stroke="black" stroke-opacity="0.06" stroke-width="2"/>
<path d="M138 86C139.187 86 140.347 86.3519 141.333 87.0112C142.32 87.6705 143.089 88.6076 143.543 89.7039C143.997 90.8003 144.116 92.0067 143.885 93.1706C143.653 94.3344 143.082 95.4035 142.243 96.2427C141.404 97.0818 140.334 97.6532 139.171 97.8847C138.007 98.1162 136.8 97.9974 135.704 97.5433C134.608 97.0892 133.67 96.3201 133.011 95.3334C132.352 94.3467 132 93.1867 132 92" stroke="#E7C200" stroke-width="2"/>
<mask id="path-36-inside-6_3317_15419" fill="white">
<path d="M-383 112H157V152H-383V112Z"/>
</mask>
<path d="M-383 112H157V152H-383V112Z" fill="black" fill-opacity="0.04"/>
<path d="M157 151H-383V153H157V151Z" fill="black" fill-opacity="0.06" mask="url(#path-36-inside-6_3317_15419)"/>
<circle cx="138" cy="132" r="7" fill="#E1654A"/>
<mask id="path-39-inside-7_3317_15419" fill="white">
<path d="M-383 152H157V192H-383V152Z"/>
</mask>
<path d="M157 191H-383V193H157V191Z" fill="black" fill-opacity="0.06" mask="url(#path-39-inside-7_3317_15419)"/>
<circle cx="138" cy="172" r="7" fill="#54CA6E"/>
<mask id="path-42-inside-8_3317_15419" fill="white">
<path d="M-383 192H157V232H-383V192Z"/>
</mask>
<path d="M157 231H-383V233H157V231Z" fill="black" fill-opacity="0.06" mask="url(#path-42-inside-8_3317_15419)"/>
<rect width="12" height="224" transform="translate(157 72)" fill="black" fill-opacity="0.05"/>
<rect x="160" y="75" width="6" height="100" rx="3" fill="black" fill-opacity="0.15"/>
</g>
<rect x="-382.5" y="72.5" width="551" height="223" rx="5.5" stroke="black" stroke-opacity="0.06"/>
<path d="M130 113H138H146L139.414 119.586C138.633 120.367 137.367 120.367 136.586 119.586L130 113Z" fill="#212427"/>
<rect x="118" y="79" width="40" height="34" rx="6" fill="#212427"/>
<rect x="118" y="79" width="40" height="34" rx="6" fill="#212427"/>
<path d="M132.594 91.242V92.278H128.352V95.568H131.796V96.604H128.352V101H127.078V91.242H132.594ZM133.657 97.136C133.657 96.352 133.815 95.666 134.133 95.078C134.45 94.4807 134.884 94.0187 135.435 93.692C135.995 93.3653 136.615 93.202 137.297 93.202C137.969 93.202 138.552 93.3467 139.047 93.636C139.541 93.9253 139.91 94.2893 140.153 94.728V93.328H141.441V101H140.153V99.572C139.901 100.02 139.523 100.393 139.019 100.692C138.524 100.981 137.945 101.126 137.283 101.126C136.601 101.126 135.985 100.958 135.435 100.622C134.884 100.286 134.45 99.8147 134.133 99.208C133.815 98.6013 133.657 97.9107 133.657 97.136ZM140.153 97.15C140.153 96.5713 140.036 96.0673 139.803 95.638C139.569 95.2087 139.252 94.882 138.851 94.658C138.459 94.4247 138.025 94.308 137.549 94.308C137.073 94.308 136.639 94.42 136.247 94.644C135.855 94.868 135.542 95.1947 135.309 95.624C135.075 96.0533 134.959 96.5573 134.959 97.136C134.959 97.724 135.075 98.2373 135.309 98.676C135.542 99.1053 135.855 99.4367 136.247 99.67C136.639 99.894 137.073 100.006 137.549 100.006C138.025 100.006 138.459 99.894 138.851 99.67C139.252 99.4367 139.569 99.1053 139.803 98.676C140.036 98.2373 140.153 97.7287 140.153 97.15ZM144.252 92.082C144.009 92.082 143.804 91.998 143.636 91.83C143.468 91.662 143.384 91.4567 143.384 91.214C143.384 90.9713 143.468 90.766 143.636 90.598C143.804 90.43 144.009 90.346 144.252 90.346C144.485 90.346 144.681 90.43 144.84 90.598C145.008 90.766 145.092 90.9713 145.092 91.214C145.092 91.4567 145.008 91.662 144.84 91.83C144.681 91.998 144.485 92.082 144.252 92.082ZM144.868 93.328V101H143.594V93.328H144.868ZM148.313 90.64V101H147.039V90.64H148.313Z" fill="#FDFCFA"/>
<g filter="url(#filter3_d_3317_15419)">
<path d="M140 147L139 136L148 142L144 143L147.5 148L146 149L142.5 144L140 147Z" fill="black"/>
<path d="M139.502 147.045L139.611 148.247L140.384 147.32L142.465 144.823L145.59 149.287L145.871 149.687L146.277 149.416L147.777 148.416L148.203 148.132L147.91 147.713L144.826 143.309L148.121 142.485L149.218 142.211L148.277 141.584L139.277 135.584L138.407 135.004L138.502 136.045L139.502 147.045Z" stroke="white"/>
</g>
</g>
</g>
<g filter="url(#filter4_d_3317_15419)">
<g clip-path="url(#clip4_3317_15419)">
<rect x="-499" width="600" height="360" rx="4" fill="#FDFCFA"/>
<rect width="600" height="56" transform="translate(-499)" fill="#D6E6F7"/>
<path d="M65 29C65.5523 29 66 28.5523 66 28C66 27.4477 65.5523 27 65 27C64.4477 27 64 27.4477 64 28C64 28.5523 64.4477 29 65 29Z" stroke="#212427" stroke-width="2" stroke-linecap="round" stroke-linejoin="round"/>
<path d="M72 29C72.5523 29 73 28.5523 73 28C73 27.4477 72.5523 27 72 27C71.4477 27 71 27.4477 71 28C71 28.5523 71.4477 29 72 29Z" stroke="#212427" stroke-width="2" stroke-linecap="round" stroke-linejoin="round"/>
<path d="M58 29C58.5523 29 59 28.5523 59 28C59 27.4477 58.5523 27 58 27C57.4477 27 57 27.4477 57 28C57 28.5523 57.4477 29 58 29Z" stroke="#212427" stroke-width="2" stroke-linecap="round" stroke-linejoin="round"/>
<g clip-path="url(#clip5_3317_15419)">
<mask id="path-57-inside-9_3317_15419" fill="white">
<path d="M-475 72H65V112H-475V72Z"/>
</mask>
<path d="M65 111H-475V113H65V111Z" fill="black" fill-opacity="0.06" mask="url(#path-57-inside-9_3317_15419)"/>
<circle cx="46" cy="92" r="6" stroke="black" stroke-opacity="0.06" stroke-width="2"/>
<path d="M46 86C47.1867 86 48.3467 86.3519 49.3334 87.0112C50.3201 87.6705 51.0892 88.6076 51.5433 89.7039C51.9974 90.8003 52.1162 92.0067 51.8847 93.1706C51.6532 94.3344 51.0818 95.4035 50.2426 96.2427C49.4035 97.0818 48.3344 97.6532 47.1705 97.8847C46.0067 98.1162 44.8003 97.9974 43.7039 97.5433C42.6075 97.0892 41.6705 96.3201 41.0112 95.3334C40.3519 94.3467 40 93.1867 40 92" stroke="#E7C200" stroke-width="2"/>
<mask id="path-61-inside-10_3317_15419" fill="white">
<path d="M-475 112H65V152H-475V112Z"/>
</mask>
<path d="M-475 112H65V152H-475V112Z" fill="black" fill-opacity="0.04"/>
<path d="M65 151H-475V153H65V151Z" fill="black" fill-opacity="0.06" mask="url(#path-61-inside-10_3317_15419)"/>
<circle cx="46" cy="132" r="7" fill="#E1654A"/>
<mask id="path-64-inside-11_3317_15419" fill="white">
<path d="M-475 152H65V192H-475V152Z"/>
</mask>
<path d="M65 191H-475V193H65V191Z" fill="black" fill-opacity="0.06" mask="url(#path-64-inside-11_3317_15419)"/>
<circle cx="46" cy="172" r="7" fill="#54CA6E"/>
<mask id="path-67-inside-12_3317_15419" fill="white">
<path d="M-475 192H65V232H-475V192Z"/>
</mask>
<path d="M65 231H-475V233H65V231Z" fill="black" fill-opacity="0.06" mask="url(#path-67-inside-12_3317_15419)"/>
<rect width="12" height="224" transform="translate(65 72)" fill="black" fill-opacity="0.05"/>
<rect x="68" y="75" width="6" height="100" rx="3" fill="black" fill-opacity="0.15"/>
</g>
<rect x="-474.5" y="72.5" width="551" height="223" rx="5.5" stroke="black" stroke-opacity="0.06"/>
<path d="M38 73H46H54L47.4142 79.5858C46.6332 80.3668 45.3668 80.3668 44.5858 79.5858L38 73Z" fill="#212427"/>
<rect x="9" y="39" width="74" height="34" rx="6" fill="#212427"/>
<rect x="9" y="39" width="74" height="34" rx="6" fill="#212427"/>
<path d="M23.216 61L20.892 57.01H19.352V61H18.078V51.242H21.228C21.9653 51.242 22.586 51.368 23.09 51.62C23.6033 51.872 23.986 52.2127 24.238 52.642C24.49 53.0713 24.616 53.5613 24.616 54.112C24.616 54.784 24.42 55.3767 24.028 55.89C23.6453 56.4033 23.0667 56.744 22.292 56.912L24.742 61H23.216ZM19.352 55.988H21.228C21.9187 55.988 22.4367 55.82 22.782 55.484C23.1273 55.1387 23.3 54.6813 23.3 54.112C23.3 53.5333 23.1273 53.0853 22.782 52.768C22.446 52.4507 21.928 52.292 21.228 52.292H19.352V55.988ZM33.3996 53.328V61H32.1256V59.866C31.8829 60.258 31.5422 60.566 31.1036 60.79C30.6742 61.0047 30.1982 61.112 29.6756 61.112C29.0782 61.112 28.5416 60.9907 28.0656 60.748C27.5896 60.496 27.2116 60.1227 26.9316 59.628C26.6609 59.1333 26.5256 58.5313 26.5256 57.822V53.328H27.7856V57.654C27.7856 58.41 27.9769 58.9933 28.3596 59.404C28.7422 59.8053 29.2649 60.006 29.9276 60.006C30.6089 60.006 31.1456 59.796 31.5376 59.376C31.9296 58.956 32.1256 58.3447 32.1256 57.542V53.328H33.3996ZM39.2887 53.188C40.222 53.188 40.978 53.4727 41.5567 54.042C42.1353 54.602 42.4247 55.414 42.4247 56.478V61H41.1647V56.66C41.1647 55.8947 40.9733 55.3113 40.5907 54.91C40.208 54.4993 39.6853 54.294 39.0227 54.294C38.3507 54.294 37.814 54.504 37.4127 54.924C37.0207 55.344 36.8247 55.9553 36.8247 56.758V61H35.5507V53.328H36.8247V54.42C37.0767 54.028 37.4173 53.7247 37.8467 53.51C38.2853 53.2953 38.766 53.188 39.2887 53.188ZM48.2437 53.188C49.1771 53.188 49.9331 53.4727 50.5117 54.042C51.0904 54.602 51.3797 55.414 51.3797 56.478V61H50.1197V56.66C50.1197 55.8947 49.9284 55.3113 49.5457 54.91C49.1631 54.4993 48.6404 54.294 47.9777 54.294C47.3057 54.294 46.7691 54.504 46.3677 54.924C45.9757 55.344 45.7797 55.9553 45.7797 56.758V61H44.5057V53.328H45.7797V54.42C46.0317 54.028 46.3724 53.7247 46.8017 53.51C47.2404 53.2953 47.7211 53.188 48.2437 53.188ZM54.1188 52.082C53.8761 52.082 53.6708 51.998 53.5028 51.83C53.3348 51.662 53.2508 51.4567 53.2508 51.214C53.2508 50.9713 53.3348 50.766 53.5028 50.598C53.6708 50.43 53.8761 50.346 54.1188 50.346C54.3521 50.346 54.5481 50.43 54.7068 50.598C54.8748 50.766 54.9588 50.9713 54.9588 51.214C54.9588 51.4567 54.8748 51.662 54.7068 51.83C54.5481 51.998 54.3521 52.082 54.1188 52.082ZM54.7348 53.328V61H53.4608V53.328H54.7348ZM60.6441 53.188C61.5775 53.188 62.3335 53.4727 62.9121 54.042C63.4908 54.602 63.7801 55.414 63.7801 56.478V61H62.5201V56.66C62.5201 55.8947 62.3288 55.3113 61.9461 54.91C61.5635 54.4993 61.0408 54.294 60.3781 54.294C59.7061 54.294 59.1695 54.504 58.7681 54.924C58.3761 55.344 58.1801 55.9553 58.1801 56.758V61H56.9061V53.328H58.1801V54.42C58.4321 54.028 58.7728 53.7247 59.2021 53.51C59.6408 53.2953 60.1215 53.188 60.6441 53.188ZM69.0252 53.202C69.6879 53.202 70.2665 53.3467 70.7612 53.636C71.2652 53.9253 71.6385 54.2893 71.8812 54.728V53.328H73.1692V61.168C73.1692 61.868 73.0199 62.4887 72.7212 63.03C72.4225 63.5807 71.9932 64.01 71.4332 64.318C70.8825 64.626 70.2385 64.78 69.5012 64.78C68.4932 64.78 67.6532 64.542 66.9812 64.066C66.3092 63.59 65.9125 62.9413 65.7912 62.12H67.0512C67.1912 62.5867 67.4805 62.96 67.9192 63.24C68.3579 63.5293 68.8852 63.674 69.5012 63.674C70.2012 63.674 70.7705 63.4547 71.2092 63.016C71.6572 62.5773 71.8812 61.9613 71.8812 61.168V59.558C71.6292 60.006 71.2559 60.3793 70.7612 60.678C70.2665 60.9767 69.6879 61.126 69.0252 61.126C68.3439 61.126 67.7232 60.958 67.1632 60.622C66.6125 60.286 66.1785 59.8147 65.8612 59.208C65.5439 58.6013 65.3852 57.9107 65.3852 57.136C65.3852 56.352 65.5439 55.666 65.8612 55.078C66.1785 54.4807 66.6125 54.0187 67.1632 53.692C67.7232 53.3653 68.3439 53.202 69.0252 53.202ZM71.8812 57.15C71.8812 56.5713 71.7645 56.0673 71.5312 55.638C71.2979 55.2087 70.9805 54.882 70.5792 54.658C70.1872 54.4247 69.7532 54.308 69.2772 54.308C68.8012 54.308 68.3672 54.42 67.9752 54.644C67.5832 54.868 67.2705 55.1947 67.0372 55.624C66.8039 56.0533 66.6872 56.5573 66.6872 57.136C66.6872 57.724 66.8039 58.2373 67.0372 58.676C67.2705 59.1053 67.5832 59.4367 67.9752 59.67C68.3672 59.894 68.8012 60.006 69.2772 60.006C69.7532 60.006 70.1872 59.894 70.5792 59.67C70.9805 59.4367 71.2979 59.1053 71.5312 58.676C71.7645 58.2373 71.8812 57.7287 71.8812 57.15Z" fill="#FDFCFA"/>
<g filter="url(#filter5_d_3317_15419)">
<path d="M48 107L47 96L56 102L52 103L55.5 108L54 109L50.5 104L48 107Z" fill="black"/>
<path d="M47.2774 95.584L46.4074 95.004L46.5021 96.0453L47.5021 107.045L47.6113 108.247L48.3841 107.32L50.4654 104.823L53.5904 109.287L53.8707 109.687L54.2773 109.416L55.7774 108.416L56.2029 108.132L55.9096 107.713L52.8265 103.309L56.1213 102.485L57.2178 102.211L56.2774 101.584L47.2774 95.584Z" stroke="white"/>
</g>
</g>
</g>
<defs>
<filter id="filter0_d_3317_15419" x="-323" y="-2" width="606" height="366" filterUnits="userSpaceOnUse" color-interpolation-filters="sRGB">
<feFlood flood-opacity="0" result="BackgroundImageFix"/>
<feColorMatrix in="SourceAlpha" type="matrix" values="0 0 0 0 0 0 0 0 0 0 0 0 0 0 0 0 0 0 127 0" result="hardAlpha"/>
<feMorphology radius="1" operator="dilate" in="SourceAlpha" result="effect1_dropShadow_3317_15419"/>
<feOffset dy="1"/>
<feGaussianBlur stdDeviation="1"/>
<feComposite in2="hardAlpha" operator="out"/>
<feColorMatrix type="matrix" values="0 0 0 0 0.129412 0 0 0 0 0.141176 0 0 0 0 0.152941 0 0 0 0.12 0"/>
<feBlend mode="normal" in2="BackgroundImageFix" result="effect1_dropShadow_3317_15419"/>
<feBlend mode="normal" in="SourceGraphic" in2="effect1_dropShadow_3317_15419" result="shape"/>
</filter>
<filter id="filter1_d_3317_15419" x="222.814" y="173.008" width="16.6211" height="20.3663" filterUnits="userSpaceOnUse" color-interpolation-filters="sRGB">
<feFlood flood-opacity="0" result="BackgroundImageFix"/>
<feColorMatrix in="SourceAlpha" type="matrix" values="0 0 0 0 0 0 0 0 0 0 0 0 0 0 0 0 0 0 127 0" result="hardAlpha"/>
<feOffset dy="1"/>
<feGaussianBlur stdDeviation="1"/>
<feColorMatrix type="matrix" values="0 0 0 0 0 0 0 0 0 0 0 0 0 0 0 0 0 0 0.24 0"/>
<feBlend mode="normal" in2="BackgroundImageFix" result="effect1_dropShadow_3317_15419"/>
<feBlend mode="normal" in="SourceGraphic" in2="effect1_dropShadow_3317_15419" result="shape"/>
</filter>
<filter id="filter2_d_3317_15419" x="-410" y="-2" width="606" height="366" filterUnits="userSpaceOnUse" color-interpolation-filters="sRGB">
<feFlood flood-opacity="0" result="BackgroundImageFix"/>
<feColorMatrix in="SourceAlpha" type="matrix" values="0 0 0 0 0 0 0 0 0 0 0 0 0 0 0 0 0 0 127 0" result="hardAlpha"/>
<feMorphology radius="1" operator="dilate" in="SourceAlpha" result="effect1_dropShadow_3317_15419"/>
<feOffset dy="1"/>
<feGaussianBlur stdDeviation="1"/>
<feComposite in2="hardAlpha" operator="out"/>
<feColorMatrix type="matrix" values="0 0 0 0 0.129412 0 0 0 0 0.141176 0 0 0 0 0.152941 0 0 0 0.12 0"/>
<feBlend mode="normal" in2="BackgroundImageFix" result="effect1_dropShadow_3317_15419"/>
<feBlend mode="normal" in="SourceGraphic" in2="effect1_dropShadow_3317_15419" result="shape"/>
</filter>
<filter id="filter3_d_3317_15419" x="135.814" y="133.008" width="16.6211" height="20.3663" filterUnits="userSpaceOnUse" color-interpolation-filters="sRGB">
<feFlood flood-opacity="0" result="BackgroundImageFix"/>
<feColorMatrix in="SourceAlpha" type="matrix" values="0 0 0 0 0 0 0 0 0 0 0 0 0 0 0 0 0 0 127 0" result="hardAlpha"/>
<feOffset dy="1"/>
<feGaussianBlur stdDeviation="1"/>
<feColorMatrix type="matrix" values="0 0 0 0 0 0 0 0 0 0 0 0 0 0 0 0 0 0 0.24 0"/>
<feBlend mode="normal" in2="BackgroundImageFix" result="effect1_dropShadow_3317_15419"/>
<feBlend mode="normal" in="SourceGraphic" in2="effect1_dropShadow_3317_15419" result="shape"/>
</filter>
<filter id="filter4_d_3317_15419" x="-502" y="-2" width="606" height="366" filterUnits="userSpaceOnUse" color-interpolation-filters="sRGB">
<feFlood flood-opacity="0" result="BackgroundImageFix"/>
<feColorMatrix in="SourceAlpha" type="matrix" values="0 0 0 0 0 0 0 0 0 0 0 0 0 0 0 0 0 0 127 0" result="hardAlpha"/>
<feMorphology radius="1" operator="dilate" in="SourceAlpha" result="effect1_dropShadow_3317_15419"/>
<feOffset dy="1"/>
<feGaussianBlur stdDeviation="1"/>
<feComposite in2="hardAlpha" operator="out"/>
<feColorMatrix type="matrix" values="0 0 0 0 0.129412 0 0 0 0 0.141176 0 0 0 0 0.152941 0 0 0 0.12 0"/>
<feBlend mode="normal" in2="BackgroundImageFix" result="effect1_dropShadow_3317_15419"/>
<feBlend mode="normal" in="SourceGraphic" in2="effect1_dropShadow_3317_15419" result="shape"/>
</filter>
<filter id="filter5_d_3317_15419" x="43.8145" y="93.008" width="16.6211" height="20.3663" filterUnits="userSpaceOnUse" color-interpolation-filters="sRGB">
<feFlood flood-opacity="0" result="BackgroundImageFix"/>
<feColorMatrix in="SourceAlpha" type="matrix" values="0 0 0 0 0 0 0 0 0 0 0 0 0 0 0 0 0 0 127 0" result="hardAlpha"/>
<feOffset dy="1"/>
<feGaussianBlur stdDeviation="1"/>
<feColorMatrix type="matrix" values="0 0 0 0 0 0 0 0 0 0 0 0 0 0 0 0 0 0 0.24 0"/>
<feBlend mode="normal" in2="BackgroundImageFix" result="effect1_dropShadow_3317_15419"/>
<feBlend mode="normal" in="SourceGraphic" in2="effect1_dropShadow_3317_15419" result="shape"/>
</filter>
<clipPath id="clip0_3317_15419">
<rect x="-320" width="600" height="360" rx="4" fill="white"/>
</clipPath>
<clipPath id="clip1_3317_15419">
<rect x="-296" y="72" width="552" height="224" rx="6" fill="white"/>
</clipPath>
<clipPath id="clip2_3317_15419">
<rect x="-407" width="600" height="360" rx="4" fill="white"/>
</clipPath>
<clipPath id="clip3_3317_15419">
<rect x="-383" y="72" width="552" height="224" rx="6" fill="white"/>
</clipPath>
<clipPath id="clip4_3317_15419">
<rect x="-499" width="600" height="360" rx="4" fill="white"/>
</clipPath>
<clipPath id="clip5_3317_15419">
<rect x="-475" y="72" width="552" height="224" rx="6" fill="white"/>
</clipPath>
</defs>
</svg>
