<svg width="148" height="32" viewBox="0 0 148 32" fill="none" xmlns="http://www.w3.org/2000/svg">
<g clip-path="url(#clip0_3338_561)">
<path d="M52.9143 18.375C52.9143 22.2201 50.577 24.7836 47.0227 24.7836C45.2562 24.7836 43.8668 24.0727 42.9405 22.8017V24.6436H39.3108V7.1626H42.9405V13.8405C43.8345 12.5695 45.2239 11.8586 46.9473 11.8586C50.5016 11.8479 52.9143 14.4652 52.9143 18.375ZM49.2307 18.2565C49.2307 16.2316 47.9597 14.7667 46.0964 14.7667C44.233 14.7667 42.9405 16.1993 42.9405 18.2565C42.9405 20.346 44.233 21.7678 46.0964 21.7678C47.9597 21.7785 49.2307 20.3352 49.2307 18.2565Z" fill="#314F8F"/>
<path d="M68.2087 18.3103C68.2087 22.177 65.4729 24.7943 61.4231 24.7943C57.341 24.7943 54.616 22.177 54.616 18.3103C54.616 14.4221 57.3517 11.8479 61.4231 11.8479C65.4837 11.8479 68.2087 14.4221 68.2087 18.3103ZM58.2565 18.3534C58.2565 20.4214 59.5274 21.8432 61.4123 21.8432C63.2757 21.8432 64.5682 20.4322 64.5682 18.3534C64.5682 16.2854 63.2757 14.8637 61.4123 14.8637C59.5382 14.8637 58.2565 16.2854 58.2565 18.3534Z" fill="#314F8F"/>
<path d="M78.8609 23.9328C77.9131 24.4821 76.7391 24.8052 75.5651 24.8052C73.3032 24.8052 71.5799 23.5127 71.5799 20.8954V15.0253H69.8135V12.5265H71.5799V9.03674H75.1881V12.5265H78.6348V15.0469H75.1881V20.2815C75.1881 21.337 75.6297 21.7679 76.416 21.7463C76.8791 21.7463 77.45 21.574 78.107 21.2832L78.8609 23.9328Z" fill="#314F8F"/>
<path d="M89.3087 23.9328C88.3609 24.4821 87.1868 24.8052 86.0128 24.8052C83.751 24.8052 82.0276 23.5127 82.0276 20.8954V15.0253H80.2612V12.5265H82.0276V9.03674H85.6359V12.5265H89.0825V15.0469H85.6359V20.2815C85.6359 21.337 86.0775 21.7679 86.8637 21.7463C87.3269 21.7463 87.8977 21.574 88.5547 21.2832L89.3087 23.9328Z" fill="#314F8F"/>
<path d="M103.472 19.4089H94.371C94.7911 21.0138 96.019 21.9509 97.6454 21.9509C98.8517 21.9509 99.9826 21.4877 100.855 20.6045L102.761 22.5325C101.49 23.9434 99.6272 24.7728 97.333 24.7728C93.2724 24.7728 90.709 22.177 90.709 18.3319C90.709 14.4221 93.3694 11.8263 97.2361 11.8263C101.706 11.8479 103.785 14.7883 103.472 19.4089ZM100.079 17.2656C100.036 15.5961 98.9486 14.5082 97.2684 14.5082C95.6635 14.5082 94.5865 15.5853 94.2956 17.2656H100.079Z" fill="#314F8F"/>
<path d="M115.514 13.2157L114.265 15.693C112.875 14.9175 111.453 14.4652 110.398 14.4652C109.547 14.4652 108.933 14.7452 108.933 15.413C108.933 17.3194 115.632 16.3608 115.611 20.8415C115.611 23.4372 113.328 24.8051 110.452 24.8051C108.405 24.8051 106.391 24.1912 104.959 23.0387L106.143 20.583C107.468 21.5954 109.159 22.1663 110.559 22.1663C111.475 22.1663 112.164 21.8647 112.164 21.1754C112.164 19.1504 105.594 20.2275 105.594 15.7792C105.594 13.1619 107.834 11.8155 110.592 11.8155C112.315 11.8048 114.103 12.3218 115.514 13.2157Z" fill="#314F8F"/>
<path d="M126.296 23.9328C125.348 24.4821 124.174 24.8052 123 24.8052C120.738 24.8052 119.014 23.5127 119.014 20.8954V15.0253H117.248V12.5265H119.014V9.03674H122.623V12.5265H126.069V15.0469H122.623V20.2815C122.623 21.337 123.064 21.7679 123.851 21.7463C124.314 21.7463 124.885 21.574 125.542 21.2832L126.296 23.9328Z" fill="#314F8F"/>
<path d="M130.087 23.965C130.087 24.4605 129.71 24.8374 129.257 24.8374C128.805 24.8374 128.46 24.4605 128.46 23.965C128.46 23.5019 128.816 23.1357 129.257 23.1357C129.699 23.1357 130.087 23.4911 130.087 23.965Z" fill="#314F8F"/>
<path d="M141.073 22.2201C140.039 23.9111 138.283 24.6759 136.172 24.6759C133.738 24.6759 132.112 23.1464 132.112 21.0677C132.112 19.0212 133.857 17.7718 136.679 17.7718H141.041V16.5655C141.019 14.4975 139.813 13.2481 137.368 13.2481C135.839 13.2481 134.535 13.862 133.243 14.8529L132.78 14.099C134.244 13.0434 135.655 12.3541 137.519 12.3541C140.416 12.3541 141.999 13.9589 142.021 16.5008L142.064 24.6543H141.095L141.073 22.2201ZM141.073 20.6368V18.6335H136.786C134.384 18.6335 133.06 19.4628 133.06 21.0353C133.06 22.6617 134.309 23.7711 136.312 23.7711C138.596 23.7711 140.319 22.791 141.073 20.6368Z" fill="#314F8F"/>
<path d="M147.223 8.83209C147.223 9.32755 146.846 9.70452 146.394 9.70452C145.952 9.70452 145.564 9.32755 145.564 8.83209C145.564 8.36895 145.941 7.9812 146.394 7.9812C146.846 7.9812 147.223 8.35818 147.223 8.83209ZM145.898 24.6544V12.3757H146.868V24.6544H145.898Z" fill="#314F8F"/>
<circle cx="16" cy="16" r="16" fill="#D6E6F7"/>
<mask id="mask0_3338_561" style="mask-type:alpha" maskUnits="userSpaceOnUse" x="0" y="0" width="32" height="32">
<circle cx="16" cy="16" r="16" fill="#D9D9D9"/>
</mask>
<g mask="url(#mask0_3338_561)">
<path d="M23.7765 33.1325H8.21016C7.20717 33.1325 6.40479 32.3343 6.40479 31.366V17.9931C6.40479 13.6358 10.0423 10.0767 14.4955 10.0767H17.5179C21.9711 10.0767 25.6086 13.6358 25.6086 17.9931V31.366C25.5952 32.3343 24.7661 33.1325 23.7765 33.1325Z" fill="#388AEB"/>
<path d="M26.1433 10.4692H24.4984C23.7629 7.27648 21.1953 4.75107 17.9322 4.04448V2.87991C17.9322 2.31726 17.4508 1.84619 16.8757 1.84619H15.1372C14.5622 1.84619 14.0808 2.31726 14.0808 2.87991V4.04448C13.8935 4.17533 13.84 4.29309 13.6662 4.34543C13.4522 4.39777 13.1446 4.42395 12.9574 4.37161C10.2293 5.36607 8.14309 7.65594 7.50118 10.4823H5.85628C5.28124 10.4823 4.7998 10.9534 4.7998 11.516V13.2171C4.7998 13.7797 5.28124 14.2508 5.85628 14.2508H26.1433C26.7184 14.2508 27.1998 13.7797 27.1998 13.2171V11.516C27.1864 10.9272 26.7184 10.4692 26.1433 10.4692Z" fill="#314F8F"/>
<path d="M14.0809 8.07467V4.01831C13.7064 4.09682 13.3186 4.21459 12.9575 4.34544L14.0809 8.07467Z" fill="black"/>
<path d="M19.9652 15.677H12.0082C10.4034 15.677 9.1062 16.9462 9.1062 18.5164V22.7691C9.1062 24.3393 10.4034 25.6085 12.0082 25.6085H15.1375L18.9622 28.3433C19.2832 28.5788 19.7378 28.3564 19.7378 27.9638V25.6216H19.9518C21.5566 25.6216 22.8538 24.3524 22.8538 22.7822V18.5295C22.8672 16.9462 21.57 15.677 19.9652 15.677Z" fill="white"/>
<path d="M12.717 21.9318C11.9949 21.9318 11.3931 21.3561 11.3931 20.6364V19.5242C11.3931 18.8176 11.9815 18.2288 12.717 18.2288C13.4392 18.2288 14.0409 18.8045 14.0409 19.5242V20.6364C14.0276 21.3561 13.4392 21.9318 12.717 21.9318Z" fill="#314F8F"/>
<path d="M19.2695 21.9318C19.9916 21.9318 20.5934 21.3561 20.5934 20.6364V19.5242C20.5934 18.8176 20.005 18.2288 19.2695 18.2288C18.5473 18.2288 17.9456 18.8045 17.9456 19.5242V20.6364C17.9589 21.3561 18.5473 21.9318 19.2695 21.9318Z" fill="#314F8F"/>
</g>
</g>
<defs>
<clipPath id="clip0_3338_561">
<rect width="148" height="32" fill="white"/>
</clipPath>
</defs>
</svg>
