<svg width="1400" height="560" viewBox="0 0 1400 560" fill="none" xmlns="http://www.w3.org/2000/svg">
<rect width="1400" height="560" fill="white"/>
<path d="M0 470L1400 470" stroke="#388AEB" stroke-width="0.5" stroke-miterlimit="10"/>
<path d="M177.117 239.277C166.729 233.203 164.369 217.92 171.845 205.14C179.321 192.36 193.803 186.923 204.191 192.997C214.579 199.07 216.939 214.354 209.463 227.133C201.987 239.913 187.505 245.35 177.117 239.277Z" fill="white" stroke="#388AEB" stroke-width="0.75" stroke-miterlimit="10"/>
<path d="M107.994 238.73C104.171 224.427 110.497 210.314 122.123 207.209C133.749 204.103 146.273 213.18 150.096 227.484C153.919 241.787 147.593 255.899 135.967 259.005C124.341 262.11 111.817 253.033 107.994 238.73Z" fill="url(#paint0_linear_3364_732)" stroke="#388AEB" stroke-width="0.5" stroke-miterlimit="10"/>
<path d="M186.135 221.889C186.135 221.889 153.709 291.462 149.98 389.34" stroke="#388AEB" stroke-width="0.75" stroke-miterlimit="10"/>
<path d="M129.374 410.131C129.374 410.131 139.637 275.243 129.452 242.41" stroke="#388AEB" stroke-width="0.75" stroke-miterlimit="10"/>
<path d="M48.8747 234.737C41.212 222.068 43.3482 206.751 53.646 200.526C63.9438 194.302 78.5037 199.525 86.1664 212.194C93.8292 224.863 91.693 240.18 81.3951 246.405C71.0973 252.629 56.5374 247.406 48.8747 234.737Z" fill="white" stroke="#388AEB" stroke-width="0.75" stroke-miterlimit="10"/>
<path d="M118.997 391.513C118.997 391.513 91.2025 259.114 72.2521 230.426" stroke="#388AEB" stroke-width="0.75" stroke-miterlimit="10"/>
<path d="M176.231 361.125H87.721V428.524C87.721 451.164 106.108 469.545 128.754 469.545H135.198C157.844 469.545 176.231 451.164 176.231 428.524V361.125Z" fill="white" stroke="#388AEB" stroke-width="0.75" stroke-miterlimit="10"/>
<path d="M1072 410H1139V469H1072V410Z" fill="white" stroke="#388AEB" stroke-width="0.75" stroke-miterlimit="10"/>
<path d="M286.305 405.541C286.305 405.541 290.569 412.977 304.502 419.452C318.417 425.927 339.934 428.629 339.934 428.629V434.796C339.934 434.796 333.857 441.815 302.18 433.454C289.353 430.062 275.093 415.825 275.093 415.825" fill="url(#paint1_linear_3364_732)"/>
<path d="M286.305 405.541C286.305 405.541 290.569 412.977 304.502 419.452C318.417 425.927 339.934 428.629 339.934 428.629V434.796C339.934 434.796 333.857 441.815 302.18 433.454C289.353 430.062 275.093 415.825 275.093 415.825" stroke="#388AEB" stroke-width="0.75" stroke-miterlimit="10"/>
<path d="M224.258 469.583H248.061C248.061 464.577 243.997 460.515 238.99 460.515H236.141C236.722 459.009 237.212 457.214 237.502 455.074C238.319 449.324 237.067 438.913 237.067 438.913L224.258 435.431C224.258 435.431 225.836 445.679 225.746 453.205C225.655 460.533 224.258 469.601 224.258 469.601V469.583Z" fill="url(#paint2_linear_3364_732)" stroke="#388AEB" stroke-width="0.75" stroke-miterlimit="10"/>
<path d="M253.921 469.383H277.723C277.723 464.378 273.659 460.315 268.652 460.315H265.804C266.384 458.81 266.874 457.014 267.164 454.874C267.981 449.124 267.164 443.792 267.164 443.792L254.356 440.31C254.356 440.31 255.372 451.555 255.39 452.988C255.517 460.315 253.902 469.383 253.902 469.383H253.921Z" fill="url(#paint3_linear_3364_732)" stroke="#388AEB" stroke-width="0.75" stroke-miterlimit="10"/>
<path d="M230.39 398.323L220.612 426.344C218.652 431.931 221.555 438.061 227.125 440.092L262.085 452.915C267.727 454.983 273.968 452.081 276.019 446.44L291.911 402.748L251.091 388.383C242.636 385.409 233.366 389.871 230.408 398.323H230.39Z" fill="url(#paint4_linear_3364_732)" stroke="#388AEB" stroke-width="0.75" stroke-miterlimit="10"/>
<path d="M305.972 414.918H360V468.93H305.972V414.918Z" fill="white" stroke="#388AEB" stroke-width="0.75" stroke-miterlimit="10"/>
<path d="M290.75 406.593L274.857 400.535C270.757 398.903 266.149 401.134 264.861 405.36L260.452 419.905C259.291 423.751 261.341 427.831 265.133 429.192L280.119 434.451L290.75 406.593Z" fill="white" stroke="#388AEB" stroke-width="0.5" stroke-miterlimit="10"/>
<path d="M223.696 378.353C225.093 375.252 228.685 373.819 231.842 375.089L239.062 377.991L241.856 371.552C247.208 362.683 258.094 358.82 267.836 362.357L268.544 362.61L270.957 358.33C272.644 355.337 276.345 354.14 279.484 355.591C282.296 356.879 283.838 359.962 283.185 362.973L282.241 367.399C290.696 372.005 295.104 381.636 293.054 391.031L291.803 396.853L299.694 399.683C303.16 400.934 304.92 404.779 303.595 408.225C302.307 411.562 298.57 413.249 295.213 411.998L227.306 386.878C223.859 385.608 222.208 381.673 223.732 378.317L223.696 378.353Z" fill="url(#paint5_linear_3364_732)" stroke="#388AEB" stroke-width="0.75" stroke-miterlimit="10"/>
<path d="M252.669 414.918C252.669 414.918 256.751 421.592 270.666 428.085C279.592 432.239 291.639 434.832 299.132 436.156C300.928 431.114 305.754 427.469 311.414 427.469C313.628 427.469 315.424 429.264 315.424 431.477C315.424 433.69 313.628 435.485 311.414 435.485C308.638 435.485 306.371 437.752 306.371 440.527C306.371 443.302 308.638 445.569 311.414 445.569C314.19 445.569 316.458 443.302 316.458 440.527C316.458 438.315 318.254 436.519 320.467 436.519C322.681 436.519 324.477 438.315 324.477 440.527C324.477 447.728 318.617 453.568 311.432 453.568C306.117 453.568 301.563 450.376 299.513 445.823C294.106 446.603 283.928 446.93 268.344 442.087C255.681 438.133 241.257 424.458 241.257 424.458" fill="url(#paint6_linear_3364_732)"/>
<path d="M252.669 414.918C252.669 414.918 256.751 421.592 270.666 428.085C279.592 432.239 291.639 434.832 299.132 436.156C300.928 431.114 305.754 427.469 311.414 427.469C313.628 427.469 315.424 429.264 315.424 431.477C315.424 433.69 313.628 435.485 311.414 435.485C308.638 435.485 306.371 437.752 306.371 440.527C306.371 443.302 308.638 445.569 311.414 445.569C314.19 445.569 316.458 443.302 316.458 440.527C316.458 438.315 318.254 436.519 320.467 436.519C322.681 436.519 324.477 438.315 324.477 440.527C324.477 447.728 318.617 453.568 311.432 453.568C306.117 453.568 301.563 450.376 299.513 445.823C294.106 446.603 283.928 446.93 268.344 442.087C255.681 438.133 241.257 424.458 241.257 424.458" stroke="#388AEB" stroke-width="0.75" stroke-miterlimit="10"/>
<path d="M266.62 420.566L266.159 420.399C264.549 419.814 263.717 418.035 264.302 416.425L265.572 412.93C266.157 411.32 267.936 410.489 269.547 411.074L270.007 411.241C271.618 411.826 272.449 413.605 271.864 415.215L270.595 418.71C270.01 420.32 268.23 421.151 266.62 420.566Z" fill="url(#paint7_linear_3364_732)"/>
<path d="M279.446 424.983L278.986 424.816C277.375 424.232 276.544 422.452 277.129 420.842L278.398 417.348C278.983 415.738 280.763 414.907 282.374 415.491L282.834 415.658C284.444 416.243 285.276 418.022 284.691 419.632L283.421 423.127C282.836 424.737 281.057 425.568 279.446 424.983Z" fill="url(#paint8_linear_3364_732)"/>
<path d="M249.368 442.868C248.085 442.868 247.045 441.829 247.045 440.546C247.045 439.264 248.085 438.224 249.368 438.224C250.65 438.224 251.69 439.264 251.69 440.546C251.69 441.829 250.65 442.868 249.368 442.868Z" fill="url(#paint9_linear_3364_732)"/>
<path d="M259.546 446.151C258.263 446.151 257.223 445.112 257.223 443.829C257.223 442.547 258.263 441.507 259.546 441.507C260.828 441.507 261.868 442.547 261.868 443.829C261.868 445.112 260.828 446.151 259.546 446.151Z" fill="url(#paint10_linear_3364_732)"/>
<path d="M269.578 449.253C268.296 449.253 267.256 448.213 267.256 446.931C267.256 445.648 268.296 444.608 269.578 444.608C270.861 444.608 271.9 445.648 271.9 446.931C271.9 448.213 270.861 449.253 269.578 449.253Z" fill="url(#paint11_linear_3364_732)"/>
<path d="M378.076 267.28H370.78L369.436 271H367.132L373.18 254.368H375.7L381.724 271H379.42L378.076 267.28ZM377.452 265.504L374.428 257.056L371.404 265.504H377.452ZM396.024 257.848V271H393.84V269.056C393.424 269.728 392.84 270.256 392.088 270.64C391.352 271.008 390.536 271.192 389.64 271.192C388.616 271.192 387.696 270.984 386.88 270.568C386.064 270.136 385.416 269.496 384.936 268.648C384.472 267.8 384.24 266.768 384.24 265.552V257.848H386.4V265.264C386.4 266.56 386.728 267.56 387.384 268.264C388.04 268.952 388.936 269.296 390.072 269.296C391.24 269.296 392.16 268.936 392.832 268.216C393.504 267.496 393.84 266.448 393.84 265.072V257.848H396.024ZM402.375 259.648V267.4C402.375 268.04 402.511 268.496 402.783 268.768C403.055 269.024 403.527 269.152 404.199 269.152H405.807V271H403.839C402.623 271 401.711 270.72 401.103 270.16C400.495 269.6 400.191 268.68 400.191 267.4V259.648H398.487V257.848H400.191V254.536H402.375V257.848H405.807V259.648H402.375ZM414.189 271.216C412.957 271.216 411.837 270.936 410.829 270.376C409.837 269.816 409.053 269.024 408.477 268C407.917 266.96 407.637 265.76 407.637 264.4C407.637 263.056 407.925 261.872 408.501 260.848C409.093 259.808 409.893 259.016 410.901 258.472C411.909 257.912 413.037 257.632 414.285 257.632C415.533 257.632 416.661 257.912 417.669 258.472C418.677 259.016 419.469 259.8 420.045 260.824C420.637 261.848 420.933 263.04 420.933 264.4C420.933 265.76 420.629 266.96 420.021 268C419.429 269.024 418.621 269.816 417.597 270.376C416.573 270.936 415.437 271.216 414.189 271.216ZM414.189 269.296C414.973 269.296 415.709 269.112 416.397 268.744C417.085 268.376 417.637 267.824 418.053 267.088C418.485 266.352 418.701 265.456 418.701 264.4C418.701 263.344 418.493 262.448 418.077 261.712C417.661 260.976 417.117 260.432 416.445 260.08C415.773 259.712 415.045 259.528 414.261 259.528C413.461 259.528 412.725 259.712 412.053 260.08C411.397 260.432 410.869 260.976 410.469 261.712C410.069 262.448 409.869 263.344 409.869 264.4C409.869 265.472 410.061 266.376 410.445 267.112C410.845 267.848 411.373 268.4 412.029 268.768C412.685 269.12 413.405 269.296 414.189 269.296ZM439.621 257.608C440.645 257.608 441.557 257.824 442.357 258.256C443.157 258.672 443.789 259.304 444.253 260.152C444.717 261 444.949 262.032 444.949 263.248V271H442.789V263.56C442.789 262.248 442.461 261.248 441.805 260.56C441.165 259.856 440.293 259.504 439.189 259.504C438.053 259.504 437.149 259.872 436.477 260.608C435.805 261.328 435.469 262.376 435.469 263.752V271H433.309V263.56C433.309 262.248 432.981 261.248 432.325 260.56C431.685 259.856 430.813 259.504 429.709 259.504C428.573 259.504 427.669 259.872 426.997 260.608C426.325 261.328 425.989 262.376 425.989 263.752V271H423.805V257.848H425.989V259.744C426.421 259.056 426.997 258.528 427.717 258.16C428.453 257.792 429.261 257.608 430.141 257.608C431.245 257.608 432.221 257.856 433.069 258.352C433.917 258.848 434.549 259.576 434.965 260.536C435.333 259.608 435.941 258.888 436.789 258.376C437.637 257.864 438.581 257.608 439.621 257.608ZM447.716 264.376C447.716 263.032 447.988 261.856 448.532 260.848C449.076 259.824 449.82 259.032 450.764 258.472C451.724 257.912 452.788 257.632 453.956 257.632C455.108 257.632 456.108 257.88 456.956 258.376C457.804 258.872 458.436 259.496 458.852 260.248V257.848H461.06V271H458.852V268.552C458.42 269.32 457.772 269.96 456.908 270.472C456.06 270.968 455.068 271.216 453.932 271.216C452.764 271.216 451.708 270.928 450.764 270.352C449.82 269.776 449.076 268.968 448.532 267.928C447.988 266.888 447.716 265.704 447.716 264.376ZM458.852 264.4C458.852 263.408 458.652 262.544 458.252 261.808C457.852 261.072 457.308 260.512 456.62 260.128C455.948 259.728 455.204 259.528 454.388 259.528C453.572 259.528 452.828 259.72 452.156 260.104C451.484 260.488 450.948 261.048 450.548 261.784C450.148 262.52 449.948 263.384 449.948 264.376C449.948 265.384 450.148 266.264 450.548 267.016C450.948 267.752 451.484 268.32 452.156 268.72C452.828 269.104 453.572 269.296 454.388 269.296C455.204 269.296 455.948 269.104 456.62 268.72C457.308 268.32 457.852 267.752 458.252 267.016C458.652 266.264 458.852 265.392 458.852 264.4ZM467.414 259.648V267.4C467.414 268.04 467.55 268.496 467.822 268.768C468.094 269.024 468.566 269.152 469.238 269.152H470.846V271H468.878C467.662 271 466.75 270.72 466.142 270.16C465.534 269.6 465.23 268.68 465.23 267.4V259.648H463.526V257.848H465.23V254.536H467.414V257.848H470.846V259.648H467.414ZM485.493 263.92C485.493 264.336 485.469 264.776 485.421 265.24H474.909C474.989 266.536 475.429 267.552 476.229 268.288C477.045 269.008 478.029 269.368 479.181 269.368C480.125 269.368 480.909 269.152 481.533 268.72C482.173 268.272 482.621 267.68 482.877 266.944H485.229C484.877 268.208 484.173 269.24 483.117 270.04C482.061 270.824 480.749 271.216 479.181 271.216C477.933 271.216 476.813 270.936 475.821 270.376C474.845 269.816 474.077 269.024 473.517 268C472.957 266.96 472.677 265.76 472.677 264.4C472.677 263.04 472.949 261.848 473.493 260.824C474.037 259.8 474.797 259.016 475.773 258.472C476.765 257.912 477.901 257.632 479.181 257.632C480.429 257.632 481.533 257.904 482.493 258.448C483.453 258.992 484.189 259.744 484.701 260.704C485.229 261.648 485.493 262.72 485.493 263.92ZM483.237 263.464C483.237 262.632 483.053 261.92 482.685 261.328C482.317 260.72 481.813 260.264 481.173 259.96C480.549 259.64 479.853 259.48 479.085 259.48C477.981 259.48 477.037 259.832 476.253 260.536C475.485 261.24 475.045 262.216 474.933 263.464H483.237ZM487.559 264.376C487.559 263.032 487.831 261.856 488.375 260.848C488.919 259.824 489.663 259.032 490.607 258.472C491.567 257.912 492.639 257.632 493.823 257.632C494.847 257.632 495.799 257.872 496.679 258.352C497.559 258.816 498.231 259.432 498.695 260.2V253.24H500.903V271H498.695V268.528C498.263 269.312 497.623 269.96 496.775 270.472C495.927 270.968 494.935 271.216 493.799 271.216C492.631 271.216 491.567 270.928 490.607 270.352C489.663 269.776 488.919 268.968 488.375 267.928C487.831 266.888 487.559 265.704 487.559 264.376ZM498.695 264.4C498.695 263.408 498.495 262.544 498.095 261.808C497.695 261.072 497.151 260.512 496.463 260.128C495.791 259.728 495.047 259.528 494.231 259.528C493.415 259.528 492.671 259.72 491.999 260.104C491.327 260.488 490.791 261.048 490.391 261.784C489.991 262.52 489.791 263.384 489.791 264.376C489.791 265.384 489.991 266.264 490.391 267.016C490.791 267.752 491.327 268.32 491.999 268.72C492.671 269.104 493.415 269.296 494.231 269.296C495.047 269.296 495.791 269.104 496.463 268.72C497.151 268.32 497.695 267.752 498.095 267.016C498.495 266.264 498.695 265.392 498.695 264.4ZM513.657 259.648V267.4C513.657 268.04 513.793 268.496 514.065 268.768C514.337 269.024 514.809 269.152 515.481 269.152H517.089V271H515.121C513.905 271 512.993 270.72 512.385 270.16C511.777 269.6 511.473 268.68 511.473 267.4V259.648H509.769V257.848H511.473V254.536H513.657V257.848H517.089V259.648H513.657ZM531.735 263.92C531.735 264.336 531.711 264.776 531.663 265.24H521.151C521.231 266.536 521.671 267.552 522.471 268.288C523.287 269.008 524.271 269.368 525.423 269.368C526.367 269.368 527.151 269.152 527.775 268.72C528.415 268.272 528.863 267.68 529.119 266.944H531.471C531.119 268.208 530.415 269.24 529.359 270.04C528.303 270.824 526.991 271.216 525.423 271.216C524.175 271.216 523.055 270.936 522.063 270.376C521.087 269.816 520.319 269.024 519.759 268C519.199 266.96 518.919 265.76 518.919 264.4C518.919 263.04 519.191 261.848 519.735 260.824C520.279 259.8 521.039 259.016 522.015 258.472C523.007 257.912 524.143 257.632 525.423 257.632C526.671 257.632 527.775 257.904 528.735 258.448C529.695 258.992 530.431 259.744 530.943 260.704C531.471 261.648 531.735 262.72 531.735 263.92ZM529.479 263.464C529.479 262.632 529.295 261.92 528.927 261.328C528.559 260.72 528.055 260.264 527.415 259.96C526.791 259.64 526.095 259.48 525.327 259.48C524.223 259.48 523.279 259.832 522.495 260.536C521.727 261.24 521.287 262.216 521.175 263.464H529.479ZM539.274 271.216C538.266 271.216 537.362 271.048 536.562 270.712C535.762 270.36 535.13 269.88 534.666 269.272C534.202 268.648 533.946 267.936 533.898 267.136H536.154C536.218 267.792 536.522 268.328 537.066 268.744C537.626 269.16 538.354 269.368 539.25 269.368C540.082 269.368 540.738 269.184 541.218 268.816C541.698 268.448 541.938 267.984 541.938 267.424C541.938 266.848 541.682 266.424 541.17 266.152C540.658 265.864 539.866 265.584 538.794 265.312C537.818 265.056 537.018 264.8 536.394 264.544C535.786 264.272 535.258 263.88 534.81 263.368C534.378 262.84 534.162 262.152 534.162 261.304C534.162 260.632 534.362 260.016 534.762 259.456C535.162 258.896 535.73 258.456 536.466 258.136C537.202 257.8 538.042 257.632 538.986 257.632C540.442 257.632 541.618 258 542.514 258.736C543.41 259.472 543.89 260.48 543.954 261.76H541.77C541.722 261.072 541.442 260.52 540.93 260.104C540.434 259.688 539.762 259.48 538.914 259.48C538.13 259.48 537.506 259.648 537.042 259.984C536.578 260.32 536.346 260.76 536.346 261.304C536.346 261.736 536.482 262.096 536.754 262.384C537.042 262.656 537.394 262.88 537.81 263.056C538.242 263.216 538.834 263.4 539.586 263.608C540.53 263.864 541.298 264.12 541.89 264.376C542.482 264.616 542.986 264.984 543.402 265.48C543.834 265.976 544.058 266.624 544.074 267.424C544.074 268.144 543.874 268.792 543.474 269.368C543.074 269.944 542.506 270.4 541.77 270.736C541.05 271.056 540.218 271.216 539.274 271.216ZM549.821 259.648V267.4C549.821 268.04 549.957 268.496 550.229 268.768C550.501 269.024 550.973 269.152 551.645 269.152H553.253V271H551.285C550.069 271 549.157 270.72 548.549 270.16C547.941 269.6 547.637 268.68 547.637 267.4V259.648H545.933V257.848H547.637V254.536H549.821V257.848H553.253V259.648H549.821ZM557.027 255.712C556.611 255.712 556.259 255.568 555.971 255.28C555.683 254.992 555.539 254.64 555.539 254.224C555.539 253.808 555.683 253.456 555.971 253.168C556.259 252.88 556.611 252.736 557.027 252.736C557.427 252.736 557.763 252.88 558.035 253.168C558.323 253.456 558.467 253.808 558.467 254.224C558.467 254.64 558.323 254.992 558.035 255.28C557.763 255.568 557.427 255.712 557.027 255.712ZM558.083 257.848V271H555.899V257.848H558.083ZM568.213 257.608C569.813 257.608 571.109 258.096 572.101 259.072C573.093 260.032 573.589 261.424 573.589 263.248V271H571.429V263.56C571.429 262.248 571.101 261.248 570.445 260.56C569.789 259.856 568.893 259.504 567.757 259.504C566.605 259.504 565.685 259.864 564.997 260.584C564.325 261.304 563.989 262.352 563.989 263.728V271H561.805V257.848H563.989V259.72C564.421 259.048 565.005 258.528 565.741 258.16C566.493 257.792 567.317 257.608 568.213 257.608ZM582.581 257.632C583.717 257.632 584.709 257.88 585.557 258.376C586.421 258.872 587.061 259.496 587.477 260.248V257.848H589.685V271.288C589.685 272.488 589.429 273.552 588.917 274.48C588.405 275.424 587.669 276.16 586.709 276.688C585.765 277.216 584.661 277.48 583.397 277.48C581.669 277.48 580.229 277.072 579.077 276.256C577.925 275.44 577.245 274.328 577.037 272.92H579.197C579.437 273.72 579.933 274.36 580.685 274.84C581.437 275.336 582.341 275.584 583.397 275.584C584.597 275.584 585.573 275.208 586.325 274.456C587.093 273.704 587.477 272.648 587.477 271.288V268.528C587.045 269.296 586.405 269.936 585.557 270.448C584.709 270.96 583.717 271.216 582.581 271.216C581.413 271.216 580.349 270.928 579.389 270.352C578.445 269.776 577.701 268.968 577.157 267.928C576.613 266.888 576.341 265.704 576.341 264.376C576.341 263.032 576.613 261.856 577.157 260.848C577.701 259.824 578.445 259.032 579.389 258.472C580.349 257.912 581.413 257.632 582.581 257.632ZM587.477 264.4C587.477 263.408 587.277 262.544 586.877 261.808C586.477 261.072 585.933 260.512 585.245 260.128C584.573 259.728 583.829 259.528 583.013 259.528C582.197 259.528 581.453 259.72 580.781 260.104C580.109 260.488 579.573 261.048 579.173 261.784C578.773 262.52 578.573 263.384 578.573 264.376C578.573 265.384 578.773 266.264 579.173 267.016C579.573 267.752 580.109 268.32 580.781 268.72C581.453 269.104 582.197 269.296 583.013 269.296C583.829 269.296 584.573 269.104 585.245 268.72C585.933 268.32 586.477 267.752 586.877 267.016C587.277 266.264 587.477 265.392 587.477 264.4ZM602.438 259.648V267.4C602.438 268.04 602.574 268.496 602.846 268.768C603.118 269.024 603.59 269.152 604.262 269.152H605.87V271H603.902C602.686 271 601.774 270.72 601.166 270.16C600.558 269.6 600.254 268.68 600.254 267.4V259.648H598.55V257.848H600.254V254.536H602.438V257.848H605.87V259.648H602.438ZM614.252 271.216C613.02 271.216 611.9 270.936 610.892 270.376C609.9 269.816 609.116 269.024 608.54 268C607.98 266.96 607.7 265.76 607.7 264.4C607.7 263.056 607.988 261.872 608.564 260.848C609.156 259.808 609.956 259.016 610.964 258.472C611.972 257.912 613.1 257.632 614.348 257.632C615.596 257.632 616.724 257.912 617.732 258.472C618.74 259.016 619.532 259.8 620.108 260.824C620.7 261.848 620.996 263.04 620.996 264.4C620.996 265.76 620.692 266.96 620.084 268C619.492 269.024 618.684 269.816 617.66 270.376C616.636 270.936 615.5 271.216 614.252 271.216ZM614.252 269.296C615.036 269.296 615.772 269.112 616.46 268.744C617.148 268.376 617.7 267.824 618.116 267.088C618.548 266.352 618.764 265.456 618.764 264.4C618.764 263.344 618.556 262.448 618.14 261.712C617.724 260.976 617.18 260.432 616.508 260.08C615.836 259.712 615.108 259.528 614.324 259.528C613.524 259.528 612.788 259.712 612.116 260.08C611.46 260.432 610.932 260.976 610.532 261.712C610.132 262.448 609.932 263.344 609.932 264.4C609.932 265.472 610.124 266.376 610.508 267.112C610.908 267.848 611.436 268.4 612.092 268.768C612.748 269.12 613.468 269.296 614.252 269.296ZM632.45 260.296C632.898 259.512 633.554 258.872 634.418 258.376C635.282 257.88 636.266 257.632 637.37 257.632C638.554 257.632 639.618 257.912 640.562 258.472C641.506 259.032 642.25 259.824 642.794 260.848C643.338 261.856 643.61 263.032 643.61 264.376C643.61 265.704 643.338 266.888 642.794 267.928C642.25 268.968 641.498 269.776 640.538 270.352C639.594 270.928 638.538 271.216 637.37 271.216C636.234 271.216 635.234 270.968 634.37 270.472C633.522 269.976 632.882 269.344 632.45 268.576V271H630.266V253.24H632.45V260.296ZM641.378 264.376C641.378 263.384 641.178 262.52 640.778 261.784C640.378 261.048 639.834 260.488 639.146 260.104C638.474 259.72 637.73 259.528 636.914 259.528C636.114 259.528 635.37 259.728 634.682 260.128C634.01 260.512 633.466 261.08 633.05 261.832C632.65 262.568 632.45 263.424 632.45 264.4C632.45 265.392 632.65 266.264 633.05 267.016C633.466 267.752 634.01 268.32 634.682 268.72C635.37 269.104 636.114 269.296 636.914 269.296C637.73 269.296 638.474 269.104 639.146 268.72C639.834 268.32 640.378 267.752 640.778 267.016C641.178 266.264 641.378 265.384 641.378 264.376ZM658.149 257.848V271H655.965V269.056C655.549 269.728 654.965 270.256 654.213 270.64C653.477 271.008 652.661 271.192 651.765 271.192C650.741 271.192 649.821 270.984 649.005 270.568C648.189 270.136 647.541 269.496 647.061 268.648C646.597 267.8 646.365 266.768 646.365 265.552V257.848H648.525V265.264C648.525 266.56 648.853 267.56 649.509 268.264C650.165 268.952 651.061 269.296 652.197 269.296C653.365 269.296 654.285 268.936 654.957 268.216C655.629 267.496 655.965 266.448 655.965 265.072V257.848H658.149ZM662.964 255.712C662.548 255.712 662.196 255.568 661.908 255.28C661.62 254.992 661.476 254.64 661.476 254.224C661.476 253.808 661.62 253.456 661.908 253.168C662.196 252.88 662.548 252.736 662.964 252.736C663.364 252.736 663.7 252.88 663.972 253.168C664.26 253.456 664.404 253.808 664.404 254.224C664.404 254.64 664.26 254.992 663.972 255.28C663.7 255.568 663.364 255.712 662.964 255.712ZM664.02 257.848V271H661.836V257.848H664.02ZM669.927 253.24V271H667.743V253.24H669.927ZM672.833 264.376C672.833 263.032 673.105 261.856 673.649 260.848C674.193 259.824 674.937 259.032 675.881 258.472C676.841 257.912 677.913 257.632 679.097 257.632C680.121 257.632 681.073 257.872 681.953 258.352C682.833 258.816 683.505 259.432 683.969 260.2V253.24H686.177V271H683.969V268.528C683.537 269.312 682.897 269.96 682.049 270.472C681.201 270.968 680.209 271.216 679.073 271.216C677.905 271.216 676.841 270.928 675.881 270.352C674.937 269.776 674.193 268.968 673.649 267.928C673.105 266.888 672.833 265.704 672.833 264.376ZM683.969 264.4C683.969 263.408 683.769 262.544 683.369 261.808C682.969 261.072 682.425 260.512 681.737 260.128C681.065 259.728 680.321 259.528 679.505 259.528C678.689 259.528 677.945 259.72 677.273 260.104C676.601 260.488 676.065 261.048 675.665 261.784C675.265 262.52 675.065 263.384 675.065 264.376C675.065 265.384 675.265 266.264 675.665 267.016C676.065 267.752 676.601 268.32 677.273 268.72C677.945 269.104 678.689 269.296 679.505 269.296C680.321 269.296 681.065 269.104 681.737 268.72C682.425 268.32 682.969 267.752 683.369 267.016C683.769 266.264 683.969 265.392 683.969 264.4ZM695.45 264.376C695.45 263.032 695.722 261.856 696.266 260.848C696.81 259.824 697.554 259.032 698.498 258.472C699.458 257.912 700.53 257.632 701.714 257.632C702.85 257.632 703.842 257.888 704.69 258.4C705.554 258.896 706.186 259.512 706.586 260.248V257.848H708.794V277.24H706.586V268.576C706.17 269.312 705.53 269.936 704.666 270.448C703.802 270.96 702.794 271.216 701.642 271.216C700.49 271.216 699.442 270.928 698.498 270.352C697.554 269.776 696.81 268.968 696.266 267.928C695.722 266.888 695.45 265.704 695.45 264.376ZM706.586 264.4C706.586 263.408 706.386 262.544 705.986 261.808C705.586 261.072 705.042 260.512 704.354 260.128C703.682 259.728 702.938 259.528 702.122 259.528C701.306 259.528 700.562 259.72 699.89 260.104C699.218 260.488 698.682 261.048 698.282 261.784C697.882 262.52 697.682 263.384 697.682 264.376C697.682 265.384 697.882 266.264 698.282 267.016C698.682 267.752 699.218 268.32 699.89 268.72C700.562 269.104 701.306 269.296 702.122 269.296C702.938 269.296 703.682 269.104 704.354 268.72C705.042 268.32 705.586 267.752 705.986 267.016C706.386 266.264 706.586 265.392 706.586 264.4ZM724.149 257.848V271H721.965V269.056C721.549 269.728 720.965 270.256 720.213 270.64C719.477 271.008 718.661 271.192 717.765 271.192C716.741 271.192 715.821 270.984 715.005 270.568C714.189 270.136 713.541 269.496 713.061 268.648C712.597 267.8 712.365 266.768 712.365 265.552V257.848H714.525V265.264C714.525 266.56 714.853 267.56 715.509 268.264C716.165 268.952 717.061 269.296 718.197 269.296C719.365 269.296 720.285 268.936 720.957 268.216C721.629 267.496 721.965 266.448 721.965 265.072V257.848H724.149ZM727.02 264.376C727.02 263.032 727.292 261.856 727.836 260.848C728.38 259.824 729.124 259.032 730.068 258.472C731.028 257.912 732.092 257.632 733.26 257.632C734.412 257.632 735.412 257.88 736.26 258.376C737.108 258.872 737.74 259.496 738.156 260.248V257.848H740.364V271H738.156V268.552C737.724 269.32 737.076 269.96 736.212 270.472C735.364 270.968 734.372 271.216 733.236 271.216C732.068 271.216 731.012 270.928 730.068 270.352C729.124 269.776 728.38 268.968 727.836 267.928C727.292 266.888 727.02 265.704 727.02 264.376ZM738.156 264.4C738.156 263.408 737.956 262.544 737.556 261.808C737.156 261.072 736.612 260.512 735.924 260.128C735.252 259.728 734.508 259.528 733.692 259.528C732.876 259.528 732.132 259.72 731.46 260.104C730.788 260.488 730.252 261.048 729.852 261.784C729.452 262.52 729.252 263.384 729.252 264.376C729.252 265.384 729.452 266.264 729.852 267.016C730.252 267.752 730.788 268.32 731.46 268.72C732.132 269.104 732.876 269.296 733.692 269.296C734.508 269.296 735.252 269.104 735.924 268.72C736.612 268.32 737.156 267.752 737.556 267.016C737.956 266.264 738.156 265.392 738.156 264.4ZM746.239 253.24V271H744.055V253.24H746.239ZM751.089 255.712C750.673 255.712 750.321 255.568 750.033 255.28C749.745 254.992 749.601 254.64 749.601 254.224C749.601 253.808 749.745 253.456 750.033 253.168C750.321 252.88 750.673 252.736 751.089 252.736C751.489 252.736 751.825 252.88 752.097 253.168C752.385 253.456 752.529 253.808 752.529 254.224C752.529 254.64 752.385 254.992 752.097 255.28C751.825 255.568 751.489 255.712 751.089 255.712ZM752.145 257.848V271H749.961V257.848H752.145ZM758.532 259.648V267.4C758.532 268.04 758.668 268.496 758.94 268.768C759.212 269.024 759.684 269.152 760.356 269.152H761.964V271H759.996C758.78 271 757.868 270.72 757.26 270.16C756.652 269.6 756.348 268.68 756.348 267.4V259.648H754.644V257.848H756.348V254.536H758.532V257.848H761.964V259.648H758.532ZM775.938 257.848L768.018 277.192H765.762L768.354 270.856L763.05 257.848H765.474L769.602 268.504L773.682 257.848H775.938ZM780.389 267.976L777.701 274.432H776.237L777.989 267.976H780.389ZM791.473 259.984C791.857 259.232 792.401 258.648 793.105 258.232C793.825 257.816 794.697 257.608 795.721 257.608V259.864H795.145C792.697 259.864 791.473 261.192 791.473 263.848V271H789.289V257.848H791.473V259.984ZM810.243 263.92C810.243 264.336 810.219 264.776 810.171 265.24H799.659C799.739 266.536 800.179 267.552 800.979 268.288C801.795 269.008 802.779 269.368 803.931 269.368C804.875 269.368 805.659 269.152 806.283 268.72C806.923 268.272 807.371 267.68 807.627 266.944H809.979C809.627 268.208 808.923 269.24 807.867 270.04C806.811 270.824 805.499 271.216 803.931 271.216C802.683 271.216 801.563 270.936 800.571 270.376C799.595 269.816 798.827 269.024 798.267 268C797.707 266.96 797.427 265.76 797.427 264.4C797.427 263.04 797.699 261.848 798.243 260.824C798.787 259.8 799.547 259.016 800.523 258.472C801.515 257.912 802.651 257.632 803.931 257.632C805.179 257.632 806.283 257.904 807.243 258.448C808.203 258.992 808.939 259.744 809.451 260.704C809.979 261.648 810.243 262.72 810.243 263.92ZM807.987 263.464C807.987 262.632 807.803 261.92 807.435 261.328C807.067 260.72 806.563 260.264 805.923 259.96C805.299 259.64 804.603 259.48 803.835 259.48C802.731 259.48 801.787 259.832 801.003 260.536C800.235 261.24 799.795 262.216 799.683 263.464H807.987ZM815.309 253.24V271H813.125V253.24H815.309ZM820.16 255.712C819.744 255.712 819.392 255.568 819.104 255.28C818.816 254.992 818.672 254.64 818.672 254.224C818.672 253.808 818.816 253.456 819.104 253.168C819.392 252.88 819.744 252.736 820.16 252.736C820.56 252.736 820.896 252.88 821.168 253.168C821.456 253.456 821.6 253.808 821.6 254.224C821.6 254.64 821.456 254.992 821.168 255.28C820.896 255.568 820.56 255.712 820.16 255.712ZM821.216 257.848V271H819.032V257.848H821.216ZM824.122 264.376C824.122 263.032 824.394 261.856 824.938 260.848C825.482 259.824 826.226 259.032 827.17 258.472C828.13 257.912 829.194 257.632 830.362 257.632C831.514 257.632 832.514 257.88 833.362 258.376C834.21 258.872 834.842 259.496 835.258 260.248V257.848H837.466V271H835.258V268.552C834.826 269.32 834.178 269.96 833.314 270.472C832.466 270.968 831.474 271.216 830.338 271.216C829.17 271.216 828.114 270.928 827.17 270.352C826.226 269.776 825.482 268.968 824.938 267.928C824.394 266.888 824.122 265.704 824.122 264.376ZM835.258 264.4C835.258 263.408 835.058 262.544 834.658 261.808C834.258 261.072 833.714 260.512 833.026 260.128C832.354 259.728 831.61 259.528 830.794 259.528C829.978 259.528 829.234 259.72 828.562 260.104C827.89 260.488 827.354 261.048 826.954 261.784C826.554 262.52 826.354 263.384 826.354 264.376C826.354 265.384 826.554 266.264 826.954 267.016C827.354 267.752 827.89 268.32 828.562 268.72C829.234 269.104 829.978 269.296 830.794 269.296C831.61 269.296 832.354 269.104 833.026 268.72C833.714 268.32 834.258 267.752 834.658 267.016C835.058 266.264 835.258 265.392 835.258 264.4ZM843.341 260.296C843.789 259.512 844.445 258.872 845.309 258.376C846.173 257.88 847.157 257.632 848.261 257.632C849.445 257.632 850.509 257.912 851.453 258.472C852.397 259.032 853.141 259.824 853.685 260.848C854.229 261.856 854.501 263.032 854.501 264.376C854.501 265.704 854.229 266.888 853.685 267.928C853.141 268.968 852.389 269.776 851.429 270.352C850.485 270.928 849.429 271.216 848.261 271.216C847.125 271.216 846.125 270.968 845.261 270.472C844.413 269.976 843.773 269.344 843.341 268.576V271H841.157V253.24H843.341V260.296ZM852.269 264.376C852.269 263.384 852.069 262.52 851.669 261.784C851.269 261.048 850.725 260.488 850.037 260.104C849.365 259.72 848.621 259.528 847.805 259.528C847.005 259.528 846.261 259.728 845.573 260.128C844.901 260.512 844.357 261.08 843.941 261.832C843.541 262.568 843.341 263.424 843.341 264.4C843.341 265.392 843.541 266.264 843.941 267.016C844.357 267.752 844.901 268.32 845.573 268.72C846.261 269.104 847.005 269.296 847.805 269.296C848.621 269.296 849.365 269.104 850.037 268.72C850.725 268.32 851.269 267.752 851.669 267.016C852.069 266.264 852.269 265.384 852.269 264.376ZM858.503 255.712C858.087 255.712 857.735 255.568 857.447 255.28C857.159 254.992 857.015 254.64 857.015 254.224C857.015 253.808 857.159 253.456 857.447 253.168C857.735 252.88 858.087 252.736 858.503 252.736C858.903 252.736 859.239 252.88 859.511 253.168C859.799 253.456 859.943 253.808 859.943 254.224C859.943 254.64 859.799 254.992 859.511 255.28C859.239 255.568 858.903 255.712 858.503 255.712ZM859.559 257.848V271H857.375V257.848H859.559ZM865.466 253.24V271H863.282V253.24H865.466ZM870.316 255.712C869.9 255.712 869.548 255.568 869.26 255.28C868.972 254.992 868.828 254.64 868.828 254.224C868.828 253.808 868.972 253.456 869.26 253.168C869.548 252.88 869.9 252.736 870.316 252.736C870.716 252.736 871.052 252.88 871.324 253.168C871.612 253.456 871.756 253.808 871.756 254.224C871.756 254.64 871.612 254.992 871.324 255.28C871.052 255.568 870.716 255.712 870.316 255.712ZM871.372 257.848V271H869.188V257.848H871.372ZM877.758 259.648V267.4C877.758 268.04 877.894 268.496 878.166 268.768C878.438 269.024 878.91 269.152 879.582 269.152H881.19V271H879.222C878.006 271 877.094 270.72 876.486 270.16C875.878 269.6 875.574 268.68 875.574 267.4V259.648H873.87V257.848H875.574V254.536H877.758V257.848H881.19V259.648H877.758ZM895.164 257.848L887.244 277.192H884.988L887.58 270.856L882.276 257.848H884.7L888.828 268.504L892.908 257.848H895.164ZM899.616 267.976L896.928 274.432H895.464L897.216 267.976H899.616ZM907.7 264.376C907.7 263.032 907.972 261.856 908.516 260.848C909.06 259.824 909.804 259.032 910.748 258.472C911.708 257.912 912.772 257.632 913.94 257.632C915.092 257.632 916.092 257.88 916.94 258.376C917.788 258.872 918.42 259.496 918.836 260.248V257.848H921.044V271H918.836V268.552C918.404 269.32 917.756 269.96 916.892 270.472C916.044 270.968 915.052 271.216 913.916 271.216C912.748 271.216 911.692 270.928 910.748 270.352C909.804 269.776 909.06 268.968 908.516 267.928C907.972 266.888 907.7 265.704 907.7 264.376ZM918.836 264.4C918.836 263.408 918.636 262.544 918.236 261.808C917.836 261.072 917.292 260.512 916.604 260.128C915.932 259.728 915.188 259.528 914.372 259.528C913.556 259.528 912.812 259.72 912.14 260.104C911.468 260.488 910.932 261.048 910.532 261.784C910.132 262.52 909.932 263.384 909.932 264.376C909.932 265.384 910.132 266.264 910.532 267.016C910.932 267.752 911.468 268.32 912.14 268.72C912.812 269.104 913.556 269.296 914.372 269.296C915.188 269.296 915.932 269.104 916.604 268.72C917.292 268.32 917.836 267.752 918.236 267.016C918.636 266.264 918.836 265.392 918.836 264.4ZM931.143 257.608C932.743 257.608 934.039 258.096 935.031 259.072C936.023 260.032 936.519 261.424 936.519 263.248V271H934.359V263.56C934.359 262.248 934.031 261.248 933.375 260.56C932.719 259.856 931.823 259.504 930.687 259.504C929.535 259.504 928.615 259.864 927.927 260.584C927.255 261.304 926.919 262.352 926.919 263.728V271H924.735V257.848H926.919V259.72C927.351 259.048 927.935 258.528 928.671 258.16C929.423 257.792 930.247 257.608 931.143 257.608ZM939.27 264.376C939.27 263.032 939.542 261.856 940.086 260.848C940.63 259.824 941.374 259.032 942.318 258.472C943.278 257.912 944.35 257.632 945.534 257.632C946.558 257.632 947.51 257.872 948.39 258.352C949.27 258.816 949.942 259.432 950.406 260.2V253.24H952.614V271H950.406V268.528C949.974 269.312 949.334 269.96 948.486 270.472C947.638 270.968 946.646 271.216 945.51 271.216C944.342 271.216 943.278 270.928 942.318 270.352C941.374 269.776 940.63 268.968 940.086 267.928C939.542 266.888 939.27 265.704 939.27 264.376ZM950.406 264.4C950.406 263.408 950.206 262.544 949.806 261.808C949.406 261.072 948.862 260.512 948.174 260.128C947.502 259.728 946.758 259.528 945.942 259.528C945.126 259.528 944.382 259.72 943.71 260.104C943.038 260.488 942.502 261.048 942.102 261.784C941.702 262.52 941.502 263.384 941.502 264.376C941.502 265.384 941.702 266.264 942.102 267.016C942.502 267.752 943.038 268.32 943.71 268.72C944.382 269.104 945.126 269.296 945.942 269.296C946.758 269.296 947.502 269.104 948.174 268.72C948.862 268.32 949.406 267.752 949.806 267.016C950.206 266.264 950.406 265.392 950.406 264.4ZM967.359 271.216C966.351 271.216 965.447 271.048 964.647 270.712C963.847 270.36 963.215 269.88 962.751 269.272C962.287 268.648 962.031 267.936 961.983 267.136H964.239C964.303 267.792 964.607 268.328 965.151 268.744C965.711 269.16 966.439 269.368 967.335 269.368C968.167 269.368 968.823 269.184 969.303 268.816C969.783 268.448 970.023 267.984 970.023 267.424C970.023 266.848 969.767 266.424 969.255 266.152C968.743 265.864 967.951 265.584 966.879 265.312C965.903 265.056 965.103 264.8 964.479 264.544C963.871 264.272 963.343 263.88 962.895 263.368C962.463 262.84 962.247 262.152 962.247 261.304C962.247 260.632 962.447 260.016 962.847 259.456C963.247 258.896 963.815 258.456 964.551 258.136C965.287 257.8 966.127 257.632 967.071 257.632C968.527 257.632 969.703 258 970.599 258.736C971.495 259.472 971.975 260.48 972.039 261.76H969.855C969.807 261.072 969.527 260.52 969.015 260.104C968.519 259.688 967.847 259.48 966.999 259.48C966.215 259.48 965.591 259.648 965.127 259.984C964.663 260.32 964.431 260.76 964.431 261.304C964.431 261.736 964.567 262.096 964.839 262.384C965.127 262.656 965.479 262.88 965.895 263.056C966.327 263.216 966.919 263.4 967.671 263.608C968.615 263.864 969.383 264.12 969.975 264.376C970.567 264.616 971.071 264.984 971.487 265.48C971.919 265.976 972.143 266.624 972.159 267.424C972.159 268.144 971.959 268.792 971.559 269.368C971.159 269.944 970.591 270.4 969.855 270.736C969.135 271.056 968.303 271.216 967.359 271.216ZM974.427 264.376C974.427 263.032 974.699 261.856 975.243 260.848C975.787 259.824 976.531 259.032 977.475 258.472C978.435 257.912 979.499 257.632 980.667 257.632C981.819 257.632 982.819 257.88 983.667 258.376C984.515 258.872 985.147 259.496 985.563 260.248V257.848H987.771V271H985.563V268.552C985.131 269.32 984.483 269.96 983.619 270.472C982.771 270.968 981.779 271.216 980.643 271.216C979.475 271.216 978.419 270.928 977.475 270.352C976.531 269.776 975.787 268.968 975.243 267.928C974.699 266.888 974.427 265.704 974.427 264.376ZM985.563 264.4C985.563 263.408 985.363 262.544 984.963 261.808C984.563 261.072 984.019 260.512 983.331 260.128C982.659 259.728 981.915 259.528 981.099 259.528C980.283 259.528 979.539 259.72 978.867 260.104C978.195 260.488 977.659 261.048 977.259 261.784C976.859 262.52 976.659 263.384 976.659 264.376C976.659 265.384 976.859 266.264 977.259 267.016C977.659 267.752 978.195 268.32 978.867 268.72C979.539 269.104 980.283 269.296 981.099 269.296C981.915 269.296 982.659 269.104 983.331 268.72C984.019 268.32 984.563 267.752 984.963 267.016C985.363 266.264 985.563 265.392 985.563 264.4ZM996.813 259.648H994.053V271H991.869V259.648H990.165V257.848H991.869V256.912C991.869 255.44 992.245 254.368 992.997 253.696C993.765 253.008 994.989 252.664 996.669 252.664V254.488C995.709 254.488 995.029 254.68 994.629 255.064C994.245 255.432 994.053 256.048 994.053 256.912V257.848H996.813V259.648ZM1011.36 263.92C1011.36 264.336 1011.34 264.776 1011.29 265.24H1000.78C1000.86 266.536 1001.3 267.552 1002.1 268.288C1002.91 269.008 1003.9 269.368 1005.05 269.368C1005.99 269.368 1006.78 269.152 1007.4 268.72C1008.04 268.272 1008.49 267.68 1008.74 266.944H1011.1C1010.74 268.208 1010.04 269.24 1008.98 270.04C1007.93 270.824 1006.62 271.216 1005.05 271.216C1003.8 271.216 1002.68 270.936 1001.69 270.376C1000.71 269.816 999.944 269.024 999.384 268C998.824 266.96 998.544 265.76 998.544 264.4C998.544 263.04 998.816 261.848 999.36 260.824C999.904 259.8 1000.66 259.016 1001.64 258.472C1002.63 257.912 1003.77 257.632 1005.05 257.632C1006.3 257.632 1007.4 257.904 1008.36 258.448C1009.32 258.992 1010.06 259.744 1010.57 260.704C1011.1 261.648 1011.36 262.72 1011.36 263.92ZM1009.1 263.464C1009.1 262.632 1008.92 261.92 1008.55 261.328C1008.18 260.72 1007.68 260.264 1007.04 259.96C1006.42 259.64 1005.72 259.48 1004.95 259.48C1003.85 259.48 1002.9 259.832 1002.12 260.536C1001.35 261.24 1000.91 262.216 1000.8 263.464H1009.1ZM1016.91 259.648V267.4C1016.91 268.04 1017.04 268.496 1017.31 268.768C1017.59 269.024 1018.06 269.152 1018.73 269.152H1020.34V271H1018.37C1017.15 271 1016.24 270.72 1015.63 270.16C1015.03 269.6 1014.72 268.68 1014.72 267.4V259.648H1013.02V257.848H1014.72V254.536H1016.91V257.848H1020.34V259.648H1016.91ZM1034.31 257.848L1026.39 277.192H1024.14L1026.73 270.856L1021.42 257.848H1023.85L1027.98 268.504L1032.06 257.848H1034.31ZM444.679 291.712C444.263 291.712 443.911 291.568 443.623 291.28C443.335 290.992 443.191 290.64 443.191 290.224C443.191 289.808 443.335 289.456 443.623 289.168C443.911 288.88 444.263 288.736 444.679 288.736C445.079 288.736 445.415 288.88 445.687 289.168C445.975 289.456 446.119 289.808 446.119 290.224C446.119 290.64 445.975 290.992 445.687 291.28C445.415 291.568 445.079 291.712 444.679 291.712ZM445.735 293.848V307H443.551V293.848H445.735ZM455.865 293.608C457.465 293.608 458.761 294.096 459.753 295.072C460.745 296.032 461.241 297.424 461.241 299.248V307H459.081V299.56C459.081 298.248 458.753 297.248 458.097 296.56C457.441 295.856 456.545 295.504 455.409 295.504C454.257 295.504 453.337 295.864 452.649 296.584C451.977 297.304 451.641 298.352 451.641 299.728V307H449.457V293.848H451.641V295.72C452.073 295.048 452.657 294.528 453.393 294.16C454.145 293.792 454.969 293.608 455.865 293.608ZM467.473 295.648V303.4C467.473 304.04 467.609 304.496 467.881 304.768C468.153 305.024 468.625 305.152 469.297 305.152H470.905V307H468.937C467.721 307 466.809 306.72 466.201 306.16C465.593 305.6 465.289 304.68 465.289 303.4V295.648H463.585V293.848H465.289V290.536H467.473V293.848H470.905V295.648H467.473ZM479.287 307.216C478.055 307.216 476.935 306.936 475.927 306.376C474.935 305.816 474.151 305.024 473.575 304C473.015 302.96 472.735 301.76 472.735 300.4C472.735 299.056 473.023 297.872 473.599 296.848C474.191 295.808 474.991 295.016 475.999 294.472C477.007 293.912 478.135 293.632 479.383 293.632C480.631 293.632 481.759 293.912 482.767 294.472C483.775 295.016 484.567 295.8 485.143 296.824C485.735 297.848 486.031 299.04 486.031 300.4C486.031 301.76 485.727 302.96 485.119 304C484.527 305.024 483.719 305.816 482.695 306.376C481.671 306.936 480.535 307.216 479.287 307.216ZM479.287 305.296C480.071 305.296 480.807 305.112 481.495 304.744C482.183 304.376 482.735 303.824 483.151 303.088C483.583 302.352 483.799 301.456 483.799 300.4C483.799 299.344 483.591 298.448 483.175 297.712C482.759 296.976 482.215 296.432 481.543 296.08C480.871 295.712 480.143 295.528 479.359 295.528C478.559 295.528 477.823 295.712 477.151 296.08C476.495 296.432 475.967 296.976 475.567 297.712C475.167 298.448 474.967 299.344 474.967 300.4C474.967 301.472 475.159 302.376 475.543 303.112C475.943 303.848 476.471 304.4 477.127 304.768C477.783 305.12 478.503 305.296 479.287 305.296ZM506.629 293.848L498.709 313.192H496.453L499.045 306.856L493.741 293.848H496.165L500.293 304.504L504.373 293.848H506.629ZM514.561 307.216C513.329 307.216 512.209 306.936 511.201 306.376C510.209 305.816 509.425 305.024 508.849 304C508.289 302.96 508.009 301.76 508.009 300.4C508.009 299.056 508.297 297.872 508.873 296.848C509.465 295.808 510.265 295.016 511.273 294.472C512.281 293.912 513.409 293.632 514.657 293.632C515.905 293.632 517.033 293.912 518.041 294.472C519.049 295.016 519.841 295.8 520.417 296.824C521.009 297.848 521.305 299.04 521.305 300.4C521.305 301.76 521.001 302.96 520.393 304C519.801 305.024 518.993 305.816 517.969 306.376C516.945 306.936 515.809 307.216 514.561 307.216ZM514.561 305.296C515.345 305.296 516.081 305.112 516.769 304.744C517.457 304.376 518.009 303.824 518.425 303.088C518.857 302.352 519.073 301.456 519.073 300.4C519.073 299.344 518.865 298.448 518.449 297.712C518.033 296.976 517.489 296.432 516.817 296.08C516.145 295.712 515.417 295.528 514.633 295.528C513.833 295.528 513.097 295.712 512.425 296.08C511.769 296.432 511.241 296.976 510.841 297.712C510.441 298.448 510.241 299.344 510.241 300.4C510.241 301.472 510.433 302.376 510.817 303.112C511.217 303.848 511.745 304.4 512.401 304.768C513.057 305.12 513.777 305.296 514.561 305.296ZM535.84 293.848V307H533.656V305.056C533.24 305.728 532.656 306.256 531.904 306.64C531.168 307.008 530.352 307.192 529.456 307.192C528.432 307.192 527.512 306.984 526.696 306.568C525.88 306.136 525.232 305.496 524.752 304.648C524.288 303.8 524.056 302.768 524.056 301.552V293.848H526.216V301.264C526.216 302.56 526.544 303.56 527.2 304.264C527.856 304.952 528.752 305.296 529.888 305.296C531.056 305.296 531.976 304.936 532.648 304.216C533.32 303.496 533.656 302.448 533.656 301.072V293.848H535.84ZM541.712 295.984C542.096 295.232 542.64 294.648 543.344 294.232C544.064 293.816 544.936 293.608 545.96 293.608V295.864H545.384C542.936 295.864 541.712 297.192 541.712 299.848V307H539.528V293.848H541.712V295.984ZM564.767 303.28H557.471L556.127 307H553.823L559.871 290.368H562.391L568.415 307H566.111L564.767 303.28ZM564.143 301.504L561.119 293.056L558.095 301.504H564.143ZM573.235 290.272V307H571.051V290.272H573.235ZM586.077 297.28V299.128H576.501V297.28H586.077ZM592.36 296.296C592.808 295.512 593.464 294.872 594.328 294.376C595.192 293.88 596.176 293.632 597.28 293.632C598.464 293.632 599.528 293.912 600.472 294.472C601.416 295.032 602.16 295.824 602.704 296.848C603.248 297.856 603.52 299.032 603.52 300.376C603.52 301.704 603.248 302.888 602.704 303.928C602.16 304.968 601.408 305.776 600.448 306.352C599.504 306.928 598.448 307.216 597.28 307.216C596.144 307.216 595.144 306.968 594.28 306.472C593.432 305.976 592.792 305.344 592.36 304.576V307H590.176V289.24H592.36V296.296ZM601.288 300.376C601.288 299.384 601.088 298.52 600.688 297.784C600.288 297.048 599.744 296.488 599.056 296.104C598.384 295.72 597.64 295.528 596.824 295.528C596.024 295.528 595.28 295.728 594.592 296.128C593.92 296.512 593.376 297.08 592.96 297.832C592.56 298.568 592.36 299.424 592.36 300.4C592.36 301.392 592.56 302.264 592.96 303.016C593.376 303.752 593.92 304.32 594.592 304.72C595.28 305.104 596.024 305.296 596.824 305.296C597.64 305.296 598.384 305.104 599.056 304.72C599.744 304.32 600.288 303.752 600.688 303.016C601.088 302.264 601.288 301.384 601.288 300.376ZM605.579 300.376C605.579 299.032 605.851 297.856 606.395 296.848C606.939 295.824 607.683 295.032 608.627 294.472C609.587 293.912 610.651 293.632 611.819 293.632C612.971 293.632 613.971 293.88 614.819 294.376C615.667 294.872 616.299 295.496 616.715 296.248V293.848H618.923V307H616.715V304.552C616.283 305.32 615.635 305.96 614.771 306.472C613.923 306.968 612.931 307.216 611.795 307.216C610.627 307.216 609.571 306.928 608.627 306.352C607.683 305.776 606.939 304.968 606.395 303.928C605.851 302.888 605.579 301.704 605.579 300.376ZM616.715 300.4C616.715 299.408 616.515 298.544 616.115 297.808C615.715 297.072 615.171 296.512 614.483 296.128C613.811 295.728 613.067 295.528 612.251 295.528C611.435 295.528 610.691 295.72 610.019 296.104C609.347 296.488 608.811 297.048 608.411 297.784C608.011 298.52 607.811 299.384 607.811 300.376C607.811 301.384 608.011 302.264 608.411 303.016C608.811 303.752 609.347 304.32 610.019 304.72C610.691 305.104 611.435 305.296 612.251 305.296C613.067 305.296 613.811 305.104 614.483 304.72C615.171 304.32 615.715 303.752 616.115 303.016C616.515 302.264 616.715 301.392 616.715 300.4ZM627.27 307.216C626.262 307.216 625.358 307.048 624.558 306.712C623.758 306.36 623.126 305.88 622.662 305.272C622.198 304.648 621.942 303.936 621.894 303.136H624.15C624.214 303.792 624.518 304.328 625.062 304.744C625.622 305.16 626.35 305.368 627.246 305.368C628.078 305.368 628.734 305.184 629.214 304.816C629.694 304.448 629.934 303.984 629.934 303.424C629.934 302.848 629.678 302.424 629.166 302.152C628.654 301.864 627.862 301.584 626.79 301.312C625.814 301.056 625.014 300.8 624.39 300.544C623.782 300.272 623.254 299.88 622.806 299.368C622.374 298.84 622.158 298.152 622.158 297.304C622.158 296.632 622.358 296.016 622.758 295.456C623.158 294.896 623.726 294.456 624.462 294.136C625.198 293.8 626.038 293.632 626.982 293.632C628.438 293.632 629.614 294 630.51 294.736C631.406 295.472 631.886 296.48 631.95 297.76H629.766C629.718 297.072 629.438 296.52 628.926 296.104C628.43 295.688 627.758 295.48 626.91 295.48C626.126 295.48 625.502 295.648 625.038 295.984C624.574 296.32 624.342 296.76 624.342 297.304C624.342 297.736 624.478 298.096 624.75 298.384C625.038 298.656 625.39 298.88 625.806 299.056C626.238 299.216 626.83 299.4 627.582 299.608C628.526 299.864 629.294 300.12 629.886 300.376C630.478 300.616 630.982 300.984 631.398 301.48C631.83 301.976 632.054 302.624 632.07 303.424C632.07 304.144 631.87 304.792 631.47 305.368C631.07 305.944 630.502 306.4 629.766 306.736C629.046 307.056 628.214 307.216 627.27 307.216ZM647.153 299.92C647.153 300.336 647.129 300.776 647.081 301.24H636.569C636.649 302.536 637.089 303.552 637.889 304.288C638.705 305.008 639.689 305.368 640.841 305.368C641.785 305.368 642.569 305.152 643.193 304.72C643.833 304.272 644.281 303.68 644.537 302.944H646.889C646.537 304.208 645.833 305.24 644.777 306.04C643.721 306.824 642.409 307.216 640.841 307.216C639.593 307.216 638.473 306.936 637.481 306.376C636.505 305.816 635.737 305.024 635.177 304C634.617 302.96 634.337 301.76 634.337 300.4C634.337 299.04 634.609 297.848 635.153 296.824C635.697 295.8 636.457 295.016 637.433 294.472C638.425 293.912 639.561 293.632 640.841 293.632C642.089 293.632 643.193 293.904 644.153 294.448C645.113 294.992 645.849 295.744 646.361 296.704C646.889 297.648 647.153 298.72 647.153 299.92ZM644.897 299.464C644.897 298.632 644.713 297.92 644.345 297.328C643.977 296.72 643.473 296.264 642.833 295.96C642.209 295.64 641.513 295.48 640.745 295.48C639.641 295.48 638.697 295.832 637.913 296.536C637.145 297.24 636.705 298.216 636.593 299.464H644.897ZM649.22 300.376C649.22 299.032 649.492 297.856 650.036 296.848C650.58 295.824 651.324 295.032 652.268 294.472C653.228 293.912 654.3 293.632 655.484 293.632C656.508 293.632 657.46 293.872 658.34 294.352C659.22 294.816 659.892 295.432 660.356 296.2V289.24H662.564V307H660.356V304.528C659.924 305.312 659.284 305.96 658.436 306.472C657.588 306.968 656.596 307.216 655.46 307.216C654.292 307.216 653.228 306.928 652.268 306.352C651.324 305.776 650.58 304.968 650.036 303.928C649.492 302.888 649.22 301.704 649.22 300.376ZM660.356 300.4C660.356 299.408 660.156 298.544 659.756 297.808C659.356 297.072 658.812 296.512 658.124 296.128C657.452 295.728 656.708 295.528 655.892 295.528C655.076 295.528 654.332 295.72 653.66 296.104C652.988 296.488 652.452 297.048 652.052 297.784C651.652 298.52 651.452 299.384 651.452 300.376C651.452 301.384 651.652 302.264 652.052 303.016C652.452 303.752 652.988 304.32 653.66 304.72C654.332 305.104 655.076 305.296 655.892 305.296C656.708 305.296 657.452 305.104 658.124 304.72C658.812 304.32 659.356 303.752 659.756 303.016C660.156 302.264 660.356 301.392 660.356 300.4ZM671.837 300.4C671.837 299.04 672.109 297.856 672.653 296.848C673.197 295.824 673.949 295.032 674.909 294.472C675.885 293.912 676.997 293.632 678.245 293.632C679.861 293.632 681.189 294.024 682.229 294.808C683.285 295.592 683.981 296.68 684.317 298.072H681.965C681.741 297.272 681.301 296.64 680.645 296.176C680.005 295.712 679.205 295.48 678.245 295.48C676.997 295.48 675.989 295.912 675.221 296.776C674.453 297.624 674.069 298.832 674.069 300.4C674.069 301.984 674.453 303.208 675.221 304.072C675.989 304.936 676.997 305.368 678.245 305.368C679.205 305.368 680.005 305.144 680.645 304.696C681.285 304.248 681.725 303.608 681.965 302.776H684.317C683.965 304.12 683.261 305.2 682.205 306.016C681.149 306.816 679.829 307.216 678.245 307.216C676.997 307.216 675.885 306.936 674.909 306.376C673.949 305.816 673.197 305.024 672.653 304C672.109 302.976 671.837 301.776 671.837 300.4ZM693.759 293.608C694.751 293.608 695.647 293.824 696.447 294.256C697.247 294.672 697.871 295.304 698.319 296.152C698.783 297 699.015 298.032 699.015 299.248V307H696.855V299.56C696.855 298.248 696.527 297.248 695.871 296.56C695.215 295.856 694.319 295.504 693.183 295.504C692.031 295.504 691.111 295.864 690.423 296.584C689.751 297.304 689.415 298.352 689.415 299.728V307H687.231V289.24H689.415V295.72C689.847 295.048 690.439 294.528 691.191 294.16C691.959 293.792 692.815 293.608 693.759 293.608ZM701.766 300.376C701.766 299.032 702.038 297.856 702.582 296.848C703.126 295.824 703.87 295.032 704.814 294.472C705.774 293.912 706.838 293.632 708.006 293.632C709.158 293.632 710.158 293.88 711.006 294.376C711.854 294.872 712.486 295.496 712.902 296.248V293.848H715.11V307H712.902V304.552C712.47 305.32 711.822 305.96 710.958 306.472C710.11 306.968 709.118 307.216 707.982 307.216C706.814 307.216 705.758 306.928 704.814 306.352C703.87 305.776 703.126 304.968 702.582 303.928C702.038 302.888 701.766 301.704 701.766 300.376ZM712.902 300.4C712.902 299.408 712.702 298.544 712.302 297.808C711.902 297.072 711.358 296.512 710.67 296.128C709.998 295.728 709.254 295.528 708.438 295.528C707.622 295.528 706.878 295.72 706.206 296.104C705.534 296.488 704.998 297.048 704.598 297.784C704.198 298.52 703.998 299.384 703.998 300.376C703.998 301.384 704.198 302.264 704.598 303.016C704.998 303.752 705.534 304.32 706.206 304.72C706.878 305.104 707.622 305.296 708.438 305.296C709.254 305.296 709.998 305.104 710.67 304.72C711.358 304.32 711.902 303.752 712.302 303.016C712.702 302.264 712.902 301.392 712.902 300.4ZM721.465 295.648V303.4C721.465 304.04 721.601 304.496 721.873 304.768C722.145 305.024 722.617 305.152 723.289 305.152H724.897V307H722.929C721.713 307 720.801 306.72 720.193 306.16C719.585 305.6 719.281 304.68 719.281 303.4V295.648H717.577V293.848H719.281V290.536H721.465V293.848H724.897V295.648H721.465ZM729.727 296.296C730.175 295.512 730.831 294.872 731.695 294.376C732.559 293.88 733.543 293.632 734.647 293.632C735.831 293.632 736.895 293.912 737.839 294.472C738.783 295.032 739.527 295.824 740.071 296.848C740.615 297.856 740.887 299.032 740.887 300.376C740.887 301.704 740.615 302.888 740.071 303.928C739.527 304.968 738.775 305.776 737.815 306.352C736.871 306.928 735.815 307.216 734.647 307.216C733.511 307.216 732.511 306.968 731.647 306.472C730.799 305.976 730.159 305.344 729.727 304.576V307H727.543V289.24H729.727V296.296ZM738.655 300.376C738.655 299.384 738.455 298.52 738.055 297.784C737.655 297.048 737.111 296.488 736.423 296.104C735.751 295.72 735.007 295.528 734.191 295.528C733.391 295.528 732.647 295.728 731.959 296.128C731.287 296.512 730.743 297.08 730.327 297.832C729.927 298.568 729.727 299.424 729.727 300.4C729.727 301.392 729.927 302.264 730.327 303.016C730.743 303.752 731.287 304.32 731.959 304.72C732.647 305.104 733.391 305.296 734.191 305.296C735.007 305.296 735.751 305.104 736.423 304.72C737.111 304.32 737.655 303.752 738.055 303.016C738.455 302.264 738.655 301.384 738.655 300.376ZM749.498 307.216C748.266 307.216 747.146 306.936 746.138 306.376C745.146 305.816 744.362 305.024 743.786 304C743.226 302.96 742.946 301.76 742.946 300.4C742.946 299.056 743.234 297.872 743.81 296.848C744.402 295.808 745.202 295.016 746.21 294.472C747.218 293.912 748.346 293.632 749.594 293.632C750.842 293.632 751.97 293.912 752.978 294.472C753.986 295.016 754.778 295.8 755.354 296.824C755.946 297.848 756.242 299.04 756.242 300.4C756.242 301.76 755.938 302.96 755.33 304C754.738 305.024 753.93 305.816 752.906 306.376C751.882 306.936 750.746 307.216 749.498 307.216ZM749.498 305.296C750.282 305.296 751.018 305.112 751.706 304.744C752.394 304.376 752.946 303.824 753.362 303.088C753.794 302.352 754.01 301.456 754.01 300.4C754.01 299.344 753.802 298.448 753.386 297.712C752.97 296.976 752.426 296.432 751.754 296.08C751.082 295.712 750.354 295.528 749.57 295.528C748.77 295.528 748.034 295.712 747.362 296.08C746.706 296.432 746.178 296.976 745.778 297.712C745.378 298.448 745.178 299.344 745.178 300.4C745.178 301.472 745.37 302.376 745.754 303.112C746.154 303.848 746.682 304.4 747.338 304.768C747.994 305.12 748.714 305.296 749.498 305.296ZM761.778 295.648V303.4C761.778 304.04 761.914 304.496 762.186 304.768C762.458 305.024 762.93 305.152 763.602 305.152H765.21V307H763.242C762.026 307 761.114 306.72 760.506 306.16C759.898 305.6 759.594 304.68 759.594 303.4V295.648H757.89V293.848H759.594V290.536H761.778V293.848H765.21V295.648H761.778ZM791.822 297.28V299.128H774.23V297.28H791.822ZM819.407 293.848L815.303 307H813.047L809.879 296.56L806.711 307H804.455L800.327 293.848H802.559L805.583 304.888L808.847 293.848H811.079L814.271 304.912L817.247 293.848H819.407ZM822.703 291.712C822.287 291.712 821.935 291.568 821.647 291.28C821.359 290.992 821.215 290.64 821.215 290.224C821.215 289.808 821.359 289.456 821.647 289.168C821.935 288.88 822.287 288.736 822.703 288.736C823.103 288.736 823.439 288.88 823.711 289.168C823.999 289.456 824.143 289.808 824.143 290.224C824.143 290.64 823.999 290.992 823.711 291.28C823.439 291.568 823.103 291.712 822.703 291.712ZM823.759 293.848V307H821.575V293.848H823.759ZM830.145 295.648V303.4C830.145 304.04 830.281 304.496 830.553 304.768C830.825 305.024 831.297 305.152 831.969 305.152H833.577V307H831.609C830.393 307 829.481 306.72 828.873 306.16C828.265 305.6 827.961 304.68 827.961 303.4V295.648H826.257V293.848H827.961V290.536H830.145V293.848H833.577V295.648H830.145ZM842.751 293.608C843.743 293.608 844.639 293.824 845.439 294.256C846.239 294.672 846.863 295.304 847.311 296.152C847.775 297 848.007 298.032 848.007 299.248V307H845.847V299.56C845.847 298.248 845.519 297.248 844.863 296.56C844.207 295.856 843.311 295.504 842.175 295.504C841.023 295.504 840.103 295.864 839.415 296.584C838.743 297.304 838.407 298.352 838.407 299.728V307H836.223V289.24H838.407V295.72C838.839 295.048 839.431 294.528 840.183 294.16C840.951 293.792 841.807 293.608 842.751 293.608ZM864.381 293.608C865.981 293.608 867.277 294.096 868.269 295.072C869.261 296.032 869.757 297.424 869.757 299.248V307H867.597V299.56C867.597 298.248 867.269 297.248 866.613 296.56C865.957 295.856 865.061 295.504 863.925 295.504C862.773 295.504 861.853 295.864 861.165 296.584C860.493 297.304 860.157 298.352 860.157 299.728V307H857.973V293.848H860.157V295.72C860.589 295.048 861.173 294.528 861.909 294.16C862.661 293.792 863.485 293.608 864.381 293.608ZM879.061 307.216C877.829 307.216 876.709 306.936 875.701 306.376C874.709 305.816 873.925 305.024 873.349 304C872.789 302.96 872.509 301.76 872.509 300.4C872.509 299.056 872.797 297.872 873.373 296.848C873.965 295.808 874.765 295.016 875.773 294.472C876.781 293.912 877.909 293.632 879.157 293.632C880.405 293.632 881.533 293.912 882.541 294.472C883.549 295.016 884.341 295.8 884.917 296.824C885.509 297.848 885.805 299.04 885.805 300.4C885.805 301.76 885.501 302.96 884.893 304C884.301 305.024 883.493 305.816 882.469 306.376C881.445 306.936 880.309 307.216 879.061 307.216ZM879.061 305.296C879.845 305.296 880.581 305.112 881.269 304.744C881.957 304.376 882.509 303.824 882.925 303.088C883.357 302.352 883.573 301.456 883.573 300.4C883.573 299.344 883.365 298.448 882.949 297.712C882.533 296.976 881.989 296.432 881.317 296.08C880.645 295.712 879.917 295.528 879.133 295.528C878.333 295.528 877.597 295.712 876.925 296.08C876.269 296.432 875.741 296.976 875.341 297.712C874.941 298.448 874.741 299.344 874.741 300.4C874.741 301.472 874.933 302.376 875.317 303.112C875.717 303.848 876.245 304.4 876.901 304.768C877.557 305.12 878.277 305.296 879.061 305.296ZM894.259 300.4C894.259 299.04 894.531 297.856 895.075 296.848C895.619 295.824 896.371 295.032 897.331 294.472C898.307 293.912 899.419 293.632 900.667 293.632C902.283 293.632 903.611 294.024 904.651 294.808C905.707 295.592 906.403 296.68 906.739 298.072H904.387C904.163 297.272 903.723 296.64 903.067 296.176C902.427 295.712 901.627 295.48 900.667 295.48C899.419 295.48 898.411 295.912 897.643 296.776C896.875 297.624 896.491 298.832 896.491 300.4C896.491 301.984 896.875 303.208 897.643 304.072C898.411 304.936 899.419 305.368 900.667 305.368C901.627 305.368 902.427 305.144 903.067 304.696C903.707 304.248 904.147 303.608 904.387 302.776H906.739C906.387 304.12 905.683 305.2 904.627 306.016C903.571 306.816 902.251 307.216 900.667 307.216C899.419 307.216 898.307 306.936 897.331 306.376C896.371 305.816 895.619 305.024 895.075 304C894.531 302.976 894.259 301.776 894.259 300.4ZM915.389 307.216C914.157 307.216 913.037 306.936 912.029 306.376C911.037 305.816 910.253 305.024 909.677 304C909.117 302.96 908.837 301.76 908.837 300.4C908.837 299.056 909.125 297.872 909.701 296.848C910.293 295.808 911.093 295.016 912.101 294.472C913.109 293.912 914.237 293.632 915.485 293.632C916.733 293.632 917.861 293.912 918.869 294.472C919.877 295.016 920.669 295.8 921.245 296.824C921.837 297.848 922.133 299.04 922.133 300.4C922.133 301.76 921.829 302.96 921.221 304C920.629 305.024 919.821 305.816 918.797 306.376C917.773 306.936 916.637 307.216 915.389 307.216ZM915.389 305.296C916.173 305.296 916.909 305.112 917.597 304.744C918.285 304.376 918.837 303.824 919.253 303.088C919.685 302.352 919.901 301.456 919.901 300.4C919.901 299.344 919.693 298.448 919.277 297.712C918.861 296.976 918.317 296.432 917.645 296.08C916.973 295.712 916.245 295.528 915.461 295.528C914.661 295.528 913.925 295.712 913.253 296.08C912.597 296.432 912.069 296.976 911.669 297.712C911.269 298.448 911.069 299.344 911.069 300.4C911.069 301.472 911.261 302.376 911.645 303.112C912.045 303.848 912.573 304.4 913.229 304.768C913.885 305.12 914.605 305.296 915.389 305.296ZM924.188 300.376C924.188 299.032 924.46 297.856 925.004 296.848C925.548 295.824 926.292 295.032 927.236 294.472C928.196 293.912 929.268 293.632 930.452 293.632C931.476 293.632 932.428 293.872 933.308 294.352C934.188 294.816 934.86 295.432 935.324 296.2V289.24H937.532V307H935.324V304.528C934.892 305.312 934.252 305.96 933.404 306.472C932.556 306.968 931.564 307.216 930.428 307.216C929.26 307.216 928.196 306.928 927.236 306.352C926.292 305.776 925.548 304.968 925.004 303.928C924.46 302.888 924.188 301.704 924.188 300.376ZM935.324 300.4C935.324 299.408 935.124 298.544 934.724 297.808C934.324 297.072 933.78 296.512 933.092 296.128C932.42 295.728 931.676 295.528 930.86 295.528C930.044 295.528 929.3 295.72 928.628 296.104C927.956 296.488 927.42 297.048 927.02 297.784C926.62 298.52 926.42 299.384 926.42 300.376C926.42 301.384 926.62 302.264 927.02 303.016C927.42 303.752 927.956 304.32 928.628 304.72C929.3 305.104 930.044 305.296 930.86 305.296C931.676 305.296 932.42 305.104 933.092 304.72C933.78 304.32 934.324 303.752 934.724 303.016C935.124 302.264 935.324 301.392 935.324 300.4ZM953.223 299.92C953.223 300.336 953.199 300.776 953.151 301.24H942.639C942.719 302.536 943.159 303.552 943.959 304.288C944.775 305.008 945.759 305.368 946.911 305.368C947.855 305.368 948.639 305.152 949.263 304.72C949.903 304.272 950.351 303.68 950.607 302.944H952.959C952.607 304.208 951.903 305.24 950.847 306.04C949.791 306.824 948.479 307.216 946.911 307.216C945.663 307.216 944.543 306.936 943.551 306.376C942.575 305.816 941.807 305.024 941.247 304C940.687 302.96 940.407 301.76 940.407 300.4C940.407 299.04 940.679 297.848 941.223 296.824C941.767 295.8 942.527 295.016 943.503 294.472C944.495 293.912 945.631 293.632 946.911 293.632C948.159 293.632 949.263 293.904 950.223 294.448C951.183 294.992 951.919 295.744 952.431 296.704C952.959 297.648 953.223 298.72 953.223 299.92ZM950.967 299.464C950.967 298.632 950.783 297.92 950.415 297.328C950.047 296.72 949.543 296.264 948.903 295.96C948.279 295.64 947.583 295.48 946.815 295.48C945.711 295.48 944.767 295.832 943.983 296.536C943.215 297.24 942.775 298.216 942.663 299.464H950.967ZM956.802 307.144C956.386 307.144 956.034 307 955.746 306.712C955.458 306.424 955.314 306.072 955.314 305.656C955.314 305.24 955.458 304.888 955.746 304.6C956.034 304.312 956.386 304.168 956.802 304.168C957.202 304.168 957.538 304.312 957.81 304.6C958.098 304.888 958.242 305.24 958.242 305.656C958.242 306.072 958.098 306.424 957.81 306.712C957.538 307 957.202 307.144 956.802 307.144Z" fill="black"/>
<path d="M326.816 152.328V159.56H314.912V197H305.952V159.56H294.048V152.328H326.816ZM366.314 178.504C366.314 179.784 366.228 180.936 366.058 181.96H340.138C340.351 184.52 341.247 186.525 342.826 187.976C344.404 189.427 346.346 190.152 348.65 190.152C351.978 190.152 354.346 188.723 355.754 185.864H365.418C364.394 189.277 362.431 192.093 359.53 194.312C356.628 196.488 353.066 197.576 348.842 197.576C345.428 197.576 342.356 196.829 339.626 195.336C336.938 193.8 334.826 191.645 333.29 188.872C331.796 186.099 331.049 182.899 331.049 179.272C331.049 175.603 331.796 172.381 333.29 169.608C334.783 166.835 336.874 164.701 339.562 163.208C342.25 161.715 345.343 160.968 348.842 160.968C352.212 160.968 355.22 161.693 357.866 163.144C360.554 164.595 362.623 166.664 364.074 169.352C365.567 171.997 366.314 175.048 366.314 178.504ZM357.034 175.944C356.991 173.64 356.159 171.805 354.538 170.44C352.916 169.032 350.932 168.328 348.586 168.328C346.367 168.328 344.49 169.011 342.954 170.376C341.46 171.699 340.543 173.555 340.202 175.944H357.034ZM386.422 197.576C383.52 197.576 380.918 197.064 378.614 196.04C376.31 194.973 374.475 193.544 373.11 191.752C371.787 189.96 371.062 187.976 370.934 185.8H379.958C380.128 187.165 380.79 188.296 381.942 189.192C383.136 190.088 384.608 190.536 386.358 190.536C388.064 190.536 389.387 190.195 390.326 189.512C391.307 188.829 391.798 187.955 391.798 186.888C391.798 185.736 391.2 184.883 390.006 184.328C388.854 183.731 386.998 183.091 384.438 182.408C381.792 181.768 379.616 181.107 377.91 180.424C376.246 179.741 374.795 178.696 373.558 177.288C372.363 175.88 371.766 173.981 371.766 171.592C371.766 169.629 372.32 167.837 373.43 166.216C374.582 164.595 376.203 163.315 378.294 162.376C380.427 161.437 382.923 160.968 385.782 160.968C390.006 160.968 393.376 162.035 395.894 164.168C398.411 166.259 399.798 169.096 400.054 172.68H391.478C391.35 171.272 390.752 170.163 389.686 169.352C388.662 168.499 387.275 168.072 385.526 168.072C383.904 168.072 382.646 168.371 381.75 168.968C380.896 169.565 380.47 170.397 380.47 171.464C380.47 172.659 381.067 173.576 382.262 174.216C383.456 174.813 385.312 175.432 387.83 176.072C390.39 176.712 392.502 177.373 394.166 178.056C395.83 178.739 397.259 179.805 398.454 181.256C399.691 182.664 400.331 184.541 400.374 186.888C400.374 188.936 399.798 190.771 398.646 192.392C397.536 194.013 395.915 195.293 393.782 196.232C391.691 197.128 389.238 197.576 386.422 197.576ZM418.161 168.904V186.056C418.161 187.251 418.438 188.125 418.993 188.68C419.59 189.192 420.571 189.448 421.937 189.448H426.097V197H420.465C412.913 197 409.137 193.331 409.137 185.992V168.904H404.913V161.544H409.137V152.776H418.161V161.544H426.097V168.904H418.161ZM723.083 187.592L715.595 205.576H709.835L713.995 187.592H723.083ZM782.999 197H774.039L753.751 166.344V197H744.791V152.264H753.751L774.039 182.984V152.264H782.999V197ZM807.598 197.576C804.184 197.576 801.112 196.829 798.382 195.336C795.651 193.8 793.496 191.645 791.918 188.872C790.382 186.099 789.614 182.899 789.614 179.272C789.614 175.645 790.403 172.445 791.982 169.672C793.603 166.899 795.8 164.765 798.574 163.272C801.347 161.736 804.44 160.968 807.854 160.968C811.267 160.968 814.36 161.736 817.134 163.272C819.907 164.765 822.083 166.899 823.662 169.672C825.283 172.445 826.094 175.645 826.094 179.272C826.094 182.899 825.262 186.099 823.597 188.872C821.976 191.645 819.758 193.8 816.942 195.336C814.168 196.829 811.054 197.576 807.598 197.576ZM807.598 189.768C809.219 189.768 810.734 189.384 812.142 188.616C813.592 187.805 814.744 186.611 815.598 185.032C816.451 183.453 816.878 181.533 816.878 179.272C816.878 175.901 815.982 173.32 814.19 171.528C812.44 169.693 810.286 168.776 807.726 168.776C805.166 168.776 803.011 169.693 801.262 171.528C799.555 173.32 798.702 175.901 798.702 179.272C798.702 182.643 799.534 185.245 801.198 187.08C802.904 188.872 805.038 189.768 807.598 189.768ZM843.098 168.904V186.056C843.098 187.251 843.375 188.125 843.93 188.68C844.527 189.192 845.509 189.448 846.874 189.448H851.034V197H845.402C837.85 197 834.074 193.331 834.074 185.992V168.904H829.85V161.544H834.074V152.776H843.098V161.544H851.034V168.904H843.098ZM909.785 152.328V197H900.825V177.992H881.689V197H872.729V152.328H881.689V170.696H900.825V152.328H909.785ZM916.299 179.144C916.299 175.56 917.003 172.381 918.411 169.608C919.862 166.835 921.804 164.701 924.236 163.208C926.71 161.715 929.462 160.968 932.492 160.968C935.137 160.968 937.441 161.501 939.404 162.568C941.409 163.635 943.009 164.979 944.204 166.6V161.544H953.228V197H944.204V191.816C943.052 193.48 941.452 194.867 939.404 195.976C937.398 197.043 935.073 197.576 932.428 197.576C929.441 197.576 926.71 196.808 924.236 195.272C921.804 193.736 919.862 191.581 918.411 188.808C917.003 185.992 916.299 182.771 916.299 179.144ZM944.204 179.272C944.204 177.096 943.777 175.24 942.924 173.704C942.07 172.125 940.918 170.931 939.468 170.12C938.017 169.267 936.46 168.84 934.796 168.84C933.132 168.84 931.596 169.245 930.188 170.056C928.78 170.867 927.628 172.061 926.732 173.64C925.878 175.176 925.452 177.011 925.452 179.144C925.452 181.277 925.878 183.155 926.732 184.776C927.628 186.355 928.78 187.571 930.188 188.424C931.638 189.277 933.174 189.704 934.796 189.704C936.46 189.704 938.017 189.299 939.468 188.488C940.918 187.635 942.07 186.44 942.924 184.904C943.777 183.325 944.204 181.448 944.204 179.272ZM970.939 167.048C972.091 165.171 973.584 163.699 975.419 162.632C977.296 161.565 979.429 161.032 981.819 161.032V170.44H979.451C976.635 170.44 974.501 171.101 973.051 172.424C971.643 173.747 970.939 176.051 970.939 179.336V197H961.979V161.544H970.939V167.048ZM985.549 179.144C985.549 175.56 986.253 172.381 987.661 169.608C989.112 166.835 991.075 164.701 993.55 163.208C996.024 161.715 998.776 160.968 1001.81 160.968C1004.11 160.968 1006.31 161.48 1008.4 162.504C1010.49 163.485 1012.15 164.808 1013.39 166.472V149.64H1022.48V197H1013.39V191.752C1012.28 193.501 1010.72 194.909 1008.72 195.976C1006.71 197.043 1004.39 197.576 1001.74 197.576C998.755 197.576 996.024 196.808 993.55 195.272C991.075 193.736 989.112 191.581 987.661 188.808C986.253 185.992 985.549 182.771 985.549 179.144ZM1013.45 179.272C1013.45 177.096 1013.03 175.24 1012.17 173.704C1011.32 172.125 1010.17 170.931 1008.72 170.12C1007.27 169.267 1005.71 168.84 1004.05 168.84C1002.38 168.84 1000.85 169.245 999.438 170.056C998.03 170.867 996.878 172.061 995.982 173.64C995.128 175.176 994.702 177.011 994.702 179.144C994.702 181.277 995.128 183.155 995.982 184.776C996.878 186.355 998.03 187.571 999.438 188.424C1000.89 189.277 1002.42 189.704 1004.05 189.704C1005.71 189.704 1007.27 189.299 1008.72 188.488C1010.17 187.635 1011.32 186.44 1012.17 184.904C1013.03 183.325 1013.45 181.448 1013.45 179.272ZM1064.19 178.504C1064.19 179.784 1064.1 180.936 1063.93 181.96H1038.01C1038.23 184.52 1039.12 186.525 1040.7 187.976C1042.28 189.427 1044.22 190.152 1046.52 190.152C1049.85 190.152 1052.22 188.723 1053.63 185.864H1063.29C1062.27 189.277 1060.31 192.093 1057.4 194.312C1054.5 196.488 1050.94 197.576 1046.72 197.576C1043.3 197.576 1040.23 196.829 1037.5 195.336C1034.81 193.8 1032.7 191.645 1031.16 188.872C1029.67 186.099 1028.92 182.899 1028.92 179.272C1028.92 175.603 1029.67 172.381 1031.16 169.608C1032.66 166.835 1034.75 164.701 1037.44 163.208C1040.12 161.715 1043.22 160.968 1046.72 160.968C1050.09 160.968 1053.1 161.693 1055.74 163.144C1058.43 164.595 1060.5 166.664 1061.95 169.352C1063.44 171.997 1064.19 175.048 1064.19 178.504ZM1054.91 175.944C1054.87 173.64 1054.03 171.805 1052.41 170.44C1050.79 169.032 1048.81 168.328 1046.46 168.328C1044.24 168.328 1042.36 169.011 1040.83 170.376C1039.34 171.699 1038.42 173.555 1038.08 175.944H1054.91ZM1079.69 167.048C1080.84 165.171 1082.33 163.699 1084.17 162.632C1086.05 161.565 1088.18 161.032 1090.57 161.032V170.44H1088.2C1085.38 170.44 1083.25 171.101 1081.8 172.424C1080.39 173.747 1079.69 176.051 1079.69 179.336V197H1070.73V161.544H1079.69V167.048ZM1100.57 197.448C1098.95 197.448 1097.61 196.957 1096.54 195.976C1095.52 194.952 1095 193.693 1095 192.2C1095 190.707 1095.52 189.469 1096.54 188.488C1097.61 187.464 1098.95 186.952 1100.57 186.952C1102.15 186.952 1103.45 187.464 1104.48 188.488C1105.5 189.469 1106.01 190.707 1106.01 192.2C1106.01 193.693 1105.5 194.952 1104.48 195.976C1103.45 196.957 1102.15 197.448 1100.57 197.448Z" fill="black"/>
<path d="M463.215 197.448C460.1 197.448 457.284 196.915 454.767 195.848C452.292 194.781 450.33 193.245 448.879 191.24C447.428 189.235 446.682 186.867 446.639 184.136H456.239C456.367 185.971 457.007 187.421 458.159 188.488C459.354 189.555 460.975 190.088 463.023 190.088C465.114 190.088 466.756 189.597 467.951 188.616C469.146 187.592 469.743 186.269 469.743 184.648C469.743 183.325 469.338 182.237 468.527 181.384C467.716 180.531 466.692 179.869 465.455 179.4C464.26 178.888 462.596 178.333 460.463 177.736C457.562 176.883 455.194 176.051 453.359 175.24C451.567 174.387 450.01 173.128 448.687 171.464C447.407 169.757 446.767 167.496 446.767 164.68C446.767 162.035 447.428 159.731 448.751 157.768C450.074 155.805 451.93 154.312 454.319 153.288C456.708 152.221 459.439 151.688 462.511 151.688C467.119 151.688 470.852 152.819 473.711 155.08C476.612 157.299 478.212 160.413 478.511 164.424H468.655C468.57 162.888 467.908 161.629 466.671 160.648C465.476 159.624 463.876 159.112 461.871 159.112C460.122 159.112 458.714 159.56 457.647 160.456C456.623 161.352 456.111 162.653 456.111 164.36C456.111 165.555 456.495 166.557 457.263 167.368C458.074 168.136 459.055 168.776 460.207 169.288C461.402 169.757 463.066 170.312 465.199 170.952C468.1 171.805 470.468 172.659 472.303 173.512C474.138 174.365 475.716 175.645 477.039 177.352C478.362 179.059 479.023 181.299 479.023 184.072C479.023 186.461 478.404 188.68 477.167 190.728C475.93 192.776 474.116 194.419 471.727 195.656C469.338 196.851 466.5 197.448 463.215 197.448ZM530.823 161.032C535.175 161.032 538.674 162.376 541.319 165.064C544.007 167.709 545.351 171.421 545.351 176.2V197H536.391V177.416C536.391 174.643 535.687 172.531 534.279 171.08C532.871 169.587 530.951 168.84 528.519 168.84C526.087 168.84 524.146 169.587 522.695 171.08C521.287 172.531 520.583 174.643 520.583 177.416V197H511.623V177.416C511.623 174.643 510.919 172.531 509.511 171.08C508.103 169.587 506.183 168.84 503.751 168.84C501.276 168.84 499.314 169.587 497.863 171.08C496.455 172.531 495.751 174.643 495.751 177.416V197H486.791V161.544H495.751V165.832C496.903 164.339 498.375 163.165 500.167 162.312C502.002 161.459 504.007 161.032 506.183 161.032C508.956 161.032 511.431 161.629 513.607 162.824C515.783 163.976 517.468 165.64 518.663 167.816C519.815 165.768 521.479 164.125 523.655 162.888C525.874 161.651 528.263 161.032 530.823 161.032ZM551.549 179.144C551.549 175.56 552.253 172.381 553.661 169.608C555.112 166.835 557.054 164.701 559.486 163.208C561.96 161.715 564.712 160.968 567.742 160.968C570.387 160.968 572.691 161.501 574.654 162.568C576.659 163.635 578.259 164.979 579.454 166.6V161.544H588.478V197H579.454V191.816C578.302 193.48 576.702 194.867 574.654 195.976C572.648 197.043 570.323 197.576 567.678 197.576C564.691 197.576 561.96 196.808 559.486 195.272C557.054 193.736 555.112 191.581 553.661 188.808C552.253 185.992 551.549 182.771 551.549 179.144ZM579.454 179.272C579.454 177.096 579.027 175.24 578.174 173.704C577.32 172.125 576.168 170.931 574.718 170.12C573.267 169.267 571.71 168.84 570.046 168.84C568.382 168.84 566.846 169.245 565.438 170.056C564.03 170.867 562.878 172.061 561.982 173.64C561.128 175.176 560.702 177.011 560.702 179.144C560.702 181.277 561.128 183.155 561.982 184.776C562.878 186.355 564.03 187.571 565.438 188.424C566.888 189.277 568.424 189.704 570.046 189.704C571.71 189.704 573.267 189.299 574.718 188.488C576.168 187.635 577.32 186.44 578.174 184.904C579.027 183.325 579.454 181.448 579.454 179.272ZM606.189 167.048C607.341 165.171 608.834 163.699 610.669 162.632C612.546 161.565 614.679 161.032 617.069 161.032V170.44H614.701C611.885 170.44 609.751 171.101 608.301 172.424C606.893 173.747 606.189 176.051 606.189 179.336V197H597.229V161.544H606.189V167.048ZM633.536 168.904V186.056C633.536 187.251 633.813 188.125 634.368 188.68C634.965 189.192 635.946 189.448 637.312 189.448H641.472V197H635.84C628.288 197 624.512 193.331 624.512 185.992V168.904H620.288V161.544H624.512V152.776H633.536V161.544H641.472V168.904H633.536ZM680.876 178.504C680.876 179.784 680.791 180.936 680.62 181.96H654.7C654.913 184.52 655.809 186.525 657.388 187.976C658.967 189.427 660.908 190.152 663.212 190.152C666.54 190.152 668.908 188.723 670.316 185.864H679.98C678.956 189.277 676.993 192.093 674.092 194.312C671.191 196.488 667.628 197.576 663.404 197.576C659.991 197.576 656.919 196.829 654.188 195.336C651.5 193.8 649.388 191.645 647.852 188.872C646.359 186.099 645.612 182.899 645.612 179.272C645.612 175.603 646.359 172.381 647.852 169.608C649.345 166.835 651.436 164.701 654.124 163.208C656.812 161.715 659.905 160.968 663.404 160.968C666.775 160.968 669.783 161.693 672.428 163.144C675.116 164.595 677.185 166.664 678.636 169.352C680.129 171.997 680.876 175.048 680.876 178.504ZM671.596 175.944C671.553 173.64 670.721 171.805 669.1 170.44C667.479 169.032 665.495 168.328 663.148 168.328C660.929 168.328 659.052 169.011 657.516 170.376C656.023 171.699 655.105 173.555 654.764 175.944H671.596ZM696.376 167.048C697.528 165.171 699.021 163.699 700.856 162.632C702.733 161.565 704.867 161.032 707.256 161.032V170.44H704.888C702.072 170.44 699.939 171.101 698.488 172.424C697.08 173.747 696.376 176.051 696.376 179.336V197H687.416V161.544H696.376V167.048Z" fill="#388AEB"/>
<path d="M89.1429 41.7656C89.1429 46.572 86.2212 49.7764 81.7783 49.7764C79.5702 49.7764 77.8334 48.8877 76.6756 47.299V49.6014H72.1384V27.75H76.6756V36.0974C77.7931 34.5087 79.5298 33.6201 81.6841 33.6201C86.127 33.6067 89.1429 36.8783 89.1429 41.7656ZM84.5383 41.6175C84.5383 39.0863 82.9496 37.2552 80.6205 37.2552C78.2912 37.2552 76.6756 39.0459 76.6756 41.6175C76.6756 44.2293 78.2912 46.0066 80.6205 46.0066C82.9496 46.02 84.5383 44.2158 84.5383 41.6175Z" fill="#314F8F"/>
<path d="M108.261 41.8878C108.261 46.7212 104.842 49.9929 99.7794 49.9929C94.6768 49.9929 91.2705 46.7212 91.2705 41.8878C91.2705 37.0276 94.6901 33.8098 99.7794 33.8098C104.855 33.8098 108.261 37.0276 108.261 41.8878ZM95.8211 41.9417C95.8211 44.5267 97.4098 46.304 99.7659 46.304C102.095 46.304 103.711 44.5402 103.711 41.9417C103.711 39.3567 102.095 37.5796 99.7659 37.5796C97.4233 37.5796 95.8211 39.3567 95.8211 41.9417Z" fill="#314F8F"/>
<path d="M121.577 48.916C120.392 49.6026 118.924 50.0065 117.457 50.0065C114.629 50.0065 112.475 48.3908 112.475 45.1192V37.7816H110.267V34.658H112.475V30.2959H116.986V34.658H121.294V37.8086H116.986V44.3518C116.986 45.6712 117.538 46.2098 118.52 46.1828C119.099 46.1828 119.813 45.9675 120.634 45.604L121.577 48.916Z" fill="#314F8F"/>
<path d="M134.637 48.916C133.452 49.6026 131.984 50.0065 130.517 50.0065C127.689 50.0065 125.535 48.3908 125.535 45.1192V37.7816H123.327V34.658H125.535V30.2959H130.046V34.658H134.354V37.8086H130.046V44.3518C130.046 45.6712 130.598 46.2098 131.58 46.1828C132.159 46.1828 132.873 45.9675 133.694 45.604L134.637 48.916Z" fill="#314F8F"/>
<path d="M152.34 43.2612H140.964C141.489 45.2674 143.024 46.4387 145.057 46.4387C146.565 46.4387 147.978 45.8597 149.069 44.7557L151.451 47.1657C149.863 48.9294 147.534 49.9661 144.666 49.9661C139.59 49.9661 136.386 46.7214 136.386 41.915C136.386 37.0277 139.712 33.783 144.545 33.783C150.133 33.81 152.731 37.4855 152.34 43.2612ZM148.099 40.5821C148.045 38.4952 146.686 37.1353 144.586 37.1353C142.579 37.1353 141.233 38.4817 140.869 40.5821H148.099Z" fill="#314F8F"/>
<path d="M167.393 35.5197L165.832 38.6164C164.094 37.647 162.317 37.0816 160.998 37.0816C159.934 37.0816 159.167 37.4316 159.167 38.2664C159.167 40.6494 167.541 39.4511 167.514 45.052C167.514 48.2967 164.661 50.0065 161.065 50.0065C158.507 50.0065 155.989 49.2392 154.199 47.7985L155.679 44.7289C157.335 45.9944 159.449 46.708 161.199 46.708C162.344 46.708 163.205 46.331 163.205 45.4694C163.205 42.9381 154.993 44.2845 154.993 38.7241C154.993 35.4525 157.793 33.7695 161.24 33.7695C163.394 33.7561 165.629 34.4024 167.393 35.5197Z" fill="#314F8F"/>
<path d="M180.871 48.916C179.686 49.6026 178.218 50.0065 176.751 50.0065C173.923 50.0065 171.768 48.3908 171.768 45.1192V37.7816H169.561V34.658H171.768V30.2959H176.279V34.658H180.587V37.8086H176.279V44.3518C176.279 45.6712 176.831 46.2098 177.814 46.1828C178.393 46.1828 179.107 45.9675 179.928 45.604L180.871 48.916Z" fill="#314F8F"/>
<path d="M185.609 48.9563C185.609 49.5757 185.138 50.0468 184.571 50.0468C184.006 50.0468 183.575 49.5757 183.575 48.9563C183.575 48.3774 184.02 47.9197 184.571 47.9197C185.124 47.9197 185.609 48.3639 185.609 48.9563Z" fill="#314F8F"/>
<path d="M199.342 46.7752C198.049 48.8889 195.854 49.8449 193.216 49.8449C190.173 49.8449 188.141 47.933 188.141 45.3347C188.141 42.7765 190.322 41.2148 193.849 41.2148H199.302V39.7069C199.274 37.1219 197.767 35.5601 194.711 35.5601C192.799 35.5601 191.169 36.3275 189.554 37.5661L188.976 36.6238C190.806 35.3043 192.569 34.4426 194.899 34.4426C198.521 34.4426 200.499 36.4486 200.527 39.626L200.581 49.8179H199.369L199.342 46.7752ZM199.342 44.796V42.2919H193.983C190.981 42.2919 189.326 43.3285 189.326 45.2942C189.326 47.3272 190.887 48.7139 193.391 48.7139C196.246 48.7139 198.399 47.4888 199.342 44.796Z" fill="#314F8F"/>
<path d="M207.029 30.0402C207.029 30.6595 206.558 31.1307 205.993 31.1307C205.441 31.1307 204.956 30.6595 204.956 30.0402C204.956 29.4613 205.427 28.9766 205.993 28.9766C206.558 28.9766 207.029 29.4478 207.029 30.0402ZM205.373 49.8181V34.4696H206.586V49.8181H205.373Z" fill="#314F8F"/>
<circle cx="43.0001" cy="39.0001" r="20.0001" fill="#D6E6F7"/>
<mask id="mask0_3364_732" style="mask-type:alpha" maskUnits="userSpaceOnUse" x="23" y="19" width="40" height="40">
<circle cx="43.0001" cy="39.0001" r="20.0001" fill="#D9D9D9"/>
</mask>
<g mask="url(#mask0_3364_732)">
<path d="M52.7201 60.4156H33.2621C32.0084 60.4156 31.0054 59.4178 31.0054 58.2074V41.4913C31.0054 36.0446 35.5522 31.5957 41.1188 31.5957H44.8968C50.4633 31.5957 55.0102 36.0446 55.0102 41.4913V58.2074C54.9935 59.4178 53.9571 60.4156 52.7201 60.4156Z" fill="#388AEB"/>
<path d="M55.679 32.0867H53.6229C52.7035 28.0957 49.4939 24.939 45.4151 24.0557V22.6C45.4151 21.8967 44.8133 21.3079 44.0945 21.3079H41.9213C41.2025 21.3079 40.6007 21.8967 40.6007 22.6V24.0557C40.3667 24.2193 40.2998 24.3665 40.0825 24.4319C39.8151 24.4973 39.4306 24.5301 39.1966 24.4646C35.7864 25.7077 33.1786 28.5701 32.3762 32.103H30.3201C29.6013 32.103 28.9995 32.6919 28.9995 33.3952V35.5215C28.9995 36.2248 29.6013 36.8137 30.3201 36.8137H55.679C56.3978 36.8137 56.9996 36.2248 56.9996 35.5215V33.3952C56.9829 32.6592 56.3978 32.0867 55.679 32.0867Z" fill="#314F8F"/>
<path d="M40.6005 29.0934V24.0229C40.1324 24.1211 39.6476 24.2683 39.1963 24.4319L40.6005 29.0934Z" fill="black"/>
<path d="M47.9563 38.5962H38.01C36.0041 38.5962 34.3826 40.1827 34.3826 42.1455V47.4613C34.3826 49.4241 36.0041 51.0106 38.01 51.0106H41.9217L46.7026 54.4291C47.1038 54.7235 47.6722 54.4455 47.6722 53.9548V51.027H47.9396C49.9456 51.027 51.5671 49.4404 51.5671 47.4777V42.1619C51.5838 40.1827 49.9623 38.5962 47.9563 38.5962Z" fill="white"/>
<path d="M38.8959 46.4152C37.9932 46.4152 37.241 45.6955 37.241 44.7959V43.4056C37.241 42.5224 37.9765 41.7864 38.8959 41.7864C39.7986 41.7864 40.5508 42.506 40.5508 43.4056V44.7959C40.5341 45.6955 39.7986 46.4152 38.8959 46.4152Z" fill="#314F8F"/>
<path d="M47.0871 46.4152C47.9897 46.4152 48.742 45.6955 48.742 44.7959V43.4056C48.742 42.5224 48.0065 41.7864 47.0871 41.7864C46.1844 41.7864 45.4321 42.506 45.4321 43.4056V44.7959C45.4488 45.6955 46.1844 46.4152 47.0871 46.4152Z" fill="#314F8F"/>
</g>
<path d="M1309.73 386.767C1309.73 386.767 1301.85 388.639 1288.39 383.259C1274.91 377.879 1259.14 364.835 1259.14 364.835L1254.9 368.83C1254.9 368.83 1254 377.556 1280.26 393.928C1290.89 400.567 1309.93 401.143 1309.93 401.143" fill="url(#paint12_linear_3364_732)"/>
<path d="M1309.73 386.767C1309.73 386.767 1301.85 388.639 1288.39 383.259C1274.91 377.879 1259.14 364.835 1259.14 364.835L1254.9 368.83C1254.9 368.83 1254 377.556 1280.26 393.928C1290.89 400.567 1309.93 401.143 1309.93 401.143" stroke="#388AEB" stroke-width="0.75" stroke-miterlimit="10"/>
<path d="M1322.96 469.926H1296.89C1296.89 464.438 1301.33 459.994 1306.82 459.994H1309.93C1309.29 458.339 1308.76 456.378 1308.44 454.039C1307.54 447.742 1308.44 441.913 1308.44 441.913L1322.48 438.098C1322.48 438.098 1321.36 450.423 1321.34 451.988C1321.2 460.012 1322.96 469.944 1322.96 469.944V469.926Z" fill="url(#paint13_linear_3364_732)" stroke="#388AEB" stroke-width="0.75" stroke-miterlimit="10"/>
<path d="M1283.64 469.944H1261.16C1259.81 462.387 1266.09 458.843 1270.83 458.843H1273.51C1275.02 456.81 1288.26 432.449 1288.26 432.449L1303.87 434.41L1283.64 469.944Z" fill="url(#paint14_linear_3364_732)" stroke="#388AEB" stroke-width="0.75" stroke-miterlimit="10"/>
<path d="M1351.09 412.352L1333.85 445.241C1331.26 450.207 1325.18 452.168 1320.17 449.667L1288.71 433.924C1283.64 431.387 1281.61 425.216 1284.16 420.142L1308.24 372.896L1344.56 391.679C1352.08 395.565 1355.02 404.831 1351.11 412.352H1351.09Z" fill="url(#paint15_linear_3364_732)" stroke="#388AEB" stroke-width="0.75" stroke-miterlimit="10"/>
<path d="M1301.87 385.724L1317.71 393.874C1322.69 396.213 1324.6 402.312 1321.86 407.08L1315.94 417.372C1314.05 420.664 1309.9 421.888 1306.51 420.16L1289.54 411.075L1301.83 385.724H1301.87Z" fill="white" stroke="#388AEB" stroke-width="0.5" stroke-miterlimit="10"/>
<path d="M1362.36 408.178C1363.65 405.443 1362.56 402.169 1359.89 400.765L1353.76 397.545L1356.53 391.931C1359.48 383.187 1355.83 373.58 1347.82 368.992L1347.22 368.65L1348.73 364.548C1349.8 361.669 1348.46 358.466 1345.69 357.171C1343.19 356.001 1340.22 356.739 1338.55 358.916L1336.08 362.119C1328.07 359.042 1319 361.579 1313.78 368.38L1310.54 372.59L1304.08 368.866C1301.24 367.228 1297.6 368.254 1296.04 371.133C1294.51 373.939 1295.52 377.448 1298.31 379.013L1354.51 410.661C1357.37 412.262 1360.99 411.111 1362.39 408.16L1362.36 408.178Z" fill="url(#paint16_linear_3364_732)" stroke="#388AEB" stroke-width="0.75" stroke-miterlimit="10"/>
<path d="M1314.81 400.316L1315.32 400.545C1317.14 401.364 1317.95 403.505 1317.13 405.327L1315.36 409.264C1314.54 411.086 1312.4 411.898 1310.57 411.078L1310.06 410.849C1308.24 410.029 1307.43 407.888 1308.25 406.067L1310.02 402.13C1310.84 400.308 1312.98 399.496 1314.81 400.316Z" fill="url(#paint17_linear_3364_732)"/>
<path d="M1302.16 393.635L1302.67 393.864C1304.49 394.684 1305.31 396.825 1304.49 398.646L1302.71 402.584C1301.89 404.405 1299.75 405.217 1297.93 404.397L1297.42 404.168C1295.6 403.349 1294.79 401.208 1295.61 399.386L1297.38 395.449C1298.2 393.628 1300.34 392.816 1302.16 393.635Z" fill="url(#paint18_linear_3364_732)"/>
<path d="M1310.87 439.485C1309.38 439.485 1308.17 438.277 1308.17 436.786C1308.17 435.295 1309.38 434.086 1310.87 434.086C1312.36 434.086 1313.57 435.295 1313.57 436.786C1313.57 438.277 1312.36 439.485 1310.87 439.485Z" fill="url(#paint19_linear_3364_732)"/>
<path d="M1299.64 434.07C1298.15 434.07 1296.94 432.861 1296.94 431.37C1296.94 429.879 1298.15 428.671 1299.64 428.671C1301.13 428.671 1302.34 429.879 1302.34 431.37C1302.34 432.861 1301.13 434.07 1299.64 434.07Z" fill="url(#paint20_linear_3364_732)"/>
<path d="M1288.7 428.672C1287.21 428.672 1286 427.463 1286 425.973C1286 424.482 1287.21 423.273 1288.7 423.273C1290.19 423.273 1291.4 424.482 1291.4 425.973C1291.4 427.463 1290.19 428.672 1288.7 428.672Z" fill="url(#paint21_linear_3364_732)"/>
<path d="M1281.78 330.831L1249.12 283.315C1248.29 282.109 1246.51 282.109 1245.68 283.315L1213 330.831" stroke="#388AEB" stroke-width="0.75" stroke-miterlimit="10"/>
<path d="M1247 0L1247 281" stroke="#388AEB" stroke-width="0.75" stroke-miterlimit="10"/>
<path d="M1213 330.831H1281.78V392.129H1213V330.831Z" fill="url(#paint22_linear_3364_732)" stroke="#388AEB" stroke-width="0.5" stroke-miterlimit="10"/>
<path d="M1246.24 330.831V392.129" stroke="#388AEB" stroke-width="0.75" stroke-miterlimit="10"/>
<path d="M1324.92 432.233C1324.92 432.233 1306.86 429.408 1296.22 422.787C1282.76 414.385 1276.44 407.998 1273.47 403.77C1269.01 405.317 1263.86 404.238 1260.42 400.585C1255.76 395.637 1256 387.829 1260.96 383.169C1262.49 381.73 1264.89 381.82 1266.31 383.331C1267.75 384.86 1267.66 387.253 1266.15 388.675C1264.24 390.474 1264.15 393.496 1265.95 395.404C1267.75 397.311 1270.77 397.401 1272.68 395.602C1273.43 394.9 1273.88 394 1274.06 393.065H1281.66C1281.53 394.684 1281.12 396.285 1280.36 397.743C1286.12 402.043 1295.72 408.646 1304.35 412.082C1317.83 417.462 1325.7 415.59 1325.7 415.59" fill="url(#paint23_linear_3364_732)"/>
<path d="M1324.92 432.233C1324.92 432.233 1306.86 429.408 1296.22 422.787C1282.76 414.385 1276.44 407.998 1273.47 403.77C1269.01 405.317 1263.86 404.238 1260.42 400.585C1255.76 395.637 1256 387.829 1260.96 383.169C1262.49 381.73 1264.89 381.82 1266.31 383.331C1267.75 384.86 1267.66 387.253 1266.15 388.675C1264.24 390.474 1264.15 393.496 1265.95 395.404C1267.75 397.311 1270.77 397.401 1272.68 395.602C1273.43 394.9 1273.88 394 1274.06 393.065H1281.66C1281.53 394.684 1281.12 396.285 1280.36 397.743C1286.12 402.043 1295.72 408.646 1304.35 412.082C1317.83 417.462 1325.7 415.59 1325.7 415.59" stroke="#388AEB" stroke-width="0.75" stroke-miterlimit="10" stroke-linecap="round"/>
<defs>
<linearGradient id="paint0_linear_3364_732" x1="257.12" y1="110.743" x2="-115.147" y2="466.365" gradientUnits="userSpaceOnUse">
<stop stop-color="white"/>
<stop offset="0.77" stop-color="#FF915B"/>
</linearGradient>
<linearGradient id="paint1_linear_3364_732" x1="280.645" y1="249.453" x2="326.791" y2="546.488" gradientUnits="userSpaceOnUse">
<stop stop-color="#388AEB"/>
<stop offset="0.18" stop-color="#5D9FED"/>
<stop offset="0.45" stop-color="#90BDF1"/>
<stop offset="0.69" stop-color="#B6D3F4"/>
<stop offset="0.88" stop-color="#CDE1F6"/>
<stop offset="1" stop-color="#D6E6F7"/>
</linearGradient>
<linearGradient id="paint2_linear_3364_732" x1="203.848" y1="261.387" x2="249.994" y2="558.405" gradientUnits="userSpaceOnUse">
<stop stop-color="#388AEB"/>
<stop offset="0.18" stop-color="#5D9FED"/>
<stop offset="0.45" stop-color="#90BDF1"/>
<stop offset="0.69" stop-color="#B6D3F4"/>
<stop offset="0.88" stop-color="#CDE1F6"/>
<stop offset="1" stop-color="#D6E6F7"/>
</linearGradient>
<linearGradient id="paint3_linear_3364_732" x1="232.839" y1="256.871" x2="278.985" y2="553.906" gradientUnits="userSpaceOnUse">
<stop stop-color="#388AEB"/>
<stop offset="0.18" stop-color="#5D9FED"/>
<stop offset="0.45" stop-color="#90BDF1"/>
<stop offset="0.69" stop-color="#B6D3F4"/>
<stop offset="0.88" stop-color="#CDE1F6"/>
<stop offset="1" stop-color="#D6E6F7"/>
</linearGradient>
<linearGradient id="paint4_linear_3364_732" x1="231.134" y1="257.143" x2="277.28" y2="554.179" gradientUnits="userSpaceOnUse">
<stop stop-color="#388AEB"/>
<stop offset="0.18" stop-color="#5D9FED"/>
<stop offset="0.45" stop-color="#90BDF1"/>
<stop offset="0.69" stop-color="#B6D3F4"/>
<stop offset="0.88" stop-color="#CDE1F6"/>
<stop offset="1" stop-color="#D6E6F7"/>
</linearGradient>
<linearGradient id="paint5_linear_3364_732" x1="290.823" y1="354.05" x2="186.527" y2="504.925" gradientUnits="userSpaceOnUse">
<stop stop-color="#388AEB"/>
<stop offset="0.18" stop-color="#5D9FED"/>
<stop offset="0.45" stop-color="#90BDF1"/>
<stop offset="0.69" stop-color="#B6D3F4"/>
<stop offset="0.88" stop-color="#CDE1F6"/>
<stop offset="1" stop-color="#D6E6F7"/>
</linearGradient>
<linearGradient id="paint6_linear_3364_732" x1="255.046" y1="253.425" x2="301.192" y2="550.46" gradientUnits="userSpaceOnUse">
<stop stop-color="#388AEB"/>
<stop offset="0.18" stop-color="#5D9FED"/>
<stop offset="0.45" stop-color="#90BDF1"/>
<stop offset="0.69" stop-color="#B6D3F4"/>
<stop offset="0.88" stop-color="#CDE1F6"/>
<stop offset="1" stop-color="#D6E6F7"/>
</linearGradient>
<linearGradient id="paint7_linear_3364_732" x1="241.822" y1="482.766" x2="273.257" y2="402.408" gradientUnits="userSpaceOnUse">
<stop stop-color="white"/>
<stop offset="0.92" stop-color="#3B9DFF"/>
</linearGradient>
<linearGradient id="paint8_linear_3364_732" x1="254.194" y1="488.25" x2="285.642" y2="407.879" gradientUnits="userSpaceOnUse">
<stop stop-color="white"/>
<stop offset="0.92" stop-color="#3B9DFF"/>
</linearGradient>
<linearGradient id="paint9_linear_3364_732" x1="291.528" y1="394.499" x2="283.115" y2="403.698" gradientUnits="userSpaceOnUse">
<stop stop-color="white"/>
<stop offset="0.92" stop-color="#3B9DFF"/>
</linearGradient>
<linearGradient id="paint10_linear_3364_732" x1="298.716" y1="401.051" x2="290.29" y2="410.263" gradientUnits="userSpaceOnUse">
<stop stop-color="white"/>
<stop offset="0.92" stop-color="#3B9DFF"/>
</linearGradient>
<linearGradient id="paint11_linear_3364_732" x1="305.72" y1="407.454" x2="297.294" y2="416.666" gradientUnits="userSpaceOnUse">
<stop stop-color="white"/>
<stop offset="0.92" stop-color="#3B9DFF"/>
</linearGradient>
<linearGradient id="paint12_linear_3364_732" x1="1374.34" y1="222.502" x2="1226.31" y2="484.321" gradientUnits="userSpaceOnUse">
<stop stop-color="#388AEB"/>
<stop offset="0.18" stop-color="#5D9FED"/>
<stop offset="0.45" stop-color="#90BDF1"/>
<stop offset="0.69" stop-color="#B6D3F4"/>
<stop offset="0.88" stop-color="#CDE1F6"/>
<stop offset="1" stop-color="#D6E6F7"/>
</linearGradient>
<linearGradient id="paint13_linear_3364_732" x1="1448.56" y1="221.116" x2="1276.88" y2="524.718" gradientUnits="userSpaceOnUse">
<stop stop-color="#388AEB"/>
<stop offset="0.18" stop-color="#5D9FED"/>
<stop offset="0.45" stop-color="#90BDF1"/>
<stop offset="0.69" stop-color="#B6D3F4"/>
<stop offset="0.88" stop-color="#CDE1F6"/>
<stop offset="1" stop-color="#D6E6F7"/>
</linearGradient>
<linearGradient id="paint14_linear_3364_732" x1="1401.09" y1="240.224" x2="1253.06" y2="502.024" gradientUnits="userSpaceOnUse">
<stop stop-color="#388AEB"/>
<stop offset="0.18" stop-color="#5D9FED"/>
<stop offset="0.45" stop-color="#90BDF1"/>
<stop offset="0.69" stop-color="#B6D3F4"/>
<stop offset="0.88" stop-color="#CDE1F6"/>
<stop offset="1" stop-color="#D6E6F7"/>
</linearGradient>
<linearGradient id="paint15_linear_3364_732" x1="1413.96" y1="244.902" x2="1265.91" y2="506.702" gradientUnits="userSpaceOnUse">
<stop stop-color="#388AEB"/>
<stop offset="0.18" stop-color="#5D9FED"/>
<stop offset="0.45" stop-color="#90BDF1"/>
<stop offset="0.69" stop-color="#B6D3F4"/>
<stop offset="0.88" stop-color="#CDE1F6"/>
<stop offset="1" stop-color="#D6E6F7"/>
</linearGradient>
<linearGradient id="paint16_linear_3364_732" x1="1361.08" y1="355.858" x2="1249.59" y2="474.295" gradientUnits="userSpaceOnUse">
<stop stop-color="#388AEB"/>
<stop offset="0.18" stop-color="#5D9FED"/>
<stop offset="0.45" stop-color="#90BDF1"/>
<stop offset="0.69" stop-color="#B6D3F4"/>
<stop offset="0.88" stop-color="#CDE1F6"/>
<stop offset="1" stop-color="#D6E6F7"/>
</linearGradient>
<linearGradient id="paint17_linear_3364_732" x1="1279.95" y1="483.342" x2="1318.93" y2="390.693" gradientUnits="userSpaceOnUse">
<stop stop-color="white"/>
<stop offset="0.92" stop-color="#3B9DFF"/>
</linearGradient>
<linearGradient id="paint18_linear_3364_732" x1="1266.81" y1="477.848" x2="1305.79" y2="385.199" gradientUnits="userSpaceOnUse">
<stop stop-color="white"/>
<stop offset="0.92" stop-color="#3B9DFF"/>
</linearGradient>
<linearGradient id="paint19_linear_3364_732" x1="1312.29" y1="363.969" x2="1312" y2="378.493" gradientUnits="userSpaceOnUse">
<stop stop-color="white"/>
<stop offset="0.92" stop-color="#3B9DFF"/>
</linearGradient>
<linearGradient id="paint20_linear_3364_732" x1="1300.95" y1="363.755" x2="1300.68" y2="378.279" gradientUnits="userSpaceOnUse">
<stop stop-color="white"/>
<stop offset="0.92" stop-color="#3B9DFF"/>
</linearGradient>
<linearGradient id="paint21_linear_3364_732" x1="1289.9" y1="363.54" x2="1289.61" y2="378.064" gradientUnits="userSpaceOnUse">
<stop stop-color="white"/>
<stop offset="0.92" stop-color="#3B9DFF"/>
</linearGradient>
<linearGradient id="paint22_linear_3364_732" x1="1581.78" y1="157.407" x2="349.801" y2="909.682" gradientUnits="userSpaceOnUse">
<stop stop-color="white"/>
<stop offset="0.77" stop-color="#FF915B"/>
</linearGradient>
<linearGradient id="paint23_linear_3364_732" x1="1391.82" y1="232.398" x2="1243.79" y2="494.198" gradientUnits="userSpaceOnUse">
<stop stop-color="#388AEB"/>
<stop offset="0.18" stop-color="#5D9FED"/>
<stop offset="0.45" stop-color="#90BDF1"/>
<stop offset="0.69" stop-color="#B6D3F4"/>
<stop offset="0.88" stop-color="#CDE1F6"/>
<stop offset="1" stop-color="#D6E6F7"/>
</linearGradient>
</defs>
</svg>
