<svg width="761" height="102" viewBox="0 0 761 102" fill="none" xmlns="http://www.w3.org/2000/svg">
<path d="M28.172 36.098C27.528 36.098 26.9493 35.986 26.436 35.762C25.932 35.5287 25.5353 35.2113 25.246 34.81C24.9567 34.3993 24.8073 33.928 24.798 33.396H26.156C26.2027 33.8533 26.3893 34.2407 26.716 34.558C27.052 34.866 27.5373 35.02 28.172 35.02C28.7787 35.02 29.2547 34.8707 29.6 34.572C29.9547 34.264 30.132 33.872 30.132 33.396C30.132 33.0227 30.0293 32.7193 29.824 32.486C29.6187 32.2527 29.362 32.0753 29.054 31.954C28.746 31.8327 28.3307 31.702 27.808 31.562C27.164 31.394 26.646 31.226 26.254 31.058C25.8713 30.89 25.54 30.6287 25.26 30.274C24.9893 29.91 24.854 29.4247 24.854 28.818C24.854 28.286 24.9893 27.8147 25.26 27.404C25.5307 26.9933 25.9087 26.676 26.394 26.452C26.8887 26.228 27.4533 26.116 28.088 26.116C29.0027 26.116 29.7493 26.3447 30.328 26.802C30.916 27.2593 31.2473 27.866 31.322 28.622H29.922C29.8753 28.2487 29.6793 27.922 29.334 27.642C28.9887 27.3527 28.5313 27.208 27.962 27.208C27.43 27.208 26.996 27.348 26.66 27.628C26.324 27.8987 26.156 28.2813 26.156 28.776C26.156 29.1307 26.254 29.42 26.45 29.644C26.6553 29.868 26.9027 30.0407 27.192 30.162C27.4907 30.274 27.906 30.4047 28.438 30.554C29.082 30.7313 29.6 30.9087 29.992 31.086C30.384 31.254 30.72 31.52 31 31.884C31.28 32.2387 31.42 32.724 31.42 33.34C31.42 33.816 31.294 34.264 31.042 34.684C30.79 35.104 30.4167 35.4447 29.922 35.706C29.4273 35.9673 28.844 36.098 28.172 36.098ZM40.2948 31.87C40.2948 32.1127 40.2808 32.3693 40.2528 32.64H34.1208C34.1675 33.396 34.4241 33.9887 34.8908 34.418C35.3668 34.838 35.9408 35.048 36.6128 35.048C37.1635 35.048 37.6208 34.922 37.9848 34.67C38.3581 34.4087 38.6195 34.0633 38.7688 33.634H40.1408C39.9355 34.3713 39.5248 34.9733 38.9088 35.44C38.2928 35.8973 37.5275 36.126 36.6128 36.126C35.8848 36.126 35.2315 35.9627 34.6528 35.636C34.0835 35.3093 33.6355 34.8473 33.3088 34.25C32.9821 33.6433 32.8188 32.9433 32.8188 32.15C32.8188 31.3567 32.9775 30.6613 33.2948 30.064C33.6121 29.4667 34.0555 29.0093 34.6248 28.692C35.2035 28.3653 35.8661 28.202 36.6128 28.202C37.3408 28.202 37.9848 28.3607 38.5448 28.678C39.1048 28.9953 39.5341 29.434 39.8328 29.994C40.1408 30.5447 40.2948 31.17 40.2948 31.87ZM38.9788 31.604C38.9788 31.1187 38.8715 30.7033 38.6568 30.358C38.4421 30.0033 38.1481 29.7373 37.7748 29.56C37.4108 29.3733 37.0048 29.28 36.5568 29.28C35.9128 29.28 35.3621 29.4853 34.9048 29.896C34.4568 30.3067 34.2001 30.876 34.1348 31.604H38.9788ZM43.2504 25.64V36H41.9764V25.64H43.2504ZM52.4218 31.87C52.4218 32.1127 52.4078 32.3693 52.3798 32.64H46.2478C46.2944 33.396 46.5511 33.9887 47.0178 34.418C47.4938 34.838 48.0678 35.048 48.7398 35.048C49.2904 35.048 49.7478 34.922 50.1118 34.67C50.4851 34.4087 50.7464 34.0633 50.8958 33.634H52.2678C52.0624 34.3713 51.6518 34.9733 51.0358 35.44C50.4198 35.8973 49.6544 36.126 48.7398 36.126C48.0118 36.126 47.3584 35.9627 46.7798 35.636C46.2104 35.3093 45.7624 34.8473 45.4358 34.25C45.1091 33.6433 44.9458 32.9433 44.9458 32.15C44.9458 31.3567 45.1044 30.6613 45.4218 30.064C45.7391 29.4667 46.1824 29.0093 46.7518 28.692C47.3304 28.3653 47.9931 28.202 48.7398 28.202C49.4678 28.202 50.1118 28.3607 50.6718 28.678C51.2318 28.9953 51.6611 29.434 51.9598 29.994C52.2678 30.5447 52.4218 31.17 52.4218 31.87ZM51.1058 31.604C51.1058 31.1187 50.9984 30.7033 50.7838 30.358C50.5691 30.0033 50.2751 29.7373 49.9018 29.56C49.5378 29.3733 49.1318 29.28 48.6838 29.28C48.0398 29.28 47.4891 29.4853 47.0318 29.896C46.5838 30.3067 46.3271 30.876 46.2618 31.604H51.1058ZM53.6274 32.15C53.6274 31.3567 53.7861 30.666 54.1034 30.078C54.4207 29.4807 54.8594 29.0187 55.4194 28.692C55.9887 28.3653 56.6374 28.202 57.3654 28.202C58.3081 28.202 59.0827 28.4307 59.6894 28.888C60.3054 29.3453 60.7114 29.98 60.9074 30.792H59.5354C59.4047 30.3253 59.1481 29.9567 58.7654 29.686C58.3921 29.4153 57.9254 29.28 57.3654 29.28C56.6374 29.28 56.0494 29.532 55.6014 30.036C55.1534 30.5307 54.9294 31.2353 54.9294 32.15C54.9294 33.074 55.1534 33.788 55.6014 34.292C56.0494 34.796 56.6374 35.048 57.3654 35.048C57.9254 35.048 58.3921 34.9173 58.7654 34.656C59.1387 34.3947 59.3954 34.0213 59.5354 33.536H60.9074C60.7021 34.32 60.2914 34.95 59.6754 35.426C59.0594 35.8927 58.2894 36.126 57.3654 36.126C56.6374 36.126 55.9887 35.9627 55.4194 35.636C54.8594 35.3093 54.4207 34.8473 54.1034 34.25C53.7861 33.6527 53.6274 32.9527 53.6274 32.15ZM64.1613 29.378V33.9C64.1613 34.2733 64.2406 34.5393 64.3993 34.698C64.558 34.8473 64.8333 34.922 65.2253 34.922H66.1633V36H65.0153C64.306 36 63.774 35.8367 63.4193 35.51C63.0646 35.1833 62.8873 34.6467 62.8873 33.9V29.378H61.8933V28.328H62.8873V26.396H64.1613V28.328H66.1633V29.378H64.1613ZM76.3253 30.974C76.68 31.03 77.002 31.1747 77.2913 31.408C77.59 31.6413 77.8233 31.9307 77.9913 32.276C78.1687 32.6213 78.2573 32.99 78.2573 33.382C78.2573 33.8767 78.1313 34.3247 77.8793 34.726C77.6273 35.118 77.2587 35.4307 76.7733 35.664C76.2973 35.888 75.7327 36 75.0793 36H71.4393V26.242H74.9393C75.602 26.242 76.1667 26.354 76.6333 26.578C77.1 26.7927 77.45 27.0867 77.6833 27.46C77.9167 27.8333 78.0333 28.2533 78.0333 28.72C78.0333 29.2987 77.8747 29.7793 77.5573 30.162C77.2493 30.5353 76.8387 30.806 76.3253 30.974ZM72.7133 30.456H74.8553C75.4527 30.456 75.9147 30.316 76.2413 30.036C76.568 29.756 76.7313 29.3687 76.7313 28.874C76.7313 28.3793 76.568 27.992 76.2413 27.712C75.9147 27.432 75.4433 27.292 74.8273 27.292H72.7133V30.456ZM74.9673 34.95C75.602 34.95 76.0967 34.8007 76.4513 34.502C76.806 34.2033 76.9833 33.788 76.9833 33.256C76.9833 32.7147 76.7967 32.29 76.4233 31.982C76.05 31.6647 75.5507 31.506 74.9253 31.506H72.7133V34.95H74.9673ZM83.3713 36.126C82.6526 36.126 81.9993 35.9627 81.4113 35.636C80.8326 35.3093 80.3753 34.8473 80.0393 34.25C79.7126 33.6433 79.5493 32.9433 79.5493 32.15C79.5493 31.366 79.7173 30.6753 80.0533 30.078C80.3986 29.4713 80.8653 29.0093 81.4533 28.692C82.0413 28.3653 82.6993 28.202 83.4273 28.202C84.1553 28.202 84.8133 28.3653 85.4013 28.692C85.9893 29.0093 86.4513 29.4667 86.7873 30.064C87.1326 30.6613 87.3053 31.3567 87.3053 32.15C87.3053 32.9433 87.1279 33.6433 86.7733 34.25C86.4279 34.8473 85.9566 35.3093 85.3593 35.636C84.7619 35.9627 84.0993 36.126 83.3713 36.126ZM83.3713 35.006C83.8286 35.006 84.2579 34.8987 84.6593 34.684C85.0606 34.4693 85.3826 34.1473 85.6253 33.718C85.8773 33.2887 86.0033 32.766 86.0033 32.15C86.0033 31.534 85.8819 31.0113 85.6393 30.582C85.3966 30.1527 85.0793 29.8353 84.6873 29.63C84.2953 29.4153 83.8706 29.308 83.4133 29.308C82.9466 29.308 82.5173 29.4153 82.1253 29.63C81.7426 29.8353 81.4346 30.1527 81.2013 30.582C80.9679 31.0113 80.8513 31.534 80.8513 32.15C80.8513 32.7753 80.9633 33.3027 81.1873 33.732C81.4206 34.1613 81.7286 34.4833 82.1113 34.698C82.4939 34.9033 82.9139 35.006 83.3713 35.006ZM90.5343 29.378V33.9C90.5343 34.2733 90.6137 34.5393 90.7723 34.698C90.931 34.8473 91.2063 34.922 91.5983 34.922H92.5363V36H91.3883C90.679 36 90.147 35.8367 89.7923 35.51C89.4377 35.1833 89.2603 34.6467 89.2603 33.9V29.378H88.2663V28.328H89.2603V26.396H90.5343V28.328H92.5363V29.378H90.5343Z" fill="#212427"/>
<rect x="24.5" y="50.5" width="339" height="31" rx="5.5" stroke="black" stroke-opacity="0.15"/>
<path d="M46.976 61.312V71H45.702V63.776L42.482 71H41.586L38.352 63.762V71H37.078V61.312H38.45L42.034 69.32L45.618 61.312H46.976ZM55.7446 63.328L51.1246 74.612H49.8086L51.3206 70.916L48.2266 63.328H49.6406L52.0486 69.544L54.4286 63.328H55.7446ZM63.8797 64.378H62.2697V71H60.9957V64.378H60.0017V63.328H60.9957V62.782C60.9957 61.9233 61.215 61.298 61.6537 60.906C62.1017 60.5047 62.8157 60.304 63.7957 60.304V61.368C63.2357 61.368 62.839 61.48 62.6057 61.704C62.3817 61.9187 62.2697 62.278 62.2697 62.782V63.328H63.8797V64.378ZM66.0231 62.082C65.7804 62.082 65.5751 61.998 65.4071 61.83C65.2391 61.662 65.1551 61.4567 65.1551 61.214C65.1551 60.9713 65.2391 60.766 65.4071 60.598C65.5751 60.43 65.7804 60.346 66.0231 60.346C66.2564 60.346 66.4524 60.43 66.6111 60.598C66.7791 60.766 66.8631 60.9713 66.8631 61.214C66.8631 61.4567 66.7791 61.662 66.6111 61.83C66.4524 61.998 66.2564 62.082 66.0231 62.082ZM66.6391 63.328V71H65.3651V63.328H66.6391ZM70.0844 64.574C70.3084 64.1353 70.6258 63.7947 71.0364 63.552C71.4564 63.3093 71.9651 63.188 72.5624 63.188V64.504H72.2264C70.7984 64.504 70.0844 65.2787 70.0844 66.828V71H68.8104V63.328H70.0844V64.574ZM76.7491 71.126C76.1611 71.126 75.6337 71.028 75.1671 70.832C74.7004 70.6267 74.3317 70.3467 74.0611 69.992C73.7904 69.628 73.6411 69.2127 73.6131 68.746H74.9291C74.9664 69.1287 75.1437 69.4413 75.4611 69.684C75.7877 69.9267 76.2124 70.048 76.7351 70.048C77.2204 70.048 77.6031 69.9407 77.8831 69.726C78.1631 69.5113 78.3031 69.2407 78.3031 68.914C78.3031 68.578 78.1537 68.3307 77.8551 68.172C77.5564 68.004 77.0944 67.8407 76.4691 67.682C75.8997 67.5327 75.4331 67.3833 75.0691 67.234C74.7144 67.0753 74.4064 66.8467 74.1451 66.548C73.8931 66.24 73.7671 65.8387 73.7671 65.344C73.7671 64.952 73.8837 64.5927 74.1171 64.266C74.3504 63.9393 74.6817 63.6827 75.1111 63.496C75.5404 63.3 76.0304 63.202 76.5811 63.202C77.4304 63.202 78.1164 63.4167 78.6391 63.846C79.1617 64.2753 79.4417 64.8633 79.4791 65.61H78.2051C78.1771 65.2087 78.0137 64.8867 77.7151 64.644C77.4257 64.4013 77.0337 64.28 76.5391 64.28C76.0817 64.28 75.7177 64.378 75.4471 64.574C75.1764 64.77 75.0411 65.0267 75.0411 65.344C75.0411 65.596 75.1204 65.806 75.2791 65.974C75.4471 66.1327 75.6524 66.2633 75.8951 66.366C76.1471 66.4593 76.4924 66.5667 76.9311 66.688C77.4817 66.8373 77.9297 66.9867 78.2751 67.136C78.6204 67.276 78.9144 67.4907 79.1571 67.78C79.4091 68.0693 79.5397 68.4473 79.5491 68.914C79.5491 69.334 79.4324 69.712 79.1991 70.048C78.9657 70.384 78.6344 70.65 78.2051 70.846C77.7851 71.0327 77.2997 71.126 76.7491 71.126ZM82.9015 64.378V68.9C82.9015 69.2733 82.9809 69.5393 83.1395 69.698C83.2982 69.8473 83.5735 69.922 83.9655 69.922H84.9035V71H83.7555C83.0462 71 82.5142 70.8367 82.1595 70.51C81.8049 70.1833 81.6275 69.6467 81.6275 68.9V64.378H80.6335V63.328H81.6275V61.396H82.9015V63.328H84.9035V64.378H82.9015ZM91.4536 64.756C91.7149 64.2987 92.0976 63.9253 92.6016 63.636C93.1056 63.3467 93.6796 63.202 94.3236 63.202C95.0142 63.202 95.6349 63.3653 96.1856 63.692C96.7362 64.0187 97.1702 64.4807 97.4876 65.078C97.8049 65.666 97.9636 66.352 97.9636 67.136C97.9636 67.9107 97.8049 68.6013 97.4876 69.208C97.1702 69.8147 96.7316 70.286 96.1716 70.622C95.6209 70.958 95.0049 71.126 94.3236 71.126C93.6609 71.126 93.0776 70.9813 92.5736 70.692C92.0789 70.4027 91.7056 70.034 91.4536 69.586V71H90.1796V60.64H91.4536V64.756ZM96.6616 67.136C96.6616 66.5573 96.5449 66.0533 96.3116 65.624C96.0782 65.1947 95.7609 64.868 95.3596 64.644C94.9676 64.42 94.5336 64.308 94.0576 64.308C93.5909 64.308 93.1569 64.4247 92.7556 64.658C92.3636 64.882 92.0462 65.2133 91.8036 65.652C91.5702 66.0813 91.4536 66.5807 91.4536 67.15C91.4536 67.7287 91.5702 68.2373 91.8036 68.676C92.0462 69.1053 92.3636 69.4367 92.7556 69.67C93.1569 69.894 93.5909 70.006 94.0576 70.006C94.5336 70.006 94.9676 69.894 95.3596 69.67C95.7609 69.4367 96.0782 69.1053 96.3116 68.676C96.5449 68.2373 96.6616 67.724 96.6616 67.136ZM102.987 71.126C102.268 71.126 101.615 70.9627 101.027 70.636C100.448 70.3093 99.9905 69.8473 99.6545 69.25C99.3278 68.6433 99.1645 67.9433 99.1645 67.15C99.1645 66.366 99.3325 65.6753 99.6685 65.078C100.014 64.4713 100.481 64.0093 101.069 63.692C101.657 63.3653 102.315 63.202 103.043 63.202C103.771 63.202 104.429 63.3653 105.017 63.692C105.605 64.0093 106.067 64.4667 106.403 65.064C106.748 65.6613 106.921 66.3567 106.921 67.15C106.921 67.9433 106.743 68.6433 106.389 69.25C106.043 69.8473 105.572 70.3093 104.975 70.636C104.377 70.9627 103.715 71.126 102.987 71.126ZM102.987 70.006C103.444 70.006 103.873 69.8987 104.275 69.684C104.676 69.4693 104.998 69.1473 105.241 68.718C105.493 68.2887 105.619 67.766 105.619 67.15C105.619 66.534 105.497 66.0113 105.255 65.582C105.012 65.1527 104.695 64.8353 104.303 64.63C103.911 64.4153 103.486 64.308 103.029 64.308C102.562 64.308 102.133 64.4153 101.741 64.63C101.358 64.8353 101.05 65.1527 100.817 65.582C100.583 66.0113 100.467 66.534 100.467 67.15C100.467 67.7753 100.579 68.3027 100.803 68.732C101.036 69.1613 101.344 69.4833 101.727 69.698C102.109 69.9033 102.529 70.006 102.987 70.006ZM110.15 64.378V68.9C110.15 69.2733 110.229 69.5393 110.388 69.698C110.546 69.8473 110.822 69.922 111.214 69.922H112.152V71H111.004C110.294 71 109.762 70.8367 109.408 70.51C109.053 70.1833 108.876 69.6467 108.876 68.9V64.378H107.882V63.328H108.876V61.396H110.15V63.328H112.152V64.378H110.15Z" fill="#212427"/>
<path d="M349.813 62H348.641C348.561 62 348.486 62.0391 348.439 62.1031L344 68.2219L339.561 62.1031C339.514 62.0391 339.439 62 339.36 62H338.188C338.086 62 338.027 62.1156 338.086 62.1984L343.596 69.7937C343.796 70.0687 344.205 70.0687 344.403 69.7937L349.913 62.1984C349.974 62.1156 349.914 62 349.813 62Z" fill="black" fill-opacity="0.25"/>
<path d="M392.172 36.098C391.528 36.098 390.949 35.986 390.436 35.762C389.932 35.5287 389.535 35.2113 389.246 34.81C388.957 34.3993 388.807 33.928 388.798 33.396H390.156C390.203 33.8533 390.389 34.2407 390.716 34.558C391.052 34.866 391.537 35.02 392.172 35.02C392.779 35.02 393.255 34.8707 393.6 34.572C393.955 34.264 394.132 33.872 394.132 33.396C394.132 33.0227 394.029 32.7193 393.824 32.486C393.619 32.2527 393.362 32.0753 393.054 31.954C392.746 31.8327 392.331 31.702 391.808 31.562C391.164 31.394 390.646 31.226 390.254 31.058C389.871 30.89 389.54 30.6287 389.26 30.274C388.989 29.91 388.854 29.4247 388.854 28.818C388.854 28.286 388.989 27.8147 389.26 27.404C389.531 26.9933 389.909 26.676 390.394 26.452C390.889 26.228 391.453 26.116 392.088 26.116C393.003 26.116 393.749 26.3447 394.328 26.802C394.916 27.2593 395.247 27.866 395.322 28.622H393.922C393.875 28.2487 393.679 27.922 393.334 27.642C392.989 27.3527 392.531 27.208 391.962 27.208C391.43 27.208 390.996 27.348 390.66 27.628C390.324 27.8987 390.156 28.2813 390.156 28.776C390.156 29.1307 390.254 29.42 390.45 29.644C390.655 29.868 390.903 30.0407 391.192 30.162C391.491 30.274 391.906 30.4047 392.438 30.554C393.082 30.7313 393.6 30.9087 393.992 31.086C394.384 31.254 394.72 31.52 395 31.884C395.28 32.2387 395.42 32.724 395.42 33.34C395.42 33.816 395.294 34.264 395.042 34.684C394.79 35.104 394.417 35.4447 393.922 35.706C393.427 35.9673 392.844 36.098 392.172 36.098ZM404.295 31.87C404.295 32.1127 404.281 32.3693 404.253 32.64H398.121C398.167 33.396 398.424 33.9887 398.891 34.418C399.367 34.838 399.941 35.048 400.613 35.048C401.163 35.048 401.621 34.922 401.985 34.67C402.358 34.4087 402.619 34.0633 402.769 33.634H404.141C403.935 34.3713 403.525 34.9733 402.909 35.44C402.293 35.8973 401.527 36.126 400.613 36.126C399.885 36.126 399.231 35.9627 398.653 35.636C398.083 35.3093 397.635 34.8473 397.309 34.25C396.982 33.6433 396.819 32.9433 396.819 32.15C396.819 31.3567 396.977 30.6613 397.295 30.064C397.612 29.4667 398.055 29.0093 398.625 28.692C399.203 28.3653 399.866 28.202 400.613 28.202C401.341 28.202 401.985 28.3607 402.545 28.678C403.105 28.9953 403.534 29.434 403.833 29.994C404.141 30.5447 404.295 31.17 404.295 31.87ZM402.979 31.604C402.979 31.1187 402.871 30.7033 402.657 30.358C402.442 30.0033 402.148 29.7373 401.775 29.56C401.411 29.3733 401.005 29.28 400.557 29.28C399.913 29.28 399.362 29.4853 398.905 29.896C398.457 30.3067 398.2 30.876 398.135 31.604H402.979ZM407.25 25.64V36H405.976V25.64H407.25ZM416.422 31.87C416.422 32.1127 416.408 32.3693 416.38 32.64H410.248C410.294 33.396 410.551 33.9887 411.018 34.418C411.494 34.838 412.068 35.048 412.74 35.048C413.29 35.048 413.748 34.922 414.112 34.67C414.485 34.4087 414.746 34.0633 414.896 33.634H416.268C416.062 34.3713 415.652 34.9733 415.036 35.44C414.42 35.8973 413.654 36.126 412.74 36.126C412.012 36.126 411.358 35.9627 410.78 35.636C410.21 35.3093 409.762 34.8473 409.436 34.25C409.109 33.6433 408.946 32.9433 408.946 32.15C408.946 31.3567 409.104 30.6613 409.422 30.064C409.739 29.4667 410.182 29.0093 410.752 28.692C411.33 28.3653 411.993 28.202 412.74 28.202C413.468 28.202 414.112 28.3607 414.672 28.678C415.232 28.9953 415.661 29.434 415.96 29.994C416.268 30.5447 416.422 31.17 416.422 31.87ZM415.106 31.604C415.106 31.1187 414.998 30.7033 414.784 30.358C414.569 30.0033 414.275 29.7373 413.902 29.56C413.538 29.3733 413.132 29.28 412.684 29.28C412.04 29.28 411.489 29.4853 411.032 29.896C410.584 30.3067 410.327 30.876 410.262 31.604H415.106ZM417.627 32.15C417.627 31.3567 417.786 30.666 418.103 30.078C418.421 29.4807 418.859 29.0187 419.419 28.692C419.989 28.3653 420.637 28.202 421.365 28.202C422.308 28.202 423.083 28.4307 423.689 28.888C424.305 29.3453 424.711 29.98 424.907 30.792H423.535C423.405 30.3253 423.148 29.9567 422.765 29.686C422.392 29.4153 421.925 29.28 421.365 29.28C420.637 29.28 420.049 29.532 419.601 30.036C419.153 30.5307 418.929 31.2353 418.929 32.15C418.929 33.074 419.153 33.788 419.601 34.292C420.049 34.796 420.637 35.048 421.365 35.048C421.925 35.048 422.392 34.9173 422.765 34.656C423.139 34.3947 423.395 34.0213 423.535 33.536H424.907C424.702 34.32 424.291 34.95 423.675 35.426C423.059 35.8927 422.289 36.126 421.365 36.126C420.637 36.126 419.989 35.9627 419.419 35.636C418.859 35.3093 418.421 34.8473 418.103 34.25C417.786 33.6527 417.627 32.9527 417.627 32.15ZM428.161 29.378V33.9C428.161 34.2733 428.241 34.5393 428.399 34.698C428.558 34.8473 428.833 34.922 429.225 34.922H430.163V36H429.015C428.306 36 427.774 35.8367 427.419 35.51C427.065 35.1833 426.887 34.6467 426.887 33.9V29.378H425.893V28.328H426.887V26.396H428.161V28.328H430.163V29.378H428.161ZM438.533 36.098C437.889 36.098 437.311 35.986 436.797 35.762C436.293 35.5287 435.897 35.2113 435.607 34.81C435.318 34.3993 435.169 33.928 435.159 33.396H436.517C436.564 33.8533 436.751 34.2407 437.077 34.558C437.413 34.866 437.899 35.02 438.533 35.02C439.14 35.02 439.616 34.8707 439.961 34.572C440.316 34.264 440.493 33.872 440.493 33.396C440.493 33.0227 440.391 32.7193 440.185 32.486C439.98 32.2527 439.723 32.0753 439.415 31.954C439.107 31.8327 438.692 31.702 438.169 31.562C437.525 31.394 437.007 31.226 436.615 31.058C436.233 30.89 435.901 30.6287 435.621 30.274C435.351 29.91 435.215 29.4247 435.215 28.818C435.215 28.286 435.351 27.8147 435.621 27.404C435.892 26.9933 436.27 26.676 436.755 26.452C437.25 26.228 437.815 26.116 438.449 26.116C439.364 26.116 440.111 26.3447 440.689 26.802C441.277 27.2593 441.609 27.866 441.683 28.622H440.283C440.237 28.2487 440.041 27.922 439.695 27.642C439.35 27.3527 438.893 27.208 438.323 27.208C437.791 27.208 437.357 27.348 437.021 27.628C436.685 27.8987 436.517 28.2813 436.517 28.776C436.517 29.1307 436.615 29.42 436.811 29.644C437.017 29.868 437.264 30.0407 437.553 30.162C437.852 30.274 438.267 30.4047 438.799 30.554C439.443 30.7313 439.961 30.9087 440.353 31.086C440.745 31.254 441.081 31.52 441.361 31.884C441.641 32.2387 441.781 32.724 441.781 33.34C441.781 33.816 441.655 34.264 441.403 34.684C441.151 35.104 440.778 35.4447 440.283 35.706C439.789 35.9673 439.205 36.098 438.533 36.098ZM450.46 28.328V36H449.186V34.866C448.943 35.258 448.603 35.566 448.164 35.79C447.735 36.0047 447.259 36.112 446.736 36.112C446.139 36.112 445.602 35.9907 445.126 35.748C444.65 35.496 444.272 35.1227 443.992 34.628C443.721 34.1333 443.586 33.5313 443.586 32.822V28.328H444.846V32.654C444.846 33.41 445.037 33.9933 445.42 34.404C445.803 34.8053 446.325 35.006 446.988 35.006C447.669 35.006 448.206 34.796 448.598 34.376C448.99 33.956 449.186 33.3447 449.186 32.542V28.328H450.46ZM453.269 27.082C453.027 27.082 452.821 26.998 452.653 26.83C452.485 26.662 452.401 26.4567 452.401 26.214C452.401 25.9713 452.485 25.766 452.653 25.598C452.821 25.43 453.027 25.346 453.269 25.346C453.503 25.346 453.699 25.43 453.857 25.598C454.025 25.766 454.109 25.9713 454.109 26.214C454.109 26.4567 454.025 26.662 453.857 26.83C453.699 26.998 453.503 27.082 453.269 27.082ZM453.885 28.328V36H452.611V28.328H453.885ZM457.611 29.378V33.9C457.611 34.2733 457.69 34.5393 457.849 34.698C458.007 34.8473 458.283 34.922 458.675 34.922H459.613V36H458.465C457.755 36 457.223 35.8367 456.869 35.51C456.514 35.1833 456.337 34.6467 456.337 33.9V29.378H455.343V28.328H456.337V26.396H457.611V28.328H459.613V29.378H457.611ZM468.156 31.87C468.156 32.1127 468.142 32.3693 468.114 32.64H461.982C462.029 33.396 462.285 33.9887 462.752 34.418C463.228 34.838 463.802 35.048 464.474 35.048C465.025 35.048 465.482 34.922 465.846 34.67C466.219 34.4087 466.481 34.0633 466.63 33.634H468.002C467.797 34.3713 467.386 34.9733 466.77 35.44C466.154 35.8973 465.389 36.126 464.474 36.126C463.746 36.126 463.093 35.9627 462.514 35.636C461.945 35.3093 461.497 34.8473 461.17 34.25C460.843 33.6433 460.68 32.9433 460.68 32.15C460.68 31.3567 460.839 30.6613 461.156 30.064C461.473 29.4667 461.917 29.0093 462.486 28.692C463.065 28.3653 463.727 28.202 464.474 28.202C465.202 28.202 465.846 28.3607 466.406 28.678C466.966 28.9953 467.395 29.434 467.694 29.994C468.002 30.5447 468.156 31.17 468.156 31.87ZM466.84 31.604C466.84 31.1187 466.733 30.7033 466.518 30.358C466.303 30.0033 466.009 29.7373 465.636 29.56C465.272 29.3733 464.866 29.28 464.418 29.28C463.774 29.28 463.223 29.4853 462.766 29.896C462.318 30.3067 462.061 30.876 461.996 31.604H466.84Z" fill="#212427"/>
<rect x="388.5" y="50.5" width="339" height="31" rx="5.5" stroke="black" stroke-opacity="0.15"/>
<path d="M407.084 61.242V62.278H404.424V71H403.15V62.278H400.476V61.242H407.084ZM415.652 66.87C415.652 67.1127 415.638 67.3693 415.61 67.64H409.478C409.525 68.396 409.782 68.9887 410.248 69.418C410.724 69.838 411.298 70.048 411.97 70.048C412.521 70.048 412.978 69.922 413.342 69.67C413.716 69.4087 413.977 69.0633 414.126 68.634H415.498C415.293 69.3713 414.882 69.9733 414.266 70.44C413.65 70.8973 412.885 71.126 411.97 71.126C411.242 71.126 410.589 70.9627 410.01 70.636C409.441 70.3093 408.993 69.8473 408.666 69.25C408.34 68.6433 408.176 67.9433 408.176 67.15C408.176 66.3567 408.335 65.6613 408.652 65.064C408.97 64.4667 409.413 64.0093 409.982 63.692C410.561 63.3653 411.224 63.202 411.97 63.202C412.698 63.202 413.342 63.3607 413.902 63.678C414.462 63.9953 414.892 64.434 415.19 64.994C415.498 65.5447 415.652 66.17 415.652 66.87ZM414.336 66.604C414.336 66.1187 414.229 65.7033 414.014 65.358C413.8 65.0033 413.506 64.7373 413.132 64.56C412.768 64.3733 412.362 64.28 411.914 64.28C411.27 64.28 410.72 64.4853 410.262 64.896C409.814 65.3067 409.558 65.876 409.492 66.604H414.336ZM420.05 71.126C419.462 71.126 418.935 71.028 418.468 70.832C418.001 70.6267 417.633 70.3467 417.362 69.992C417.091 69.628 416.942 69.2127 416.914 68.746H418.23C418.267 69.1287 418.445 69.4413 418.762 69.684C419.089 69.9267 419.513 70.048 420.036 70.048C420.521 70.048 420.904 69.9407 421.184 69.726C421.464 69.5113 421.604 69.2407 421.604 68.914C421.604 68.578 421.455 68.3307 421.156 68.172C420.857 68.004 420.395 67.8407 419.77 67.682C419.201 67.5327 418.734 67.3833 418.37 67.234C418.015 67.0753 417.707 66.8467 417.446 66.548C417.194 66.24 417.068 65.8387 417.068 65.344C417.068 64.952 417.185 64.5927 417.418 64.266C417.651 63.9393 417.983 63.6827 418.412 63.496C418.841 63.3 419.331 63.202 419.882 63.202C420.731 63.202 421.417 63.4167 421.94 63.846C422.463 64.2753 422.743 64.8633 422.78 65.61H421.506C421.478 65.2087 421.315 64.8867 421.016 64.644C420.727 64.4013 420.335 64.28 419.84 64.28C419.383 64.28 419.019 64.378 418.748 64.574C418.477 64.77 418.342 65.0267 418.342 65.344C418.342 65.596 418.421 65.806 418.58 65.974C418.748 66.1327 418.953 66.2633 419.196 66.366C419.448 66.4593 419.793 66.5667 420.232 66.688C420.783 66.8373 421.231 66.9867 421.576 67.136C421.921 67.276 422.215 67.4907 422.458 67.78C422.71 68.0693 422.841 68.4473 422.85 68.914C422.85 69.334 422.733 69.712 422.5 70.048C422.267 70.384 421.935 70.65 421.506 70.846C421.086 71.0327 420.601 71.126 420.05 71.126ZM426.202 64.378V68.9C426.202 69.2733 426.282 69.5393 426.44 69.698C426.599 69.8473 426.874 69.922 427.266 69.922H428.204V71H427.056C426.347 71 425.815 70.8367 425.46 70.51C425.106 70.1833 424.928 69.6467 424.928 68.9V64.378H423.934V63.328H424.928V61.396H426.202V63.328H428.204V64.378H426.202ZM436.196 71.126C435.608 71.126 435.081 71.028 434.614 70.832C434.148 70.6267 433.779 70.3467 433.508 69.992C433.238 69.628 433.088 69.2127 433.06 68.746H434.376C434.414 69.1287 434.591 69.4413 434.908 69.684C435.235 69.9267 435.66 70.048 436.182 70.048C436.668 70.048 437.05 69.9407 437.33 69.726C437.61 69.5113 437.75 69.2407 437.75 68.914C437.75 68.578 437.601 68.3307 437.302 68.172C437.004 68.004 436.542 67.8407 435.916 67.682C435.347 67.5327 434.88 67.3833 434.516 67.234C434.162 67.0753 433.854 66.8467 433.592 66.548C433.34 66.24 433.214 65.8387 433.214 65.344C433.214 64.952 433.331 64.5927 433.564 64.266C433.798 63.9393 434.129 63.6827 434.558 63.496C434.988 63.3 435.478 63.202 436.028 63.202C436.878 63.202 437.564 63.4167 438.086 63.846C438.609 64.2753 438.889 64.8633 438.926 65.61H437.652C437.624 65.2087 437.461 64.8867 437.162 64.644C436.873 64.4013 436.481 64.28 435.986 64.28C435.529 64.28 435.165 64.378 434.894 64.574C434.624 64.77 434.488 65.0267 434.488 65.344C434.488 65.596 434.568 65.806 434.726 65.974C434.894 66.1327 435.1 66.2633 435.342 66.366C435.594 66.4593 435.94 66.5667 436.378 66.688C436.929 66.8373 437.377 66.9867 437.722 67.136C438.068 67.276 438.362 67.4907 438.604 67.78C438.856 68.0693 438.987 68.4473 438.996 68.914C438.996 69.334 438.88 69.712 438.646 70.048C438.413 70.384 438.082 70.65 437.652 70.846C437.232 71.0327 436.747 71.126 436.196 71.126ZM447.599 63.328V71H446.325V69.866C446.082 70.258 445.741 70.566 445.303 70.79C444.873 71.0047 444.397 71.112 443.875 71.112C443.277 71.112 442.741 70.9907 442.265 70.748C441.789 70.496 441.411 70.1227 441.131 69.628C440.86 69.1333 440.725 68.5313 440.725 67.822V63.328H441.985V67.654C441.985 68.41 442.176 68.9933 442.559 69.404C442.941 69.8053 443.464 70.006 444.127 70.006C444.808 70.006 445.345 69.796 445.737 69.376C446.129 68.956 446.325 68.3447 446.325 67.542V63.328H447.599ZM450.408 62.082C450.165 62.082 449.96 61.998 449.792 61.83C449.624 61.662 449.54 61.4567 449.54 61.214C449.54 60.9713 449.624 60.766 449.792 60.598C449.96 60.43 450.165 60.346 450.408 60.346C450.641 60.346 450.837 60.43 450.996 60.598C451.164 60.766 451.248 60.9713 451.248 61.214C451.248 61.4567 451.164 61.662 450.996 61.83C450.837 61.998 450.641 62.082 450.408 62.082ZM451.024 63.328V71H449.75V63.328H451.024ZM454.749 64.378V68.9C454.749 69.2733 454.829 69.5393 454.987 69.698C455.146 69.8473 455.421 69.922 455.813 69.922H456.751V71H455.603C454.894 71 454.362 70.8367 454.007 70.51C453.653 70.1833 453.475 69.6467 453.475 68.9V64.378H452.481V63.328H453.475V61.396H454.749V63.328H456.751V64.378H454.749ZM465.295 66.87C465.295 67.1127 465.281 67.3693 465.253 67.64H459.121C459.167 68.396 459.424 68.9887 459.891 69.418C460.367 69.838 460.941 70.048 461.613 70.048C462.163 70.048 462.621 69.922 462.985 69.67C463.358 69.4087 463.619 69.0633 463.769 68.634H465.141C464.935 69.3713 464.525 69.9733 463.909 70.44C463.293 70.8973 462.527 71.126 461.613 71.126C460.885 71.126 460.231 70.9627 459.653 70.636C459.083 70.3093 458.635 69.8473 458.309 69.25C457.982 68.6433 457.819 67.9433 457.819 67.15C457.819 66.3567 457.977 65.6613 458.295 65.064C458.612 64.4667 459.055 64.0093 459.625 63.692C460.203 63.3653 460.866 63.202 461.613 63.202C462.341 63.202 462.985 63.3607 463.545 63.678C464.105 63.9953 464.534 64.434 464.833 64.994C465.141 65.5447 465.295 66.17 465.295 66.87ZM463.979 66.604C463.979 66.1187 463.871 65.7033 463.657 65.358C463.442 65.0033 463.148 64.7373 462.775 64.56C462.411 64.3733 462.005 64.28 461.557 64.28C460.913 64.28 460.362 64.4853 459.905 64.896C459.457 65.3067 459.2 65.876 459.135 66.604H463.979ZM470.471 63.426C470.536 62.5673 470.868 61.8953 471.465 61.41C472.062 60.9247 472.837 60.682 473.789 60.682C474.424 60.682 474.97 60.7987 475.427 61.032C475.894 61.256 476.244 61.564 476.477 61.956C476.72 62.348 476.841 62.7913 476.841 63.286C476.841 63.8647 476.673 64.364 476.337 64.784C476.01 65.204 475.581 65.4747 475.049 65.596V65.666C475.656 65.8153 476.136 66.1093 476.491 66.548C476.846 66.9867 477.023 67.5607 477.023 68.27C477.023 68.802 476.902 69.2827 476.659 69.712C476.416 70.132 476.052 70.4633 475.567 70.706C475.082 70.9487 474.498 71.07 473.817 71.07C472.828 71.07 472.016 70.8133 471.381 70.3C470.746 69.7773 470.392 69.04 470.317 68.088H471.549C471.614 68.648 471.843 69.1053 472.235 69.46C472.627 69.8147 473.15 69.992 473.803 69.992C474.456 69.992 474.951 69.824 475.287 69.488C475.632 69.1427 475.805 68.6993 475.805 68.158C475.805 67.458 475.572 66.954 475.105 66.646C474.638 66.338 473.934 66.184 472.991 66.184H472.669V65.12H473.005C473.864 65.1107 474.512 64.9707 474.951 64.7C475.39 64.42 475.609 63.9907 475.609 63.412C475.609 62.9173 475.446 62.5207 475.119 62.222C474.802 61.9233 474.344 61.774 473.747 61.774C473.168 61.774 472.702 61.9233 472.347 62.222C471.992 62.5207 471.782 62.922 471.717 63.426H470.471Z" fill="#212427"/>
<path d="M713.813 62H712.641C712.561 62 712.486 62.0391 712.439 62.1031L708 68.2219L703.561 62.1031C703.514 62.0391 703.439 62 703.36 62H702.188C702.086 62 702.027 62.1156 702.086 62.1984L707.596 69.7937C707.796 70.0687 708.205 70.0687 708.403 69.7937L713.913 62.1984C713.974 62.1156 713.914 62 713.813 62Z" fill="black" fill-opacity="0.25"/>
</svg>
