<svg width="520" height="520" viewBox="0 0 520 520" fill="none" xmlns="http://www.w3.org/2000/svg">
<circle cx="260" cy="260" r="260" fill="#D6E6F7"/>
<mask id="mask0_3329_617" style="mask-type:alpha" maskUnits="userSpaceOnUse" x="0" y="0" width="520" height="520">
<circle cx="260" cy="260" r="260" fill="#D9D9D9"/>
</mask>
<g mask="url(#mask0_3329_617)">
<path d="M386.368 538.402H133.415C117.117 538.402 104.078 525.432 104.078 509.697V292.388C104.078 221.581 163.187 163.745 235.553 163.745H284.666C357.031 163.745 416.14 221.581 416.14 292.388V509.697C415.923 525.432 402.449 538.402 386.368 538.402Z" fill="#388AEB"/>
<path d="M424.832 170.124H398.103C386.15 118.242 344.426 77.2043 291.402 65.7222V46.798C291.402 37.6548 283.579 30 274.234 30H245.983C236.639 30 228.816 37.6548 228.816 46.798V65.7222C225.773 67.8485 224.904 69.7621 222.079 70.6126C218.602 71.4631 213.604 71.8885 210.561 71.038C166.229 87.198 132.328 124.408 121.897 170.337H95.1677C85.8233 170.337 78 177.992 78 187.135V214.777C78 223.92 85.8233 231.575 95.1677 231.575H424.832C434.177 231.575 442 223.92 442 214.777V187.135C441.783 177.566 434.177 170.124 424.832 170.124Z" fill="#314F8F"/>
<path d="M228.814 131.213V65.297C222.729 66.5728 216.427 68.4865 210.559 70.6128L228.814 131.213Z" fill="black"/>
<path d="M324.434 254.752H195.132C169.055 254.752 147.975 275.377 147.975 300.893V369.998C147.975 395.514 169.055 416.139 195.132 416.139H245.983L308.135 460.579C313.351 464.407 320.739 460.792 320.739 454.413V416.352H324.216C350.294 416.352 371.373 395.727 371.373 370.211V301.106C371.591 275.377 350.511 254.752 324.434 254.752Z" fill="white"/>
<path d="M206.649 356.39C194.914 356.39 185.135 347.034 185.135 335.339V317.265C185.135 305.783 194.697 296.215 206.649 296.215C218.384 296.215 228.163 305.571 228.163 317.265V335.339C227.946 347.034 218.384 356.39 206.649 356.39Z" fill="#314F8F"/>
<path d="M313.132 356.39C324.867 356.39 334.646 347.034 334.646 335.339V317.265C334.646 305.783 325.085 296.215 313.132 296.215C301.398 296.215 291.618 305.571 291.618 317.265V335.339C291.836 347.034 301.398 356.39 313.132 356.39Z" fill="#314F8F"/>
</g>
</svg>
