<svg width="492" height="241" viewBox="0 0 492 241" fill="none" xmlns="http://www.w3.org/2000/svg">
<rect x="0.5" y="1.42407" width="491" height="239" rx="11.5" stroke="black" stroke-opacity="0.06"/>
<path d="M33.248 27.2121C33.248 27.8094 33.104 28.3694 32.816 28.8921C32.5387 29.4147 32.096 29.8361 31.488 30.1561C30.8907 30.4761 30.1333 30.6361 29.216 30.6361H27.344V34.9241H25.104V23.7561H29.216C30.08 23.7561 30.816 23.9054 31.424 24.2041C32.032 24.5027 32.4853 24.9134 32.784 25.4361C33.0933 25.9587 33.248 26.5507 33.248 27.2121ZM29.12 28.8281C29.7387 28.8281 30.1973 28.6894 30.496 28.4121C30.7947 28.1241 30.944 27.7241 30.944 27.2121C30.944 26.1241 30.336 25.5801 29.12 25.5801H27.344V28.8281H29.12ZM37.0784 23.0841V34.9241H34.8384V23.0841H37.0784ZM38.7155 30.4601C38.7155 29.5641 38.8915 28.7694 39.2435 28.0761C39.6062 27.3827 40.0915 26.8494 40.6995 26.4761C41.3182 26.1027 42.0062 25.9161 42.7635 25.9161C43.4248 25.9161 44.0008 26.0494 44.4915 26.3161C44.9928 26.5827 45.3928 26.9187 45.6915 27.3241V26.0601H47.9475V34.9241H45.6915V33.6281C45.4035 34.0441 45.0035 34.3907 44.4915 34.6681C43.9902 34.9347 43.4088 35.0681 42.7475 35.0681C42.0008 35.0681 41.3182 34.8761 40.6995 34.4921C40.0915 34.1081 39.6062 33.5694 39.2435 32.8761C38.8915 32.1721 38.7155 31.3667 38.7155 30.4601ZM45.6915 30.4921C45.6915 29.9481 45.5848 29.4841 45.3715 29.1001C45.1582 28.7054 44.8702 28.4067 44.5075 28.2041C44.1448 27.9907 43.7555 27.8841 43.3395 27.8841C42.9235 27.8841 42.5395 27.9854 42.1875 28.1881C41.8355 28.3907 41.5475 28.6894 41.3235 29.0841C41.1102 29.4681 41.0035 29.9267 41.0035 30.4601C41.0035 30.9934 41.1102 31.4627 41.3235 31.8681C41.5475 32.2627 41.8355 32.5667 42.1875 32.7801C42.5502 32.9934 42.9342 33.1001 43.3395 33.1001C43.7555 33.1001 44.1448 32.9987 44.5075 32.7961C44.8702 32.5827 45.1582 32.2841 45.3715 31.9001C45.5848 31.5054 45.6915 31.0361 45.6915 30.4921ZM55.0473 25.9321C56.1033 25.9321 56.9566 26.2681 57.6073 26.9401C58.2579 27.6014 58.5833 28.5294 58.5833 29.7241V34.9241H56.3433V30.0281C56.3433 29.3241 56.1673 28.7854 55.8153 28.4121C55.4633 28.0281 54.9833 27.8361 54.3753 27.8361C53.7566 27.8361 53.2659 28.0281 52.9033 28.4121C52.5513 28.7854 52.3753 29.3241 52.3753 30.0281V34.9241H50.1353V26.0601H52.3753V27.1641C52.6739 26.7801 53.0526 26.4814 53.5113 26.2681C53.9806 26.0441 54.4926 25.9321 55.0473 25.9321ZM61.7054 35.0361C61.3 35.0361 60.964 34.9134 60.6974 34.6681C60.4414 34.4121 60.3134 34.0974 60.3134 33.7241C60.3134 33.3507 60.4414 33.0414 60.6974 32.7961C60.964 32.5401 61.3 32.4121 61.7054 32.4121C62.1 32.4121 62.4254 32.5401 62.6814 32.7961C62.9374 33.0414 63.0654 33.3507 63.0654 33.7241C63.0654 34.0974 62.9374 34.4121 62.6814 34.6681C62.4254 34.9134 62.1 35.0361 61.7054 35.0361ZM61.7054 28.4121C61.3 28.4121 60.964 28.2894 60.6974 28.0441C60.4414 27.7881 60.3134 27.4734 60.3134 27.1001C60.3134 26.7267 60.4414 26.4174 60.6974 26.1721C60.964 25.9161 61.3 25.7881 61.7054 25.7881C62.1 25.7881 62.4254 25.9161 62.6814 26.1721C62.9374 26.4174 63.0654 26.7267 63.0654 27.1001C63.0654 27.4734 62.9374 27.7881 62.6814 28.0441C62.4254 28.2894 62.1 28.4121 61.7054 28.4121ZM76.873 27.2121C76.873 27.8094 76.729 28.3694 76.441 28.8921C76.1637 29.4147 75.721 29.8361 75.113 30.1561C74.5157 30.4761 73.7583 30.6361 72.841 30.6361H70.969V34.9241H68.729V23.7561H72.841C73.705 23.7561 74.441 23.9054 75.049 24.2041C75.657 24.5027 76.1103 24.9134 76.409 25.4361C76.7183 25.9587 76.873 26.5507 76.873 27.2121ZM72.745 28.8281C73.3637 28.8281 73.8223 28.6894 74.121 28.4121C74.4197 28.1241 74.569 27.7241 74.569 27.2121C74.569 26.1241 73.961 25.5801 72.745 25.5801H70.969V28.8281H72.745ZM80.7034 27.4361C80.9914 26.9667 81.3647 26.5987 81.8234 26.3321C82.2927 26.0654 82.826 25.9321 83.4234 25.9321V28.2841H82.8314C82.1274 28.2841 81.594 28.4494 81.2314 28.7801C80.8794 29.1107 80.7034 29.6867 80.7034 30.5081V34.9241H78.4634V26.0601H80.7034V27.4361ZM88.8681 35.0681C88.0148 35.0681 87.2468 34.8814 86.5641 34.5081C85.8815 34.1241 85.3428 33.5854 84.9481 32.8921C84.5641 32.1987 84.3721 31.3987 84.3721 30.4921C84.3721 29.5854 84.5695 28.7854 84.9641 28.0921C85.3695 27.3987 85.9188 26.8654 86.6121 26.4921C87.3055 26.1081 88.0788 25.9161 88.9321 25.9161C89.7855 25.9161 90.5588 26.1081 91.2521 26.4921C91.9455 26.8654 92.4895 27.3987 92.8841 28.0921C93.2895 28.7854 93.4921 29.5854 93.4921 30.4921C93.4921 31.3987 93.2841 32.1987 92.8681 32.8921C92.4628 33.5854 91.9081 34.1241 91.2041 34.5081C90.5108 34.8814 89.7321 35.0681 88.8681 35.0681ZM88.8681 33.1161C89.2735 33.1161 89.6521 33.0201 90.0041 32.8281C90.3668 32.6254 90.6548 32.3267 90.8681 31.9321C91.0815 31.5374 91.1881 31.0574 91.1881 30.4921C91.1881 29.6494 90.9641 29.0041 90.5161 28.5561C90.0788 28.0974 89.5401 27.8681 88.9001 27.8681C88.2601 27.8681 87.7215 28.0974 87.2841 28.5561C86.8575 29.0041 86.6441 29.6494 86.6441 30.4921C86.6441 31.3347 86.8521 31.9854 87.2681 32.4441C87.6948 32.8921 88.2281 33.1161 88.8681 33.1161ZM99.1993 27.9001H97.6473V34.9241H95.3753V27.9001H94.3673V26.0601H95.3753V25.6121C95.3753 24.5241 95.6846 23.7241 96.3033 23.2121C96.9219 22.7001 97.8553 22.4601 99.1033 22.4921V24.3801C98.5593 24.3694 98.1806 24.4601 97.9673 24.6521C97.7539 24.8441 97.6473 25.1907 97.6473 25.6921V26.0601H99.1993V27.9001ZM108.891 30.3001C108.891 30.6201 108.87 30.9081 108.827 31.1641H102.347C102.4 31.8041 102.624 32.3054 103.019 32.6681C103.414 33.0307 103.899 33.2121 104.475 33.2121C105.307 33.2121 105.899 32.8547 106.251 32.1401H108.667C108.411 32.9934 107.92 33.6974 107.195 34.2521C106.47 34.7961 105.579 35.0681 104.523 35.0681C103.67 35.0681 102.902 34.8814 102.219 34.5081C101.547 34.1241 101.019 33.5854 100.635 32.8921C100.262 32.1987 100.075 31.3987 100.075 30.4921C100.075 29.5747 100.262 28.7694 100.635 28.0761C101.008 27.3827 101.531 26.8494 102.203 26.4761C102.875 26.1027 103.648 25.9161 104.523 25.9161C105.366 25.9161 106.118 26.0974 106.779 26.4601C107.451 26.8227 107.968 27.3401 108.331 28.0121C108.704 28.6734 108.891 29.4361 108.891 30.3001ZM106.571 29.6601C106.56 29.0841 106.352 28.6254 105.947 28.2841C105.542 27.9321 105.046 27.7561 104.459 27.7561C103.904 27.7561 103.435 27.9267 103.051 28.2681C102.678 28.5987 102.448 29.0627 102.363 29.6601H106.571ZM113.918 35.0681C113.193 35.0681 112.542 34.9401 111.966 34.6841C111.39 34.4174 110.931 34.0601 110.59 33.6121C110.259 33.1641 110.078 32.6681 110.046 32.1241H112.302C112.345 32.4654 112.51 32.7481 112.798 32.9721C113.097 33.1961 113.465 33.3081 113.902 33.3081C114.329 33.3081 114.659 33.2227 114.894 33.0521C115.139 32.8814 115.262 32.6627 115.262 32.3961C115.262 32.1081 115.113 31.8947 114.814 31.7561C114.526 31.6067 114.062 31.4467 113.422 31.2761C112.761 31.1161 112.217 30.9507 111.79 30.7801C111.374 30.6094 111.011 30.3481 110.702 29.9961C110.403 29.6441 110.254 29.1694 110.254 28.5721C110.254 28.0814 110.393 27.6334 110.67 27.2281C110.958 26.8227 111.363 26.5027 111.886 26.2681C112.419 26.0334 113.043 25.9161 113.758 25.9161C114.814 25.9161 115.657 26.1827 116.286 26.7161C116.915 27.2387 117.262 27.9481 117.326 28.8441H115.182C115.15 28.4921 115.001 28.2147 114.734 28.0121C114.478 27.7987 114.131 27.6921 113.694 27.6921C113.289 27.6921 112.974 27.7667 112.75 27.9161C112.537 28.0654 112.43 28.2734 112.43 28.5401C112.43 28.8387 112.579 29.0681 112.878 29.2281C113.177 29.3774 113.641 29.5321 114.27 29.6921C114.91 29.8521 115.438 30.0174 115.854 30.1881C116.27 30.3587 116.627 30.6254 116.926 30.9881C117.235 31.3401 117.395 31.8094 117.406 32.3961C117.406 32.9081 117.262 33.3667 116.974 33.7721C116.697 34.1774 116.291 34.4974 115.758 34.7321C115.235 34.9561 114.622 35.0681 113.918 35.0681ZM122.637 35.0681C121.911 35.0681 121.261 34.9401 120.685 34.6841C120.109 34.4174 119.65 34.0601 119.309 33.6121C118.978 33.1641 118.797 32.6681 118.765 32.1241H121.021C121.063 32.4654 121.229 32.7481 121.517 32.9721C121.815 33.1961 122.183 33.3081 122.621 33.3081C123.047 33.3081 123.378 33.2227 123.613 33.0521C123.858 32.8814 123.981 32.6627 123.981 32.3961C123.981 32.1081 123.831 31.8947 123.533 31.7561C123.245 31.6067 122.781 31.4467 122.141 31.2761C121.479 31.1161 120.935 30.9507 120.509 30.7801C120.093 30.6094 119.73 30.3481 119.421 29.9961C119.122 29.6441 118.973 29.1694 118.973 28.5721C118.973 28.0814 119.111 27.6334 119.389 27.2281C119.677 26.8227 120.082 26.5027 120.605 26.2681C121.138 26.0334 121.762 25.9161 122.477 25.9161C123.533 25.9161 124.375 26.1827 125.005 26.7161C125.634 27.2387 125.981 27.9481 126.045 28.8441H123.901C123.869 28.4921 123.719 28.2147 123.453 28.0121C123.197 27.7987 122.85 27.6921 122.413 27.6921C122.007 27.6921 121.693 27.7667 121.469 27.9161C121.255 28.0654 121.149 28.2734 121.149 28.5401C121.149 28.8387 121.298 29.0681 121.597 29.2281C121.895 29.3774 122.359 29.5321 122.989 29.6921C123.629 29.8521 124.157 30.0174 124.573 30.1881C124.989 30.3587 125.346 30.6254 125.645 30.9881C125.954 31.3401 126.114 31.8094 126.125 32.3961C126.125 32.9081 125.981 33.3667 125.693 33.7721C125.415 34.1774 125.01 34.4974 124.477 34.7321C123.954 34.9561 123.341 35.0681 122.637 35.0681ZM129.099 25.0041C128.705 25.0041 128.374 24.8814 128.107 24.6361C127.851 24.3801 127.723 24.0654 127.723 23.6921C127.723 23.3187 127.851 23.0094 128.107 22.7641C128.374 22.5081 128.705 22.3801 129.099 22.3801C129.494 22.3801 129.819 22.5081 130.075 22.7641C130.342 23.0094 130.475 23.3187 130.475 23.6921C130.475 24.0654 130.342 24.3801 130.075 24.6361C129.819 24.8814 129.494 25.0041 129.099 25.0041ZM130.203 26.0601V34.9241H127.963V26.0601H130.203ZM136.353 35.0681C135.499 35.0681 134.731 34.8814 134.049 34.5081C133.366 34.1241 132.827 33.5854 132.433 32.8921C132.049 32.1987 131.857 31.3987 131.857 30.4921C131.857 29.5854 132.054 28.7854 132.449 28.0921C132.854 27.3987 133.403 26.8654 134.097 26.4921C134.79 26.1081 135.563 25.9161 136.417 25.9161C137.27 25.9161 138.043 26.1081 138.737 26.4921C139.43 26.8654 139.974 27.3987 140.369 28.0921C140.774 28.7854 140.977 29.5854 140.977 30.4921C140.977 31.3987 140.769 32.1987 140.352 32.8921C139.947 33.5854 139.393 34.1241 138.689 34.5081C137.995 34.8814 137.217 35.0681 136.353 35.0681ZM136.353 33.1161C136.758 33.1161 137.137 33.0201 137.489 32.8281C137.851 32.6254 138.139 32.3267 138.353 31.9321C138.566 31.5374 138.673 31.0574 138.673 30.4921C138.673 29.6494 138.449 29.0041 138.001 28.5561C137.563 28.0974 137.025 27.8681 136.385 27.8681C135.745 27.8681 135.206 28.0974 134.769 28.5561C134.342 29.0041 134.129 29.6494 134.129 30.4921C134.129 31.3347 134.337 31.9854 134.753 32.4441C135.179 32.8921 135.713 33.1161 136.353 33.1161ZM147.532 25.9321C148.588 25.9321 149.441 26.2681 150.092 26.9401C150.742 27.6014 151.068 28.5294 151.068 29.7241V34.9241H148.828V30.0281C148.828 29.3241 148.652 28.7854 148.3 28.4121C147.948 28.0281 147.468 27.8361 146.86 27.8361C146.241 27.8361 145.75 28.0281 145.388 28.4121C145.036 28.7854 144.86 29.3241 144.86 30.0281V34.9241H142.62V26.0601H144.86V27.1641C145.158 26.7801 145.537 26.4814 145.996 26.2681C146.465 26.0441 146.977 25.9321 147.532 25.9321ZM152.622 30.4601C152.622 29.5641 152.798 28.7694 153.15 28.0761C153.512 27.3827 153.998 26.8494 154.606 26.4761C155.224 26.1027 155.912 25.9161 156.67 25.9161C157.331 25.9161 157.907 26.0494 158.398 26.3161C158.899 26.5827 159.299 26.9187 159.598 27.3241V26.0601H161.854V34.9241H159.598V33.6281C159.31 34.0441 158.91 34.3907 158.398 34.6681C157.896 34.9347 157.315 35.0681 156.654 35.0681C155.907 35.0681 155.224 34.8761 154.606 34.4921C153.998 34.1081 153.512 33.5694 153.15 32.8761C152.798 32.1721 152.622 31.3667 152.622 30.4601ZM159.598 30.4921C159.598 29.9481 159.491 29.4841 159.278 29.1001C159.064 28.7054 158.776 28.4067 158.414 28.2041C158.051 27.9907 157.662 27.8841 157.246 27.8841C156.83 27.8841 156.446 27.9854 156.094 28.1881C155.742 28.3907 155.454 28.6894 155.23 29.0841C155.016 29.4681 154.91 29.9267 154.91 30.4601C154.91 30.9934 155.016 31.4627 155.23 31.8681C155.454 32.2627 155.742 32.5667 156.094 32.7801C156.456 32.9934 156.84 33.1001 157.246 33.1001C157.662 33.1001 158.051 32.9987 158.414 32.7961C158.776 32.5827 159.064 32.2841 159.278 31.9001C159.491 31.5054 159.598 31.0361 159.598 30.4921ZM166.282 23.0841V34.9241H164.042V23.0841H166.282Z" fill="#212427"/>
<rect x="379" y="17.9241" width="89" height="22" rx="4" fill="black" fill-opacity="0.02"/>
<rect x="379.5" y="18.4241" width="88" height="21" rx="3.5" stroke="black" stroke-opacity="0.15"/>
<path d="M393.324 30.6321C393.324 31.0161 393.228 31.3841 393.036 31.7361C392.844 32.0801 392.56 32.3681 392.184 32.6001C391.816 32.8321 391.372 32.9641 390.852 32.9961V33.9681H390.204V32.9961C389.476 32.9321 388.884 32.7001 388.428 32.3001C387.972 31.8921 387.74 31.3761 387.732 30.7521H388.896C388.928 31.0881 389.052 31.3801 389.268 31.6281C389.492 31.8761 389.804 32.0321 390.204 32.0961V29.0961C389.668 28.9601 389.236 28.8201 388.908 28.6761C388.58 28.5321 388.3 28.3081 388.068 28.0041C387.836 27.7001 387.72 27.2921 387.72 26.7801C387.72 26.1321 387.944 25.5961 388.392 25.1721C388.848 24.7481 389.452 24.5121 390.204 24.4641V23.4681H390.852V24.4641C391.532 24.5201 392.08 24.7401 392.496 25.1241C392.912 25.5001 393.152 25.9921 393.216 26.6001H392.052C392.012 26.3201 391.888 26.0681 391.68 25.8441C391.472 25.6121 391.196 25.4601 390.852 25.3881V28.3161C391.38 28.4521 391.808 28.5921 392.136 28.7361C392.472 28.8721 392.752 29.0921 392.976 29.3961C393.208 29.7001 393.324 30.1121 393.324 30.6321ZM388.836 26.7201C388.836 27.1121 388.952 27.4121 389.184 27.6201C389.416 27.8281 389.756 28.0001 390.204 28.1361V25.3641C389.788 25.4041 389.456 25.5401 389.208 25.7721C388.96 25.9961 388.836 26.3121 388.836 26.7201ZM390.852 32.1081C391.284 32.0601 391.62 31.9041 391.86 31.6401C392.108 31.3761 392.232 31.0601 392.232 30.6921C392.232 30.3001 392.112 30.0001 391.872 29.7921C391.632 29.5761 391.292 29.4041 390.852 29.2761V32.1081ZM395.077 32.0481C396.093 31.2321 396.889 30.5641 397.465 30.0441C398.041 29.5161 398.525 28.9681 398.917 28.4001C399.317 27.8241 399.517 27.2601 399.517 26.7081C399.517 26.1881 399.389 25.7801 399.133 25.4841C398.885 25.1801 398.481 25.0281 397.921 25.0281C397.377 25.0281 396.953 25.2001 396.649 25.5441C396.353 25.8801 396.193 26.3321 396.169 26.9001H395.113C395.145 26.0041 395.417 25.3121 395.929 24.8241C396.441 24.3361 397.101 24.0921 397.909 24.0921C398.733 24.0921 399.385 24.3201 399.865 24.7761C400.353 25.2321 400.597 25.8601 400.597 26.6601C400.597 27.3241 400.397 27.9721 399.997 28.6041C399.605 29.2281 399.157 29.7801 398.653 30.2601C398.149 30.7321 397.505 31.2841 396.721 31.9161H400.849V32.8281H395.077V32.0481ZM402.111 28.4961C402.111 27.1201 402.335 26.0481 402.783 25.2801C403.231 24.5041 404.015 24.1161 405.135 24.1161C406.247 24.1161 407.027 24.5041 407.475 25.2801C407.923 26.0481 408.147 27.1201 408.147 28.4961C408.147 29.8961 407.923 30.9841 407.475 31.7601C407.027 32.5361 406.247 32.9241 405.135 32.9241C404.015 32.9241 403.231 32.5361 402.783 31.7601C402.335 30.9841 402.111 29.8961 402.111 28.4961ZM407.067 28.4961C407.067 27.8001 407.019 27.2121 406.923 26.7321C406.835 26.2441 406.647 25.8521 406.359 25.5561C406.079 25.2601 405.671 25.1121 405.135 25.1121C404.591 25.1121 404.175 25.2601 403.887 25.5561C403.607 25.8521 403.419 26.2441 403.323 26.7321C403.235 27.2121 403.191 27.8001 403.191 28.4961C403.191 29.2161 403.235 29.8201 403.323 30.3081C403.419 30.7961 403.607 31.1881 403.887 31.4841C404.175 31.7801 404.591 31.9281 405.135 31.9281C405.671 31.9281 406.079 31.7801 406.359 31.4841C406.647 31.1881 406.835 30.7961 406.923 30.3081C407.019 29.8201 407.067 29.2161 407.067 28.4961ZM421.51 24.6201V32.9241H420.418V26.7321L417.658 32.9241H416.89L414.118 26.7201V32.9241H413.026V24.6201H414.202L417.274 31.4841L420.346 24.6201H421.51ZM426.23 33.0321C425.614 33.0321 425.054 32.8921 424.55 32.6121C424.054 32.3321 423.662 31.9361 423.374 31.4241C423.094 30.9041 422.954 30.3041 422.954 29.6241C422.954 28.9521 423.098 28.3601 423.386 27.8481C423.682 27.3281 424.082 26.9321 424.586 26.6601C425.09 26.3801 425.654 26.2401 426.278 26.2401C426.902 26.2401 427.466 26.3801 427.97 26.6601C428.474 26.9321 428.87 27.3241 429.158 27.8361C429.454 28.3481 429.602 28.9441 429.602 29.6241C429.602 30.3041 429.45 30.9041 429.146 31.4241C428.85 31.9361 428.446 32.3321 427.934 32.6121C427.422 32.8921 426.854 33.0321 426.23 33.0321ZM426.23 32.0721C426.622 32.0721 426.99 31.9801 427.334 31.7961C427.678 31.6121 427.954 31.3361 428.162 30.9681C428.378 30.6001 428.486 30.1521 428.486 29.6241C428.486 29.0961 428.382 28.6481 428.174 28.2801C427.966 27.9121 427.694 27.6401 427.358 27.4641C427.022 27.2801 426.658 27.1881 426.266 27.1881C425.866 27.1881 425.498 27.2801 425.162 27.4641C424.834 27.6401 424.57 27.9121 424.37 28.2801C424.17 28.6481 424.07 29.0961 424.07 29.6241C424.07 30.1601 424.166 30.6121 424.358 30.9801C424.558 31.3481 424.822 31.6241 425.15 31.8081C425.478 31.9841 425.838 32.0721 426.23 32.0721ZM434.241 26.2281C435.041 26.2281 435.689 26.4721 436.185 26.9601C436.681 27.4401 436.929 28.1361 436.929 29.0481V32.9241H435.849V29.2041C435.849 28.5481 435.685 28.0481 435.357 27.7041C435.029 27.3521 434.581 27.1761 434.013 27.1761C433.437 27.1761 432.977 27.3561 432.633 27.7161C432.297 28.0761 432.129 28.6001 432.129 29.2881V32.9241H431.037V26.3481H432.129V27.2841C432.345 26.9481 432.637 26.6881 433.005 26.5041C433.381 26.3201 433.793 26.2281 434.241 26.2281ZM440.045 27.2481V31.1241C440.045 31.4441 440.113 31.6721 440.249 31.8081C440.385 31.9361 440.621 32.0001 440.957 32.0001H441.761V32.9241H440.777C440.169 32.9241 439.713 32.7841 439.409 32.5041C439.105 32.2241 438.953 31.7641 438.953 31.1241V27.2481H438.101V26.3481H438.953V24.6921H440.045V26.3481H441.761V27.2481H440.045ZM446.348 26.2281C446.844 26.2281 447.292 26.3361 447.692 26.5521C448.092 26.7601 448.404 27.0761 448.628 27.5001C448.86 27.9241 448.976 28.4401 448.976 29.0481V32.9241H447.896V29.2041C447.896 28.5481 447.732 28.0481 447.404 27.7041C447.076 27.3521 446.628 27.1761 446.06 27.1761C445.484 27.1761 445.024 27.3561 444.68 27.7161C444.344 28.0761 444.176 28.6001 444.176 29.2881V32.9241H443.084V24.0441H444.176V27.2841C444.392 26.9481 444.688 26.6881 445.064 26.5041C445.448 26.3201 445.876 26.2281 446.348 26.2281ZM451.852 24.0441V32.9241H450.76V24.0441H451.852ZM459.377 26.3481L455.417 36.0201H454.289L455.585 32.8521L452.933 26.3481H454.145L456.209 31.6761L458.249 26.3481H459.377Z" fill="#212427"/>
<path d="M34.4852 69.9701C34.0092 69.9701 33.6032 69.8067 33.2672 69.4801C32.9406 69.1441 32.7772 68.7381 32.7772 68.2621C32.7772 67.7767 32.9406 67.3707 33.2672 67.0441C33.6032 66.7081 34.0092 66.5401 34.4852 66.5401C34.9706 66.5401 35.3812 66.7081 35.7172 67.0441C36.0532 67.3707 36.2212 67.7767 36.2212 68.2621C36.2212 68.7381 36.0532 69.1441 35.7172 69.4801C35.3812 69.8067 34.9706 69.9701 34.4852 69.9701ZM45.532 63.9641V62.8021H48.164V72.9241H46.876V63.9641H45.532ZM50.3524 67.7581C50.3524 66.1527 50.6137 64.9021 51.1364 64.0061C51.659 63.1007 52.5737 62.6481 53.8804 62.6481C55.1777 62.6481 56.0877 63.1007 56.6104 64.0061C57.133 64.9021 57.3944 66.1527 57.3944 67.7581C57.3944 69.3914 57.133 70.6607 56.6104 71.5661C56.0877 72.4714 55.1777 72.9241 53.8804 72.9241C52.5737 72.9241 51.659 72.4714 51.1364 71.5661C50.6137 70.6607 50.3524 69.3914 50.3524 67.7581ZM56.1344 67.7581C56.1344 66.9461 56.0784 66.2601 55.9664 65.7001C55.8637 65.1307 55.6444 64.6734 55.3084 64.3281C54.9817 63.9827 54.5057 63.8101 53.8804 63.8101C53.2457 63.8101 52.7604 63.9827 52.4244 64.3281C52.0977 64.6734 51.8784 65.1307 51.7664 65.7001C51.6637 66.2601 51.6124 66.9461 51.6124 67.7581C51.6124 68.5981 51.6637 69.3027 51.7664 69.8721C51.8784 70.4414 52.0977 70.8987 52.4244 71.2441C52.7604 71.5894 53.2457 71.7621 53.8804 71.7621C54.5057 71.7621 54.9817 71.5894 55.3084 71.2441C55.6444 70.8987 55.8637 70.4414 55.9664 69.8721C56.0784 69.3027 56.1344 68.5981 56.1344 67.7581ZM60.6694 71.1601L59.1014 74.9261H58.2474L59.2694 71.1601H60.6694ZM61.9188 67.7581C61.9188 66.1527 62.1801 64.9021 62.7028 64.0061C63.2254 63.1007 64.1401 62.6481 65.4468 62.6481C66.7441 62.6481 67.6541 63.1007 68.1768 64.0061C68.6994 64.9021 68.9608 66.1527 68.9608 67.7581C68.9608 69.3914 68.6994 70.6607 68.1768 71.5661C67.6541 72.4714 66.7441 72.9241 65.4468 72.9241C64.1401 72.9241 63.2254 72.4714 62.7028 71.5661C62.1801 70.6607 61.9188 69.3914 61.9188 67.7581ZM67.7008 67.7581C67.7008 66.9461 67.6448 66.2601 67.5328 65.7001C67.4301 65.1307 67.2108 64.6734 66.8748 64.3281C66.5481 63.9827 66.0721 63.8101 65.4468 63.8101C64.8121 63.8101 64.3268 63.9827 63.9908 64.3281C63.6641 64.6734 63.4448 65.1307 63.3328 65.7001C63.2301 66.2601 63.1788 66.9461 63.1788 67.7581C63.1788 68.5981 63.2301 69.3027 63.3328 69.8721C63.4448 70.4414 63.6641 70.8987 63.9908 71.2441C64.3268 71.5894 64.8121 71.7621 65.4468 71.7621C66.0721 71.7621 66.5481 71.5894 66.8748 71.2441C67.2108 70.8987 67.4301 70.4414 67.5328 69.8721C67.6448 69.3027 67.7008 68.5981 67.7008 67.7581ZM70.7098 67.7581C70.7098 66.1527 70.9711 64.9021 71.4938 64.0061C72.0165 63.1007 72.9311 62.6481 74.2378 62.6481C75.5351 62.6481 76.4451 63.1007 76.9678 64.0061C77.4905 64.9021 77.7518 66.1527 77.7518 67.7581C77.7518 69.3914 77.4905 70.6607 76.9678 71.5661C76.4451 72.4714 75.5351 72.9241 74.2378 72.9241C72.9311 72.9241 72.0165 72.4714 71.4938 71.5661C70.9711 70.6607 70.7098 69.3914 70.7098 67.7581ZM76.4918 67.7581C76.4918 66.9461 76.4358 66.2601 76.3238 65.7001C76.2211 65.1307 76.0018 64.6734 75.6658 64.3281C75.3391 63.9827 74.8631 63.8101 74.2378 63.8101C73.6031 63.8101 73.1178 63.9827 72.7818 64.3281C72.4551 64.6734 72.2358 65.1307 72.1238 65.7001C72.0211 66.2601 71.9698 66.9461 71.9698 67.7581C71.9698 68.5981 72.0211 69.3027 72.1238 69.8721C72.2358 70.4414 72.4551 70.8987 72.7818 71.2441C73.1178 71.5894 73.6031 71.7621 74.2378 71.7621C74.8631 71.7621 75.3391 71.5894 75.6658 71.2441C76.0018 70.8987 76.2211 70.4414 76.3238 69.8721C76.4358 69.3027 76.4918 68.5981 76.4918 67.7581ZM79.5008 67.7581C79.5008 66.1527 79.7621 64.9021 80.2848 64.0061C80.8075 63.1007 81.7221 62.6481 83.0288 62.6481C84.3261 62.6481 85.2361 63.1007 85.7588 64.0061C86.2815 64.9021 86.5428 66.1527 86.5428 67.7581C86.5428 69.3914 86.2815 70.6607 85.7588 71.5661C85.2361 72.4714 84.3261 72.9241 83.0288 72.9241C81.7221 72.9241 80.8075 72.4714 80.2848 71.5661C79.7621 70.6607 79.5008 69.3914 79.5008 67.7581ZM85.2828 67.7581C85.2828 66.9461 85.2268 66.2601 85.1148 65.7001C85.0121 65.1307 84.7928 64.6734 84.4568 64.3281C84.1301 63.9827 83.6541 63.8101 83.0288 63.8101C82.3941 63.8101 81.9088 63.9827 81.5728 64.3281C81.2461 64.6734 81.0268 65.1307 80.9148 65.7001C80.8121 66.2601 80.7608 66.9461 80.7608 67.7581C80.7608 68.5981 80.8121 69.3027 80.9148 69.8721C81.0268 70.4414 81.2461 70.8987 81.5728 71.2441C81.9088 71.5894 82.3941 71.7621 83.0288 71.7621C83.6541 71.7621 84.1301 71.5894 84.4568 71.2441C84.7928 70.8987 85.0121 70.4414 85.1148 69.8721C85.2268 69.3027 85.2828 68.5981 85.2828 67.7581ZM93.2618 59.7361L89.4258 75.3041H88.1658L91.9878 59.7361H93.2618ZM104.386 65.1121C104.983 65.1121 105.515 65.2381 105.982 65.4901C106.449 65.7327 106.817 66.1014 107.088 66.5961C107.359 67.0907 107.494 67.6927 107.494 68.4021V72.9241H106.234V68.5841C106.234 67.8187 106.043 67.2354 105.66 66.8341C105.287 66.4234 104.778 66.2181 104.134 66.2181C103.471 66.2181 102.944 66.4327 102.552 66.8621C102.16 67.2821 101.964 67.8934 101.964 68.6961V72.9241H100.704V68.5841C100.704 67.8187 100.513 67.2354 100.13 66.8341C99.7567 66.4234 99.248 66.2181 98.604 66.2181C97.9414 66.2181 97.414 66.4327 97.022 66.8621C96.63 67.2821 96.434 67.8934 96.434 68.6961V72.9241H95.16V65.2521H96.434V66.3581C96.686 65.9567 97.022 65.6487 97.442 65.4341C97.8714 65.2194 98.3427 65.1121 98.856 65.1121C99.5 65.1121 100.069 65.2567 100.564 65.5461C101.059 65.8354 101.427 66.2601 101.67 66.8201C101.885 66.2787 102.239 65.8587 102.734 65.5601C103.229 65.2614 103.779 65.1121 104.386 65.1121ZM112.93 73.0501C112.211 73.0501 111.558 72.8867 110.97 72.5601C110.391 72.2334 109.934 71.7714 109.598 71.1741C109.271 70.5674 109.108 69.8674 109.108 69.0741C109.108 68.2901 109.276 67.5994 109.612 67.0021C109.957 66.3954 110.424 65.9334 111.012 65.6161C111.6 65.2894 112.258 65.1261 112.986 65.1261C113.714 65.1261 114.372 65.2894 114.96 65.6161C115.548 65.9334 116.01 66.3907 116.346 66.9881C116.691 67.5854 116.864 68.2807 116.864 69.0741C116.864 69.8674 116.687 70.5674 116.332 71.1741C115.987 71.7714 115.515 72.2334 114.918 72.5601C114.321 72.8867 113.658 73.0501 112.93 73.0501ZM112.93 71.9301C113.387 71.9301 113.817 71.8227 114.218 71.6081C114.619 71.3934 114.941 71.0714 115.184 70.6421C115.436 70.2127 115.562 69.6901 115.562 69.0741C115.562 68.4581 115.441 67.9354 115.198 67.5061C114.955 67.0767 114.638 66.7594 114.246 66.5541C113.854 66.3394 113.429 66.2321 112.972 66.2321C112.505 66.2321 112.076 66.3394 111.684 66.5541C111.301 66.7594 110.993 67.0767 110.76 67.5061C110.527 67.9354 110.41 68.4581 110.41 69.0741C110.41 69.6994 110.522 70.2267 110.746 70.6561C110.979 71.0854 111.287 71.4074 111.67 71.6221C112.053 71.8274 112.473 71.9301 112.93 71.9301ZM128.277 63.1661V64.2021H125.617V72.9241H124.343V64.2021H121.669V63.1661H128.277ZM136.846 68.7941C136.846 69.0367 136.832 69.2934 136.804 69.5641H130.672C130.718 70.3201 130.975 70.9127 131.442 71.3421C131.918 71.7621 132.492 71.9721 133.164 71.9721C133.714 71.9721 134.172 71.8461 134.536 71.5941C134.909 71.3327 135.17 70.9874 135.32 70.5581H136.692C136.486 71.2954 136.076 71.8974 135.46 72.3641C134.844 72.8214 134.078 73.0501 133.164 73.0501C132.436 73.0501 131.782 72.8867 131.204 72.5601C130.634 72.2334 130.186 71.7714 129.86 71.1741C129.533 70.5674 129.37 69.8674 129.37 69.0741C129.37 68.2807 129.528 67.5854 129.846 66.9881C130.163 66.3907 130.606 65.9334 131.176 65.6161C131.754 65.2894 132.417 65.1261 133.164 65.1261C133.892 65.1261 134.536 65.2847 135.096 65.6021C135.656 65.9194 136.085 66.3581 136.384 66.9181C136.692 67.4687 136.846 68.0941 136.846 68.7941ZM135.53 68.5281C135.53 68.0427 135.422 67.6274 135.208 67.2821C134.993 66.9274 134.699 66.6614 134.326 66.4841C133.962 66.2974 133.556 66.2041 133.108 66.2041C132.464 66.2041 131.913 66.4094 131.456 66.8201C131.008 67.2307 130.751 67.8001 130.686 68.5281H135.53ZM141.243 73.0501C140.655 73.0501 140.128 72.9521 139.661 72.7561C139.195 72.5507 138.826 72.2707 138.555 71.9161C138.285 71.5521 138.135 71.1367 138.107 70.6701H139.423C139.461 71.0527 139.638 71.3654 139.955 71.6081C140.282 71.8507 140.707 71.9721 141.229 71.9721C141.715 71.9721 142.097 71.8647 142.377 71.6501C142.657 71.4354 142.797 71.1647 142.797 70.8381C142.797 70.5021 142.648 70.2547 142.349 70.0961C142.051 69.9281 141.589 69.7647 140.963 69.6061C140.394 69.4567 139.927 69.3074 139.563 69.1581C139.209 68.9994 138.901 68.7707 138.639 68.4721C138.387 68.1641 138.261 67.7627 138.261 67.2681C138.261 66.8761 138.378 66.5167 138.611 66.1901C138.845 65.8634 139.176 65.6067 139.605 65.4201C140.035 65.2241 140.525 65.1261 141.075 65.1261C141.925 65.1261 142.611 65.3407 143.133 65.7701C143.656 66.1994 143.936 66.7874 143.973 67.5341H142.699C142.671 67.1327 142.508 66.8107 142.209 66.5681C141.92 66.3254 141.528 66.2041 141.033 66.2041C140.576 66.2041 140.212 66.3021 139.941 66.4981C139.671 66.6941 139.535 66.9507 139.535 67.2681C139.535 67.5201 139.615 67.7301 139.773 67.8981C139.941 68.0567 140.147 68.1874 140.389 68.2901C140.641 68.3834 140.987 68.4907 141.425 68.6121C141.976 68.7614 142.424 68.9107 142.769 69.0601C143.115 69.2001 143.409 69.4147 143.651 69.7041C143.903 69.9934 144.034 70.3714 144.043 70.8381C144.043 71.2581 143.927 71.6361 143.693 71.9721C143.46 72.3081 143.129 72.5741 142.699 72.7701C142.279 72.9567 141.794 73.0501 141.243 73.0501ZM147.396 66.3021V70.8241C147.396 71.1974 147.475 71.4634 147.634 71.6221C147.792 71.7714 148.068 71.8461 148.46 71.8461H149.398V72.9241H148.25C147.54 72.9241 147.008 72.7607 146.654 72.4341C146.299 72.1074 146.122 71.5707 146.122 70.8241V66.3021H145.128V65.2521H146.122V63.3201H147.396V65.2521H149.398V66.3021H147.396ZM159.812 72.9241L157.488 68.9341H155.948V72.9241H154.674V63.1661H157.824C158.561 63.1661 159.182 63.2921 159.686 63.5441C160.199 63.7961 160.582 64.1367 160.834 64.5661C161.086 64.9954 161.212 65.4854 161.212 66.0361C161.212 66.7081 161.016 67.3007 160.624 67.8141C160.241 68.3274 159.662 68.6681 158.888 68.8361L161.338 72.9241H159.812ZM155.948 67.9121H157.824C158.514 67.9121 159.032 67.7441 159.378 67.4081C159.723 67.0627 159.896 66.6054 159.896 66.0361C159.896 65.4574 159.723 65.0094 159.378 64.6921C159.042 64.3747 158.524 64.2161 157.824 64.2161H155.948V67.9121ZM169.995 65.2521V72.9241H168.721V71.7901C168.479 72.1821 168.138 72.4901 167.699 72.7141C167.27 72.9287 166.794 73.0361 166.271 73.0361C165.674 73.0361 165.137 72.9147 164.661 72.6721C164.185 72.4201 163.807 72.0467 163.527 71.5521C163.257 71.0574 163.121 70.4554 163.121 69.7461V65.2521H164.381V69.5781C164.381 70.3341 164.573 70.9174 164.955 71.3281C165.338 71.7294 165.861 71.9301 166.523 71.9301C167.205 71.9301 167.741 71.7201 168.133 71.3001C168.525 70.8801 168.721 70.2687 168.721 69.4661V65.2521H169.995ZM175.884 65.1121C176.818 65.1121 177.574 65.3967 178.152 65.9661C178.731 66.5261 179.02 67.3381 179.02 68.4021V72.9241H177.76V68.5841C177.76 67.8187 177.569 67.2354 177.186 66.8341C176.804 66.4234 176.281 66.2181 175.618 66.2181C174.946 66.2181 174.41 66.4281 174.008 66.8481C173.616 67.2681 173.42 67.8794 173.42 68.6821V72.9241H172.146V65.2521H173.42V66.3441C173.672 65.9521 174.013 65.6487 174.442 65.4341C174.881 65.2194 175.362 65.1121 175.884 65.1121ZM183.817 73.0501C183.229 73.0501 182.702 72.9521 182.235 72.7561C181.769 72.5507 181.4 72.2707 181.129 71.9161C180.859 71.5521 180.709 71.1367 180.681 70.6701H181.997C182.035 71.0527 182.212 71.3654 182.529 71.6081C182.856 71.8507 183.281 71.9721 183.803 71.9721C184.289 71.9721 184.671 71.8647 184.951 71.6501C185.231 71.4354 185.371 71.1647 185.371 70.8381C185.371 70.5021 185.222 70.2547 184.923 70.0961C184.625 69.9281 184.163 69.7647 183.537 69.6061C182.968 69.4567 182.501 69.3074 182.137 69.1581C181.783 68.9994 181.475 68.7707 181.213 68.4721C180.961 68.1641 180.835 67.7627 180.835 67.2681C180.835 66.8761 180.952 66.5167 181.185 66.1901C181.419 65.8634 181.75 65.6067 182.179 65.4201C182.609 65.2241 183.099 65.1261 183.649 65.1261C184.499 65.1261 185.185 65.3407 185.707 65.7701C186.23 66.1994 186.51 66.7874 186.547 67.5341H185.273C185.245 67.1327 185.082 66.8107 184.783 66.5681C184.494 66.3254 184.102 66.2041 183.607 66.2041C183.15 66.2041 182.786 66.3021 182.515 66.4981C182.245 66.6941 182.109 66.9507 182.109 67.2681C182.109 67.5201 182.189 67.7301 182.347 67.8981C182.515 68.0567 182.721 68.1874 182.963 68.2901C183.215 68.3834 183.561 68.4907 183.999 68.6121C184.55 68.7614 184.998 68.9107 185.343 69.0601C185.689 69.2001 185.983 69.4147 186.225 69.7041C186.477 69.9934 186.608 70.3714 186.617 70.8381C186.617 71.2581 186.501 71.6361 186.267 71.9721C186.034 72.3081 185.703 72.5741 185.273 72.7701C184.853 72.9567 184.368 73.0501 183.817 73.0501ZM34.4852 91.9701C34.0092 91.9701 33.6032 91.8067 33.2672 91.4801C32.9406 91.1441 32.7772 90.7381 32.7772 90.2621C32.7772 89.7767 32.9406 89.3707 33.2672 89.0441C33.6032 88.7081 34.0092 88.5401 34.4852 88.5401C34.9706 88.5401 35.3812 88.7081 35.7172 89.0441C36.0532 89.3707 36.2212 89.7767 36.2212 90.2621C36.2212 90.7381 36.0532 91.1441 35.7172 91.4801C35.3812 91.8067 34.9706 91.9701 34.4852 91.9701ZM52.322 85.9081H47.408V89.1001C47.6227 88.8014 47.94 88.5587 48.36 88.3721C48.78 88.1761 49.2327 88.0781 49.718 88.0781C50.4927 88.0781 51.1227 88.2414 51.608 88.5681C52.0933 88.8854 52.4387 89.3007 52.644 89.8141C52.8587 90.3181 52.966 90.8547 52.966 91.4241C52.966 92.0961 52.84 92.6981 52.588 93.2301C52.336 93.7621 51.9487 94.1821 51.426 94.4901C50.9127 94.7981 50.2733 94.9521 49.508 94.9521C48.528 94.9521 47.7347 94.7001 47.128 94.1961C46.5213 93.6921 46.1527 93.0201 46.022 92.1801H47.268C47.3893 92.7121 47.646 93.1274 48.038 93.4261C48.43 93.7247 48.9247 93.8741 49.522 93.8741C50.2593 93.8741 50.8147 93.6547 51.188 93.2161C51.5613 92.7681 51.748 92.1801 51.748 91.4521C51.748 90.7241 51.5613 90.1641 51.188 89.7721C50.8147 89.3707 50.264 89.1701 49.536 89.1701C49.0413 89.1701 48.6073 89.2914 48.234 89.5341C47.87 89.7674 47.604 90.0894 47.436 90.5001H46.232V84.7881H52.322V85.9081ZM59.8474 85.1661V91.3401C59.8474 92.2081 60.0574 92.8521 60.4774 93.2721C60.9068 93.6921 61.4994 93.9021 62.2554 93.9021C63.0021 93.9021 63.5854 93.6921 64.0054 93.2721C64.4348 92.8521 64.6494 92.2081 64.6494 91.3401V85.1661H65.9234V91.3261C65.9234 92.1381 65.7601 92.8241 65.4334 93.3841C65.1068 93.9347 64.6634 94.3454 64.1034 94.6161C63.5528 94.8867 62.9321 95.0221 62.2414 95.0221C61.5508 95.0221 60.9254 94.8867 60.3654 94.6161C59.8148 94.3454 59.3761 93.9347 59.0494 93.3841C58.7321 92.8241 58.5734 92.1381 58.5734 91.3261V85.1661H59.8474ZM70.7647 95.0501C70.1767 95.0501 69.6494 94.9521 69.1827 94.7561C68.716 94.5507 68.3474 94.2707 68.0767 93.9161C67.806 93.5521 67.6567 93.1367 67.6287 92.6701H68.9447C68.982 93.0527 69.1594 93.3654 69.4767 93.6081C69.8034 93.8507 70.228 93.9721 70.7507 93.9721C71.236 93.9721 71.6187 93.8647 71.8987 93.6501C72.1787 93.4354 72.3187 93.1647 72.3187 92.8381C72.3187 92.5021 72.1694 92.2547 71.8707 92.0961C71.572 91.9281 71.11 91.7647 70.4847 91.6061C69.9154 91.4567 69.4487 91.3074 69.0847 91.1581C68.73 90.9994 68.422 90.7707 68.1607 90.4721C67.9087 90.1641 67.7827 89.7627 67.7827 89.2681C67.7827 88.8761 67.8994 88.5167 68.1327 88.1901C68.366 87.8634 68.6974 87.6067 69.1267 87.4201C69.556 87.2241 70.046 87.1261 70.5967 87.1261C71.446 87.1261 72.132 87.3407 72.6547 87.7701C73.1774 88.1994 73.4574 88.7874 73.4947 89.5341H72.2207C72.1927 89.1327 72.0294 88.8107 71.7307 88.5681C71.4414 88.3254 71.0494 88.2041 70.5547 88.2041C70.0974 88.2041 69.7334 88.3021 69.4627 88.4981C69.192 88.6941 69.0567 88.9507 69.0567 89.2681C69.0567 89.5201 69.136 89.7301 69.2947 89.8981C69.4627 90.0567 69.668 90.1874 69.9107 90.2901C70.1627 90.3834 70.508 90.4907 70.9467 90.6121C71.4974 90.7614 71.9454 90.9107 72.2907 91.0601C72.636 91.2001 72.93 91.4147 73.1727 91.7041C73.4247 91.9934 73.5554 92.3714 73.5647 92.8381C73.5647 93.2581 73.448 93.6361 73.2147 93.9721C72.9814 94.3081 72.65 94.5741 72.2207 94.7701C71.8007 94.9567 71.3154 95.0501 70.7647 95.0501ZM82.3632 90.7941C82.3632 91.0367 82.3492 91.2934 82.3212 91.5641H76.1892C76.2358 92.3201 76.4925 92.9127 76.9592 93.3421C77.4352 93.7621 78.0092 93.9721 78.6812 93.9721C79.2318 93.9721 79.6892 93.8461 80.0532 93.5941C80.4265 93.3327 80.6878 92.9874 80.8372 92.5581H82.2092C82.0038 93.2954 81.5932 93.8974 80.9772 94.3641C80.3612 94.8214 79.5958 95.0501 78.6812 95.0501C77.9532 95.0501 77.2998 94.8867 76.7212 94.5601C76.1518 94.2334 75.7038 93.7714 75.3772 93.1741C75.0505 92.5674 74.8872 91.8674 74.8872 91.0741C74.8872 90.2807 75.0458 89.5854 75.3632 88.9881C75.6805 88.3907 76.1238 87.9334 76.6932 87.6161C77.2718 87.2894 77.9345 87.1261 78.6812 87.1261C79.4092 87.1261 80.0532 87.2847 80.6132 87.6021C81.1732 87.9194 81.6025 88.3581 81.9012 88.9181C82.2092 89.4687 82.3632 90.0941 82.3632 90.7941ZM81.0472 90.5281C81.0472 90.0427 80.9398 89.6274 80.7252 89.2821C80.5105 88.9274 80.2165 88.6614 79.8432 88.4841C79.4792 88.2974 79.0732 88.2041 78.6252 88.2041C77.9812 88.2041 77.4305 88.4094 76.9732 88.8201C76.5252 89.2307 76.2685 89.8001 76.2032 90.5281H81.0472ZM85.3188 88.4981C85.5428 88.0594 85.8601 87.7187 86.2708 87.4761C86.6908 87.2334 87.1995 87.1121 87.7968 87.1121V88.4281H87.4608C86.0328 88.4281 85.3188 89.2027 85.3188 90.7521V94.9241H84.0448V87.2521H85.3188V88.4981ZM91.9835 95.0501C91.3955 95.0501 90.8681 94.9521 90.4015 94.7561C89.9348 94.5507 89.5661 94.2707 89.2955 93.9161C89.0248 93.5521 88.8755 93.1367 88.8475 92.6701H90.1635C90.2008 93.0527 90.3781 93.3654 90.6955 93.6081C91.0221 93.8507 91.4468 93.9721 91.9695 93.9721C92.4548 93.9721 92.8375 93.8647 93.1175 93.6501C93.3975 93.4354 93.5375 93.1647 93.5375 92.8381C93.5375 92.5021 93.3881 92.2547 93.0895 92.0961C92.7908 91.9281 92.3288 91.7647 91.7035 91.6061C91.1341 91.4567 90.6675 91.3074 90.3035 91.1581C89.9488 90.9994 89.6408 90.7707 89.3795 90.4721C89.1275 90.1641 89.0015 89.7627 89.0015 89.2681C89.0015 88.8761 89.1181 88.5167 89.3515 88.1901C89.5848 87.8634 89.9161 87.6067 90.3455 87.4201C90.7748 87.2241 91.2648 87.1261 91.8155 87.1261C92.6648 87.1261 93.3508 87.3407 93.8735 87.7701C94.3961 88.1994 94.6761 88.7874 94.7135 89.5341H93.4395C93.4115 89.1327 93.2481 88.8107 92.9495 88.5681C92.6601 88.3254 92.2681 88.2041 91.7735 88.2041C91.3161 88.2041 90.9521 88.3021 90.6815 88.4981C90.4108 88.6941 90.2755 88.9507 90.2755 89.2681C90.2755 89.5201 90.3548 89.7301 90.5135 89.8981C90.6815 90.0567 90.8868 90.1874 91.1295 90.2901C91.3815 90.3834 91.7268 90.4907 92.1655 90.6121C92.7161 90.7614 93.1641 90.9107 93.5095 91.0601C93.8548 91.2001 94.1488 91.4147 94.3915 91.7041C94.6435 91.9934 94.7741 92.3714 94.7835 92.8381C94.7835 93.2581 94.6668 93.6361 94.4335 93.9721C94.2001 94.3081 93.8688 94.5741 93.4395 94.7701C93.0195 94.9567 92.5341 95.0501 91.9835 95.0501ZM34.4852 113.97C34.0092 113.97 33.6032 113.807 33.2672 113.48C32.9406 113.144 32.7772 112.738 32.7772 112.262C32.7772 111.777 32.9406 111.371 33.2672 111.044C33.6032 110.708 34.0092 110.54 34.4852 110.54C34.9706 110.54 35.3812 110.708 35.7172 111.044C36.0532 111.371 36.2212 111.777 36.2212 112.262C36.2212 112.738 36.0532 113.144 35.7172 113.48C35.3812 113.807 34.9706 113.97 34.4852 113.97ZM47.324 107.166V113.34C47.324 114.208 47.534 114.852 47.954 115.272C48.3833 115.692 48.976 115.902 49.732 115.902C50.4787 115.902 51.062 115.692 51.482 115.272C51.9113 114.852 52.126 114.208 52.126 113.34V107.166H53.4V113.326C53.4 114.138 53.2367 114.824 52.91 115.384C52.5833 115.935 52.14 116.345 51.58 116.616C51.0293 116.887 50.4087 117.022 49.718 117.022C49.0273 117.022 48.402 116.887 47.842 116.616C47.2913 116.345 46.8527 115.935 46.526 115.384C46.2087 114.824 46.05 114.138 46.05 113.326V107.166H47.324ZM59.2633 109.112C60.1966 109.112 60.9526 109.397 61.5313 109.966C62.1099 110.526 62.3993 111.338 62.3993 112.402V116.924H61.1393V112.584C61.1393 111.819 60.9479 111.235 60.5653 110.834C60.1826 110.423 59.6599 110.218 58.9973 110.218C58.3253 110.218 57.7886 110.428 57.3873 110.848C56.9953 111.268 56.7993 111.879 56.7993 112.682V116.924H55.5253V109.252H56.7993V110.344C57.0513 109.952 57.3919 109.649 57.8213 109.434C58.2599 109.219 58.7406 109.112 59.2633 109.112ZM65.7543 106.564V116.924H64.4803V106.564H65.7543ZM68.5837 108.006C68.341 108.006 68.1357 107.922 67.9677 107.754C67.7997 107.586 67.7157 107.381 67.7157 107.138C67.7157 106.895 67.7997 106.69 67.9677 106.522C68.1357 106.354 68.341 106.27 68.5837 106.27C68.817 106.27 69.013 106.354 69.1717 106.522C69.3397 106.69 69.4237 106.895 69.4237 107.138C69.4237 107.381 69.3397 107.586 69.1717 107.754C69.013 107.922 68.817 108.006 68.5837 108.006ZM69.1997 109.252V116.924H67.9257V109.252H69.1997ZM80.597 109.112C81.1943 109.112 81.7263 109.238 82.193 109.49C82.6596 109.733 83.0283 110.101 83.299 110.596C83.5696 111.091 83.705 111.693 83.705 112.402V116.924H82.445V112.584C82.445 111.819 82.2536 111.235 81.871 110.834C81.4976 110.423 80.989 110.218 80.345 110.218C79.6823 110.218 79.155 110.433 78.763 110.862C78.371 111.282 78.175 111.893 78.175 112.696V116.924H76.915V112.584C76.915 111.819 76.7236 111.235 76.341 110.834C75.9676 110.423 75.459 110.218 74.815 110.218C74.1523 110.218 73.625 110.433 73.233 110.862C72.841 111.282 72.645 111.893 72.645 112.696V116.924H71.371V109.252H72.645V110.358C72.897 109.957 73.233 109.649 73.653 109.434C74.0823 109.219 74.5536 109.112 75.067 109.112C75.711 109.112 76.2803 109.257 76.775 109.546C77.2696 109.835 77.6383 110.26 77.881 110.82C78.0956 110.279 78.4503 109.859 78.945 109.56C79.4396 109.261 79.9903 109.112 80.597 109.112ZM86.4528 108.006C86.2101 108.006 86.0048 107.922 85.8368 107.754C85.6688 107.586 85.5848 107.381 85.5848 107.138C85.5848 106.895 85.6688 106.69 85.8368 106.522C86.0048 106.354 86.2101 106.27 86.4528 106.27C86.6861 106.27 86.8821 106.354 87.0408 106.522C87.2088 106.69 87.2928 106.895 87.2928 107.138C87.2928 107.381 87.2088 107.586 87.0408 107.754C86.8821 107.922 86.6861 108.006 86.4528 108.006ZM87.0688 109.252V116.924H85.7948V109.252H87.0688ZM90.7941 110.302V114.824C90.7941 115.197 90.8734 115.463 91.0321 115.622C91.1908 115.771 91.4661 115.846 91.8581 115.846H92.7961V116.924H91.6481C90.9388 116.924 90.4068 116.761 90.0521 116.434C89.6974 116.107 89.5201 115.571 89.5201 114.824V110.302H88.5261V109.252H89.5201V107.32H90.7941V109.252H92.7961V110.302H90.7941ZM101.34 112.794C101.34 113.037 101.326 113.293 101.298 113.564H95.1657C95.2124 114.32 95.4691 114.913 95.9357 115.342C96.4117 115.762 96.9857 115.972 97.6577 115.972C98.2084 115.972 98.6657 115.846 99.0297 115.594C99.4031 115.333 99.6644 114.987 99.8137 114.558H101.186C100.98 115.295 100.57 115.897 99.9537 116.364C99.3377 116.821 98.5724 117.05 97.6577 117.05C96.9297 117.05 96.2764 116.887 95.6977 116.56C95.1284 116.233 94.6804 115.771 94.3537 115.174C94.0271 114.567 93.8637 113.867 93.8637 113.074C93.8637 112.281 94.0224 111.585 94.3397 110.988C94.6571 110.391 95.1004 109.933 95.6697 109.616C96.2484 109.289 96.9111 109.126 97.6577 109.126C98.3857 109.126 99.0297 109.285 99.5897 109.602C100.15 109.919 100.579 110.358 100.878 110.918C101.186 111.469 101.34 112.094 101.34 112.794ZM100.024 112.528C100.024 112.043 99.9164 111.627 99.7017 111.282C99.4871 110.927 99.1931 110.661 98.8197 110.484C98.4557 110.297 98.0497 110.204 97.6017 110.204C96.9577 110.204 96.4071 110.409 95.9497 110.82C95.5017 111.231 95.2451 111.8 95.1797 112.528H100.024ZM102.545 113.06C102.545 112.276 102.704 111.59 103.021 111.002C103.339 110.405 103.773 109.943 104.323 109.616C104.883 109.289 105.509 109.126 106.199 109.126C106.797 109.126 107.352 109.266 107.865 109.546C108.379 109.817 108.771 110.176 109.041 110.624V106.564H110.329V116.924H109.041V115.482C108.789 115.939 108.416 116.317 107.921 116.616C107.427 116.905 106.848 117.05 106.185 117.05C105.504 117.05 104.883 116.882 104.323 116.546C103.773 116.21 103.339 115.739 103.021 115.132C102.704 114.525 102.545 113.835 102.545 113.06ZM109.041 113.074C109.041 112.495 108.925 111.991 108.691 111.562C108.458 111.133 108.141 110.806 107.739 110.582C107.347 110.349 106.913 110.232 106.437 110.232C105.961 110.232 105.527 110.344 105.135 110.568C104.743 110.792 104.431 111.119 104.197 111.548C103.964 111.977 103.847 112.481 103.847 113.06C103.847 113.648 103.964 114.161 104.197 114.6C104.431 115.029 104.743 115.361 105.135 115.594C105.527 115.818 105.961 115.93 106.437 115.93C106.913 115.93 107.347 115.818 107.739 115.594C108.141 115.361 108.458 115.029 108.691 114.6C108.925 114.161 109.041 113.653 109.041 113.074ZM122.221 107.166V108.202H119.561V116.924H118.287V108.202H115.613V107.166H122.221ZM130.789 112.794C130.789 113.037 130.775 113.293 130.747 113.564H124.615C124.662 114.32 124.918 114.913 125.385 115.342C125.861 115.762 126.435 115.972 127.107 115.972C127.658 115.972 128.115 115.846 128.479 115.594C128.852 115.333 129.114 114.987 129.263 114.558H130.635C130.43 115.295 130.019 115.897 129.403 116.364C128.787 116.821 128.022 117.05 127.107 117.05C126.379 117.05 125.726 116.887 125.147 116.56C124.578 116.233 124.13 115.771 123.803 115.174C123.476 114.567 123.313 113.867 123.313 113.074C123.313 112.281 123.472 111.585 123.789 110.988C124.106 110.391 124.55 109.933 125.119 109.616C125.698 109.289 126.36 109.126 127.107 109.126C127.835 109.126 128.479 109.285 129.039 109.602C129.599 109.919 130.028 110.358 130.327 110.918C130.635 111.469 130.789 112.094 130.789 112.794ZM129.473 112.528C129.473 112.043 129.366 111.627 129.151 111.282C128.936 110.927 128.642 110.661 128.269 110.484C127.905 110.297 127.499 110.204 127.051 110.204C126.407 110.204 125.856 110.409 125.399 110.82C124.951 111.231 124.694 111.8 124.629 112.528H129.473ZM135.187 117.05C134.599 117.05 134.071 116.952 133.605 116.756C133.138 116.551 132.769 116.271 132.499 115.916C132.228 115.552 132.079 115.137 132.051 114.67H133.367C133.404 115.053 133.581 115.365 133.899 115.608C134.225 115.851 134.65 115.972 135.173 115.972C135.658 115.972 136.041 115.865 136.321 115.65C136.601 115.435 136.741 115.165 136.741 114.838C136.741 114.502 136.591 114.255 136.293 114.096C135.994 113.928 135.532 113.765 134.907 113.606C134.337 113.457 133.871 113.307 133.507 113.158C133.152 112.999 132.844 112.771 132.583 112.472C132.331 112.164 132.205 111.763 132.205 111.268C132.205 110.876 132.321 110.517 132.555 110.19C132.788 109.863 133.119 109.607 133.549 109.42C133.978 109.224 134.468 109.126 135.019 109.126C135.868 109.126 136.554 109.341 137.077 109.77C137.599 110.199 137.879 110.787 137.917 111.534H136.643C136.615 111.133 136.451 110.811 136.153 110.568C135.863 110.325 135.471 110.204 134.977 110.204C134.519 110.204 134.155 110.302 133.885 110.498C133.614 110.694 133.479 110.951 133.479 111.268C133.479 111.52 133.558 111.73 133.717 111.898C133.885 112.057 134.09 112.187 134.333 112.29C134.585 112.383 134.93 112.491 135.369 112.612C135.919 112.761 136.367 112.911 136.713 113.06C137.058 113.2 137.352 113.415 137.595 113.704C137.847 113.993 137.977 114.371 137.987 114.838C137.987 115.258 137.87 115.636 137.637 115.972C137.403 116.308 137.072 116.574 136.643 116.77C136.223 116.957 135.737 117.05 135.187 117.05ZM141.339 110.302V114.824C141.339 115.197 141.418 115.463 141.577 115.622C141.736 115.771 142.011 115.846 142.403 115.846H143.341V116.924H142.193C141.484 116.924 140.952 116.761 140.597 116.434C140.242 116.107 140.065 115.571 140.065 114.824V110.302H139.071V109.252H140.065V107.32H141.339V109.252H143.341V110.302H141.339ZM147.601 117.05C147.013 117.05 146.485 116.952 146.019 116.756C145.552 116.551 145.183 116.271 144.913 115.916C144.642 115.552 144.493 115.137 144.465 114.67H145.781C145.818 115.053 145.995 115.365 146.313 115.608C146.639 115.851 147.064 115.972 147.587 115.972C148.072 115.972 148.455 115.865 148.735 115.65C149.015 115.435 149.155 115.165 149.155 114.838C149.155 114.502 149.005 114.255 148.707 114.096C148.408 113.928 147.946 113.765 147.321 113.606C146.751 113.457 146.285 113.307 145.921 113.158C145.566 112.999 145.258 112.771 144.997 112.472C144.745 112.164 144.619 111.763 144.619 111.268C144.619 110.876 144.735 110.517 144.969 110.19C145.202 109.863 145.533 109.607 145.963 109.42C146.392 109.224 146.882 109.126 147.433 109.126C148.282 109.126 148.968 109.341 149.491 109.77C150.013 110.199 150.293 110.787 150.331 111.534H149.057C149.029 111.133 148.865 110.811 148.567 110.568C148.277 110.325 147.885 110.204 147.391 110.204C146.933 110.204 146.569 110.302 146.299 110.498C146.028 110.694 145.893 110.951 145.893 111.268C145.893 111.52 145.972 111.73 146.131 111.898C146.299 112.057 146.504 112.187 146.747 112.29C146.999 112.383 147.344 112.491 147.783 112.612C148.333 112.761 148.781 112.911 149.127 113.06C149.472 113.2 149.766 113.415 150.009 113.704C150.261 113.993 150.391 114.371 150.401 114.838C150.401 115.258 150.284 115.636 150.051 115.972C149.817 116.308 149.486 116.574 149.057 116.77C148.637 116.957 148.151 117.05 147.601 117.05Z" fill="#212427"/>
<g clip-path="url(#clip0_1101_12205)">
<rect x="24" y="145.924" width="275" height="8" rx="4" fill="black" fill-opacity="0.06"/>
<rect x="24" y="145.924" width="27.5" height="8" rx="4" fill="#388AEB"/>
</g>
<path d="M307.956 145.964V144.802H310.588V154.924H309.3V145.964H307.956ZM312.776 149.758C312.776 148.153 313.038 146.902 313.56 146.006C314.083 145.101 314.998 144.648 316.304 144.648C317.602 144.648 318.512 145.101 319.034 146.006C319.557 146.902 319.818 148.153 319.818 149.758C319.818 151.391 319.557 152.661 319.034 153.566C318.512 154.471 317.602 154.924 316.304 154.924C314.998 154.924 314.083 154.471 313.56 153.566C313.038 152.661 312.776 151.391 312.776 149.758ZM318.558 149.758C318.558 148.946 318.502 148.26 318.39 147.7C318.288 147.131 318.068 146.673 317.732 146.328C317.406 145.983 316.93 145.81 316.304 145.81C315.67 145.81 315.184 145.983 314.848 146.328C314.522 146.673 314.302 147.131 314.19 147.7C314.088 148.26 314.036 148.946 314.036 149.758C314.036 150.598 314.088 151.303 314.19 151.872C314.302 152.441 314.522 152.899 314.848 153.244C315.184 153.589 315.67 153.762 316.304 153.762C316.93 153.762 317.406 153.589 317.732 153.244C318.068 152.899 318.288 152.441 318.39 151.872C318.502 151.303 318.558 150.598 318.558 149.758ZM321.567 149.758C321.567 148.153 321.829 146.902 322.351 146.006C322.874 145.101 323.789 144.648 325.095 144.648C326.393 144.648 327.303 145.101 327.825 146.006C328.348 146.902 328.609 148.153 328.609 149.758C328.609 151.391 328.348 152.661 327.825 153.566C327.303 154.471 326.393 154.924 325.095 154.924C323.789 154.924 322.874 154.471 322.351 153.566C321.829 152.661 321.567 151.391 321.567 149.758ZM327.349 149.758C327.349 148.946 327.293 148.26 327.181 147.7C327.079 147.131 326.859 146.673 326.523 146.328C326.197 145.983 325.721 145.81 325.095 145.81C324.461 145.81 323.975 145.983 323.639 146.328C323.313 146.673 323.093 147.131 322.981 147.7C322.879 148.26 322.827 148.946 322.827 149.758C322.827 150.598 322.879 151.303 322.981 151.872C323.093 152.441 323.313 152.899 323.639 153.244C323.975 153.589 324.461 153.762 325.095 153.762C325.721 153.762 326.197 153.589 326.523 153.244C326.859 152.899 327.079 152.441 327.181 151.872C327.293 151.303 327.349 150.598 327.349 149.758ZM337.647 155.05C336.928 155.05 336.275 154.887 335.687 154.56C335.108 154.233 334.651 153.771 334.315 153.174C333.988 152.567 333.825 151.867 333.825 151.074C333.825 150.29 333.993 149.599 334.329 149.002C334.674 148.395 335.141 147.933 335.729 147.616C336.317 147.289 336.975 147.126 337.703 147.126C338.431 147.126 339.089 147.289 339.677 147.616C340.265 147.933 340.727 148.391 341.063 148.988C341.408 149.585 341.581 150.281 341.581 151.074C341.581 151.867 341.403 152.567 341.049 153.174C340.703 153.771 340.232 154.233 339.635 154.56C339.037 154.887 338.375 155.05 337.647 155.05ZM337.647 153.93C338.104 153.93 338.533 153.823 338.935 153.608C339.336 153.393 339.658 153.071 339.901 152.642C340.153 152.213 340.279 151.69 340.279 151.074C340.279 150.458 340.157 149.935 339.915 149.506C339.672 149.077 339.355 148.759 338.963 148.554C338.571 148.339 338.146 148.232 337.689 148.232C337.222 148.232 336.793 148.339 336.401 148.554C336.018 148.759 335.71 149.077 335.477 149.506C335.243 149.935 335.127 150.458 335.127 151.074C335.127 151.699 335.239 152.227 335.463 152.656C335.696 153.085 336.004 153.407 336.387 153.622C336.769 153.827 337.189 153.93 337.647 153.93ZM346.378 148.302H344.768V154.924H343.494V148.302H342.5V147.252H343.494V146.706C343.494 145.847 343.713 145.222 344.152 144.83C344.6 144.429 345.314 144.228 346.294 144.228V145.292C345.734 145.292 345.337 145.404 345.104 145.628C344.88 145.843 344.768 146.202 344.768 146.706V147.252H346.378V148.302ZM351.05 145.964V144.802H353.682V154.924H352.394V145.964H351.05ZM357.396 153.16L355.828 156.926H354.974L355.996 153.16H357.396ZM358.645 149.758C358.645 148.153 358.907 146.902 359.429 146.006C359.952 145.101 360.867 144.648 362.173 144.648C363.471 144.648 364.381 145.101 364.903 146.006C365.426 146.902 365.687 148.153 365.687 149.758C365.687 151.391 365.426 152.661 364.903 153.566C364.381 154.471 363.471 154.924 362.173 154.924C360.867 154.924 359.952 154.471 359.429 153.566C358.907 152.661 358.645 151.391 358.645 149.758ZM364.427 149.758C364.427 148.946 364.371 148.26 364.259 147.7C364.157 147.131 363.937 146.673 363.601 146.328C363.275 145.983 362.799 145.81 362.173 145.81C361.539 145.81 361.053 145.983 360.717 146.328C360.391 146.673 360.171 147.131 360.059 147.7C359.957 148.26 359.905 148.946 359.905 149.758C359.905 150.598 359.957 151.303 360.059 151.872C360.171 152.441 360.391 152.899 360.717 153.244C361.053 153.589 361.539 153.762 362.173 153.762C362.799 153.762 363.275 153.589 363.601 153.244C363.937 152.899 364.157 152.441 364.259 151.872C364.371 151.303 364.427 150.598 364.427 149.758ZM367.436 149.758C367.436 148.153 367.698 146.902 368.22 146.006C368.743 145.101 369.658 144.648 370.964 144.648C372.262 144.648 373.172 145.101 373.694 146.006C374.217 146.902 374.478 148.153 374.478 149.758C374.478 151.391 374.217 152.661 373.694 153.566C373.172 154.471 372.262 154.924 370.964 154.924C369.658 154.924 368.743 154.471 368.22 153.566C367.698 152.661 367.436 151.391 367.436 149.758ZM373.218 149.758C373.218 148.946 373.162 148.26 373.05 147.7C372.948 147.131 372.728 146.673 372.392 146.328C372.066 145.983 371.59 145.81 370.964 145.81C370.33 145.81 369.844 145.983 369.508 146.328C369.182 146.673 368.962 147.131 368.85 147.7C368.748 148.26 368.696 148.946 368.696 149.758C368.696 150.598 368.748 151.303 368.85 151.872C368.962 152.441 369.182 152.899 369.508 153.244C369.844 153.589 370.33 153.762 370.964 153.762C371.59 153.762 372.066 153.589 372.392 153.244C372.728 152.899 372.948 152.441 373.05 151.872C373.162 151.303 373.218 150.598 373.218 149.758ZM376.227 149.758C376.227 148.153 376.489 146.902 377.011 146.006C377.534 145.101 378.449 144.648 379.755 144.648C381.053 144.648 381.963 145.101 382.485 146.006C383.008 146.902 383.269 148.153 383.269 149.758C383.269 151.391 383.008 152.661 382.485 153.566C381.963 154.471 381.053 154.924 379.755 154.924C378.449 154.924 377.534 154.471 377.011 153.566C376.489 152.661 376.227 151.391 376.227 149.758ZM382.009 149.758C382.009 148.946 381.953 148.26 381.841 147.7C381.739 147.131 381.519 146.673 381.183 146.328C380.857 145.983 380.381 145.81 379.755 145.81C379.121 145.81 378.635 145.983 378.299 146.328C377.973 146.673 377.753 147.131 377.641 147.7C377.539 148.26 377.487 148.946 377.487 149.758C377.487 150.598 377.539 151.303 377.641 151.872C377.753 152.441 377.973 152.899 378.299 153.244C378.635 153.589 379.121 153.762 379.755 153.762C380.381 153.762 380.857 153.589 381.183 153.244C381.519 152.899 381.739 152.441 381.841 151.872C381.953 151.303 382.009 150.598 382.009 149.758ZM390.235 146.202V149.464H393.791V150.514H390.235V153.874H394.211V154.924H388.961V145.152H394.211V146.202H390.235ZM398.995 153.748L401.375 147.252H402.733L399.723 154.924H398.239L395.229 147.252H396.601L398.995 153.748ZM403.51 151.06C403.51 150.276 403.669 149.59 403.986 149.002C404.304 148.405 404.738 147.943 405.288 147.616C405.848 147.289 406.469 147.126 407.15 147.126C407.822 147.126 408.406 147.271 408.9 147.56C409.395 147.849 409.764 148.213 410.006 148.652V147.252H411.294V154.924H410.006V153.496C409.754 153.944 409.376 154.317 408.872 154.616C408.378 154.905 407.799 155.05 407.136 155.05C406.455 155.05 405.839 154.882 405.288 154.546C404.738 154.21 404.304 153.739 403.986 153.132C403.669 152.525 403.51 151.835 403.51 151.06ZM410.006 151.074C410.006 150.495 409.89 149.991 409.656 149.562C409.423 149.133 409.106 148.806 408.704 148.582C408.312 148.349 407.878 148.232 407.402 148.232C406.926 148.232 406.492 148.344 406.1 148.568C405.708 148.792 405.396 149.119 405.162 149.548C404.929 149.977 404.812 150.481 404.812 151.06C404.812 151.648 404.929 152.161 405.162 152.6C405.396 153.029 405.708 153.361 406.1 153.594C406.492 153.818 406.926 153.93 407.402 153.93C407.878 153.93 408.312 153.818 408.704 153.594C409.106 153.361 409.423 153.029 409.656 152.6C409.89 152.161 410.006 151.653 410.006 151.074ZM414.721 144.564V154.924H413.447V144.564H414.721ZM423.696 147.252V154.924H422.422V153.79C422.18 154.182 421.839 154.49 421.4 154.714C420.971 154.929 420.495 155.036 419.972 155.036C419.375 155.036 418.838 154.915 418.362 154.672C417.886 154.42 417.508 154.047 417.228 153.552C416.958 153.057 416.822 152.455 416.822 151.746V147.252H418.082V151.578C418.082 152.334 418.274 152.917 418.656 153.328C419.039 153.729 419.562 153.93 420.224 153.93C420.906 153.93 421.442 153.72 421.834 153.3C422.226 152.88 422.422 152.269 422.422 151.466V147.252H423.696ZM425.372 151.06C425.372 150.276 425.53 149.59 425.848 149.002C426.165 148.405 426.599 147.943 427.15 147.616C427.71 147.289 428.33 147.126 429.012 147.126C429.684 147.126 430.267 147.271 430.762 147.56C431.256 147.849 431.625 148.213 431.868 148.652V147.252H433.156V154.924H431.868V153.496C431.616 153.944 431.238 154.317 430.734 154.616C430.239 154.905 429.66 155.05 428.998 155.05C428.316 155.05 427.7 154.882 427.15 154.546C426.599 154.21 426.165 153.739 425.848 153.132C425.53 152.525 425.372 151.835 425.372 151.06ZM431.868 151.074C431.868 150.495 431.751 149.991 431.518 149.562C431.284 149.133 430.967 148.806 430.566 148.582C430.174 148.349 429.74 148.232 429.264 148.232C428.788 148.232 428.354 148.344 427.962 148.568C427.57 148.792 427.257 149.119 427.024 149.548C426.79 149.977 426.674 150.481 426.674 151.06C426.674 151.648 426.79 152.161 427.024 152.6C427.257 153.029 427.57 153.361 427.962 153.594C428.354 153.818 428.788 153.93 429.264 153.93C429.74 153.93 430.174 153.818 430.566 153.594C430.967 153.361 431.284 153.029 431.518 152.6C431.751 152.161 431.868 151.653 431.868 151.074ZM436.862 148.302V152.824C436.862 153.197 436.942 153.463 437.1 153.622C437.259 153.771 437.534 153.846 437.926 153.846H438.864V154.924H437.716C437.007 154.924 436.475 154.761 436.12 154.434C435.766 154.107 435.588 153.571 435.588 152.824V148.302H434.594V147.252H435.588V145.32H436.862V147.252H438.864V148.302H436.862ZM441.066 146.006C440.823 146.006 440.618 145.922 440.45 145.754C440.282 145.586 440.198 145.381 440.198 145.138C440.198 144.895 440.282 144.69 440.45 144.522C440.618 144.354 440.823 144.27 441.066 144.27C441.299 144.27 441.495 144.354 441.654 144.522C441.822 144.69 441.906 144.895 441.906 145.138C441.906 145.381 441.822 145.586 441.654 145.754C441.495 145.922 441.299 146.006 441.066 146.006ZM441.682 147.252V154.924H440.408V147.252H441.682ZM447.199 155.05C446.481 155.05 445.827 154.887 445.239 154.56C444.661 154.233 444.203 153.771 443.867 153.174C443.541 152.567 443.377 151.867 443.377 151.074C443.377 150.29 443.545 149.599 443.881 149.002C444.227 148.395 444.693 147.933 445.281 147.616C445.869 147.289 446.527 147.126 447.255 147.126C447.983 147.126 448.641 147.289 449.229 147.616C449.817 147.933 450.279 148.391 450.615 148.988C450.961 149.585 451.133 150.281 451.133 151.074C451.133 151.867 450.956 152.567 450.601 153.174C450.256 153.771 449.785 154.233 449.187 154.56C448.59 154.887 447.927 155.05 447.199 155.05ZM447.199 153.93C447.657 153.93 448.086 153.823 448.487 153.608C448.889 153.393 449.211 153.071 449.453 152.642C449.705 152.213 449.831 151.69 449.831 151.074C449.831 150.458 449.71 149.935 449.467 149.506C449.225 149.077 448.907 148.759 448.515 148.554C448.123 148.339 447.699 148.232 447.241 148.232C446.775 148.232 446.345 148.339 445.953 148.554C445.571 148.759 445.263 149.077 445.029 149.506C444.796 149.935 444.679 150.458 444.679 151.074C444.679 151.699 444.791 152.227 445.015 152.656C445.249 153.085 445.557 153.407 445.939 153.622C446.322 153.827 446.742 153.93 447.199 153.93ZM456.546 147.112C457.48 147.112 458.236 147.397 458.814 147.966C459.393 148.526 459.682 149.338 459.682 150.402V154.924H458.422V150.584C458.422 149.819 458.231 149.235 457.848 148.834C457.466 148.423 456.943 148.218 456.28 148.218C455.608 148.218 455.072 148.428 454.67 148.848C454.278 149.268 454.082 149.879 454.082 150.682V154.924H452.808V147.252H454.082V148.344C454.334 147.952 454.675 147.649 455.104 147.434C455.543 147.219 456.024 147.112 456.546 147.112ZM464.48 155.05C463.892 155.05 463.364 154.952 462.898 154.756C462.431 154.551 462.062 154.271 461.792 153.916C461.521 153.552 461.372 153.137 461.344 152.67H462.66C462.697 153.053 462.874 153.365 463.192 153.608C463.518 153.851 463.943 153.972 464.466 153.972C464.951 153.972 465.334 153.865 465.614 153.65C465.894 153.435 466.034 153.165 466.034 152.838C466.034 152.502 465.884 152.255 465.586 152.096C465.287 151.928 464.825 151.765 464.2 151.606C463.63 151.457 463.164 151.307 462.8 151.158C462.445 150.999 462.137 150.771 461.876 150.472C461.624 150.164 461.498 149.763 461.498 149.268C461.498 148.876 461.614 148.517 461.848 148.19C462.081 147.863 462.412 147.607 462.842 147.42C463.271 147.224 463.761 147.126 464.312 147.126C465.161 147.126 465.847 147.341 466.37 147.77C466.892 148.199 467.172 148.787 467.21 149.534H465.936C465.908 149.133 465.744 148.811 465.446 148.568C465.156 148.325 464.764 148.204 464.27 148.204C463.812 148.204 463.448 148.302 463.178 148.498C462.907 148.694 462.772 148.951 462.772 149.268C462.772 149.52 462.851 149.73 463.01 149.898C463.178 150.057 463.383 150.187 463.626 150.29C463.878 150.383 464.223 150.491 464.662 150.612C465.212 150.761 465.66 150.911 466.006 151.06C466.351 151.2 466.645 151.415 466.888 151.704C467.14 151.993 467.27 152.371 467.28 152.838C467.28 153.258 467.163 153.636 466.93 153.972C466.696 154.308 466.365 154.574 465.936 154.77C465.516 154.957 465.03 155.05 464.48 155.05Z" fill="#212427"/>
<mask id="path-11-inside-1_1101_12205" fill="white">
<path d="M24 176.924H468V240.924H24V176.924Z"/>
</mask>
<path d="M24 177.924H468V175.924H24V177.924Z" fill="black" fill-opacity="0.06" mask="url(#path-11-inside-1_1101_12205)"/>
<g filter="url(#filter0_d_1101_12205)">
<rect x="131.5" y="193.424" width="171" height="31" rx="5.5" stroke="#E1654A" shape-rendering="crispEdges"/>
<path d="M147.602 209.038C147.602 208.086 147.817 207.232 148.246 206.476C148.675 205.711 149.259 205.113 149.996 204.684C150.743 204.255 151.569 204.04 152.474 204.04C153.538 204.04 154.467 204.297 155.26 204.81C156.053 205.323 156.632 206.051 156.996 206.994H155.47C155.199 206.406 154.807 205.953 154.294 205.636C153.79 205.319 153.183 205.16 152.474 205.16C151.793 205.16 151.181 205.319 150.64 205.636C150.099 205.953 149.674 206.406 149.366 206.994C149.058 207.573 148.904 208.254 148.904 209.038C148.904 209.813 149.058 210.494 149.366 211.082C149.674 211.661 150.099 212.109 150.64 212.426C151.181 212.743 151.793 212.902 152.474 212.902C153.183 212.902 153.79 212.748 154.294 212.44C154.807 212.123 155.199 211.67 155.47 211.082H156.996C156.632 212.015 156.053 212.739 155.26 213.252C154.467 213.756 153.538 214.008 152.474 214.008C151.569 214.008 150.743 213.798 149.996 213.378C149.259 212.949 148.675 212.356 148.246 211.6C147.817 210.844 147.602 209.99 147.602 209.038ZM158.416 210.06C158.416 209.276 158.575 208.59 158.892 208.002C159.21 207.405 159.644 206.943 160.194 206.616C160.754 206.289 161.375 206.126 162.056 206.126C162.728 206.126 163.312 206.271 163.806 206.56C164.301 206.849 164.67 207.213 164.912 207.652V206.252H166.2V213.924H164.912V212.496C164.66 212.944 164.282 213.317 163.778 213.616C163.284 213.905 162.705 214.05 162.042 214.05C161.361 214.05 160.745 213.882 160.194 213.546C159.644 213.21 159.21 212.739 158.892 212.132C158.575 211.525 158.416 210.835 158.416 210.06ZM164.912 210.074C164.912 209.495 164.796 208.991 164.562 208.562C164.329 208.133 164.012 207.806 163.61 207.582C163.218 207.349 162.784 207.232 162.308 207.232C161.832 207.232 161.398 207.344 161.006 207.568C160.614 207.792 160.302 208.119 160.068 208.548C159.835 208.977 159.718 209.481 159.718 210.06C159.718 210.648 159.835 211.161 160.068 211.6C160.302 212.029 160.614 212.361 161.006 212.594C161.398 212.818 161.832 212.93 162.308 212.93C162.784 212.93 163.218 212.818 163.61 212.594C164.012 212.361 164.329 212.029 164.562 211.6C164.796 211.161 164.912 210.653 164.912 210.074ZM172.091 206.112C173.025 206.112 173.781 206.397 174.359 206.966C174.938 207.526 175.227 208.338 175.227 209.402V213.924H173.967V209.584C173.967 208.819 173.776 208.235 173.393 207.834C173.011 207.423 172.488 207.218 171.825 207.218C171.153 207.218 170.617 207.428 170.215 207.848C169.823 208.268 169.627 208.879 169.627 209.682V213.924H168.353V206.252H169.627V207.344C169.879 206.952 170.22 206.649 170.649 206.434C171.088 206.219 171.569 206.112 172.091 206.112ZM176.832 210.074C176.832 209.281 176.991 208.59 177.308 208.002C177.626 207.405 178.064 206.943 178.624 206.616C179.194 206.289 179.842 206.126 180.57 206.126C181.513 206.126 182.288 206.355 182.894 206.812C183.51 207.269 183.916 207.904 184.112 208.716H182.74C182.61 208.249 182.353 207.881 181.97 207.61C181.597 207.339 181.13 207.204 180.57 207.204C179.842 207.204 179.254 207.456 178.806 207.96C178.358 208.455 178.134 209.159 178.134 210.074C178.134 210.998 178.358 211.712 178.806 212.216C179.254 212.72 179.842 212.972 180.57 212.972C181.13 212.972 181.597 212.841 181.97 212.58C182.344 212.319 182.6 211.945 182.74 211.46H184.112C183.907 212.244 183.496 212.874 182.88 213.35C182.264 213.817 181.494 214.05 180.57 214.05C179.842 214.05 179.194 213.887 178.624 213.56C178.064 213.233 177.626 212.771 177.308 212.174C176.991 211.577 176.832 210.877 176.832 210.074ZM192.812 209.794C192.812 210.037 192.798 210.293 192.77 210.564H186.638C186.685 211.32 186.942 211.913 187.408 212.342C187.884 212.762 188.458 212.972 189.13 212.972C189.681 212.972 190.138 212.846 190.502 212.594C190.876 212.333 191.137 211.987 191.286 211.558H192.658C192.453 212.295 192.042 212.897 191.426 213.364C190.81 213.821 190.045 214.05 189.13 214.05C188.402 214.05 187.749 213.887 187.17 213.56C186.601 213.233 186.153 212.771 185.826 212.174C185.5 211.567 185.336 210.867 185.336 210.074C185.336 209.281 185.495 208.585 185.812 207.988C186.13 207.391 186.573 206.933 187.142 206.616C187.721 206.289 188.384 206.126 189.13 206.126C189.858 206.126 190.502 206.285 191.062 206.602C191.622 206.919 192.052 207.358 192.35 207.918C192.658 208.469 192.812 209.094 192.812 209.794ZM191.496 209.528C191.496 209.043 191.389 208.627 191.174 208.282C190.96 207.927 190.666 207.661 190.292 207.484C189.928 207.297 189.522 207.204 189.074 207.204C188.43 207.204 187.88 207.409 187.422 207.82C186.974 208.231 186.718 208.8 186.652 209.528H191.496ZM195.768 203.564V213.924H194.494V203.564H195.768ZM204.388 214.05C203.8 214.05 203.272 213.952 202.806 213.756C202.339 213.551 201.97 213.271 201.7 212.916C201.429 212.552 201.28 212.137 201.252 211.67H202.568C202.605 212.053 202.782 212.365 203.1 212.608C203.426 212.851 203.851 212.972 204.374 212.972C204.859 212.972 205.242 212.865 205.522 212.65C205.802 212.435 205.942 212.165 205.942 211.838C205.942 211.502 205.792 211.255 205.494 211.096C205.195 210.928 204.733 210.765 204.108 210.606C203.538 210.457 203.072 210.307 202.708 210.158C202.353 209.999 202.045 209.771 201.784 209.472C201.532 209.164 201.406 208.763 201.406 208.268C201.406 207.876 201.522 207.517 201.756 207.19C201.989 206.863 202.32 206.607 202.75 206.42C203.179 206.224 203.669 206.126 204.22 206.126C205.069 206.126 205.755 206.341 206.278 206.77C206.8 207.199 207.08 207.787 207.118 208.534H205.844C205.816 208.133 205.652 207.811 205.354 207.568C205.064 207.325 204.672 207.204 204.178 207.204C203.72 207.204 203.356 207.302 203.086 207.498C202.815 207.694 202.68 207.951 202.68 208.268C202.68 208.52 202.759 208.73 202.918 208.898C203.086 209.057 203.291 209.187 203.534 209.29C203.786 209.383 204.131 209.491 204.57 209.612C205.12 209.761 205.568 209.911 205.914 210.06C206.259 210.2 206.553 210.415 206.796 210.704C207.048 210.993 207.178 211.371 207.188 211.838C207.188 212.258 207.071 212.636 206.838 212.972C206.604 213.308 206.273 213.574 205.844 213.77C205.424 213.957 204.938 214.05 204.388 214.05ZM215.79 206.252V213.924H214.516V212.79C214.274 213.182 213.933 213.49 213.494 213.714C213.065 213.929 212.589 214.036 212.066 214.036C211.469 214.036 210.932 213.915 210.456 213.672C209.98 213.42 209.602 213.047 209.322 212.552C209.052 212.057 208.916 211.455 208.916 210.746V206.252H210.176V210.578C210.176 211.334 210.368 211.917 210.75 212.328C211.133 212.729 211.656 212.93 212.318 212.93C213 212.93 213.536 212.72 213.928 212.3C214.32 211.88 214.516 211.269 214.516 210.466V206.252H215.79ZM219.215 207.68C219.477 207.223 219.859 206.849 220.363 206.56C220.867 206.271 221.441 206.126 222.085 206.126C222.776 206.126 223.397 206.289 223.947 206.616C224.498 206.943 224.932 207.405 225.249 208.002C225.567 208.59 225.725 209.276 225.725 210.06C225.725 210.835 225.567 211.525 225.249 212.132C224.932 212.739 224.493 213.21 223.933 213.546C223.383 213.882 222.767 214.05 222.085 214.05C221.423 214.05 220.839 213.905 220.335 213.616C219.841 213.327 219.467 212.958 219.215 212.51V213.924H217.941V203.564H219.215V207.68ZM224.423 210.06C224.423 209.481 224.307 208.977 224.073 208.548C223.84 208.119 223.523 207.792 223.121 207.568C222.729 207.344 222.295 207.232 221.819 207.232C221.353 207.232 220.919 207.349 220.517 207.582C220.125 207.806 219.808 208.137 219.565 208.576C219.332 209.005 219.215 209.505 219.215 210.074C219.215 210.653 219.332 211.161 219.565 211.6C219.808 212.029 220.125 212.361 220.517 212.594C220.919 212.818 221.353 212.93 221.819 212.93C222.295 212.93 222.729 212.818 223.121 212.594C223.523 212.361 223.84 212.029 224.073 211.6C224.307 211.161 224.423 210.648 224.423 210.06ZM230.118 214.05C229.53 214.05 229.003 213.952 228.536 213.756C228.07 213.551 227.701 213.271 227.43 212.916C227.16 212.552 227.01 212.137 226.982 211.67H228.298C228.336 212.053 228.513 212.365 228.83 212.608C229.157 212.851 229.582 212.972 230.104 212.972C230.59 212.972 230.972 212.865 231.252 212.65C231.532 212.435 231.672 212.165 231.672 211.838C231.672 211.502 231.523 211.255 231.224 211.096C230.926 210.928 230.464 210.765 229.838 210.606C229.269 210.457 228.802 210.307 228.438 210.158C228.084 209.999 227.776 209.771 227.514 209.472C227.262 209.164 227.136 208.763 227.136 208.268C227.136 207.876 227.253 207.517 227.486 207.19C227.72 206.863 228.051 206.607 228.48 206.42C228.91 206.224 229.4 206.126 229.95 206.126C230.8 206.126 231.486 206.341 232.008 206.77C232.531 207.199 232.811 207.787 232.848 208.534H231.574C231.546 208.133 231.383 207.811 231.084 207.568C230.795 207.325 230.403 207.204 229.908 207.204C229.451 207.204 229.087 207.302 228.816 207.498C228.546 207.694 228.41 207.951 228.41 208.268C228.41 208.52 228.49 208.73 228.648 208.898C228.816 209.057 229.022 209.187 229.264 209.29C229.516 209.383 229.862 209.491 230.3 209.612C230.851 209.761 231.299 209.911 231.644 210.06C231.99 210.2 232.284 210.415 232.526 210.704C232.778 210.993 232.909 211.371 232.918 211.838C232.918 212.258 232.802 212.636 232.568 212.972C232.335 213.308 232.004 213.574 231.574 213.77C231.154 213.957 230.669 214.05 230.118 214.05ZM234.241 210.074C234.241 209.281 234.399 208.59 234.717 208.002C235.034 207.405 235.473 206.943 236.033 206.616C236.602 206.289 237.251 206.126 237.979 206.126C238.921 206.126 239.696 206.355 240.303 206.812C240.919 207.269 241.325 207.904 241.521 208.716H240.149C240.018 208.249 239.761 207.881 239.379 207.61C239.005 207.339 238.539 207.204 237.979 207.204C237.251 207.204 236.663 207.456 236.215 207.96C235.767 208.455 235.543 209.159 235.543 210.074C235.543 210.998 235.767 211.712 236.215 212.216C236.663 212.72 237.251 212.972 237.979 212.972C238.539 212.972 239.005 212.841 239.379 212.58C239.752 212.319 240.009 211.945 240.149 211.46H241.521C241.315 212.244 240.905 212.874 240.289 213.35C239.673 213.817 238.903 214.05 237.979 214.05C237.251 214.05 236.602 213.887 236.033 213.56C235.473 213.233 235.034 212.771 234.717 212.174C234.399 211.577 234.241 210.877 234.241 210.074ZM244.495 207.498C244.719 207.059 245.036 206.719 245.447 206.476C245.867 206.233 246.375 206.112 246.973 206.112V207.428H246.637C245.209 207.428 244.495 208.203 244.495 209.752V213.924H243.221V206.252H244.495V207.498ZM249.101 205.006C248.859 205.006 248.653 204.922 248.485 204.754C248.317 204.586 248.233 204.381 248.233 204.138C248.233 203.895 248.317 203.69 248.485 203.522C248.653 203.354 248.859 203.27 249.101 203.27C249.335 203.27 249.531 203.354 249.689 203.522C249.857 203.69 249.941 203.895 249.941 204.138C249.941 204.381 249.857 204.586 249.689 204.754C249.531 204.922 249.335 205.006 249.101 205.006ZM249.717 206.252V213.924H248.443V206.252H249.717ZM253.163 207.666C253.415 207.227 253.788 206.863 254.283 206.574C254.787 206.275 255.37 206.126 256.033 206.126C256.714 206.126 257.33 206.289 257.881 206.616C258.441 206.943 258.879 207.405 259.197 208.002C259.514 208.59 259.673 209.276 259.673 210.06C259.673 210.835 259.514 211.525 259.197 212.132C258.879 212.739 258.441 213.21 257.881 213.546C257.33 213.882 256.714 214.05 256.033 214.05C255.379 214.05 254.801 213.905 254.297 213.616C253.802 213.317 253.424 212.949 253.163 212.51V217.564H251.889V206.252H253.163V207.666ZM258.371 210.06C258.371 209.481 258.254 208.977 258.021 208.548C257.787 208.119 257.47 207.792 257.069 207.568C256.677 207.344 256.243 207.232 255.767 207.232C255.3 207.232 254.866 207.349 254.465 207.582C254.073 207.806 253.755 208.137 253.513 208.576C253.279 209.005 253.163 209.505 253.163 210.074C253.163 210.653 253.279 211.161 253.513 211.6C253.755 212.029 254.073 212.361 254.465 212.594C254.866 212.818 255.3 212.93 255.767 212.93C256.243 212.93 256.677 212.818 257.069 212.594C257.47 212.361 257.787 212.029 258.021 211.6C258.254 211.161 258.371 210.648 258.371 210.06ZM262.903 207.302V211.824C262.903 212.197 262.983 212.463 263.141 212.622C263.3 212.771 263.575 212.846 263.967 212.846H264.905V213.924H263.757C263.048 213.924 262.516 213.761 262.161 213.434C261.807 213.107 261.629 212.571 261.629 211.824V207.302H260.635V206.252H261.629V204.32H262.903V206.252H264.905V207.302H262.903ZM267.107 205.006C266.864 205.006 266.659 204.922 266.491 204.754C266.323 204.586 266.239 204.381 266.239 204.138C266.239 203.895 266.323 203.69 266.491 203.522C266.659 203.354 266.864 203.27 267.107 203.27C267.34 203.27 267.536 203.354 267.695 203.522C267.863 203.69 267.947 203.895 267.947 204.138C267.947 204.381 267.863 204.586 267.695 204.754C267.536 204.922 267.34 205.006 267.107 205.006ZM267.723 206.252V213.924H266.449V206.252H267.723ZM273.24 214.05C272.522 214.05 271.868 213.887 271.28 213.56C270.702 213.233 270.244 212.771 269.908 212.174C269.582 211.567 269.418 210.867 269.418 210.074C269.418 209.29 269.586 208.599 269.922 208.002C270.268 207.395 270.734 206.933 271.322 206.616C271.91 206.289 272.568 206.126 273.296 206.126C274.024 206.126 274.682 206.289 275.27 206.616C275.858 206.933 276.32 207.391 276.656 207.988C277.002 208.585 277.174 209.281 277.174 210.074C277.174 210.867 276.997 211.567 276.642 212.174C276.297 212.771 275.826 213.233 275.228 213.56C274.631 213.887 273.968 214.05 273.24 214.05ZM273.24 212.93C273.698 212.93 274.127 212.823 274.528 212.608C274.93 212.393 275.252 212.071 275.494 211.642C275.746 211.213 275.872 210.69 275.872 210.074C275.872 209.458 275.751 208.935 275.508 208.506C275.266 208.077 274.948 207.759 274.556 207.554C274.164 207.339 273.74 207.232 273.282 207.232C272.816 207.232 272.386 207.339 271.994 207.554C271.612 207.759 271.304 208.077 271.07 208.506C270.837 208.935 270.72 209.458 270.72 210.074C270.72 210.699 270.832 211.227 271.056 211.656C271.29 212.085 271.598 212.407 271.98 212.622C272.363 212.827 272.783 212.93 273.24 212.93ZM282.587 206.112C283.521 206.112 284.277 206.397 284.855 206.966C285.434 207.526 285.723 208.338 285.723 209.402V213.924H284.463V209.584C284.463 208.819 284.272 208.235 283.889 207.834C283.507 207.423 282.984 207.218 282.321 207.218C281.649 207.218 281.113 207.428 280.711 207.848C280.319 208.268 280.123 208.879 280.123 209.682V213.924H278.849V206.252H280.123V207.344C280.375 206.952 280.716 206.649 281.145 206.434C281.584 206.219 282.065 206.112 282.587 206.112Z" fill="#E1654A"/>
</g>
<g filter="url(#filter1_d_1101_12205)">
<rect x="315" y="192.924" width="129" height="32" rx="6" fill="#388AEB" shape-rendering="crispEdges"/>
<rect x="315.5" y="193.424" width="128" height="31" rx="5.5" stroke="#388AEB" shape-rendering="crispEdges"/>
<path d="M333.324 204.166V210.34C333.324 211.208 333.534 211.852 333.954 212.272C334.383 212.692 334.976 212.902 335.732 212.902C336.479 212.902 337.062 212.692 337.482 212.272C337.911 211.852 338.126 211.208 338.126 210.34V204.166H339.4V210.326C339.4 211.138 339.237 211.824 338.91 212.384C338.583 212.935 338.14 213.345 337.58 213.616C337.029 213.887 336.409 214.022 335.718 214.022C335.027 214.022 334.402 213.887 333.842 213.616C333.291 213.345 332.853 212.935 332.526 212.384C332.209 211.824 332.05 211.138 332.05 210.326V204.166H333.324ZM342.799 207.666C343.051 207.227 343.425 206.863 343.919 206.574C344.423 206.275 345.007 206.126 345.669 206.126C346.351 206.126 346.967 206.289 347.517 206.616C348.077 206.943 348.516 207.405 348.833 208.002C349.151 208.59 349.309 209.276 349.309 210.06C349.309 210.835 349.151 211.525 348.833 212.132C348.516 212.739 348.077 213.21 347.517 213.546C346.967 213.882 346.351 214.05 345.669 214.05C345.016 214.05 344.437 213.905 343.933 213.616C343.439 213.317 343.061 212.949 342.799 212.51V217.564H341.525V206.252H342.799V207.666ZM348.007 210.06C348.007 209.481 347.891 208.977 347.657 208.548C347.424 208.119 347.107 207.792 346.705 207.568C346.313 207.344 345.879 207.232 345.403 207.232C344.937 207.232 344.503 207.349 344.101 207.582C343.709 207.806 343.392 208.137 343.149 208.576C342.916 209.005 342.799 209.505 342.799 210.074C342.799 210.653 342.916 211.161 343.149 211.6C343.392 212.029 343.709 212.361 344.101 212.594C344.503 212.818 344.937 212.93 345.403 212.93C345.879 212.93 346.313 212.818 346.705 212.594C347.107 212.361 347.424 212.029 347.657 211.6C347.891 211.161 348.007 210.648 348.007 210.06ZM354.15 206.126C354.813 206.126 355.392 206.271 355.886 206.56C356.39 206.849 356.764 207.213 357.006 207.652V206.252H358.294V214.092C358.294 214.792 358.145 215.413 357.846 215.954C357.548 216.505 357.118 216.934 356.558 217.242C356.008 217.55 355.364 217.704 354.626 217.704C353.618 217.704 352.778 217.466 352.106 216.99C351.434 216.514 351.038 215.865 350.916 215.044H352.176C352.316 215.511 352.606 215.884 353.044 216.164C353.483 216.453 354.01 216.598 354.626 216.598C355.326 216.598 355.896 216.379 356.334 215.94C356.782 215.501 357.006 214.885 357.006 214.092V212.482C356.754 212.93 356.381 213.303 355.886 213.602C355.392 213.901 354.813 214.05 354.15 214.05C353.469 214.05 352.848 213.882 352.288 213.546C351.738 213.21 351.304 212.739 350.986 212.132C350.669 211.525 350.51 210.835 350.51 210.06C350.51 209.276 350.669 208.59 350.986 208.002C351.304 207.405 351.738 206.943 352.288 206.616C352.848 206.289 353.469 206.126 354.15 206.126ZM357.006 210.074C357.006 209.495 356.89 208.991 356.656 208.562C356.423 208.133 356.106 207.806 355.704 207.582C355.312 207.349 354.878 207.232 354.402 207.232C353.926 207.232 353.492 207.344 353.1 207.568C352.708 207.792 352.396 208.119 352.162 208.548C351.929 208.977 351.812 209.481 351.812 210.06C351.812 210.648 351.929 211.161 352.162 211.6C352.396 212.029 352.708 212.361 353.1 212.594C353.492 212.818 353.926 212.93 354.402 212.93C354.878 212.93 355.312 212.818 355.704 212.594C356.106 212.361 356.423 212.029 356.656 211.6C356.89 211.161 357.006 210.653 357.006 210.074ZM361.721 207.498C361.945 207.059 362.262 206.719 362.673 206.476C363.093 206.233 363.602 206.112 364.199 206.112V207.428H363.863C362.435 207.428 361.721 208.203 361.721 209.752V213.924H360.447V206.252H361.721V207.498ZM365.194 210.06C365.194 209.276 365.352 208.59 365.67 208.002C365.987 207.405 366.421 206.943 366.972 206.616C367.532 206.289 368.152 206.126 368.834 206.126C369.506 206.126 370.089 206.271 370.584 206.56C371.078 206.849 371.447 207.213 371.69 207.652V206.252H372.978V213.924H371.69V212.496C371.438 212.944 371.06 213.317 370.556 213.616C370.061 213.905 369.482 214.05 368.82 214.05C368.138 214.05 367.522 213.882 366.972 213.546C366.421 213.21 365.987 212.739 365.67 212.132C365.352 211.525 365.194 210.835 365.194 210.06ZM371.69 210.074C371.69 209.495 371.573 208.991 371.34 208.562C371.106 208.133 370.789 207.806 370.388 207.582C369.996 207.349 369.562 207.232 369.086 207.232C368.61 207.232 368.176 207.344 367.784 207.568C367.392 207.792 367.079 208.119 366.846 208.548C366.612 208.977 366.496 209.481 366.496 210.06C366.496 210.648 366.612 211.161 366.846 211.6C367.079 212.029 367.392 212.361 367.784 212.594C368.176 212.818 368.61 212.93 369.086 212.93C369.562 212.93 369.996 212.818 370.388 212.594C370.789 212.361 371.106 212.029 371.34 211.6C371.573 211.161 371.69 210.653 371.69 210.074ZM374.655 210.06C374.655 209.276 374.813 208.59 375.131 208.002C375.448 207.405 375.882 206.943 376.433 206.616C376.993 206.289 377.618 206.126 378.309 206.126C378.906 206.126 379.461 206.266 379.975 206.546C380.488 206.817 380.88 207.176 381.151 207.624V203.564H382.439V213.924H381.151V212.482C380.899 212.939 380.525 213.317 380.031 213.616C379.536 213.905 378.957 214.05 378.295 214.05C377.613 214.05 376.993 213.882 376.433 213.546C375.882 213.21 375.448 212.739 375.131 212.132C374.813 211.525 374.655 210.835 374.655 210.06ZM381.151 210.074C381.151 209.495 381.034 208.991 380.801 208.562C380.567 208.133 380.25 207.806 379.849 207.582C379.457 207.349 379.023 207.232 378.547 207.232C378.071 207.232 377.637 207.344 377.245 207.568C376.853 207.792 376.54 208.119 376.307 208.548C376.073 208.977 375.957 209.481 375.957 210.06C375.957 210.648 376.073 211.161 376.307 211.6C376.54 212.029 376.853 212.361 377.245 212.594C377.637 212.818 378.071 212.93 378.547 212.93C379.023 212.93 379.457 212.818 379.849 212.594C380.25 212.361 380.567 212.029 380.801 211.6C381.034 211.161 381.151 210.653 381.151 210.074ZM391.592 209.794C391.592 210.037 391.578 210.293 391.55 210.564H385.418C385.464 211.32 385.721 211.913 386.188 212.342C386.664 212.762 387.238 212.972 387.91 212.972C388.46 212.972 388.918 212.846 389.282 212.594C389.655 212.333 389.916 211.987 390.066 211.558H391.438C391.232 212.295 390.822 212.897 390.206 213.364C389.59 213.821 388.824 214.05 387.91 214.05C387.182 214.05 386.528 213.887 385.95 213.56C385.38 213.233 384.932 212.771 384.606 212.174C384.279 211.567 384.116 210.867 384.116 210.074C384.116 209.281 384.274 208.585 384.592 207.988C384.909 207.391 385.352 206.933 385.922 206.616C386.5 206.289 387.163 206.126 387.91 206.126C388.638 206.126 389.282 206.285 389.842 206.602C390.402 206.919 390.831 207.358 391.13 207.918C391.438 208.469 391.592 209.094 391.592 209.794ZM390.276 209.528C390.276 209.043 390.168 208.627 389.954 208.282C389.739 207.927 389.445 207.661 389.072 207.484C388.708 207.297 388.302 207.204 387.854 207.204C387.21 207.204 386.659 207.409 386.202 207.82C385.754 208.231 385.497 208.8 385.432 209.528H390.276ZM398.28 207.666C398.532 207.227 398.905 206.863 399.4 206.574C399.904 206.275 400.487 206.126 401.15 206.126C401.831 206.126 402.447 206.289 402.998 206.616C403.558 206.943 403.996 207.405 404.314 208.002C404.631 208.59 404.79 209.276 404.79 210.06C404.79 210.835 404.631 211.525 404.314 212.132C403.996 212.739 403.558 213.21 402.998 213.546C402.447 213.882 401.831 214.05 401.15 214.05C400.496 214.05 399.918 213.905 399.414 213.616C398.919 213.317 398.541 212.949 398.28 212.51V217.564H397.006V206.252H398.28V207.666ZM403.488 210.06C403.488 209.481 403.371 208.977 403.138 208.548C402.904 208.119 402.587 207.792 402.186 207.568C401.794 207.344 401.36 207.232 400.884 207.232C400.417 207.232 399.983 207.349 399.582 207.582C399.19 207.806 398.872 208.137 398.63 208.576C398.396 209.005 398.28 209.505 398.28 210.074C398.28 210.653 398.396 211.161 398.63 211.6C398.872 212.029 399.19 212.361 399.582 212.594C399.983 212.818 400.417 212.93 400.884 212.93C401.36 212.93 401.794 212.818 402.186 212.594C402.587 212.361 402.904 212.029 403.138 211.6C403.371 211.161 403.488 210.648 403.488 210.06ZM407.741 203.564V213.924H406.467V203.564H407.741ZM409.436 210.06C409.436 209.276 409.595 208.59 409.912 208.002C410.229 207.405 410.663 206.943 411.214 206.616C411.774 206.289 412.395 206.126 413.076 206.126C413.748 206.126 414.331 206.271 414.826 206.56C415.321 206.849 415.689 207.213 415.932 207.652V206.252H417.22V213.924H415.932V212.496C415.68 212.944 415.302 213.317 414.798 213.616C414.303 213.905 413.725 214.05 413.062 214.05C412.381 214.05 411.765 213.882 411.214 213.546C410.663 213.21 410.229 212.739 409.912 212.132C409.595 211.525 409.436 210.835 409.436 210.06ZM415.932 210.074C415.932 209.495 415.815 208.991 415.582 208.562C415.349 208.133 415.031 207.806 414.63 207.582C414.238 207.349 413.804 207.232 413.328 207.232C412.852 207.232 412.418 207.344 412.026 207.568C411.634 207.792 411.321 208.119 411.088 208.548C410.855 208.977 410.738 209.481 410.738 210.06C410.738 210.648 410.855 211.161 411.088 211.6C411.321 212.029 411.634 212.361 412.026 212.594C412.418 212.818 412.852 212.93 413.328 212.93C413.804 212.93 414.238 212.818 414.63 212.594C415.031 212.361 415.349 212.029 415.582 211.6C415.815 211.161 415.932 210.653 415.932 210.074ZM423.111 206.112C424.044 206.112 424.8 206.397 425.379 206.966C425.958 207.526 426.247 208.338 426.247 209.402V213.924H424.987V209.584C424.987 208.819 424.796 208.235 424.413 207.834C424.03 207.423 423.508 207.218 422.845 207.218C422.173 207.218 421.636 207.428 421.235 207.848C420.843 208.268 420.647 208.879 420.647 209.682V213.924H419.373V206.252H420.647V207.344C420.899 206.952 421.24 206.649 421.669 206.434C422.108 206.219 422.588 206.112 423.111 206.112Z" fill="#FDFCFA"/>
</g>
<defs>
<filter id="filter0_d_1101_12205" x="131" y="192.924" width="172" height="34" filterUnits="userSpaceOnUse" color-interpolation-filters="sRGB">
<feFlood flood-opacity="0" result="BackgroundImageFix"/>
<feColorMatrix in="SourceAlpha" type="matrix" values="0 0 0 0 0 0 0 0 0 0 0 0 0 0 0 0 0 0 127 0" result="hardAlpha"/>
<feOffset dy="2"/>
<feComposite in2="hardAlpha" operator="out"/>
<feColorMatrix type="matrix" values="0 0 0 0 0 0 0 0 0 0 0 0 0 0 0 0 0 0 0.02 0"/>
<feBlend mode="normal" in2="BackgroundImageFix" result="effect1_dropShadow_1101_12205"/>
<feBlend mode="normal" in="SourceGraphic" in2="effect1_dropShadow_1101_12205" result="shape"/>
</filter>
<filter id="filter1_d_1101_12205" x="315" y="192.924" width="129" height="34" filterUnits="userSpaceOnUse" color-interpolation-filters="sRGB">
<feFlood flood-opacity="0" result="BackgroundImageFix"/>
<feColorMatrix in="SourceAlpha" type="matrix" values="0 0 0 0 0 0 0 0 0 0 0 0 0 0 0 0 0 0 127 0" result="hardAlpha"/>
<feOffset dy="2"/>
<feComposite in2="hardAlpha" operator="out"/>
<feColorMatrix type="matrix" values="0 0 0 0 0 0 0 0 0 0 0 0 0 0 0 0 0 0 0.02 0"/>
<feBlend mode="normal" in2="BackgroundImageFix" result="effect1_dropShadow_1101_12205"/>
<feBlend mode="normal" in="SourceGraphic" in2="effect1_dropShadow_1101_12205" result="shape"/>
</filter>
<clipPath id="clip0_1101_12205">
<rect width="275" height="8" fill="white" transform="translate(24 145.924)"/>
</clipPath>
</defs>
</svg>
