<svg width="1116" height="180" viewBox="0 0 1116 180" fill="none" xmlns="http://www.w3.org/2000/svg">
<rect width="1116" height="180" rx="12" fill="white"/>
<rect x="0.5" y="0.5" width="1115" height="179" rx="11.5" stroke="black" stroke-opacity="0.06"/>
<mask id="path-3-inside-1_266_4605" fill="white">
<path d="M0 0H1116V78H0V0Z"/>
</mask>
<path d="M1116 77H0V79H1116V77Z" fill="black" fill-opacity="0.06" mask="url(#path-3-inside-1_266_4605)"/>
<path d="M33.39 29.06C35.59 29.06 37.52 29.49 39.18 30.35C40.86 31.21 42.15 32.44 43.05 34.04C43.97 35.62 44.43 37.46 44.43 39.56C44.43 41.66 43.97 43.5 43.05 45.08C42.15 46.64 40.86 47.85 39.18 48.71C37.52 49.57 35.59 50 33.39 50H26.07V29.06H33.39ZM33.24 46.43C35.44 46.43 37.14 45.83 38.34 44.63C39.54 43.43 40.14 41.74 40.14 39.56C40.14 37.38 39.54 35.68 38.34 34.46C37.14 33.22 35.44 32.6 33.24 32.6H30.27V46.43H33.24ZM46.4939 41.63C46.4939 39.95 46.8239 38.46 47.4839 37.16C48.1639 35.86 49.0739 34.86 50.2139 34.16C51.3739 33.46 52.6639 33.11 54.0839 33.11C55.3239 33.11 56.4039 33.36 57.3239 33.86C58.2639 34.36 59.0139 34.99 59.5739 35.75V33.38H63.8039V50H59.5739V47.57C59.0339 48.35 58.2839 49 57.3239 49.52C56.3839 50.02 55.2939 50.27 54.0539 50.27C52.6539 50.27 51.3739 49.91 50.2139 49.19C49.0739 48.47 48.1639 47.46 47.4839 46.16C46.8239 44.84 46.4939 43.33 46.4939 41.63ZM59.5739 41.69C59.5739 40.67 59.3739 39.8 58.9739 39.08C58.5739 38.34 58.0339 37.78 57.3539 37.4C56.6739 37 55.9439 36.8 55.1639 36.8C54.3839 36.8 53.6639 36.99 53.0039 37.37C52.3439 37.75 51.8039 38.31 51.3839 39.05C50.9839 39.77 50.7839 40.63 50.7839 41.63C50.7839 42.63 50.9839 43.51 51.3839 44.27C51.8039 45.01 52.3439 45.58 53.0039 45.98C53.6839 46.38 54.4039 46.58 55.1639 46.58C55.9439 46.58 56.6739 46.39 57.3539 46.01C58.0339 45.61 58.5739 45.05 58.9739 44.33C59.3739 43.59 59.5739 42.71 59.5739 41.69ZM74.2659 50.27C72.9059 50.27 71.6859 50.03 70.6059 49.55C69.5259 49.05 68.6659 48.38 68.0259 47.54C67.4059 46.7 67.0659 45.77 67.0059 44.75H71.2359C71.3159 45.39 71.6259 45.92 72.1659 46.34C72.7259 46.76 73.4159 46.97 74.2359 46.97C75.0359 46.97 75.6559 46.81 76.0959 46.49C76.5559 46.17 76.7859 45.76 76.7859 45.26C76.7859 44.72 76.5059 44.32 75.9459 44.06C75.4059 43.78 74.5359 43.48 73.3359 43.16C72.0959 42.86 71.0759 42.55 70.2759 42.23C69.4959 41.91 68.8159 41.42 68.2359 40.76C67.6759 40.1 67.3959 39.21 67.3959 38.09C67.3959 37.17 67.6559 36.33 68.1759 35.57C68.7159 34.81 69.4759 34.21 70.4559 33.77C71.4559 33.33 72.6259 33.11 73.9659 33.11C75.9459 33.11 77.5259 33.61 78.7059 34.61C79.8859 35.59 80.5359 36.92 80.6559 38.6H76.6359C76.5759 37.94 76.2959 37.42 75.7959 37.04C75.3159 36.64 74.6659 36.44 73.8459 36.44C73.0859 36.44 72.4959 36.58 72.0759 36.86C71.6759 37.14 71.4759 37.53 71.4759 38.03C71.4759 38.59 71.7559 39.02 72.3159 39.32C72.8759 39.6 73.7459 39.89 74.9259 40.19C76.1259 40.49 77.1159 40.8 77.8959 41.12C78.6759 41.44 79.3459 41.94 79.9059 42.62C80.4859 43.28 80.7859 44.16 80.8059 45.26C80.8059 46.22 80.5359 47.08 79.9959 47.84C79.4759 48.6 78.7159 49.2 77.7159 49.64C76.7359 50.06 75.5859 50.27 74.2659 50.27ZM93.6136 33.14C94.8736 33.14 95.9936 33.42 96.9736 33.98C97.9536 34.52 98.7136 35.33 99.2536 36.41C99.8136 37.47 100.094 38.75 100.094 40.25V50H95.8936V40.82C95.8936 39.5 95.5636 38.49 94.9036 37.79C94.2436 37.07 93.3436 36.71 92.2036 36.71C91.0436 36.71 90.1236 37.07 89.4436 37.79C88.7836 38.49 88.4536 39.5 88.4536 40.82V50H84.2536V27.8H88.4536V35.45C88.9936 34.73 89.7136 34.17 90.6136 33.77C91.5136 33.35 92.5136 33.14 93.6136 33.14ZM108.288 35.81C108.828 35.01 109.568 34.36 110.508 33.86C111.468 33.36 112.558 33.11 113.778 33.11C115.198 33.11 116.478 33.46 117.618 34.16C118.778 34.86 119.688 35.86 120.348 37.16C121.028 38.44 121.368 39.93 121.368 41.63C121.368 43.33 121.028 44.84 120.348 46.16C119.688 47.46 118.778 48.47 117.618 49.19C116.478 49.91 115.198 50.27 113.778 50.27C112.538 50.27 111.448 50.03 110.508 49.55C109.588 49.05 108.848 48.41 108.288 47.63V50H104.088V27.8H108.288V35.81ZM117.078 41.63C117.078 40.63 116.868 39.77 116.448 39.05C116.048 38.31 115.508 37.75 114.828 37.37C114.168 36.99 113.448 36.8 112.668 36.8C111.908 36.8 111.188 37 110.508 37.4C109.848 37.78 109.308 38.34 108.888 39.08C108.488 39.82 108.288 40.69 108.288 41.69C108.288 42.69 108.488 43.56 108.888 44.3C109.308 45.04 109.848 45.61 110.508 46.01C111.188 46.39 111.908 46.58 112.668 46.58C113.448 46.58 114.168 46.38 114.828 45.98C115.508 45.58 116.048 45.01 116.448 44.27C116.868 43.53 117.078 42.65 117.078 41.63ZM131.8 50.27C130.2 50.27 128.76 49.92 127.48 49.22C126.2 48.5 125.19 47.49 124.45 46.19C123.73 44.89 123.37 43.39 123.37 41.69C123.37 39.99 123.74 38.49 124.48 37.19C125.24 35.89 126.27 34.89 127.57 34.19C128.87 33.47 130.32 33.11 131.92 33.11C133.52 33.11 134.97 33.47 136.27 34.19C137.57 34.89 138.59 35.89 139.33 37.19C140.09 38.49 140.47 39.99 140.47 41.69C140.47 43.39 140.08 44.89 139.3 46.19C138.54 47.49 137.5 48.5 136.18 49.22C134.88 49.92 133.42 50.27 131.8 50.27ZM131.8 46.61C132.56 46.61 133.27 46.43 133.93 46.07C134.61 45.69 135.15 45.13 135.55 44.39C135.95 43.65 136.15 42.75 136.15 41.69C136.15 40.11 135.73 38.9 134.89 38.06C134.07 37.2 133.06 36.77 131.86 36.77C130.66 36.77 129.65 37.2 128.83 38.06C128.03 38.9 127.63 40.11 127.63 41.69C127.63 43.27 128.02 44.49 128.8 45.35C129.6 46.19 130.6 46.61 131.8 46.61ZM142.47 41.63C142.47 39.95 142.8 38.46 143.46 37.16C144.14 35.86 145.05 34.86 146.19 34.16C147.35 33.46 148.64 33.11 150.06 33.11C151.3 33.11 152.38 33.36 153.3 33.86C154.24 34.36 154.99 34.99 155.55 35.75V33.38H159.78V50H155.55V47.57C155.01 48.35 154.26 49 153.3 49.52C152.36 50.02 151.27 50.27 150.03 50.27C148.63 50.27 147.35 49.91 146.19 49.19C145.05 48.47 144.14 47.46 143.46 46.16C142.8 44.84 142.47 43.33 142.47 41.63ZM155.55 41.69C155.55 40.67 155.35 39.8 154.95 39.08C154.55 38.34 154.01 37.78 153.33 37.4C152.65 37 151.92 36.8 151.14 36.8C150.36 36.8 149.64 36.99 148.98 37.37C148.32 37.75 147.78 38.31 147.36 39.05C146.96 39.77 146.76 40.63 146.76 41.63C146.76 42.63 146.96 43.51 147.36 44.27C147.78 45.01 148.32 45.58 148.98 45.98C149.66 46.38 150.38 46.58 151.14 46.58C151.92 46.58 152.65 46.39 153.33 46.01C154.01 45.61 154.55 45.05 154.95 44.33C155.35 43.59 155.55 42.71 155.55 41.69ZM168.083 35.96C168.623 35.08 169.323 34.39 170.183 33.89C171.063 33.39 172.063 33.14 173.183 33.14V37.55H172.073C170.753 37.55 169.753 37.86 169.073 38.48C168.413 39.1 168.083 40.18 168.083 41.72V50H163.883V33.38H168.083V35.96ZM174.931 41.63C174.931 39.95 175.261 38.46 175.921 37.16C176.601 35.86 177.521 34.86 178.681 34.16C179.841 33.46 181.131 33.11 182.551 33.11C183.631 33.11 184.661 33.35 185.641 33.83C186.621 34.29 187.401 34.91 187.981 35.69V27.8H192.241V50H187.981V47.54C187.461 48.36 186.731 49.02 185.791 49.52C184.851 50.02 183.761 50.27 182.521 50.27C181.121 50.27 179.841 49.91 178.681 49.19C177.521 48.47 176.601 47.46 175.921 46.16C175.261 44.84 174.931 43.33 174.931 41.63ZM188.011 41.69C188.011 40.67 187.811 39.8 187.411 39.08C187.011 38.34 186.471 37.78 185.791 37.4C185.111 37 184.381 36.8 183.601 36.8C182.821 36.8 182.101 36.99 181.441 37.37C180.781 37.75 180.241 38.31 179.821 39.05C179.421 39.77 179.221 40.63 179.221 41.63C179.221 42.63 179.421 43.51 179.821 44.27C180.241 45.01 180.781 45.58 181.441 45.98C182.121 46.38 182.841 46.58 183.601 46.58C184.381 46.58 185.111 46.39 185.791 46.01C186.471 45.61 187.011 45.05 187.411 44.33C187.811 43.59 188.011 42.71 188.011 41.69Z" fill="#212427"/>
<path d="M28.172 114.098C27.528 114.098 26.9493 113.986 26.436 113.762C25.932 113.529 25.5353 113.211 25.246 112.81C24.9567 112.399 24.8073 111.928 24.798 111.396H26.156C26.2027 111.853 26.3893 112.241 26.716 112.558C27.052 112.866 27.5373 113.02 28.172 113.02C28.7787 113.02 29.2547 112.871 29.6 112.572C29.9547 112.264 30.132 111.872 30.132 111.396C30.132 111.023 30.0293 110.719 29.824 110.486C29.6187 110.253 29.362 110.075 29.054 109.954C28.746 109.833 28.3307 109.702 27.808 109.562C27.164 109.394 26.646 109.226 26.254 109.058C25.8713 108.89 25.54 108.629 25.26 108.274C24.9893 107.91 24.854 107.425 24.854 106.818C24.854 106.286 24.9893 105.815 25.26 105.404C25.5307 104.993 25.9087 104.676 26.394 104.452C26.8887 104.228 27.4533 104.116 28.088 104.116C29.0027 104.116 29.7493 104.345 30.328 104.802C30.916 105.259 31.2473 105.866 31.322 106.622H29.922C29.8753 106.249 29.6793 105.922 29.334 105.642C28.9887 105.353 28.5313 105.208 27.962 105.208C27.43 105.208 26.996 105.348 26.66 105.628C26.324 105.899 26.156 106.281 26.156 106.776C26.156 107.131 26.254 107.42 26.45 107.644C26.6553 107.868 26.9027 108.041 27.192 108.162C27.4907 108.274 27.906 108.405 28.438 108.554C29.082 108.731 29.6 108.909 29.992 109.086C30.384 109.254 30.72 109.52 31 109.884C31.28 110.239 31.42 110.724 31.42 111.34C31.42 111.816 31.294 112.264 31.042 112.684C30.79 113.104 30.4167 113.445 29.922 113.706C29.4273 113.967 28.844 114.098 28.172 114.098ZM40.2948 109.87C40.2948 110.113 40.2808 110.369 40.2528 110.64H34.1208C34.1675 111.396 34.4241 111.989 34.8908 112.418C35.3668 112.838 35.9408 113.048 36.6128 113.048C37.1635 113.048 37.6208 112.922 37.9848 112.67C38.3581 112.409 38.6195 112.063 38.7688 111.634H40.1408C39.9355 112.371 39.5248 112.973 38.9088 113.44C38.2928 113.897 37.5275 114.126 36.6128 114.126C35.8848 114.126 35.2315 113.963 34.6528 113.636C34.0835 113.309 33.6355 112.847 33.3088 112.25C32.9821 111.643 32.8188 110.943 32.8188 110.15C32.8188 109.357 32.9775 108.661 33.2948 108.064C33.6121 107.467 34.0555 107.009 34.6248 106.692C35.2035 106.365 35.8661 106.202 36.6128 106.202C37.3408 106.202 37.9848 106.361 38.5448 106.678C39.1048 106.995 39.5341 107.434 39.8328 107.994C40.1408 108.545 40.2948 109.17 40.2948 109.87ZM38.9788 109.604C38.9788 109.119 38.8715 108.703 38.6568 108.358C38.4421 108.003 38.1481 107.737 37.7748 107.56C37.4108 107.373 37.0048 107.28 36.5568 107.28C35.9128 107.28 35.3621 107.485 34.9048 107.896C34.4568 108.307 34.2001 108.876 34.1348 109.604H38.9788ZM43.2504 103.64V114H41.9764V103.64H43.2504ZM52.4218 109.87C52.4218 110.113 52.4078 110.369 52.3798 110.64H46.2478C46.2944 111.396 46.5511 111.989 47.0178 112.418C47.4938 112.838 48.0678 113.048 48.7398 113.048C49.2904 113.048 49.7478 112.922 50.1118 112.67C50.4851 112.409 50.7464 112.063 50.8958 111.634H52.2678C52.0624 112.371 51.6518 112.973 51.0358 113.44C50.4198 113.897 49.6544 114.126 48.7398 114.126C48.0118 114.126 47.3584 113.963 46.7798 113.636C46.2104 113.309 45.7624 112.847 45.4358 112.25C45.1091 111.643 44.9458 110.943 44.9458 110.15C44.9458 109.357 45.1044 108.661 45.4218 108.064C45.7391 107.467 46.1824 107.009 46.7518 106.692C47.3304 106.365 47.9931 106.202 48.7398 106.202C49.4678 106.202 50.1118 106.361 50.6718 106.678C51.2318 106.995 51.6611 107.434 51.9598 107.994C52.2678 108.545 52.4218 109.17 52.4218 109.87ZM51.1058 109.604C51.1058 109.119 50.9984 108.703 50.7838 108.358C50.5691 108.003 50.2751 107.737 49.9018 107.56C49.5378 107.373 49.1318 107.28 48.6838 107.28C48.0398 107.28 47.4891 107.485 47.0318 107.896C46.5838 108.307 46.3271 108.876 46.2618 109.604H51.1058ZM53.6274 110.15C53.6274 109.357 53.7861 108.666 54.1034 108.078C54.4207 107.481 54.8594 107.019 55.4194 106.692C55.9887 106.365 56.6374 106.202 57.3654 106.202C58.3081 106.202 59.0827 106.431 59.6894 106.888C60.3054 107.345 60.7114 107.98 60.9074 108.792H59.5354C59.4047 108.325 59.1481 107.957 58.7654 107.686C58.3921 107.415 57.9254 107.28 57.3654 107.28C56.6374 107.28 56.0494 107.532 55.6014 108.036C55.1534 108.531 54.9294 109.235 54.9294 110.15C54.9294 111.074 55.1534 111.788 55.6014 112.292C56.0494 112.796 56.6374 113.048 57.3654 113.048C57.9254 113.048 58.3921 112.917 58.7654 112.656C59.1387 112.395 59.3954 112.021 59.5354 111.536H60.9074C60.7021 112.32 60.2914 112.95 59.6754 113.426C59.0594 113.893 58.2894 114.126 57.3654 114.126C56.6374 114.126 55.9887 113.963 55.4194 113.636C54.8594 113.309 54.4207 112.847 54.1034 112.25C53.7861 111.653 53.6274 110.953 53.6274 110.15ZM64.1613 107.378V111.9C64.1613 112.273 64.2406 112.539 64.3993 112.698C64.558 112.847 64.8333 112.922 65.2253 112.922H66.1633V114H65.0153C64.306 114 63.774 113.837 63.4193 113.51C63.0646 113.183 62.8873 112.647 62.8873 111.9V107.378H61.8933V106.328H62.8873V104.396H64.1613V106.328H66.1633V107.378H64.1613ZM76.3253 108.974C76.68 109.03 77.002 109.175 77.2913 109.408C77.59 109.641 77.8233 109.931 77.9913 110.276C78.1687 110.621 78.2573 110.99 78.2573 111.382C78.2573 111.877 78.1313 112.325 77.8793 112.726C77.6273 113.118 77.2587 113.431 76.7733 113.664C76.2973 113.888 75.7327 114 75.0793 114H71.4393V104.242H74.9393C75.602 104.242 76.1667 104.354 76.6333 104.578C77.1 104.793 77.45 105.087 77.6833 105.46C77.9167 105.833 78.0333 106.253 78.0333 106.72C78.0333 107.299 77.8747 107.779 77.5573 108.162C77.2493 108.535 76.8387 108.806 76.3253 108.974ZM72.7133 108.456H74.8553C75.4527 108.456 75.9147 108.316 76.2413 108.036C76.568 107.756 76.7313 107.369 76.7313 106.874C76.7313 106.379 76.568 105.992 76.2413 105.712C75.9147 105.432 75.4433 105.292 74.8273 105.292H72.7133V108.456ZM74.9673 112.95C75.602 112.95 76.0967 112.801 76.4513 112.502C76.806 112.203 76.9833 111.788 76.9833 111.256C76.9833 110.715 76.7967 110.29 76.4233 109.982C76.05 109.665 75.5507 109.506 74.9253 109.506H72.7133V112.95H74.9673ZM83.3713 114.126C82.6526 114.126 81.9993 113.963 81.4113 113.636C80.8326 113.309 80.3753 112.847 80.0393 112.25C79.7126 111.643 79.5493 110.943 79.5493 110.15C79.5493 109.366 79.7173 108.675 80.0533 108.078C80.3986 107.471 80.8653 107.009 81.4533 106.692C82.0413 106.365 82.6993 106.202 83.4273 106.202C84.1553 106.202 84.8133 106.365 85.4013 106.692C85.9893 107.009 86.4513 107.467 86.7873 108.064C87.1326 108.661 87.3053 109.357 87.3053 110.15C87.3053 110.943 87.1279 111.643 86.7733 112.25C86.4279 112.847 85.9566 113.309 85.3593 113.636C84.7619 113.963 84.0993 114.126 83.3713 114.126ZM83.3713 113.006C83.8286 113.006 84.2579 112.899 84.6593 112.684C85.0606 112.469 85.3826 112.147 85.6253 111.718C85.8773 111.289 86.0033 110.766 86.0033 110.15C86.0033 109.534 85.8819 109.011 85.6393 108.582C85.3966 108.153 85.0793 107.835 84.6873 107.63C84.2953 107.415 83.8706 107.308 83.4133 107.308C82.9466 107.308 82.5173 107.415 82.1253 107.63C81.7426 107.835 81.4346 108.153 81.2013 108.582C80.9679 109.011 80.8513 109.534 80.8513 110.15C80.8513 110.775 80.9633 111.303 81.1873 111.732C81.4206 112.161 81.7286 112.483 82.1113 112.698C82.4939 112.903 82.9139 113.006 83.3713 113.006ZM90.5343 107.378V111.9C90.5343 112.273 90.6137 112.539 90.7723 112.698C90.931 112.847 91.2063 112.922 91.5983 112.922H92.5363V114H91.3883C90.679 114 90.147 113.837 89.7923 113.51C89.4377 113.183 89.2603 112.647 89.2603 111.9V107.378H88.2663V106.328H89.2603V104.396H90.5343V106.328H92.5363V107.378H90.5343Z" fill="#212427"/>
<rect x="24.5" y="128.5" width="339" height="31" rx="5.5" stroke="black" stroke-opacity="0.15"/>
<path d="M46.976 139.312V149H45.702V141.776L42.482 149H41.586L38.352 141.762V149H37.078V139.312H38.45L42.034 147.32L45.618 139.312H46.976ZM55.7446 141.328L51.1246 152.612H49.8086L51.3206 148.916L48.2266 141.328H49.6406L52.0486 147.544L54.4286 141.328H55.7446ZM63.8797 142.378H62.2697V149H60.9957V142.378H60.0017V141.328H60.9957V140.782C60.9957 139.923 61.215 139.298 61.6537 138.906C62.1017 138.505 62.8157 138.304 63.7957 138.304V139.368C63.2357 139.368 62.839 139.48 62.6057 139.704C62.3817 139.919 62.2697 140.278 62.2697 140.782V141.328H63.8797V142.378ZM66.0231 140.082C65.7804 140.082 65.5751 139.998 65.4071 139.83C65.2391 139.662 65.1551 139.457 65.1551 139.214C65.1551 138.971 65.2391 138.766 65.4071 138.598C65.5751 138.43 65.7804 138.346 66.0231 138.346C66.2564 138.346 66.4524 138.43 66.6111 138.598C66.7791 138.766 66.8631 138.971 66.8631 139.214C66.8631 139.457 66.7791 139.662 66.6111 139.83C66.4524 139.998 66.2564 140.082 66.0231 140.082ZM66.6391 141.328V149H65.3651V141.328H66.6391ZM70.0844 142.574C70.3084 142.135 70.6258 141.795 71.0364 141.552C71.4564 141.309 71.9651 141.188 72.5624 141.188V142.504H72.2264C70.7984 142.504 70.0844 143.279 70.0844 144.828V149H68.8104V141.328H70.0844V142.574ZM76.7491 149.126C76.1611 149.126 75.6337 149.028 75.1671 148.832C74.7004 148.627 74.3317 148.347 74.0611 147.992C73.7904 147.628 73.6411 147.213 73.6131 146.746H74.9291C74.9664 147.129 75.1437 147.441 75.4611 147.684C75.7877 147.927 76.2124 148.048 76.7351 148.048C77.2204 148.048 77.6031 147.941 77.8831 147.726C78.1631 147.511 78.3031 147.241 78.3031 146.914C78.3031 146.578 78.1537 146.331 77.8551 146.172C77.5564 146.004 77.0944 145.841 76.4691 145.682C75.8997 145.533 75.4331 145.383 75.0691 145.234C74.7144 145.075 74.4064 144.847 74.1451 144.548C73.8931 144.24 73.7671 143.839 73.7671 143.344C73.7671 142.952 73.8837 142.593 74.1171 142.266C74.3504 141.939 74.6817 141.683 75.1111 141.496C75.5404 141.3 76.0304 141.202 76.5811 141.202C77.4304 141.202 78.1164 141.417 78.6391 141.846C79.1617 142.275 79.4417 142.863 79.4791 143.61H78.2051C78.1771 143.209 78.0137 142.887 77.7151 142.644C77.4257 142.401 77.0337 142.28 76.5391 142.28C76.0817 142.28 75.7177 142.378 75.4471 142.574C75.1764 142.77 75.0411 143.027 75.0411 143.344C75.0411 143.596 75.1204 143.806 75.2791 143.974C75.4471 144.133 75.6524 144.263 75.8951 144.366C76.1471 144.459 76.4924 144.567 76.9311 144.688C77.4817 144.837 77.9297 144.987 78.2751 145.136C78.6204 145.276 78.9144 145.491 79.1571 145.78C79.4091 146.069 79.5397 146.447 79.5491 146.914C79.5491 147.334 79.4324 147.712 79.1991 148.048C78.9657 148.384 78.6344 148.65 78.2051 148.846C77.7851 149.033 77.2997 149.126 76.7491 149.126ZM82.9015 142.378V146.9C82.9015 147.273 82.9809 147.539 83.1395 147.698C83.2982 147.847 83.5735 147.922 83.9655 147.922H84.9035V149H83.7555C83.0462 149 82.5142 148.837 82.1595 148.51C81.8049 148.183 81.6275 147.647 81.6275 146.9V142.378H80.6335V141.328H81.6275V139.396H82.9015V141.328H84.9035V142.378H82.9015ZM91.4536 142.756C91.7149 142.299 92.0976 141.925 92.6016 141.636C93.1056 141.347 93.6796 141.202 94.3236 141.202C95.0142 141.202 95.6349 141.365 96.1856 141.692C96.7362 142.019 97.1702 142.481 97.4876 143.078C97.8049 143.666 97.9636 144.352 97.9636 145.136C97.9636 145.911 97.8049 146.601 97.4876 147.208C97.1702 147.815 96.7316 148.286 96.1716 148.622C95.6209 148.958 95.0049 149.126 94.3236 149.126C93.6609 149.126 93.0776 148.981 92.5736 148.692C92.0789 148.403 91.7056 148.034 91.4536 147.586V149H90.1796V138.64H91.4536V142.756ZM96.6616 145.136C96.6616 144.557 96.5449 144.053 96.3116 143.624C96.0782 143.195 95.7609 142.868 95.3596 142.644C94.9676 142.42 94.5336 142.308 94.0576 142.308C93.5909 142.308 93.1569 142.425 92.7556 142.658C92.3636 142.882 92.0462 143.213 91.8036 143.652C91.5702 144.081 91.4536 144.581 91.4536 145.15C91.4536 145.729 91.5702 146.237 91.8036 146.676C92.0462 147.105 92.3636 147.437 92.7556 147.67C93.1569 147.894 93.5909 148.006 94.0576 148.006C94.5336 148.006 94.9676 147.894 95.3596 147.67C95.7609 147.437 96.0782 147.105 96.3116 146.676C96.5449 146.237 96.6616 145.724 96.6616 145.136ZM102.987 149.126C102.268 149.126 101.615 148.963 101.027 148.636C100.448 148.309 99.9905 147.847 99.6545 147.25C99.3278 146.643 99.1645 145.943 99.1645 145.15C99.1645 144.366 99.3325 143.675 99.6685 143.078C100.014 142.471 100.481 142.009 101.069 141.692C101.657 141.365 102.315 141.202 103.043 141.202C103.771 141.202 104.429 141.365 105.017 141.692C105.605 142.009 106.067 142.467 106.403 143.064C106.748 143.661 106.921 144.357 106.921 145.15C106.921 145.943 106.743 146.643 106.389 147.25C106.043 147.847 105.572 148.309 104.975 148.636C104.377 148.963 103.715 149.126 102.987 149.126ZM102.987 148.006C103.444 148.006 103.873 147.899 104.275 147.684C104.676 147.469 104.998 147.147 105.241 146.718C105.493 146.289 105.619 145.766 105.619 145.15C105.619 144.534 105.497 144.011 105.255 143.582C105.012 143.153 104.695 142.835 104.303 142.63C103.911 142.415 103.486 142.308 103.029 142.308C102.562 142.308 102.133 142.415 101.741 142.63C101.358 142.835 101.05 143.153 100.817 143.582C100.583 144.011 100.467 144.534 100.467 145.15C100.467 145.775 100.579 146.303 100.803 146.732C101.036 147.161 101.344 147.483 101.727 147.698C102.109 147.903 102.529 148.006 102.987 148.006ZM110.15 142.378V146.9C110.15 147.273 110.229 147.539 110.388 147.698C110.546 147.847 110.822 147.922 111.214 147.922H112.152V149H111.004C110.294 149 109.762 148.837 109.408 148.51C109.053 148.183 108.876 147.647 108.876 146.9V142.378H107.882V141.328H108.876V139.396H110.15V141.328H112.152V142.378H110.15Z" fill="#212427"/>
<path d="M349.812 140H348.641C348.561 140 348.486 140.039 348.439 140.103L344 146.222L339.561 140.103C339.514 140.039 339.439 140 339.359 140H338.187C338.086 140 338.027 140.116 338.086 140.198L343.595 147.794C343.795 148.069 344.205 148.069 344.403 147.794L349.912 140.198C349.973 140.116 349.914 140 349.812 140Z" fill="black" fill-opacity="0.25"/>
<path d="M392.172 114.098C391.528 114.098 390.949 113.986 390.436 113.762C389.932 113.529 389.535 113.211 389.246 112.81C388.957 112.399 388.807 111.928 388.798 111.396H390.156C390.203 111.853 390.389 112.241 390.716 112.558C391.052 112.866 391.537 113.02 392.172 113.02C392.779 113.02 393.255 112.871 393.6 112.572C393.955 112.264 394.132 111.872 394.132 111.396C394.132 111.023 394.029 110.719 393.824 110.486C393.619 110.253 393.362 110.075 393.054 109.954C392.746 109.833 392.331 109.702 391.808 109.562C391.164 109.394 390.646 109.226 390.254 109.058C389.871 108.89 389.54 108.629 389.26 108.274C388.989 107.91 388.854 107.425 388.854 106.818C388.854 106.286 388.989 105.815 389.26 105.404C389.531 104.993 389.909 104.676 390.394 104.452C390.889 104.228 391.453 104.116 392.088 104.116C393.003 104.116 393.749 104.345 394.328 104.802C394.916 105.259 395.247 105.866 395.322 106.622H393.922C393.875 106.249 393.679 105.922 393.334 105.642C392.989 105.353 392.531 105.208 391.962 105.208C391.43 105.208 390.996 105.348 390.66 105.628C390.324 105.899 390.156 106.281 390.156 106.776C390.156 107.131 390.254 107.42 390.45 107.644C390.655 107.868 390.903 108.041 391.192 108.162C391.491 108.274 391.906 108.405 392.438 108.554C393.082 108.731 393.6 108.909 393.992 109.086C394.384 109.254 394.72 109.52 395 109.884C395.28 110.239 395.42 110.724 395.42 111.34C395.42 111.816 395.294 112.264 395.042 112.684C394.79 113.104 394.417 113.445 393.922 113.706C393.427 113.967 392.844 114.098 392.172 114.098ZM404.295 109.87C404.295 110.113 404.281 110.369 404.253 110.64H398.121C398.167 111.396 398.424 111.989 398.891 112.418C399.367 112.838 399.941 113.048 400.613 113.048C401.163 113.048 401.621 112.922 401.985 112.67C402.358 112.409 402.619 112.063 402.769 111.634H404.141C403.935 112.371 403.525 112.973 402.909 113.44C402.293 113.897 401.527 114.126 400.613 114.126C399.885 114.126 399.231 113.963 398.653 113.636C398.083 113.309 397.635 112.847 397.309 112.25C396.982 111.643 396.819 110.943 396.819 110.15C396.819 109.357 396.977 108.661 397.295 108.064C397.612 107.467 398.055 107.009 398.625 106.692C399.203 106.365 399.866 106.202 400.613 106.202C401.341 106.202 401.985 106.361 402.545 106.678C403.105 106.995 403.534 107.434 403.833 107.994C404.141 108.545 404.295 109.17 404.295 109.87ZM402.979 109.604C402.979 109.119 402.871 108.703 402.657 108.358C402.442 108.003 402.148 107.737 401.775 107.56C401.411 107.373 401.005 107.28 400.557 107.28C399.913 107.28 399.362 107.485 398.905 107.896C398.457 108.307 398.2 108.876 398.135 109.604H402.979ZM407.25 103.64V114H405.976V103.64H407.25ZM416.422 109.87C416.422 110.113 416.408 110.369 416.38 110.64H410.248C410.294 111.396 410.551 111.989 411.018 112.418C411.494 112.838 412.068 113.048 412.74 113.048C413.29 113.048 413.748 112.922 414.112 112.67C414.485 112.409 414.746 112.063 414.896 111.634H416.268C416.062 112.371 415.652 112.973 415.036 113.44C414.42 113.897 413.654 114.126 412.74 114.126C412.012 114.126 411.358 113.963 410.78 113.636C410.21 113.309 409.762 112.847 409.436 112.25C409.109 111.643 408.946 110.943 408.946 110.15C408.946 109.357 409.104 108.661 409.422 108.064C409.739 107.467 410.182 107.009 410.752 106.692C411.33 106.365 411.993 106.202 412.74 106.202C413.468 106.202 414.112 106.361 414.672 106.678C415.232 106.995 415.661 107.434 415.96 107.994C416.268 108.545 416.422 109.17 416.422 109.87ZM415.106 109.604C415.106 109.119 414.998 108.703 414.784 108.358C414.569 108.003 414.275 107.737 413.902 107.56C413.538 107.373 413.132 107.28 412.684 107.28C412.04 107.28 411.489 107.485 411.032 107.896C410.584 108.307 410.327 108.876 410.262 109.604H415.106ZM417.627 110.15C417.627 109.357 417.786 108.666 418.103 108.078C418.421 107.481 418.859 107.019 419.419 106.692C419.989 106.365 420.637 106.202 421.365 106.202C422.308 106.202 423.083 106.431 423.689 106.888C424.305 107.345 424.711 107.98 424.907 108.792H423.535C423.405 108.325 423.148 107.957 422.765 107.686C422.392 107.415 421.925 107.28 421.365 107.28C420.637 107.28 420.049 107.532 419.601 108.036C419.153 108.531 418.929 109.235 418.929 110.15C418.929 111.074 419.153 111.788 419.601 112.292C420.049 112.796 420.637 113.048 421.365 113.048C421.925 113.048 422.392 112.917 422.765 112.656C423.139 112.395 423.395 112.021 423.535 111.536H424.907C424.702 112.32 424.291 112.95 423.675 113.426C423.059 113.893 422.289 114.126 421.365 114.126C420.637 114.126 419.989 113.963 419.419 113.636C418.859 113.309 418.421 112.847 418.103 112.25C417.786 111.653 417.627 110.953 417.627 110.15ZM428.161 107.378V111.9C428.161 112.273 428.241 112.539 428.399 112.698C428.558 112.847 428.833 112.922 429.225 112.922H430.163V114H429.015C428.306 114 427.774 113.837 427.419 113.51C427.065 113.183 426.887 112.647 426.887 111.9V107.378H425.893V106.328H426.887V104.396H428.161V106.328H430.163V107.378H428.161ZM438.533 114.098C437.889 114.098 437.311 113.986 436.797 113.762C436.293 113.529 435.897 113.211 435.607 112.81C435.318 112.399 435.169 111.928 435.159 111.396H436.517C436.564 111.853 436.751 112.241 437.077 112.558C437.413 112.866 437.899 113.02 438.533 113.02C439.14 113.02 439.616 112.871 439.961 112.572C440.316 112.264 440.493 111.872 440.493 111.396C440.493 111.023 440.391 110.719 440.185 110.486C439.98 110.253 439.723 110.075 439.415 109.954C439.107 109.833 438.692 109.702 438.169 109.562C437.525 109.394 437.007 109.226 436.615 109.058C436.233 108.89 435.901 108.629 435.621 108.274C435.351 107.91 435.215 107.425 435.215 106.818C435.215 106.286 435.351 105.815 435.621 105.404C435.892 104.993 436.27 104.676 436.755 104.452C437.25 104.228 437.815 104.116 438.449 104.116C439.364 104.116 440.111 104.345 440.689 104.802C441.277 105.259 441.609 105.866 441.683 106.622H440.283C440.237 106.249 440.041 105.922 439.695 105.642C439.35 105.353 438.893 105.208 438.323 105.208C437.791 105.208 437.357 105.348 437.021 105.628C436.685 105.899 436.517 106.281 436.517 106.776C436.517 107.131 436.615 107.42 436.811 107.644C437.017 107.868 437.264 108.041 437.553 108.162C437.852 108.274 438.267 108.405 438.799 108.554C439.443 108.731 439.961 108.909 440.353 109.086C440.745 109.254 441.081 109.52 441.361 109.884C441.641 110.239 441.781 110.724 441.781 111.34C441.781 111.816 441.655 112.264 441.403 112.684C441.151 113.104 440.778 113.445 440.283 113.706C439.789 113.967 439.205 114.098 438.533 114.098ZM450.46 106.328V114H449.186V112.866C448.943 113.258 448.603 113.566 448.164 113.79C447.735 114.005 447.259 114.112 446.736 114.112C446.139 114.112 445.602 113.991 445.126 113.748C444.65 113.496 444.272 113.123 443.992 112.628C443.721 112.133 443.586 111.531 443.586 110.822V106.328H444.846V110.654C444.846 111.41 445.037 111.993 445.42 112.404C445.803 112.805 446.325 113.006 446.988 113.006C447.669 113.006 448.206 112.796 448.598 112.376C448.99 111.956 449.186 111.345 449.186 110.542V106.328H450.46ZM453.269 105.082C453.027 105.082 452.821 104.998 452.653 104.83C452.485 104.662 452.401 104.457 452.401 104.214C452.401 103.971 452.485 103.766 452.653 103.598C452.821 103.43 453.027 103.346 453.269 103.346C453.503 103.346 453.699 103.43 453.857 103.598C454.025 103.766 454.109 103.971 454.109 104.214C454.109 104.457 454.025 104.662 453.857 104.83C453.699 104.998 453.503 105.082 453.269 105.082ZM453.885 106.328V114H452.611V106.328H453.885ZM457.611 107.378V111.9C457.611 112.273 457.69 112.539 457.849 112.698C458.007 112.847 458.283 112.922 458.675 112.922H459.613V114H458.465C457.755 114 457.223 113.837 456.869 113.51C456.514 113.183 456.337 112.647 456.337 111.9V107.378H455.343V106.328H456.337V104.396H457.611V106.328H459.613V107.378H457.611ZM468.156 109.87C468.156 110.113 468.142 110.369 468.114 110.64H461.982C462.029 111.396 462.285 111.989 462.752 112.418C463.228 112.838 463.802 113.048 464.474 113.048C465.025 113.048 465.482 112.922 465.846 112.67C466.219 112.409 466.481 112.063 466.63 111.634H468.002C467.797 112.371 467.386 112.973 466.77 113.44C466.154 113.897 465.389 114.126 464.474 114.126C463.746 114.126 463.093 113.963 462.514 113.636C461.945 113.309 461.497 112.847 461.17 112.25C460.843 111.643 460.68 110.943 460.68 110.15C460.68 109.357 460.839 108.661 461.156 108.064C461.473 107.467 461.917 107.009 462.486 106.692C463.065 106.365 463.727 106.202 464.474 106.202C465.202 106.202 465.846 106.361 466.406 106.678C466.966 106.995 467.395 107.434 467.694 107.994C468.002 108.545 468.156 109.17 468.156 109.87ZM466.84 109.604C466.84 109.119 466.733 108.703 466.518 108.358C466.303 108.003 466.009 107.737 465.636 107.56C465.272 107.373 464.866 107.28 464.418 107.28C463.774 107.28 463.223 107.485 462.766 107.896C462.318 108.307 462.061 108.876 461.996 109.604H466.84Z" fill="#212427"/>
<rect x="388.5" y="128.5" width="339" height="31" rx="5.5" stroke="black" stroke-opacity="0.15"/>
<path d="M407.084 139.242V140.278H404.424V149H403.15V140.278H400.476V139.242H407.084ZM415.652 144.87C415.652 145.113 415.638 145.369 415.61 145.64H409.478C409.525 146.396 409.782 146.989 410.248 147.418C410.724 147.838 411.298 148.048 411.97 148.048C412.521 148.048 412.978 147.922 413.342 147.67C413.716 147.409 413.977 147.063 414.126 146.634H415.498C415.293 147.371 414.882 147.973 414.266 148.44C413.65 148.897 412.885 149.126 411.97 149.126C411.242 149.126 410.589 148.963 410.01 148.636C409.441 148.309 408.993 147.847 408.666 147.25C408.34 146.643 408.176 145.943 408.176 145.15C408.176 144.357 408.335 143.661 408.652 143.064C408.97 142.467 409.413 142.009 409.982 141.692C410.561 141.365 411.224 141.202 411.97 141.202C412.698 141.202 413.342 141.361 413.902 141.678C414.462 141.995 414.892 142.434 415.19 142.994C415.498 143.545 415.652 144.17 415.652 144.87ZM414.336 144.604C414.336 144.119 414.229 143.703 414.014 143.358C413.8 143.003 413.506 142.737 413.132 142.56C412.768 142.373 412.362 142.28 411.914 142.28C411.27 142.28 410.72 142.485 410.262 142.896C409.814 143.307 409.558 143.876 409.492 144.604H414.336ZM420.05 149.126C419.462 149.126 418.935 149.028 418.468 148.832C418.001 148.627 417.633 148.347 417.362 147.992C417.091 147.628 416.942 147.213 416.914 146.746H418.23C418.267 147.129 418.445 147.441 418.762 147.684C419.089 147.927 419.513 148.048 420.036 148.048C420.521 148.048 420.904 147.941 421.184 147.726C421.464 147.511 421.604 147.241 421.604 146.914C421.604 146.578 421.455 146.331 421.156 146.172C420.857 146.004 420.395 145.841 419.77 145.682C419.201 145.533 418.734 145.383 418.37 145.234C418.015 145.075 417.707 144.847 417.446 144.548C417.194 144.24 417.068 143.839 417.068 143.344C417.068 142.952 417.185 142.593 417.418 142.266C417.651 141.939 417.983 141.683 418.412 141.496C418.841 141.3 419.331 141.202 419.882 141.202C420.731 141.202 421.417 141.417 421.94 141.846C422.463 142.275 422.743 142.863 422.78 143.61H421.506C421.478 143.209 421.315 142.887 421.016 142.644C420.727 142.401 420.335 142.28 419.84 142.28C419.383 142.28 419.019 142.378 418.748 142.574C418.477 142.77 418.342 143.027 418.342 143.344C418.342 143.596 418.421 143.806 418.58 143.974C418.748 144.133 418.953 144.263 419.196 144.366C419.448 144.459 419.793 144.567 420.232 144.688C420.783 144.837 421.231 144.987 421.576 145.136C421.921 145.276 422.215 145.491 422.458 145.78C422.71 146.069 422.841 146.447 422.85 146.914C422.85 147.334 422.733 147.712 422.5 148.048C422.267 148.384 421.935 148.65 421.506 148.846C421.086 149.033 420.601 149.126 420.05 149.126ZM426.202 142.378V146.9C426.202 147.273 426.282 147.539 426.44 147.698C426.599 147.847 426.874 147.922 427.266 147.922H428.204V149H427.056C426.347 149 425.815 148.837 425.46 148.51C425.106 148.183 424.928 147.647 424.928 146.9V142.378H423.934V141.328H424.928V139.396H426.202V141.328H428.204V142.378H426.202ZM436.196 149.126C435.608 149.126 435.081 149.028 434.614 148.832C434.148 148.627 433.779 148.347 433.508 147.992C433.238 147.628 433.088 147.213 433.06 146.746H434.376C434.414 147.129 434.591 147.441 434.908 147.684C435.235 147.927 435.66 148.048 436.182 148.048C436.668 148.048 437.05 147.941 437.33 147.726C437.61 147.511 437.75 147.241 437.75 146.914C437.75 146.578 437.601 146.331 437.302 146.172C437.004 146.004 436.542 145.841 435.916 145.682C435.347 145.533 434.88 145.383 434.516 145.234C434.162 145.075 433.854 144.847 433.592 144.548C433.34 144.24 433.214 143.839 433.214 143.344C433.214 142.952 433.331 142.593 433.564 142.266C433.798 141.939 434.129 141.683 434.558 141.496C434.988 141.3 435.478 141.202 436.028 141.202C436.878 141.202 437.564 141.417 438.086 141.846C438.609 142.275 438.889 142.863 438.926 143.61H437.652C437.624 143.209 437.461 142.887 437.162 142.644C436.873 142.401 436.481 142.28 435.986 142.28C435.529 142.28 435.165 142.378 434.894 142.574C434.624 142.77 434.488 143.027 434.488 143.344C434.488 143.596 434.568 143.806 434.726 143.974C434.894 144.133 435.1 144.263 435.342 144.366C435.594 144.459 435.94 144.567 436.378 144.688C436.929 144.837 437.377 144.987 437.722 145.136C438.068 145.276 438.362 145.491 438.604 145.78C438.856 146.069 438.987 146.447 438.996 146.914C438.996 147.334 438.88 147.712 438.646 148.048C438.413 148.384 438.082 148.65 437.652 148.846C437.232 149.033 436.747 149.126 436.196 149.126ZM447.599 141.328V149H446.325V147.866C446.082 148.258 445.741 148.566 445.303 148.79C444.873 149.005 444.397 149.112 443.875 149.112C443.277 149.112 442.741 148.991 442.265 148.748C441.789 148.496 441.411 148.123 441.131 147.628C440.86 147.133 440.725 146.531 440.725 145.822V141.328H441.985V145.654C441.985 146.41 442.176 146.993 442.559 147.404C442.941 147.805 443.464 148.006 444.127 148.006C444.808 148.006 445.345 147.796 445.737 147.376C446.129 146.956 446.325 146.345 446.325 145.542V141.328H447.599ZM450.408 140.082C450.165 140.082 449.96 139.998 449.792 139.83C449.624 139.662 449.54 139.457 449.54 139.214C449.54 138.971 449.624 138.766 449.792 138.598C449.96 138.43 450.165 138.346 450.408 138.346C450.641 138.346 450.837 138.43 450.996 138.598C451.164 138.766 451.248 138.971 451.248 139.214C451.248 139.457 451.164 139.662 450.996 139.83C450.837 139.998 450.641 140.082 450.408 140.082ZM451.024 141.328V149H449.75V141.328H451.024ZM454.749 142.378V146.9C454.749 147.273 454.829 147.539 454.987 147.698C455.146 147.847 455.421 147.922 455.813 147.922H456.751V149H455.603C454.894 149 454.362 148.837 454.007 148.51C453.653 148.183 453.475 147.647 453.475 146.9V142.378H452.481V141.328H453.475V139.396H454.749V141.328H456.751V142.378H454.749ZM465.295 144.87C465.295 145.113 465.281 145.369 465.253 145.64H459.121C459.167 146.396 459.424 146.989 459.891 147.418C460.367 147.838 460.941 148.048 461.613 148.048C462.163 148.048 462.621 147.922 462.985 147.67C463.358 147.409 463.619 147.063 463.769 146.634H465.141C464.935 147.371 464.525 147.973 463.909 148.44C463.293 148.897 462.527 149.126 461.613 149.126C460.885 149.126 460.231 148.963 459.653 148.636C459.083 148.309 458.635 147.847 458.309 147.25C457.982 146.643 457.819 145.943 457.819 145.15C457.819 144.357 457.977 143.661 458.295 143.064C458.612 142.467 459.055 142.009 459.625 141.692C460.203 141.365 460.866 141.202 461.613 141.202C462.341 141.202 462.985 141.361 463.545 141.678C464.105 141.995 464.534 142.434 464.833 142.994C465.141 143.545 465.295 144.17 465.295 144.87ZM463.979 144.604C463.979 144.119 463.871 143.703 463.657 143.358C463.442 143.003 463.148 142.737 462.775 142.56C462.411 142.373 462.005 142.28 461.557 142.28C460.913 142.28 460.362 142.485 459.905 142.896C459.457 143.307 459.2 143.876 459.135 144.604H463.979ZM470.163 140.04V138.878H472.795V149H471.507V140.04H470.163Z" fill="#212427"/>
<path d="M713.813 140H712.641C712.561 140 712.486 140.039 712.439 140.103L708 146.222L703.561 140.103C703.514 140.039 703.439 140 703.36 140H702.188C702.086 140 702.027 140.116 702.086 140.198L707.596 147.794C707.796 148.069 708.205 148.069 708.403 147.794L713.913 140.198C713.974 140.116 713.914 140 713.813 140Z" fill="black" fill-opacity="0.25"/>
<path d="M756.172 114.098C755.528 114.098 754.949 113.986 754.436 113.762C753.932 113.529 753.535 113.211 753.246 112.81C752.957 112.399 752.807 111.928 752.798 111.396H754.156C754.203 111.853 754.389 112.241 754.716 112.558C755.052 112.866 755.537 113.02 756.172 113.02C756.779 113.02 757.255 112.871 757.6 112.572C757.955 112.264 758.132 111.872 758.132 111.396C758.132 111.023 758.029 110.719 757.824 110.486C757.619 110.253 757.362 110.075 757.054 109.954C756.746 109.833 756.331 109.702 755.808 109.562C755.164 109.394 754.646 109.226 754.254 109.058C753.871 108.89 753.54 108.629 753.26 108.274C752.989 107.91 752.854 107.425 752.854 106.818C752.854 106.286 752.989 105.815 753.26 105.404C753.531 104.993 753.909 104.676 754.394 104.452C754.889 104.228 755.453 104.116 756.088 104.116C757.003 104.116 757.749 104.345 758.328 104.802C758.916 105.259 759.247 105.866 759.322 106.622H757.922C757.875 106.249 757.679 105.922 757.334 105.642C756.989 105.353 756.531 105.208 755.962 105.208C755.43 105.208 754.996 105.348 754.66 105.628C754.324 105.899 754.156 106.281 754.156 106.776C754.156 107.131 754.254 107.42 754.45 107.644C754.655 107.868 754.903 108.041 755.192 108.162C755.491 108.274 755.906 108.405 756.438 108.554C757.082 108.731 757.6 108.909 757.992 109.086C758.384 109.254 758.72 109.52 759 109.884C759.28 110.239 759.42 110.724 759.42 111.34C759.42 111.816 759.294 112.264 759.042 112.684C758.79 113.104 758.417 113.445 757.922 113.706C757.427 113.967 756.844 114.098 756.172 114.098ZM768.295 109.87C768.295 110.113 768.281 110.369 768.253 110.64H762.121C762.167 111.396 762.424 111.989 762.891 112.418C763.367 112.838 763.941 113.048 764.613 113.048C765.163 113.048 765.621 112.922 765.985 112.67C766.358 112.409 766.619 112.063 766.769 111.634H768.141C767.935 112.371 767.525 112.973 766.909 113.44C766.293 113.897 765.527 114.126 764.613 114.126C763.885 114.126 763.231 113.963 762.653 113.636C762.083 113.309 761.635 112.847 761.309 112.25C760.982 111.643 760.819 110.943 760.819 110.15C760.819 109.357 760.977 108.661 761.295 108.064C761.612 107.467 762.055 107.009 762.625 106.692C763.203 106.365 763.866 106.202 764.613 106.202C765.341 106.202 765.985 106.361 766.545 106.678C767.105 106.995 767.534 107.434 767.833 107.994C768.141 108.545 768.295 109.17 768.295 109.87ZM766.979 109.604C766.979 109.119 766.871 108.703 766.657 108.358C766.442 108.003 766.148 107.737 765.775 107.56C765.411 107.373 765.005 107.28 764.557 107.28C763.913 107.28 763.362 107.485 762.905 107.896C762.457 108.307 762.2 108.876 762.135 109.604H766.979ZM771.25 103.64V114H769.976V103.64H771.25ZM780.422 109.87C780.422 110.113 780.408 110.369 780.38 110.64H774.248C774.294 111.396 774.551 111.989 775.018 112.418C775.494 112.838 776.068 113.048 776.74 113.048C777.29 113.048 777.748 112.922 778.112 112.67C778.485 112.409 778.746 112.063 778.896 111.634H780.268C780.062 112.371 779.652 112.973 779.036 113.44C778.42 113.897 777.654 114.126 776.74 114.126C776.012 114.126 775.358 113.963 774.78 113.636C774.21 113.309 773.762 112.847 773.436 112.25C773.109 111.643 772.946 110.943 772.946 110.15C772.946 109.357 773.104 108.661 773.422 108.064C773.739 107.467 774.182 107.009 774.752 106.692C775.33 106.365 775.993 106.202 776.74 106.202C777.468 106.202 778.112 106.361 778.672 106.678C779.232 106.995 779.661 107.434 779.96 107.994C780.268 108.545 780.422 109.17 780.422 109.87ZM779.106 109.604C779.106 109.119 778.998 108.703 778.784 108.358C778.569 108.003 778.275 107.737 777.902 107.56C777.538 107.373 777.132 107.28 776.684 107.28C776.04 107.28 775.489 107.485 775.032 107.896C774.584 108.307 774.327 108.876 774.262 109.604H779.106ZM781.627 110.15C781.627 109.357 781.786 108.666 782.103 108.078C782.421 107.481 782.859 107.019 783.419 106.692C783.989 106.365 784.637 106.202 785.365 106.202C786.308 106.202 787.083 106.431 787.689 106.888C788.305 107.345 788.711 107.98 788.907 108.792H787.535C787.405 108.325 787.148 107.957 786.765 107.686C786.392 107.415 785.925 107.28 785.365 107.28C784.637 107.28 784.049 107.532 783.601 108.036C783.153 108.531 782.929 109.235 782.929 110.15C782.929 111.074 783.153 111.788 783.601 112.292C784.049 112.796 784.637 113.048 785.365 113.048C785.925 113.048 786.392 112.917 786.765 112.656C787.139 112.395 787.395 112.021 787.535 111.536H788.907C788.702 112.32 788.291 112.95 787.675 113.426C787.059 113.893 786.289 114.126 785.365 114.126C784.637 114.126 783.989 113.963 783.419 113.636C782.859 113.309 782.421 112.847 782.103 112.25C781.786 111.653 781.627 110.953 781.627 110.15ZM792.161 107.378V111.9C792.161 112.273 792.241 112.539 792.399 112.698C792.558 112.847 792.833 112.922 793.225 112.922H794.163V114H793.015C792.306 114 791.774 113.837 791.419 113.51C791.065 113.183 790.887 112.647 790.887 111.9V107.378H789.893V106.328H790.887V104.396H792.161V106.328H794.163V107.378H792.161ZM800.713 105.278V108.54H804.269V109.59H800.713V112.95H804.689V114H799.439V104.228H804.689V105.278H800.713ZM810.355 106.188C811.288 106.188 812.044 106.473 812.623 107.042C813.202 107.602 813.491 108.414 813.491 109.478V114H812.231V109.66C812.231 108.895 812.04 108.311 811.657 107.91C811.274 107.499 810.752 107.294 810.089 107.294C809.417 107.294 808.88 107.504 808.479 107.924C808.087 108.344 807.891 108.955 807.891 109.758V114H806.617V106.328H807.891V107.42C808.143 107.028 808.484 106.725 808.913 106.51C809.352 106.295 809.832 106.188 810.355 106.188ZM818.428 112.824L820.808 106.328H822.166L819.156 114H817.672L814.662 106.328H816.034L818.428 112.824ZM824.078 105.082C823.835 105.082 823.63 104.998 823.462 104.83C823.294 104.662 823.21 104.457 823.21 104.214C823.21 103.971 823.294 103.766 823.462 103.598C823.63 103.43 823.835 103.346 824.078 103.346C824.311 103.346 824.507 103.43 824.666 103.598C824.834 103.766 824.918 103.971 824.918 104.214C824.918 104.457 824.834 104.662 824.666 104.83C824.507 104.998 824.311 105.082 824.078 105.082ZM824.694 106.328V114H823.42V106.328H824.694ZM828.139 107.574C828.363 107.135 828.68 106.795 829.091 106.552C829.511 106.309 830.02 106.188 830.617 106.188V107.504H830.281C828.853 107.504 828.139 108.279 828.139 109.828V114H826.865V106.328H828.139V107.574ZM835.434 114.126C834.715 114.126 834.062 113.963 833.474 113.636C832.895 113.309 832.438 112.847 832.102 112.25C831.775 111.643 831.612 110.943 831.612 110.15C831.612 109.366 831.78 108.675 832.116 108.078C832.461 107.471 832.928 107.009 833.516 106.692C834.104 106.365 834.762 106.202 835.49 106.202C836.218 106.202 836.876 106.365 837.464 106.692C838.052 107.009 838.514 107.467 838.85 108.064C839.195 108.661 839.368 109.357 839.368 110.15C839.368 110.943 839.19 111.643 838.836 112.25C838.49 112.847 838.019 113.309 837.422 113.636C836.824 113.963 836.162 114.126 835.434 114.126ZM835.434 113.006C835.891 113.006 836.32 112.899 836.722 112.684C837.123 112.469 837.445 112.147 837.688 111.718C837.94 111.289 838.066 110.766 838.066 110.15C838.066 109.534 837.944 109.011 837.702 108.582C837.459 108.153 837.142 107.835 836.75 107.63C836.358 107.415 835.933 107.308 835.476 107.308C835.009 107.308 834.58 107.415 834.188 107.63C833.805 107.835 833.497 108.153 833.264 108.582C833.03 109.011 832.914 109.534 832.914 110.15C832.914 110.775 833.026 111.303 833.25 111.732C833.483 112.161 833.791 112.483 834.174 112.698C834.556 112.903 834.976 113.006 835.434 113.006ZM844.781 106.188C845.714 106.188 846.47 106.473 847.049 107.042C847.628 107.602 847.917 108.414 847.917 109.478V114H846.657V109.66C846.657 108.895 846.466 108.311 846.083 107.91C845.7 107.499 845.178 107.294 844.515 107.294C843.843 107.294 843.306 107.504 842.905 107.924C842.513 108.344 842.317 108.955 842.317 109.758V114H841.043V106.328H842.317V107.42C842.569 107.028 842.91 106.725 843.339 106.51C843.778 106.295 844.258 106.188 844.781 106.188ZM859.224 106.188C859.821 106.188 860.353 106.314 860.82 106.566C861.287 106.809 861.655 107.177 861.926 107.672C862.197 108.167 862.332 108.769 862.332 109.478V114H861.072V109.66C861.072 108.895 860.881 108.311 860.498 107.91C860.125 107.499 859.616 107.294 858.972 107.294C858.309 107.294 857.782 107.509 857.39 107.938C856.998 108.358 856.802 108.969 856.802 109.772V114H855.542V109.66C855.542 108.895 855.351 108.311 854.968 107.91C854.595 107.499 854.086 107.294 853.442 107.294C852.779 107.294 852.252 107.509 851.86 107.938C851.468 108.358 851.272 108.969 851.272 109.772V114H849.998V106.328H851.272V107.434C851.524 107.033 851.86 106.725 852.28 106.51C852.709 106.295 853.181 106.188 853.694 106.188C854.338 106.188 854.907 106.333 855.402 106.622C855.897 106.911 856.265 107.336 856.508 107.896C856.723 107.355 857.077 106.935 857.572 106.636C858.067 106.337 858.617 106.188 859.224 106.188ZM871.422 109.87C871.422 110.113 871.408 110.369 871.38 110.64H865.248C865.294 111.396 865.551 111.989 866.018 112.418C866.494 112.838 867.068 113.048 867.74 113.048C868.29 113.048 868.748 112.922 869.112 112.67C869.485 112.409 869.746 112.063 869.896 111.634H871.268C871.062 112.371 870.652 112.973 870.036 113.44C869.42 113.897 868.654 114.126 867.74 114.126C867.012 114.126 866.358 113.963 865.78 113.636C865.21 113.309 864.762 112.847 864.436 112.25C864.109 111.643 863.946 110.943 863.946 110.15C863.946 109.357 864.104 108.661 864.422 108.064C864.739 107.467 865.182 107.009 865.752 106.692C866.33 106.365 866.993 106.202 867.74 106.202C868.468 106.202 869.112 106.361 869.672 106.678C870.232 106.995 870.661 107.434 870.96 107.994C871.268 108.545 871.422 109.17 871.422 109.87ZM870.106 109.604C870.106 109.119 869.998 108.703 869.784 108.358C869.569 108.003 869.275 107.737 868.902 107.56C868.538 107.373 868.132 107.28 867.684 107.28C867.04 107.28 866.489 107.485 866.032 107.896C865.584 108.307 865.327 108.876 865.262 109.604H870.106ZM876.841 106.188C877.775 106.188 878.531 106.473 879.109 107.042C879.688 107.602 879.977 108.414 879.977 109.478V114H878.717V109.66C878.717 108.895 878.526 108.311 878.143 107.91C877.761 107.499 877.238 107.294 876.575 107.294C875.903 107.294 875.367 107.504 874.965 107.924C874.573 108.344 874.377 108.955 874.377 109.758V114H873.103V106.328H874.377V107.42C874.629 107.028 874.97 106.725 875.399 106.51C875.838 106.295 876.319 106.188 876.841 106.188ZM883.612 107.378V111.9C883.612 112.273 883.692 112.539 883.85 112.698C884.009 112.847 884.284 112.922 884.676 112.922H885.614V114H884.466C883.757 114 883.225 113.837 882.87 113.51C882.516 113.183 882.338 112.647 882.338 111.9V107.378H881.344V106.328H882.338V104.396H883.612V106.328H885.614V107.378H883.612Z" fill="#212427"/>
<rect x="752.5" y="128.5" width="339" height="31" rx="5.5" stroke="black" stroke-opacity="0.15"/>
<path d="M766.352 140.278V143.54H769.908V144.59H766.352V147.95H770.328V149H765.078V139.228H770.328V140.278H766.352ZM776.26 149L774.44 146.144L772.69 149H771.36L773.838 145.192L771.36 141.328H772.802L774.622 144.17L776.358 141.328H777.688L775.224 145.122L777.702 149H776.26ZM778.479 145.136C778.479 144.352 778.638 143.666 778.955 143.078C779.272 142.481 779.706 142.019 780.257 141.692C780.817 141.365 781.438 141.202 782.119 141.202C782.791 141.202 783.374 141.347 783.869 141.636C784.364 141.925 784.732 142.289 784.975 142.728V141.328H786.263V149H784.975V147.572C784.723 148.02 784.345 148.393 783.841 148.692C783.346 148.981 782.768 149.126 782.105 149.126C781.424 149.126 780.808 148.958 780.257 148.622C779.706 148.286 779.272 147.815 778.955 147.208C778.638 146.601 778.479 145.911 778.479 145.136ZM784.975 145.15C784.975 144.571 784.858 144.067 784.625 143.638C784.392 143.209 784.074 142.882 783.673 142.658C783.281 142.425 782.847 142.308 782.371 142.308C781.895 142.308 781.461 142.42 781.069 142.644C780.677 142.868 780.364 143.195 780.131 143.624C779.898 144.053 779.781 144.557 779.781 145.136C779.781 145.724 779.898 146.237 780.131 146.676C780.364 147.105 780.677 147.437 781.069 147.67C781.461 147.894 781.895 148.006 782.371 148.006C782.847 148.006 783.281 147.894 783.673 147.67C784.074 147.437 784.392 147.105 784.625 146.676C784.858 146.237 784.975 145.729 784.975 145.15ZM797.642 141.188C798.239 141.188 798.771 141.314 799.238 141.566C799.705 141.809 800.073 142.177 800.344 142.672C800.615 143.167 800.75 143.769 800.75 144.478V149H799.49V144.66C799.49 143.895 799.299 143.311 798.916 142.91C798.543 142.499 798.034 142.294 797.39 142.294C796.727 142.294 796.2 142.509 795.808 142.938C795.416 143.358 795.22 143.969 795.22 144.772V149H793.96V144.66C793.96 143.895 793.769 143.311 793.386 142.91C793.013 142.499 792.504 142.294 791.86 142.294C791.197 142.294 790.67 142.509 790.278 142.938C789.886 143.358 789.69 143.969 789.69 144.772V149H788.416V141.328H789.69V142.434C789.942 142.033 790.278 141.725 790.698 141.51C791.127 141.295 791.599 141.188 792.112 141.188C792.756 141.188 793.325 141.333 793.82 141.622C794.315 141.911 794.683 142.336 794.926 142.896C795.141 142.355 795.495 141.935 795.99 141.636C796.485 141.337 797.035 141.188 797.642 141.188ZM804.114 142.742C804.366 142.303 804.739 141.939 805.234 141.65C805.738 141.351 806.321 141.202 806.984 141.202C807.665 141.202 808.281 141.365 808.832 141.692C809.392 142.019 809.83 142.481 810.148 143.078C810.465 143.666 810.624 144.352 810.624 145.136C810.624 145.911 810.465 146.601 810.148 147.208C809.83 147.815 809.392 148.286 808.832 148.622C808.281 148.958 807.665 149.126 806.984 149.126C806.33 149.126 805.752 148.981 805.248 148.692C804.753 148.393 804.375 148.025 804.114 147.586V152.64H802.84V141.328H804.114V142.742ZM809.322 145.136C809.322 144.557 809.205 144.053 808.972 143.624C808.738 143.195 808.421 142.868 808.02 142.644C807.628 142.42 807.194 142.308 806.718 142.308C806.251 142.308 805.817 142.425 805.416 142.658C805.024 142.882 804.706 143.213 804.464 143.652C804.23 144.081 804.114 144.581 804.114 145.15C804.114 145.729 804.23 146.237 804.464 146.676C804.706 147.105 805.024 147.437 805.416 147.67C805.817 147.894 806.251 148.006 806.718 148.006C807.194 148.006 807.628 147.894 808.02 147.67C808.421 147.437 808.738 147.105 808.972 146.676C809.205 146.237 809.322 145.724 809.322 145.136ZM813.575 138.64V149H812.301V138.64H813.575ZM822.746 144.87C822.746 145.113 822.732 145.369 822.704 145.64H816.572C816.619 146.396 816.875 146.989 817.342 147.418C817.818 147.838 818.392 148.048 819.064 148.048C819.615 148.048 820.072 147.922 820.436 147.67C820.809 147.409 821.071 147.063 821.22 146.634H822.592C822.387 147.371 821.976 147.973 821.36 148.44C820.744 148.897 819.979 149.126 819.064 149.126C818.336 149.126 817.683 148.963 817.104 148.636C816.535 148.309 816.087 147.847 815.76 147.25C815.433 146.643 815.27 145.943 815.27 145.15C815.27 144.357 815.429 143.661 815.746 143.064C816.063 142.467 816.507 142.009 817.076 141.692C817.655 141.365 818.317 141.202 819.064 141.202C819.792 141.202 820.436 141.361 820.996 141.678C821.556 141.995 821.985 142.434 822.284 142.994C822.592 143.545 822.746 144.17 822.746 144.87ZM821.43 144.604C821.43 144.119 821.323 143.703 821.108 143.358C820.893 143.003 820.599 142.737 820.226 142.56C819.862 142.373 819.456 142.28 819.008 142.28C818.364 142.28 817.813 142.485 817.356 142.896C816.908 143.307 816.651 143.876 816.586 144.604H821.43ZM831.436 151.604C830.54 150.727 829.84 149.611 829.336 148.258C828.841 146.905 828.594 145.444 828.594 143.876C828.594 142.271 828.855 140.773 829.378 139.382C829.91 137.982 830.666 136.829 831.646 135.924H832.976V136.05C831.931 137.03 831.142 138.211 830.61 139.592C830.087 140.964 829.826 142.392 829.826 143.876C829.826 145.323 830.073 146.704 830.568 148.02C831.072 149.336 831.805 150.489 832.766 151.478V151.604H831.436ZM844.737 141.328L842.343 149H841.027L839.179 142.91L837.331 149H836.015L833.607 141.328H834.909L836.673 147.768L838.577 141.328H839.879L841.741 147.782L843.477 141.328H844.737ZM856.222 141.328L853.828 149H852.512L850.664 142.91L848.816 149H847.5L845.092 141.328H846.394L848.158 147.768L850.062 141.328H851.364L853.226 147.782L854.962 141.328H856.222ZM867.706 141.328L865.312 149H863.996L862.148 142.91L860.3 149H858.984L856.576 141.328H857.878L859.642 147.768L861.546 141.328H862.848L864.71 147.782L866.446 141.328H867.706ZM869.377 149.084C869.134 149.084 868.929 149 868.761 148.832C868.593 148.664 868.509 148.459 868.509 148.216C868.509 147.973 868.593 147.768 868.761 147.6C868.929 147.432 869.134 147.348 869.377 147.348C869.61 147.348 869.806 147.432 869.965 147.6C870.133 147.768 870.217 147.973 870.217 148.216C870.217 148.459 870.133 148.664 869.965 148.832C869.806 149 869.61 149.084 869.377 149.084ZM878.91 144.87C878.91 145.113 878.896 145.369 878.868 145.64H872.736C872.783 146.396 873.039 146.989 873.506 147.418C873.982 147.838 874.556 148.048 875.228 148.048C875.779 148.048 876.236 147.922 876.6 147.67C876.973 147.409 877.235 147.063 877.384 146.634H878.756C878.551 147.371 878.14 147.973 877.524 148.44C876.908 148.897 876.143 149.126 875.228 149.126C874.5 149.126 873.847 148.963 873.268 148.636C872.699 148.309 872.251 147.847 871.924 147.25C871.597 146.643 871.434 145.943 871.434 145.15C871.434 144.357 871.593 143.661 871.91 143.064C872.227 142.467 872.671 142.009 873.24 141.692C873.819 141.365 874.481 141.202 875.228 141.202C875.956 141.202 876.6 141.361 877.16 141.678C877.72 141.995 878.149 142.434 878.448 142.994C878.756 143.545 878.91 144.17 878.91 144.87ZM877.594 144.604C877.594 144.119 877.487 143.703 877.272 143.358C877.057 143.003 876.763 142.737 876.39 142.56C876.026 142.373 875.62 142.28 875.172 142.28C874.528 142.28 873.977 142.485 873.52 142.896C873.072 143.307 872.815 143.876 872.75 144.604H877.594ZM884.596 149L882.776 146.144L881.026 149H879.696L882.174 145.192L879.696 141.328H881.138L882.958 144.17L884.694 141.328H886.024L883.56 145.122L886.038 149H884.596ZM886.815 145.136C886.815 144.352 886.974 143.666 887.291 143.078C887.608 142.481 888.042 142.019 888.593 141.692C889.153 141.365 889.774 141.202 890.455 141.202C891.127 141.202 891.71 141.347 892.205 141.636C892.7 141.925 893.068 142.289 893.311 142.728V141.328H894.599V149H893.311V147.572C893.059 148.02 892.681 148.393 892.177 148.692C891.682 148.981 891.104 149.126 890.441 149.126C889.76 149.126 889.144 148.958 888.593 148.622C888.042 148.286 887.608 147.815 887.291 147.208C886.974 146.601 886.815 145.911 886.815 145.136ZM893.311 145.15C893.311 144.571 893.194 144.067 892.961 143.638C892.728 143.209 892.41 142.882 892.009 142.658C891.617 142.425 891.183 142.308 890.707 142.308C890.231 142.308 889.797 142.42 889.405 142.644C889.013 142.868 888.7 143.195 888.467 143.624C888.234 144.053 888.117 144.557 888.117 145.136C888.117 145.724 888.234 146.237 888.467 146.676C888.7 147.105 889.013 147.437 889.405 147.67C889.797 147.894 890.231 148.006 890.707 148.006C891.183 148.006 891.617 147.894 892.009 147.67C892.41 147.437 892.728 147.105 892.961 146.676C893.194 146.237 893.311 145.729 893.311 145.15ZM905.978 141.188C906.575 141.188 907.107 141.314 907.574 141.566C908.04 141.809 908.409 142.177 908.68 142.672C908.95 143.167 909.086 143.769 909.086 144.478V149H907.826V144.66C907.826 143.895 907.634 143.311 907.252 142.91C906.878 142.499 906.37 142.294 905.726 142.294C905.063 142.294 904.536 142.509 904.144 142.938C903.752 143.358 903.556 143.969 903.556 144.772V149H902.296V144.66C902.296 143.895 902.104 143.311 901.722 142.91C901.348 142.499 900.84 142.294 900.196 142.294C899.533 142.294 899.006 142.509 898.614 142.938C898.222 143.358 898.026 143.969 898.026 144.772V149H896.752V141.328H898.026V142.434C898.278 142.033 898.614 141.725 899.034 141.51C899.463 141.295 899.934 141.188 900.448 141.188C901.092 141.188 901.661 141.333 902.156 141.622C902.65 141.911 903.019 142.336 903.262 142.896C903.476 142.355 903.831 141.935 904.326 141.636C904.82 141.337 905.371 141.188 905.978 141.188ZM912.45 142.742C912.702 142.303 913.075 141.939 913.57 141.65C914.074 141.351 914.657 141.202 915.32 141.202C916.001 141.202 916.617 141.365 917.168 141.692C917.728 142.019 918.166 142.481 918.484 143.078C918.801 143.666 918.96 144.352 918.96 145.136C918.96 145.911 918.801 146.601 918.484 147.208C918.166 147.815 917.728 148.286 917.168 148.622C916.617 148.958 916.001 149.126 915.32 149.126C914.666 149.126 914.088 148.981 913.584 148.692C913.089 148.393 912.711 148.025 912.45 147.586V152.64H911.176V141.328H912.45V142.742ZM917.658 145.136C917.658 144.557 917.541 144.053 917.308 143.624C917.074 143.195 916.757 142.868 916.356 142.644C915.964 142.42 915.53 142.308 915.054 142.308C914.587 142.308 914.153 142.425 913.752 142.658C913.36 142.882 913.042 143.213 912.8 143.652C912.566 144.081 912.45 144.581 912.45 145.15C912.45 145.729 912.566 146.237 912.8 146.676C913.042 147.105 913.36 147.437 913.752 147.67C914.153 147.894 914.587 148.006 915.054 148.006C915.53 148.006 915.964 147.894 916.356 147.67C916.757 147.437 917.074 147.105 917.308 146.676C917.541 146.237 917.658 145.724 917.658 145.136ZM921.911 138.64V149H920.637V138.64H921.911ZM931.082 144.87C931.082 145.113 931.068 145.369 931.04 145.64H924.908C924.955 146.396 925.211 146.989 925.678 147.418C926.154 147.838 926.728 148.048 927.4 148.048C927.951 148.048 928.408 147.922 928.772 147.67C929.145 147.409 929.407 147.063 929.556 146.634H930.928C930.723 147.371 930.312 147.973 929.696 148.44C929.08 148.897 928.315 149.126 927.4 149.126C926.672 149.126 926.019 148.963 925.44 148.636C924.871 148.309 924.423 147.847 924.096 147.25C923.769 146.643 923.606 145.943 923.606 145.15C923.606 144.357 923.765 143.661 924.082 143.064C924.399 142.467 924.843 142.009 925.412 141.692C925.991 141.365 926.653 141.202 927.4 141.202C928.128 141.202 928.772 141.361 929.332 141.678C929.892 141.995 930.321 142.434 930.62 142.994C930.928 143.545 931.082 144.17 931.082 144.87ZM929.766 144.604C929.766 144.119 929.659 143.703 929.444 143.358C929.229 143.003 928.935 142.737 928.562 142.56C928.198 142.373 927.792 142.28 927.344 142.28C926.7 142.28 926.149 142.485 925.692 142.896C925.244 143.307 924.987 143.876 924.922 144.604H929.766ZM933.17 149.084C932.927 149.084 932.722 149 932.554 148.832C932.386 148.664 932.302 148.459 932.302 148.216C932.302 147.973 932.386 147.768 932.554 147.6C932.722 147.432 932.927 147.348 933.17 147.348C933.403 147.348 933.599 147.432 933.758 147.6C933.926 147.768 934.01 147.973 934.01 148.216C934.01 148.459 933.926 148.664 933.758 148.832C933.599 149 933.403 149.084 933.17 149.084ZM936.977 142.756C937.238 142.299 937.621 141.925 938.125 141.636C938.629 141.347 939.203 141.202 939.847 141.202C940.538 141.202 941.158 141.365 941.709 141.692C942.26 142.019 942.694 142.481 943.011 143.078C943.328 143.666 943.487 144.352 943.487 145.136C943.487 145.911 943.328 146.601 943.011 147.208C942.694 147.815 942.255 148.286 941.695 148.622C941.144 148.958 940.528 149.126 939.847 149.126C939.184 149.126 938.601 148.981 938.097 148.692C937.602 148.403 937.229 148.034 936.977 147.586V149H935.703V138.64H936.977V142.756ZM942.185 145.136C942.185 144.557 942.068 144.053 941.835 143.624C941.602 143.195 941.284 142.868 940.883 142.644C940.491 142.42 940.057 142.308 939.581 142.308C939.114 142.308 938.68 142.425 938.279 142.658C937.887 142.882 937.57 143.213 937.327 143.652C937.094 144.081 936.977 144.581 936.977 145.15C936.977 145.729 937.094 146.237 937.327 146.676C937.57 147.105 937.887 147.437 938.279 147.67C938.68 147.894 939.114 148.006 939.581 148.006C940.057 148.006 940.491 147.894 940.883 147.67C941.284 147.437 941.602 147.105 941.835 146.676C942.068 146.237 942.185 145.724 942.185 145.136ZM948.51 149.126C947.791 149.126 947.138 148.963 946.55 148.636C945.971 148.309 945.514 147.847 945.178 147.25C944.851 146.643 944.688 145.943 944.688 145.15C944.688 144.366 944.856 143.675 945.192 143.078C945.537 142.471 946.004 142.009 946.592 141.692C947.18 141.365 947.838 141.202 948.566 141.202C949.294 141.202 949.952 141.365 950.54 141.692C951.128 142.009 951.59 142.467 951.926 143.064C952.271 143.661 952.444 144.357 952.444 145.15C952.444 145.943 952.267 146.643 951.912 147.25C951.567 147.847 951.095 148.309 950.498 148.636C949.901 148.963 949.238 149.126 948.51 149.126ZM948.51 148.006C948.967 148.006 949.397 147.899 949.798 147.684C950.199 147.469 950.521 147.147 950.764 146.718C951.016 146.289 951.142 145.766 951.142 145.15C951.142 144.534 951.021 144.011 950.778 143.582C950.535 143.153 950.218 142.835 949.826 142.63C949.434 142.415 949.009 142.308 948.552 142.308C948.085 142.308 947.656 142.415 947.264 142.63C946.881 142.835 946.573 143.153 946.34 143.582C946.107 144.011 945.99 144.534 945.99 145.15C945.99 145.775 946.102 146.303 946.326 146.732C946.559 147.161 946.867 147.483 947.25 147.698C947.633 147.903 948.053 148.006 948.51 148.006ZM955.673 142.378V146.9C955.673 147.273 955.752 147.539 955.911 147.698C956.07 147.847 956.345 147.922 956.737 147.922H957.675V149H956.527C955.818 149 955.286 148.837 954.931 148.51C954.576 148.183 954.399 147.647 954.399 146.9V142.378H953.405V141.328H954.399V139.396H955.673V141.328H957.675V142.378H955.673ZM960.773 142.378V146.9C960.773 147.273 960.852 147.539 961.011 147.698C961.169 147.847 961.445 147.922 961.837 147.922H962.775V149H961.627C960.917 149 960.385 148.837 960.031 148.51C959.676 148.183 959.499 147.647 959.499 146.9V142.378H958.505V141.328H959.499V139.396H960.773V141.328H962.775V142.378H960.773ZM971.318 144.87C971.318 145.113 971.304 145.369 971.276 145.64H965.144C965.191 146.396 965.448 146.989 965.914 147.418C966.39 147.838 966.964 148.048 967.636 148.048C968.187 148.048 968.644 147.922 969.008 147.67C969.382 147.409 969.643 147.063 969.792 146.634H971.164C970.959 147.371 970.548 147.973 969.932 148.44C969.316 148.897 968.551 149.126 967.636 149.126C966.908 149.126 966.255 148.963 965.676 148.636C965.107 148.309 964.659 147.847 964.332 147.25C964.006 146.643 963.842 145.943 963.842 145.15C963.842 144.357 964.001 143.661 964.318 143.064C964.636 142.467 965.079 142.009 965.648 141.692C966.227 141.365 966.89 141.202 967.636 141.202C968.364 141.202 969.008 141.361 969.568 141.678C970.128 141.995 970.558 142.434 970.856 142.994C971.164 143.545 971.318 144.17 971.318 144.87ZM970.002 144.604C970.002 144.119 969.895 143.703 969.68 143.358C969.466 143.003 969.172 142.737 968.798 142.56C968.434 142.373 968.028 142.28 967.58 142.28C966.936 142.28 966.386 142.485 965.928 142.896C965.48 143.307 965.224 143.876 965.158 144.604H970.002ZM975.716 149.126C975.128 149.126 974.601 149.028 974.134 148.832C973.667 148.627 973.299 148.347 973.028 147.992C972.757 147.628 972.608 147.213 972.58 146.746H973.896C973.933 147.129 974.111 147.441 974.428 147.684C974.755 147.927 975.179 148.048 975.702 148.048C976.187 148.048 976.57 147.941 976.85 147.726C977.13 147.511 977.27 147.241 977.27 146.914C977.27 146.578 977.121 146.331 976.822 146.172C976.523 146.004 976.061 145.841 975.436 145.682C974.867 145.533 974.4 145.383 974.036 145.234C973.681 145.075 973.373 144.847 973.112 144.548C972.86 144.24 972.734 143.839 972.734 143.344C972.734 142.952 972.851 142.593 973.084 142.266C973.317 141.939 973.649 141.683 974.078 141.496C974.507 141.3 974.997 141.202 975.548 141.202C976.397 141.202 977.083 141.417 977.606 141.846C978.129 142.275 978.409 142.863 978.446 143.61H977.172C977.144 143.209 976.981 142.887 976.682 142.644C976.393 142.401 976.001 142.28 975.506 142.28C975.049 142.28 974.685 142.378 974.414 142.574C974.143 142.77 974.008 143.027 974.008 143.344C974.008 143.596 974.087 143.806 974.246 143.974C974.414 144.133 974.619 144.263 974.862 144.366C975.114 144.459 975.459 144.567 975.898 144.688C976.449 144.837 976.897 144.987 977.242 145.136C977.587 145.276 977.881 145.491 978.124 145.78C978.376 146.069 978.507 146.447 978.516 146.914C978.516 147.334 978.399 147.712 978.166 148.048C977.933 148.384 977.601 148.65 977.172 148.846C976.752 149.033 976.267 149.126 975.716 149.126ZM981.868 142.378V146.9C981.868 147.273 981.948 147.539 982.106 147.698C982.265 147.847 982.54 147.922 982.932 147.922H983.87V149H982.722C982.013 149 981.481 148.837 981.126 148.51C980.772 148.183 980.594 147.647 980.594 146.9V142.378H979.6V141.328H980.594V139.396H981.868V141.328H983.87V142.378H981.868ZM985.82 149.084C985.577 149.084 985.372 149 985.204 148.832C985.036 148.664 984.952 148.459 984.952 148.216C984.952 147.973 985.036 147.768 985.204 147.6C985.372 147.432 985.577 147.348 985.82 147.348C986.053 147.348 986.249 147.432 986.408 147.6C986.576 147.768 986.66 147.973 986.66 148.216C986.66 148.459 986.576 148.664 986.408 148.832C986.249 149 986.053 149.084 985.82 149.084ZM988.759 149.084C988.517 149.084 988.311 149 988.143 148.832C987.975 148.664 987.891 148.459 987.891 148.216C987.891 147.973 987.975 147.768 988.143 147.6C988.311 147.432 988.517 147.348 988.759 147.348C988.993 147.348 989.189 147.432 989.347 147.6C989.515 147.768 989.599 147.973 989.599 148.216C989.599 148.459 989.515 148.664 989.347 148.832C989.189 149 988.993 149.084 988.759 149.084ZM991.699 149.084C991.456 149.084 991.251 149 991.083 148.832C990.915 148.664 990.831 148.459 990.831 148.216C990.831 147.973 990.915 147.768 991.083 147.6C991.251 147.432 991.456 147.348 991.699 147.348C991.932 147.348 992.128 147.432 992.287 147.6C992.455 147.768 992.539 147.973 992.539 148.216C992.539 148.459 992.455 148.664 992.287 148.832C992.128 149 991.932 149.084 991.699 149.084ZM993.826 151.604V151.478C994.788 150.489 995.516 149.336 996.01 148.02C996.514 146.704 996.766 145.323 996.766 143.876C996.766 142.392 996.5 140.964 995.968 139.592C995.446 138.211 994.662 137.03 993.616 136.05V135.924H994.946C995.926 136.829 996.678 137.982 997.2 139.382C997.732 140.773 997.998 142.271 997.998 143.876C997.998 145.444 997.746 146.905 997.242 148.258C996.748 149.611 996.052 150.727 995.156 151.604H993.826Z" fill="#212427"/>
<path d="M1077.81 140H1076.64C1076.56 140 1076.49 140.039 1076.44 140.103L1072 146.222L1067.56 140.103C1067.51 140.039 1067.44 140 1067.36 140H1066.19C1066.09 140 1066.03 140.116 1066.09 140.198L1071.6 147.794C1071.8 148.069 1072.2 148.069 1072.4 147.794L1077.91 140.198C1077.97 140.116 1077.91 140 1077.81 140Z" fill="black" fill-opacity="0.25"/>
</svg>
