<svg width="1116" height="72" viewBox="0 0 1116 72" fill="none" xmlns="http://www.w3.org/2000/svg">
<mask id="path-1-inside-1_266_6414" fill="white">
<path d="M0 0H1116V72H0V0Z"/>
</mask>
<path d="M1116 71H0V73H1116V71Z" fill="black" fill-opacity="0.06" mask="url(#path-1-inside-1_266_6414)"/>
<path d="M24 26C24 22.6863 26.6863 20 30 20H110V52H30C26.6863 52 24 49.3137 24 46V26Z" fill="black" fill-opacity="0.04"/>
<path d="M110.5 20V19.5H110H30C26.4101 19.5 23.5 22.4101 23.5 26V46C23.5 49.5899 26.4101 52.5 30 52.5H110H110.5V52V20Z" stroke="black" stroke-opacity="0.15"/>
<path d="M49.142 31.242L45.46 41H43.99L40.308 31.242H41.666L44.732 39.656L47.798 31.242H49.142ZM51.1969 32.082C50.9543 32.082 50.7489 31.998 50.5809 31.83C50.4129 31.662 50.3289 31.4567 50.3289 31.214C50.3289 30.9713 50.4129 30.766 50.5809 30.598C50.7489 30.43 50.9543 30.346 51.1969 30.346C51.4303 30.346 51.6263 30.43 51.7849 30.598C51.9529 30.766 52.0369 30.9713 52.0369 31.214C52.0369 31.4567 51.9529 31.662 51.7849 31.83C51.6263 31.998 51.4303 32.082 51.1969 32.082ZM51.8129 33.328V41H50.5389V33.328H51.8129ZM60.9843 36.87C60.9843 37.1127 60.9703 37.3693 60.9423 37.64H54.8103C54.8569 38.396 55.1136 38.9887 55.5803 39.418C56.0563 39.838 56.6303 40.048 57.3023 40.048C57.8529 40.048 58.3103 39.922 58.6743 39.67C59.0476 39.4087 59.3089 39.0633 59.4583 38.634H60.8303C60.6249 39.3713 60.2143 39.9733 59.5983 40.44C58.9823 40.8973 58.2169 41.126 57.3023 41.126C56.5743 41.126 55.9209 40.9627 55.3423 40.636C54.7729 40.3093 54.3249 39.8473 53.9983 39.25C53.6716 38.6433 53.5083 37.9433 53.5083 37.15C53.5083 36.3567 53.6669 35.6613 53.9843 35.064C54.3016 34.4667 54.7449 34.0093 55.3143 33.692C55.8929 33.3653 56.5556 33.202 57.3023 33.202C58.0303 33.202 58.6743 33.3607 59.2343 33.678C59.7943 33.9953 60.2236 34.434 60.5223 34.994C60.8303 35.5447 60.9843 36.17 60.9843 36.87ZM59.6683 36.604C59.6683 36.1187 59.5609 35.7033 59.3463 35.358C59.1316 35.0033 58.8376 34.7373 58.4643 34.56C58.1003 34.3733 57.6943 34.28 57.2463 34.28C56.6023 34.28 56.0516 34.4853 55.5943 34.896C55.1463 35.3067 54.8896 35.876 54.8243 36.604H59.6683ZM72.8859 33.328L70.4919 41H69.1759L67.3279 34.91L65.4799 41H64.1639L61.7559 33.328H63.0579L64.8219 39.768L66.7259 33.328H68.0279L69.8899 39.782L71.6259 33.328H72.8859ZM77.4067 37.136C77.4067 36.352 77.5654 35.666 77.8827 35.078C78.2 34.4807 78.634 34.0187 79.1847 33.692C79.7447 33.3653 80.3654 33.202 81.0467 33.202C81.7187 33.202 82.302 33.3467 82.7967 33.636C83.2914 33.9253 83.66 34.2893 83.9027 34.728V33.328H85.1907V41H83.9027V39.572C83.6507 40.02 83.2727 40.3933 82.7687 40.692C82.274 40.9813 81.6954 41.126 81.0327 41.126C80.3514 41.126 79.7354 40.958 79.1847 40.622C78.634 40.286 78.2 39.8147 77.8827 39.208C77.5654 38.6013 77.4067 37.9107 77.4067 37.136ZM83.9027 37.15C83.9027 36.5713 83.786 36.0673 83.5527 35.638C83.3194 35.2087 83.002 34.882 82.6007 34.658C82.2087 34.4247 81.7747 34.308 81.2987 34.308C80.8227 34.308 80.3887 34.42 79.9967 34.644C79.6047 34.868 79.292 35.1947 79.0587 35.624C78.8254 36.0533 78.7087 36.5573 78.7087 37.136C78.7087 37.724 78.8254 38.2373 79.0587 38.676C79.292 39.1053 79.6047 39.4367 79.9967 39.67C80.3887 39.894 80.8227 40.006 81.2987 40.006C81.7747 40.006 82.2087 39.894 82.6007 39.67C83.002 39.4367 83.3194 39.1053 83.5527 38.676C83.786 38.2373 83.9027 37.7287 83.9027 37.15ZM88.6176 30.64V41H87.3436V30.64H88.6176ZM92.0629 30.64V41H90.7889V30.64H92.0629Z" fill="#212427"/>
<mask id="path-6-outside-2_266_6414" maskUnits="userSpaceOnUse" x="111" y="19" width="75" height="34" fill="black">
<rect fill="white" x="111" y="19" width="75" height="34"/>
<path d="M111 20H185V52H111V20Z"/>
</mask>
<path d="M185 20H186V19H185V20ZM185 52V53H186V52H185ZM111 21H185V19H111V21ZM184 20V52H186V20H184ZM185 51H111V53H185V51Z" fill="black" fill-opacity="0.15" mask="url(#path-6-outside-2_266_6414)"/>
<path d="M133.594 31.242V32.278H129.352V35.568H132.796V36.604H129.352V41H128.078V31.242H133.594ZM134.657 37.136C134.657 36.352 134.815 35.666 135.133 35.078C135.45 34.4807 135.884 34.0187 136.435 33.692C136.995 33.3653 137.615 33.202 138.297 33.202C138.969 33.202 139.552 33.3467 140.047 33.636C140.541 33.9253 140.91 34.2893 141.153 34.728V33.328H142.441V41H141.153V39.572C140.901 40.02 140.523 40.3933 140.019 40.692C139.524 40.9813 138.945 41.126 138.283 41.126C137.601 41.126 136.985 40.958 136.435 40.622C135.884 40.286 135.45 39.8147 135.133 39.208C134.815 38.6013 134.657 37.9107 134.657 37.136ZM141.153 37.15C141.153 36.5713 141.036 36.0673 140.803 35.638C140.569 35.2087 140.252 34.882 139.851 34.658C139.459 34.4247 139.025 34.308 138.549 34.308C138.073 34.308 137.639 34.42 137.247 34.644C136.855 34.868 136.542 35.1947 136.309 35.624C136.075 36.0533 135.959 36.5573 135.959 37.136C135.959 37.724 136.075 38.2373 136.309 38.676C136.542 39.1053 136.855 39.4367 137.247 39.67C137.639 39.894 138.073 40.006 138.549 40.006C139.025 40.006 139.459 39.894 139.851 39.67C140.252 39.4367 140.569 39.1053 140.803 38.676C141.036 38.2373 141.153 37.7287 141.153 37.15ZM145.252 32.082C145.009 32.082 144.804 31.998 144.636 31.83C144.468 31.662 144.384 31.4567 144.384 31.214C144.384 30.9713 144.468 30.766 144.636 30.598C144.804 30.43 145.009 30.346 145.252 30.346C145.485 30.346 145.681 30.43 145.84 30.598C146.008 30.766 146.092 30.9713 146.092 31.214C146.092 31.4567 146.008 31.662 145.84 31.83C145.681 31.998 145.485 32.082 145.252 32.082ZM145.868 33.328V41H144.594V33.328H145.868ZM149.313 30.64V41H148.039V30.64H149.313ZM158.484 36.87C158.484 37.1127 158.47 37.3693 158.442 37.64H152.31C152.357 38.396 152.614 38.9887 153.08 39.418C153.556 39.838 154.13 40.048 154.802 40.048C155.353 40.048 155.81 39.922 156.174 39.67C156.548 39.4087 156.809 39.0633 156.958 38.634H158.33C158.125 39.3713 157.714 39.9733 157.098 40.44C156.482 40.8973 155.717 41.126 154.802 41.126C154.074 41.126 153.421 40.9627 152.842 40.636C152.273 40.3093 151.825 39.8473 151.498 39.25C151.172 38.6433 151.008 37.9433 151.008 37.15C151.008 36.3567 151.167 35.6613 151.484 35.064C151.802 34.4667 152.245 34.0093 152.814 33.692C153.393 33.3653 154.056 33.202 154.802 33.202C155.53 33.202 156.174 33.3607 156.734 33.678C157.294 33.9953 157.724 34.434 158.022 34.994C158.33 35.5447 158.484 36.17 158.484 36.87ZM157.168 36.604C157.168 36.1187 157.061 35.7033 156.846 35.358C156.632 35.0033 156.338 34.7373 155.964 34.56C155.6 34.3733 155.194 34.28 154.746 34.28C154.102 34.28 153.552 34.4853 153.094 34.896C152.646 35.3067 152.39 35.876 152.324 36.604H157.168ZM159.69 37.136C159.69 36.352 159.849 35.666 160.166 35.078C160.483 34.4807 160.917 34.0187 161.468 33.692C162.028 33.3653 162.653 33.202 163.344 33.202C163.941 33.202 164.497 33.342 165.01 33.622C165.523 33.8927 165.915 34.252 166.186 34.7V30.64H167.474V41H166.186V39.558C165.934 40.0153 165.561 40.3933 165.066 40.692C164.571 40.9813 163.993 41.126 163.33 41.126C162.649 41.126 162.028 40.958 161.468 40.622C160.917 40.286 160.483 39.8147 160.166 39.208C159.849 38.6013 159.69 37.9107 159.69 37.136ZM166.186 37.15C166.186 36.5713 166.069 36.0673 165.836 35.638C165.603 35.2087 165.285 34.882 164.884 34.658C164.492 34.4247 164.058 34.308 163.582 34.308C163.106 34.308 162.672 34.42 162.28 34.644C161.888 34.868 161.575 35.1947 161.342 35.624C161.109 36.0533 160.992 36.5573 160.992 37.136C160.992 37.724 161.109 38.2373 161.342 38.676C161.575 39.1053 161.888 39.4367 162.28 39.67C162.672 39.894 163.106 40.006 163.582 40.006C164.058 40.006 164.492 39.894 164.884 39.67C165.285 39.4367 165.603 39.1053 165.836 38.676C166.069 38.2373 166.186 37.7287 166.186 37.15Z" fill="#212427"/>
<mask id="path-9-outside-3_266_6414" maskUnits="userSpaceOnUse" x="186" y="19" width="84" height="34" fill="black">
<rect fill="white" x="186" y="19" width="84" height="34"/>
<path d="M186 20H269V52H186V20Z"/>
</mask>
<path d="M269 20H270V19H269V20ZM269 52V53H270V52H269ZM186 21H269V19H186V21ZM268 20V52H270V20H268ZM269 51H186V53H269V51Z" fill="black" fill-opacity="0.15" mask="url(#path-9-outside-3_266_6414)"/>
<path d="M209.602 34.098C209.602 34.91 209.322 35.5867 208.762 36.128C208.211 36.66 207.367 36.926 206.228 36.926H204.352V41H203.078V31.242H206.228C207.329 31.242 208.165 31.508 208.734 32.04C209.313 32.572 209.602 33.258 209.602 34.098ZM206.228 35.876C206.937 35.876 207.46 35.722 207.796 35.414C208.132 35.106 208.3 34.6673 208.3 34.098C208.3 32.894 207.609 32.292 206.228 32.292H204.352V35.876H206.228ZM210.709 37.136C210.709 36.352 210.868 35.666 211.185 35.078C211.503 34.4807 211.937 34.0187 212.487 33.692C213.047 33.3653 213.668 33.202 214.349 33.202C215.021 33.202 215.605 33.3467 216.099 33.636C216.594 33.9253 216.963 34.2893 217.205 34.728V33.328H218.493V41H217.205V39.572C216.953 40.02 216.575 40.3933 216.071 40.692C215.577 40.9813 214.998 41.126 214.335 41.126C213.654 41.126 213.038 40.958 212.487 40.622C211.937 40.286 211.503 39.8147 211.185 39.208C210.868 38.6013 210.709 37.9107 210.709 37.136ZM217.205 37.15C217.205 36.5713 217.089 36.0673 216.855 35.638C216.622 35.2087 216.305 34.882 215.903 34.658C215.511 34.4247 215.077 34.308 214.601 34.308C214.125 34.308 213.691 34.42 213.299 34.644C212.907 34.868 212.595 35.1947 212.361 35.624C212.128 36.0533 212.011 36.5573 212.011 37.136C212.011 37.724 212.128 38.2373 212.361 38.676C212.595 39.1053 212.907 39.4367 213.299 39.67C213.691 39.894 214.125 40.006 214.601 40.006C215.077 40.006 215.511 39.894 215.903 39.67C216.305 39.4367 216.622 39.1053 216.855 38.676C217.089 38.2373 217.205 37.7287 217.205 37.15ZM223.362 41.126C222.774 41.126 222.247 41.028 221.78 40.832C221.314 40.6267 220.945 40.3467 220.674 39.992C220.404 39.628 220.254 39.2127 220.226 38.746H221.542C221.58 39.1287 221.757 39.4413 222.074 39.684C222.401 39.9267 222.826 40.048 223.348 40.048C223.834 40.048 224.216 39.9407 224.496 39.726C224.776 39.5113 224.916 39.2407 224.916 38.914C224.916 38.578 224.767 38.3307 224.468 38.172C224.17 38.004 223.708 37.8407 223.082 37.682C222.513 37.5327 222.046 37.3833 221.682 37.234C221.328 37.0753 221.02 36.8467 220.758 36.548C220.506 36.24 220.38 35.8387 220.38 35.344C220.38 34.952 220.497 34.5927 220.73 34.266C220.964 33.9393 221.295 33.6827 221.724 33.496C222.154 33.3 222.644 33.202 223.194 33.202C224.044 33.202 224.73 33.4167 225.252 33.846C225.775 34.2753 226.055 34.8633 226.092 35.61H224.818C224.79 35.2087 224.627 34.8867 224.328 34.644C224.039 34.4013 223.647 34.28 223.152 34.28C222.695 34.28 222.331 34.378 222.06 34.574C221.79 34.77 221.654 35.0267 221.654 35.344C221.654 35.596 221.734 35.806 221.892 35.974C222.06 36.1327 222.266 36.2633 222.508 36.366C222.76 36.4593 223.106 36.5667 223.544 36.688C224.095 36.8373 224.543 36.9867 224.888 37.136C225.234 37.276 225.528 37.4907 225.77 37.78C226.022 38.0693 226.153 38.4473 226.162 38.914C226.162 39.334 226.046 39.712 225.812 40.048C225.579 40.384 225.248 40.65 224.818 40.846C224.398 41.0327 223.913 41.126 223.362 41.126ZM230.677 41.126C230.089 41.126 229.561 41.028 229.095 40.832C228.628 40.6267 228.259 40.3467 227.989 39.992C227.718 39.628 227.569 39.2127 227.541 38.746H228.857C228.894 39.1287 229.071 39.4413 229.389 39.684C229.715 39.9267 230.14 40.048 230.663 40.048C231.148 40.048 231.531 39.9407 231.811 39.726C232.091 39.5113 232.231 39.2407 232.231 38.914C232.231 38.578 232.081 38.3307 231.783 38.172C231.484 38.004 231.022 37.8407 230.397 37.682C229.827 37.5327 229.361 37.3833 228.997 37.234C228.642 37.0753 228.334 36.8467 228.073 36.548C227.821 36.24 227.695 35.8387 227.695 35.344C227.695 34.952 227.811 34.5927 228.045 34.266C228.278 33.9393 228.609 33.6827 229.039 33.496C229.468 33.3 229.958 33.202 230.509 33.202C231.358 33.202 232.044 33.4167 232.567 33.846C233.089 34.2753 233.369 34.8633 233.407 35.61H232.133C232.105 35.2087 231.941 34.8867 231.643 34.644C231.353 34.4013 230.961 34.28 230.467 34.28C230.009 34.28 229.645 34.378 229.375 34.574C229.104 34.77 228.969 35.0267 228.969 35.344C228.969 35.596 229.048 35.806 229.207 35.974C229.375 36.1327 229.58 36.2633 229.823 36.366C230.075 36.4593 230.42 36.5667 230.859 36.688C231.409 36.8373 231.857 36.9867 232.203 37.136C232.548 37.276 232.842 37.4907 233.085 37.78C233.337 38.0693 233.467 38.4473 233.477 38.914C233.477 39.334 233.36 39.712 233.127 40.048C232.893 40.384 232.562 40.65 232.133 40.846C231.713 41.0327 231.227 41.126 230.677 41.126ZM242.275 36.87C242.275 37.1127 242.261 37.3693 242.233 37.64H236.101C236.148 38.396 236.405 38.9887 236.871 39.418C237.347 39.838 237.921 40.048 238.593 40.048C239.144 40.048 239.601 39.922 239.965 39.67C240.339 39.4087 240.6 39.0633 240.749 38.634H242.121C241.916 39.3713 241.505 39.9733 240.889 40.44C240.273 40.8973 239.508 41.126 238.593 41.126C237.865 41.126 237.212 40.9627 236.633 40.636C236.064 40.3093 235.616 39.8473 235.289 39.25C234.963 38.6433 234.799 37.9433 234.799 37.15C234.799 36.3567 234.958 35.6613 235.275 35.064C235.593 34.4667 236.036 34.0093 236.605 33.692C237.184 33.3653 237.847 33.202 238.593 33.202C239.321 33.202 239.965 33.3607 240.525 33.678C241.085 33.9953 241.515 34.434 241.813 34.994C242.121 35.5447 242.275 36.17 242.275 36.87ZM240.959 36.604C240.959 36.1187 240.852 35.7033 240.637 35.358C240.423 35.0033 240.129 34.7373 239.755 34.56C239.391 34.3733 238.985 34.28 238.537 34.28C237.893 34.28 237.343 34.4853 236.885 34.896C236.437 35.3067 236.181 35.876 236.115 36.604H240.959ZM243.481 37.136C243.481 36.352 243.64 35.666 243.957 35.078C244.274 34.4807 244.708 34.0187 245.259 33.692C245.819 33.3653 246.444 33.202 247.135 33.202C247.732 33.202 248.288 33.342 248.801 33.622C249.314 33.8927 249.706 34.252 249.977 34.7V30.64H251.265V41H249.977V39.558C249.725 40.0153 249.352 40.3933 248.857 40.692C248.362 40.9813 247.784 41.126 247.121 41.126C246.44 41.126 245.819 40.958 245.259 40.622C244.708 40.286 244.274 39.8147 243.957 39.208C243.64 38.6013 243.481 37.9107 243.481 37.136ZM249.977 37.15C249.977 36.5713 249.86 36.0673 249.627 35.638C249.394 35.2087 249.076 34.882 248.675 34.658C248.283 34.4247 247.849 34.308 247.373 34.308C246.897 34.308 246.463 34.42 246.071 34.644C245.679 34.868 245.366 35.1947 245.133 35.624C244.9 36.0533 244.783 36.5573 244.783 37.136C244.783 37.724 244.9 38.2373 245.133 38.676C245.366 39.1053 245.679 39.4367 246.071 39.67C246.463 39.894 246.897 40.006 247.373 40.006C247.849 40.006 248.283 39.894 248.675 39.67C249.076 39.4367 249.394 39.1053 249.627 38.676C249.86 38.2373 249.977 37.7287 249.977 37.15Z" fill="#212427"/>
<mask id="path-12-outside-4_266_6414" maskUnits="userSpaceOnUse" x="270" y="19" width="74" height="34" fill="black">
<rect fill="white" x="270" y="19" width="74" height="34"/>
<path d="M270 20H343V52H270V20Z"/>
</mask>
<path d="M343 20H344V19H343V20ZM343 52V53H344V52H343ZM270 21H343V19H270V21ZM342 20V52H344V20H342ZM343 51H270V53H343V51Z" fill="black" fill-opacity="0.15" mask="url(#path-12-outside-4_266_6414)"/>
<path d="M296.976 31.312V41H295.702V33.776L292.482 41H291.586L288.352 33.762V41H287.078V31.312H288.45L292.034 39.32L295.618 31.312H296.976ZM299.795 32.082C299.552 32.082 299.347 31.998 299.179 31.83C299.011 31.662 298.927 31.4567 298.927 31.214C298.927 30.9713 299.011 30.766 299.179 30.598C299.347 30.43 299.552 30.346 299.795 30.346C300.028 30.346 300.224 30.43 300.383 30.598C300.551 30.766 300.635 30.9713 300.635 31.214C300.635 31.4567 300.551 31.662 300.383 31.83C300.224 31.998 300.028 32.082 299.795 32.082ZM300.411 33.328V41H299.137V33.328H300.411ZM306.586 41L304.766 38.144L303.016 41H301.686L304.164 37.192L301.686 33.328H303.128L304.948 36.17L306.684 33.328H308.014L305.55 37.122L308.028 41H306.586ZM316.281 36.87C316.281 37.1127 316.267 37.3693 316.239 37.64H310.107C310.154 38.396 310.41 38.9887 310.877 39.418C311.353 39.838 311.927 40.048 312.599 40.048C313.15 40.048 313.607 39.922 313.971 39.67C314.344 39.4087 314.606 39.0633 314.755 38.634H316.127C315.922 39.3713 315.511 39.9733 314.895 40.44C314.279 40.8973 313.514 41.126 312.599 41.126C311.871 41.126 311.218 40.9627 310.639 40.636C310.07 40.3093 309.622 39.8473 309.295 39.25C308.968 38.6433 308.805 37.9433 308.805 37.15C308.805 36.3567 308.964 35.6613 309.281 35.064C309.598 34.4667 310.042 34.0093 310.611 33.692C311.19 33.3653 311.852 33.202 312.599 33.202C313.327 33.202 313.971 33.3607 314.531 33.678C315.091 33.9953 315.52 34.434 315.819 34.994C316.127 35.5447 316.281 36.17 316.281 36.87ZM314.965 36.604C314.965 36.1187 314.858 35.7033 314.643 35.358C314.428 35.0033 314.134 34.7373 313.761 34.56C313.397 34.3733 312.991 34.28 312.543 34.28C311.899 34.28 311.348 34.4853 310.891 34.896C310.443 35.3067 310.186 35.876 310.121 36.604H314.965ZM317.487 37.136C317.487 36.352 317.645 35.666 317.963 35.078C318.28 34.4807 318.714 34.0187 319.265 33.692C319.825 33.3653 320.45 33.202 321.141 33.202C321.738 33.202 322.293 33.342 322.807 33.622C323.32 33.8927 323.712 34.252 323.983 34.7V30.64H325.271V41H323.983V39.558C323.731 40.0153 323.357 40.3933 322.863 40.692C322.368 40.9813 321.789 41.126 321.127 41.126C320.445 41.126 319.825 40.958 319.265 40.622C318.714 40.286 318.28 39.8147 317.963 39.208C317.645 38.6013 317.487 37.9107 317.487 37.136ZM323.983 37.15C323.983 36.5713 323.866 36.0673 323.633 35.638C323.399 35.2087 323.082 34.882 322.681 34.658C322.289 34.4247 321.855 34.308 321.379 34.308C320.903 34.308 320.469 34.42 320.077 34.644C319.685 34.868 319.372 35.1947 319.139 35.624C318.905 36.0533 318.789 36.5573 318.789 37.136C318.789 37.724 318.905 38.2373 319.139 38.676C319.372 39.1053 319.685 39.4367 320.077 39.67C320.469 39.894 320.903 40.006 321.379 40.006C321.855 40.006 322.289 39.894 322.681 39.67C323.082 39.4367 323.399 39.1053 323.633 38.676C323.866 38.2373 323.983 37.7287 323.983 37.15Z" fill="#212427"/>
<mask id="path-15-outside-5_266_6414" maskUnits="userSpaceOnUse" x="344" y="19" width="91" height="34" fill="black">
<rect fill="white" x="344" y="19" width="91" height="34"/>
<path d="M344 20H434V52H344V20Z"/>
</mask>
<path d="M434 20H435V19H434V20ZM434 52V53H435V52H434ZM344 21H434V19H344V21ZM433 20V52H435V20H433ZM434 51H344V53H434V51Z" fill="black" fill-opacity="0.15" mask="url(#path-15-outside-5_266_6414)"/>
<path d="M366.216 41L363.892 37.01H362.352V41H361.078V31.242H364.228C364.965 31.242 365.586 31.368 366.09 31.62C366.603 31.872 366.986 32.2127 367.238 32.642C367.49 33.0713 367.616 33.5613 367.616 34.112C367.616 34.784 367.42 35.3767 367.028 35.89C366.645 36.4033 366.067 36.744 365.292 36.912L367.742 41H366.216ZM362.352 35.988H364.228C364.919 35.988 365.437 35.82 365.782 35.484C366.127 35.1387 366.3 34.6813 366.3 34.112C366.3 33.5333 366.127 33.0853 365.782 32.768C365.446 32.4507 364.928 32.292 364.228 32.292H362.352V35.988ZM376.4 33.328V41H375.126V39.866C374.883 40.258 374.542 40.566 374.104 40.79C373.674 41.0047 373.198 41.112 372.676 41.112C372.078 41.112 371.542 40.9907 371.066 40.748C370.59 40.496 370.212 40.1227 369.932 39.628C369.661 39.1333 369.526 38.5313 369.526 37.822V33.328H370.786V37.654C370.786 38.41 370.977 38.9933 371.36 39.404C371.742 39.8053 372.265 40.006 372.928 40.006C373.609 40.006 374.146 39.796 374.538 39.376C374.93 38.956 375.126 38.3447 375.126 37.542V33.328H376.4ZM382.289 33.188C383.222 33.188 383.978 33.4727 384.557 34.042C385.135 34.602 385.425 35.414 385.425 36.478V41H384.165V36.66C384.165 35.8947 383.973 35.3113 383.591 34.91C383.208 34.4993 382.685 34.294 382.023 34.294C381.351 34.294 380.814 34.504 380.413 34.924C380.021 35.344 379.825 35.9553 379.825 36.758V41H378.551V33.328H379.825V34.42C380.077 34.028 380.417 33.7247 380.847 33.51C381.285 33.2953 381.766 33.188 382.289 33.188ZM391.244 33.188C392.177 33.188 392.933 33.4727 393.512 34.042C394.09 34.602 394.38 35.414 394.38 36.478V41H393.12V36.66C393.12 35.8947 392.928 35.3113 392.546 34.91C392.163 34.4993 391.64 34.294 390.978 34.294C390.306 34.294 389.769 34.504 389.368 34.924C388.976 35.344 388.78 35.9553 388.78 36.758V41H387.506V33.328H388.78V34.42C389.032 34.028 389.372 33.7247 389.802 33.51C390.24 33.2953 390.721 33.188 391.244 33.188ZM397.119 32.082C396.876 32.082 396.671 31.998 396.503 31.83C396.335 31.662 396.251 31.4567 396.251 31.214C396.251 30.9713 396.335 30.766 396.503 30.598C396.671 30.43 396.876 30.346 397.119 30.346C397.352 30.346 397.548 30.43 397.707 30.598C397.875 30.766 397.959 30.9713 397.959 31.214C397.959 31.4567 397.875 31.662 397.707 31.83C397.548 31.998 397.352 32.082 397.119 32.082ZM397.735 33.328V41H396.461V33.328H397.735ZM403.644 33.188C404.577 33.188 405.333 33.4727 405.912 34.042C406.491 34.602 406.78 35.414 406.78 36.478V41H405.52V36.66C405.52 35.8947 405.329 35.3113 404.946 34.91C404.563 34.4993 404.041 34.294 403.378 34.294C402.706 34.294 402.169 34.504 401.768 34.924C401.376 35.344 401.18 35.9553 401.18 36.758V41H399.906V33.328H401.18V34.42C401.432 34.028 401.773 33.7247 402.202 33.51C402.641 33.2953 403.121 33.188 403.644 33.188ZM412.025 33.202C412.688 33.202 413.267 33.3467 413.761 33.636C414.265 33.9253 414.639 34.2893 414.881 34.728V33.328H416.169V41.168C416.169 41.868 416.02 42.4887 415.721 43.03C415.423 43.5807 414.993 44.01 414.433 44.318C413.883 44.626 413.239 44.78 412.501 44.78C411.493 44.78 410.653 44.542 409.981 44.066C409.309 43.59 408.913 42.9413 408.791 42.12H410.051C410.191 42.5867 410.481 42.96 410.919 43.24C411.358 43.5293 411.885 43.674 412.501 43.674C413.201 43.674 413.771 43.4547 414.209 43.016C414.657 42.5773 414.881 41.9613 414.881 41.168V39.558C414.629 40.006 414.256 40.3793 413.761 40.678C413.267 40.9767 412.688 41.126 412.025 41.126C411.344 41.126 410.723 40.958 410.163 40.622C409.613 40.286 409.179 39.8147 408.861 39.208C408.544 38.6013 408.385 37.9107 408.385 37.136C408.385 36.352 408.544 35.666 408.861 35.078C409.179 34.4807 409.613 34.0187 410.163 33.692C410.723 33.3653 411.344 33.202 412.025 33.202ZM414.881 37.15C414.881 36.5713 414.765 36.0673 414.531 35.638C414.298 35.2087 413.981 34.882 413.579 34.658C413.187 34.4247 412.753 34.308 412.277 34.308C411.801 34.308 411.367 34.42 410.975 34.644C410.583 34.868 410.271 35.1947 410.037 35.624C409.804 36.0533 409.687 36.5573 409.687 37.136C409.687 37.724 409.804 38.2373 410.037 38.676C410.271 39.1053 410.583 39.4367 410.975 39.67C411.367 39.894 411.801 40.006 412.277 40.006C412.753 40.006 413.187 39.894 413.579 39.67C413.981 39.4367 414.298 39.1053 414.531 38.676C414.765 38.2373 414.881 37.7287 414.881 37.15Z" fill="#212427"/>
<mask id="path-18-outside-6_266_6414" maskUnits="userSpaceOnUse" x="435" y="19" width="93" height="34" fill="black">
<rect fill="white" x="435" y="19" width="93" height="34"/>
<path d="M435 20H527V52H435V20Z"/>
</mask>
<path d="M527 20H528V19H527V20ZM527 52V53H528V52H527ZM435 21H527V19H435V21ZM526 20V52H528V20H526ZM527 51H435V53H527V51Z" fill="black" fill-opacity="0.15" mask="url(#path-18-outside-6_266_6414)"/>
<path d="M455.172 41.098C454.528 41.098 453.949 40.986 453.436 40.762C452.932 40.5287 452.535 40.2113 452.246 39.81C451.957 39.3993 451.807 38.928 451.798 38.396H453.156C453.203 38.8533 453.389 39.2407 453.716 39.558C454.052 39.866 454.537 40.02 455.172 40.02C455.779 40.02 456.255 39.8707 456.6 39.572C456.955 39.264 457.132 38.872 457.132 38.396C457.132 38.0227 457.029 37.7193 456.824 37.486C456.619 37.2527 456.362 37.0753 456.054 36.954C455.746 36.8327 455.331 36.702 454.808 36.562C454.164 36.394 453.646 36.226 453.254 36.058C452.871 35.89 452.54 35.6287 452.26 35.274C451.989 34.91 451.854 34.4247 451.854 33.818C451.854 33.286 451.989 32.8147 452.26 32.404C452.531 31.9933 452.909 31.676 453.394 31.452C453.889 31.228 454.453 31.116 455.088 31.116C456.003 31.116 456.749 31.3447 457.328 31.802C457.916 32.2593 458.247 32.866 458.322 33.622H456.922C456.875 33.2487 456.679 32.922 456.334 32.642C455.989 32.3527 455.531 32.208 454.962 32.208C454.43 32.208 453.996 32.348 453.66 32.628C453.324 32.8987 453.156 33.2813 453.156 33.776C453.156 34.1307 453.254 34.42 453.45 34.644C453.655 34.868 453.903 35.0407 454.192 35.162C454.491 35.274 454.906 35.4047 455.438 35.554C456.082 35.7313 456.6 35.9087 456.992 36.086C457.384 36.254 457.72 36.52 458 36.884C458.28 37.2387 458.42 37.724 458.42 38.34C458.42 38.816 458.294 39.264 458.042 39.684C457.79 40.104 457.417 40.4447 456.922 40.706C456.427 40.9673 455.844 41.098 455.172 41.098ZM461.849 34.378V38.9C461.849 39.2733 461.928 39.5393 462.087 39.698C462.245 39.8473 462.521 39.922 462.913 39.922H463.851V41H462.703C461.993 41 461.461 40.8367 461.107 40.51C460.752 40.1833 460.575 39.6467 460.575 38.9V34.378H459.581V33.328H460.575V31.396H461.849V33.328H463.851V34.378H461.849ZM468.74 41.126C468.022 41.126 467.368 40.9627 466.78 40.636C466.202 40.3093 465.744 39.8473 465.408 39.25C465.082 38.6433 464.918 37.9433 464.918 37.15C464.918 36.366 465.086 35.6753 465.422 35.078C465.768 34.4713 466.234 34.0093 466.822 33.692C467.41 33.3653 468.068 33.202 468.796 33.202C469.524 33.202 470.182 33.3653 470.77 33.692C471.358 34.0093 471.82 34.4667 472.156 35.064C472.502 35.6613 472.674 36.3567 472.674 37.15C472.674 37.9433 472.497 38.6433 472.142 39.25C471.797 39.8473 471.326 40.3093 470.728 40.636C470.131 40.9627 469.468 41.126 468.74 41.126ZM468.74 40.006C469.198 40.006 469.627 39.8987 470.028 39.684C470.43 39.4693 470.752 39.1473 470.994 38.718C471.246 38.2887 471.372 37.766 471.372 37.15C471.372 36.534 471.251 36.0113 471.008 35.582C470.766 35.1527 470.448 34.8353 470.056 34.63C469.664 34.4153 469.24 34.308 468.782 34.308C468.316 34.308 467.886 34.4153 467.494 34.63C467.112 34.8353 466.804 35.1527 466.57 35.582C466.337 36.0113 466.22 36.534 466.22 37.15C466.22 37.7753 466.332 38.3027 466.556 38.732C466.79 39.1613 467.098 39.4833 467.48 39.698C467.863 39.9033 468.283 40.006 468.74 40.006ZM475.623 34.742C475.875 34.3033 476.249 33.9393 476.743 33.65C477.247 33.3513 477.831 33.202 478.493 33.202C479.175 33.202 479.791 33.3653 480.341 33.692C480.901 34.0187 481.34 34.4807 481.657 35.078C481.975 35.666 482.133 36.352 482.133 37.136C482.133 37.9107 481.975 38.6013 481.657 39.208C481.34 39.8147 480.901 40.286 480.341 40.622C479.791 40.958 479.175 41.126 478.493 41.126C477.84 41.126 477.261 40.9813 476.757 40.692C476.263 40.3933 475.885 40.0247 475.623 39.586V44.64H474.349V33.328H475.623V34.742ZM480.831 37.136C480.831 36.5573 480.715 36.0533 480.481 35.624C480.248 35.1947 479.931 34.868 479.529 34.644C479.137 34.42 478.703 34.308 478.227 34.308C477.761 34.308 477.327 34.4247 476.925 34.658C476.533 34.882 476.216 35.2133 475.973 35.652C475.74 36.0813 475.623 36.5807 475.623 37.15C475.623 37.7287 475.74 38.2373 475.973 38.676C476.216 39.1053 476.533 39.4367 476.925 39.67C477.327 39.894 477.761 40.006 478.227 40.006C478.703 40.006 479.137 39.894 479.529 39.67C479.931 39.4367 480.248 39.1053 480.481 38.676C480.715 38.2373 480.831 37.724 480.831 37.136ZM485.084 34.742C485.336 34.3033 485.71 33.9393 486.204 33.65C486.708 33.3513 487.292 33.202 487.954 33.202C488.636 33.202 489.252 33.3653 489.802 33.692C490.362 34.0187 490.801 34.4807 491.118 35.078C491.436 35.666 491.594 36.352 491.594 37.136C491.594 37.9107 491.436 38.6013 491.118 39.208C490.801 39.8147 490.362 40.286 489.802 40.622C489.252 40.958 488.636 41.126 487.954 41.126C487.301 41.126 486.722 40.9813 486.218 40.692C485.724 40.3933 485.346 40.0247 485.084 39.586V44.64H483.81V33.328H485.084V34.742ZM490.292 37.136C490.292 36.5573 490.176 36.0533 489.942 35.624C489.709 35.1947 489.392 34.868 488.99 34.644C488.598 34.42 488.164 34.308 487.688 34.308C487.222 34.308 486.788 34.4247 486.386 34.658C485.994 34.882 485.677 35.2133 485.434 35.652C485.201 36.0813 485.084 36.5807 485.084 37.15C485.084 37.7287 485.201 38.2373 485.434 38.676C485.677 39.1053 485.994 39.4367 486.386 39.67C486.788 39.894 487.222 40.006 487.688 40.006C488.164 40.006 488.598 39.894 488.99 39.67C489.392 39.4367 489.709 39.1053 489.942 38.676C490.176 38.2373 490.292 37.724 490.292 37.136ZM500.271 36.87C500.271 37.1127 500.257 37.3693 500.229 37.64H494.097C494.144 38.396 494.401 38.9887 494.867 39.418C495.343 39.838 495.917 40.048 496.589 40.048C497.14 40.048 497.597 39.922 497.961 39.67C498.335 39.4087 498.596 39.0633 498.745 38.634H500.117C499.912 39.3713 499.501 39.9733 498.885 40.44C498.269 40.8973 497.504 41.126 496.589 41.126C495.861 41.126 495.208 40.9627 494.629 40.636C494.06 40.3093 493.612 39.8473 493.285 39.25C492.959 38.6433 492.795 37.9433 492.795 37.15C492.795 36.3567 492.954 35.6613 493.271 35.064C493.589 34.4667 494.032 34.0093 494.601 33.692C495.18 33.3653 495.843 33.202 496.589 33.202C497.317 33.202 497.961 33.3607 498.521 33.678C499.081 33.9953 499.511 34.434 499.809 34.994C500.117 35.5447 500.271 36.17 500.271 36.87ZM498.955 36.604C498.955 36.1187 498.848 35.7033 498.633 35.358C498.419 35.0033 498.125 34.7373 497.751 34.56C497.387 34.3733 496.981 34.28 496.533 34.28C495.889 34.28 495.339 34.4853 494.881 34.896C494.433 35.3067 494.177 35.876 494.111 36.604H498.955ZM501.477 37.136C501.477 36.352 501.636 35.666 501.953 35.078C502.27 34.4807 502.704 34.0187 503.255 33.692C503.815 33.3653 504.44 33.202 505.131 33.202C505.728 33.202 506.284 33.342 506.797 33.622C507.31 33.8927 507.702 34.252 507.973 34.7V30.64H509.261V41H507.973V39.558C507.721 40.0153 507.348 40.3933 506.853 40.692C506.358 40.9813 505.78 41.126 505.117 41.126C504.436 41.126 503.815 40.958 503.255 40.622C502.704 40.286 502.27 39.8147 501.953 39.208C501.636 38.6013 501.477 37.9107 501.477 37.136ZM507.973 37.15C507.973 36.5713 507.856 36.0673 507.623 35.638C507.39 35.2087 507.072 34.882 506.671 34.658C506.279 34.4247 505.845 34.308 505.369 34.308C504.893 34.308 504.459 34.42 504.067 34.644C503.675 34.868 503.362 35.1947 503.129 35.624C502.896 36.0533 502.779 36.5573 502.779 37.136C502.779 37.724 502.896 38.2373 503.129 38.676C503.362 39.1053 503.675 39.4367 504.067 39.67C504.459 39.894 504.893 40.006 505.369 40.006C505.845 40.006 506.279 39.894 506.671 39.67C507.072 39.4367 507.39 39.1053 507.623 38.676C507.856 38.2373 507.973 37.7287 507.973 37.15Z" fill="#212427"/>
<mask id="path-21-outside-7_266_6414" maskUnits="userSpaceOnUse" x="528" y="19" width="89" height="34" fill="black">
<rect fill="white" x="528" y="19" width="89" height="34"/>
<path d="M528 20H616V52H528V20Z"/>
</mask>
<path d="M616 20H617V19H616V20ZM616 52V53H617V52H616ZM528 21H616V19H528V21ZM615 20V52H617V20H615ZM616 51H528V53H616V51Z" fill="black" fill-opacity="0.15" mask="url(#path-21-outside-7_266_6414)"/>
<path d="M548.172 41.098C547.528 41.098 546.949 40.986 546.436 40.762C545.932 40.5287 545.535 40.2113 545.246 39.81C544.957 39.3993 544.807 38.928 544.798 38.396H546.156C546.203 38.8533 546.389 39.2407 546.716 39.558C547.052 39.866 547.537 40.02 548.172 40.02C548.779 40.02 549.255 39.8707 549.6 39.572C549.955 39.264 550.132 38.872 550.132 38.396C550.132 38.0227 550.029 37.7193 549.824 37.486C549.619 37.2527 549.362 37.0753 549.054 36.954C548.746 36.8327 548.331 36.702 547.808 36.562C547.164 36.394 546.646 36.226 546.254 36.058C545.871 35.89 545.54 35.6287 545.26 35.274C544.989 34.91 544.854 34.4247 544.854 33.818C544.854 33.286 544.989 32.8147 545.26 32.404C545.531 31.9933 545.909 31.676 546.394 31.452C546.889 31.228 547.453 31.116 548.088 31.116C549.003 31.116 549.749 31.3447 550.328 31.802C550.916 32.2593 551.247 32.866 551.322 33.622H549.922C549.875 33.2487 549.679 32.922 549.334 32.642C548.989 32.3527 548.531 32.208 547.962 32.208C547.43 32.208 546.996 32.348 546.66 32.628C546.324 32.8987 546.156 33.2813 546.156 33.776C546.156 34.1307 546.254 34.42 546.45 34.644C546.655 34.868 546.903 35.0407 547.192 35.162C547.491 35.274 547.906 35.4047 548.438 35.554C549.082 35.7313 549.6 35.9087 549.992 36.086C550.384 36.254 550.72 36.52 551 36.884C551.28 37.2387 551.42 37.724 551.42 38.34C551.42 38.816 551.294 39.264 551.042 39.684C550.79 40.104 550.417 40.4447 549.922 40.706C549.427 40.9673 548.844 41.098 548.172 41.098ZM557.579 41L554.569 37.612V41H553.295V30.64H554.569V36.73L557.523 33.328H559.301L555.689 37.15L559.315 41H557.579ZM561.158 32.082C560.915 32.082 560.71 31.998 560.542 31.83C560.374 31.662 560.29 31.4567 560.29 31.214C560.29 30.9713 560.374 30.766 560.542 30.598C560.71 30.43 560.915 30.346 561.158 30.346C561.391 30.346 561.587 30.43 561.746 30.598C561.914 30.766 561.998 30.9713 561.998 31.214C561.998 31.4567 561.914 31.662 561.746 31.83C561.587 31.998 561.391 32.082 561.158 32.082ZM561.774 33.328V41H560.5V33.328H561.774ZM565.219 34.742C565.471 34.3033 565.845 33.9393 566.339 33.65C566.843 33.3513 567.427 33.202 568.089 33.202C568.771 33.202 569.387 33.3653 569.937 33.692C570.497 34.0187 570.936 34.4807 571.253 35.078C571.571 35.666 571.729 36.352 571.729 37.136C571.729 37.9107 571.571 38.6013 571.253 39.208C570.936 39.8147 570.497 40.286 569.937 40.622C569.387 40.958 568.771 41.126 568.089 41.126C567.436 41.126 566.857 40.9813 566.353 40.692C565.859 40.3933 565.481 40.0247 565.219 39.586V44.64H563.945V33.328H565.219V34.742ZM570.427 37.136C570.427 36.5573 570.311 36.0533 570.077 35.624C569.844 35.1947 569.527 34.868 569.125 34.644C568.733 34.42 568.299 34.308 567.823 34.308C567.357 34.308 566.923 34.4247 566.521 34.658C566.129 34.882 565.812 35.2133 565.569 35.652C565.336 36.0813 565.219 36.5807 565.219 37.15C565.219 37.7287 565.336 38.2373 565.569 38.676C565.812 39.1053 566.129 39.4367 566.521 39.67C566.923 39.894 567.357 40.006 567.823 40.006C568.299 40.006 568.733 39.894 569.125 39.67C569.527 39.4367 569.844 39.1053 570.077 38.676C570.311 38.2373 570.427 37.724 570.427 37.136ZM574.68 34.742C574.932 34.3033 575.305 33.9393 575.8 33.65C576.304 33.3513 576.887 33.202 577.55 33.202C578.231 33.202 578.847 33.3653 579.398 33.692C579.958 34.0187 580.397 34.4807 580.714 35.078C581.031 35.666 581.19 36.352 581.19 37.136C581.19 37.9107 581.031 38.6013 580.714 39.208C580.397 39.8147 579.958 40.286 579.398 40.622C578.847 40.958 578.231 41.126 577.55 41.126C576.897 41.126 576.318 40.9813 575.814 40.692C575.319 40.3933 574.941 40.0247 574.68 39.586V44.64H573.406V33.328H574.68V34.742ZM579.888 37.136C579.888 36.5573 579.771 36.0533 579.538 35.624C579.305 35.1947 578.987 34.868 578.586 34.644C578.194 34.42 577.76 34.308 577.284 34.308C576.817 34.308 576.383 34.4247 575.982 34.658C575.59 34.882 575.273 35.2133 575.03 35.652C574.797 36.0813 574.68 36.5807 574.68 37.15C574.68 37.7287 574.797 38.2373 575.03 38.676C575.273 39.1053 575.59 39.4367 575.982 39.67C576.383 39.894 576.817 40.006 577.284 40.006C577.76 40.006 578.194 39.894 578.586 39.67C578.987 39.4367 579.305 39.1053 579.538 38.676C579.771 38.2373 579.888 37.724 579.888 37.136ZM589.867 36.87C589.867 37.1127 589.853 37.3693 589.825 37.64H583.693C583.74 38.396 583.996 38.9887 584.463 39.418C584.939 39.838 585.513 40.048 586.185 40.048C586.736 40.048 587.193 39.922 587.557 39.67C587.93 39.4087 588.192 39.0633 588.341 38.634H589.713C589.508 39.3713 589.097 39.9733 588.481 40.44C587.865 40.8973 587.1 41.126 586.185 41.126C585.457 41.126 584.804 40.9627 584.225 40.636C583.656 40.3093 583.208 39.8473 582.881 39.25C582.554 38.6433 582.391 37.9433 582.391 37.15C582.391 36.3567 582.55 35.6613 582.867 35.064C583.184 34.4667 583.628 34.0093 584.197 33.692C584.776 33.3653 585.438 33.202 586.185 33.202C586.913 33.202 587.557 33.3607 588.117 33.678C588.677 33.9953 589.106 34.434 589.405 34.994C589.713 35.5447 589.867 36.17 589.867 36.87ZM588.551 36.604C588.551 36.1187 588.444 35.7033 588.229 35.358C588.014 35.0033 587.72 34.7373 587.347 34.56C586.983 34.3733 586.577 34.28 586.129 34.28C585.485 34.28 584.934 34.4853 584.477 34.896C584.029 35.3067 583.772 35.876 583.707 36.604H588.551ZM591.073 37.136C591.073 36.352 591.231 35.666 591.549 35.078C591.866 34.4807 592.3 34.0187 592.851 33.692C593.411 33.3653 594.036 33.202 594.727 33.202C595.324 33.202 595.879 33.342 596.393 33.622C596.906 33.8927 597.298 34.252 597.569 34.7V30.64H598.857V41H597.569V39.558C597.317 40.0153 596.943 40.3933 596.449 40.692C595.954 40.9813 595.375 41.126 594.713 41.126C594.031 41.126 593.411 40.958 592.851 40.622C592.3 40.286 591.866 39.8147 591.549 39.208C591.231 38.6013 591.073 37.9107 591.073 37.136ZM597.569 37.15C597.569 36.5713 597.452 36.0673 597.219 35.638C596.985 35.2087 596.668 34.882 596.267 34.658C595.875 34.4247 595.441 34.308 594.965 34.308C594.489 34.308 594.055 34.42 593.663 34.644C593.271 34.868 592.958 35.1947 592.725 35.624C592.491 36.0533 592.375 36.5573 592.375 37.136C592.375 37.724 592.491 38.2373 592.725 38.676C592.958 39.1053 593.271 39.4367 593.663 39.67C594.055 39.894 594.489 40.006 594.965 40.006C595.441 40.006 595.875 39.894 596.267 39.67C596.668 39.4367 596.985 39.1053 597.219 38.676C597.452 38.2373 597.569 37.7287 597.569 37.15Z" fill="#212427"/>
<mask id="path-24-outside-8_266_6414" maskUnits="userSpaceOnUse" x="617" y="19" width="65" height="34" fill="black">
<rect fill="white" x="617" y="19" width="65" height="34"/>
<path d="M617 20H675C678.314 20 681 22.6863 681 26V46C681 49.3137 678.314 52 675 52H617V20Z"/>
</mask>
<path d="M617 19H675C678.866 19 682 22.134 682 26H680C680 23.2386 677.761 21 675 21H617V19ZM682 46C682 49.866 678.866 53 675 53H617V51H675C677.761 51 680 48.7614 680 46H682ZM617 52V20V52ZM675 19C678.866 19 682 22.134 682 26V46C682 49.866 678.866 53 675 53V51C677.761 51 680 48.7614 680 46V26C680 23.2386 677.761 21 675 21V19Z" fill="black" fill-opacity="0.15" mask="url(#path-24-outside-8_266_6414)"/>
<path d="M635.352 32.278V35.54H638.908V36.59H635.352V39.95H639.328V41H634.078V31.228H639.328V32.278H635.352ZM642.53 34.574C642.754 34.1353 643.071 33.7947 643.482 33.552C643.902 33.3093 644.41 33.188 645.008 33.188V34.504H644.672C643.244 34.504 642.53 35.2787 642.53 36.828V41H641.256V33.328H642.53V34.574ZM647.752 34.574C647.976 34.1353 648.294 33.7947 648.704 33.552C649.124 33.3093 649.633 33.188 650.23 33.188V34.504H649.894C648.466 34.504 647.752 35.2787 647.752 36.828V41H646.478V33.328H647.752V34.574ZM655.047 41.126C654.328 41.126 653.675 40.9627 653.087 40.636C652.508 40.3093 652.051 39.8473 651.715 39.25C651.388 38.6433 651.225 37.9433 651.225 37.15C651.225 36.366 651.393 35.6753 651.729 35.078C652.074 34.4713 652.541 34.0093 653.129 33.692C653.717 33.3653 654.375 33.202 655.103 33.202C655.831 33.202 656.489 33.3653 657.077 33.692C657.665 34.0093 658.127 34.4667 658.463 35.064C658.808 35.6613 658.981 36.3567 658.981 37.15C658.981 37.9433 658.804 38.6433 658.449 39.25C658.104 39.8473 657.632 40.3093 657.035 40.636C656.438 40.9627 655.775 41.126 655.047 41.126ZM655.047 40.006C655.504 40.006 655.934 39.8987 656.335 39.684C656.736 39.4693 657.058 39.1473 657.301 38.718C657.553 38.2887 657.679 37.766 657.679 37.15C657.679 36.534 657.558 36.0113 657.315 35.582C657.072 35.1527 656.755 34.8353 656.363 34.63C655.971 34.4153 655.546 34.308 655.089 34.308C654.622 34.308 654.193 34.4153 653.801 34.63C653.418 34.8353 653.11 35.1527 652.877 35.582C652.644 36.0113 652.527 36.534 652.527 37.15C652.527 37.7753 652.639 38.3027 652.863 38.732C653.096 39.1613 653.404 39.4833 653.787 39.698C654.17 39.9033 654.59 40.006 655.047 40.006ZM661.93 34.574C662.154 34.1353 662.471 33.7947 662.882 33.552C663.302 33.3093 663.811 33.188 664.408 33.188V34.504H664.072C662.644 34.504 661.93 35.2787 661.93 36.828V41H660.656V33.328H661.93V34.574Z" fill="#212427"/>
<rect x="852.5" y="20.5" width="239" height="31" rx="5.5" stroke="black" stroke-opacity="0.15"/>
<path opacity="0.5" d="M868.172 41.098C867.528 41.098 866.949 40.986 866.436 40.762C865.932 40.5287 865.535 40.2113 865.246 39.81C864.957 39.3993 864.807 38.928 864.798 38.396H866.156C866.203 38.8533 866.389 39.2407 866.716 39.558C867.052 39.866 867.537 40.02 868.172 40.02C868.779 40.02 869.255 39.8707 869.6 39.572C869.955 39.264 870.132 38.872 870.132 38.396C870.132 38.0227 870.029 37.7193 869.824 37.486C869.619 37.2527 869.362 37.0753 869.054 36.954C868.746 36.8327 868.331 36.702 867.808 36.562C867.164 36.394 866.646 36.226 866.254 36.058C865.871 35.89 865.54 35.6287 865.26 35.274C864.989 34.91 864.854 34.4247 864.854 33.818C864.854 33.286 864.989 32.8147 865.26 32.404C865.531 31.9933 865.909 31.676 866.394 31.452C866.889 31.228 867.453 31.116 868.088 31.116C869.003 31.116 869.749 31.3447 870.328 31.802C870.916 32.2593 871.247 32.866 871.322 33.622H869.922C869.875 33.2487 869.679 32.922 869.334 32.642C868.989 32.3527 868.531 32.208 867.962 32.208C867.43 32.208 866.996 32.348 866.66 32.628C866.324 32.8987 866.156 33.2813 866.156 33.776C866.156 34.1307 866.254 34.42 866.45 34.644C866.655 34.868 866.903 35.0407 867.192 35.162C867.491 35.274 867.906 35.4047 868.438 35.554C869.082 35.7313 869.6 35.9087 869.992 36.086C870.384 36.254 870.72 36.52 871 36.884C871.28 37.2387 871.42 37.724 871.42 38.34C871.42 38.816 871.294 39.264 871.042 39.684C870.79 40.104 870.417 40.4447 869.922 40.706C869.427 40.9673 868.844 41.098 868.172 41.098ZM880.295 36.87C880.295 37.1127 880.281 37.3693 880.253 37.64H874.121C874.167 38.396 874.424 38.9887 874.891 39.418C875.367 39.838 875.941 40.048 876.613 40.048C877.163 40.048 877.621 39.922 877.985 39.67C878.358 39.4087 878.619 39.0633 878.769 38.634H880.141C879.935 39.3713 879.525 39.9733 878.909 40.44C878.293 40.8973 877.527 41.126 876.613 41.126C875.885 41.126 875.231 40.9627 874.653 40.636C874.083 40.3093 873.635 39.8473 873.309 39.25C872.982 38.6433 872.819 37.9433 872.819 37.15C872.819 36.3567 872.977 35.6613 873.295 35.064C873.612 34.4667 874.055 34.0093 874.625 33.692C875.203 33.3653 875.866 33.202 876.613 33.202C877.341 33.202 877.985 33.3607 878.545 33.678C879.105 33.9953 879.534 34.434 879.833 34.994C880.141 35.5447 880.295 36.17 880.295 36.87ZM878.979 36.604C878.979 36.1187 878.871 35.7033 878.657 35.358C878.442 35.0033 878.148 34.7373 877.775 34.56C877.411 34.3733 877.005 34.28 876.557 34.28C875.913 34.28 875.362 34.4853 874.905 34.896C874.457 35.3067 874.2 35.876 874.135 36.604H878.979ZM881.5 37.136C881.5 36.352 881.659 35.666 881.976 35.078C882.294 34.4807 882.728 34.0187 883.278 33.692C883.838 33.3653 884.459 33.202 885.14 33.202C885.812 33.202 886.396 33.3467 886.89 33.636C887.385 33.9253 887.754 34.2893 887.996 34.728V33.328H889.284V41H887.996V39.572C887.744 40.02 887.366 40.3933 886.862 40.692C886.368 40.9813 885.789 41.126 885.126 41.126C884.445 41.126 883.829 40.958 883.278 40.622C882.728 40.286 882.294 39.8147 881.976 39.208C881.659 38.6013 881.5 37.9107 881.5 37.136ZM887.996 37.15C887.996 36.5713 887.88 36.0673 887.646 35.638C887.413 35.2087 887.096 34.882 886.694 34.658C886.302 34.4247 885.868 34.308 885.392 34.308C884.916 34.308 884.482 34.42 884.09 34.644C883.698 34.868 883.386 35.1947 883.152 35.624C882.919 36.0533 882.802 36.5573 882.802 37.136C882.802 37.724 882.919 38.2373 883.152 38.676C883.386 39.1053 883.698 39.4367 884.09 39.67C884.482 39.894 884.916 40.006 885.392 40.006C885.868 40.006 886.302 39.894 886.694 39.67C887.096 39.4367 887.413 39.1053 887.646 38.676C887.88 38.2373 887.996 37.7287 887.996 37.15ZM892.711 34.574C892.935 34.1353 893.253 33.7947 893.663 33.552C894.083 33.3093 894.592 33.188 895.189 33.188V34.504H894.853C893.425 34.504 892.711 35.2787 892.711 36.828V41H891.437V33.328H892.711V34.574ZM896.184 37.15C896.184 36.3567 896.343 35.666 896.66 35.078C896.977 34.4807 897.416 34.0187 897.976 33.692C898.545 33.3653 899.194 33.202 899.922 33.202C900.865 33.202 901.639 33.4307 902.246 33.888C902.862 34.3453 903.268 34.98 903.464 35.792H902.092C901.961 35.3253 901.705 34.9567 901.322 34.686C900.949 34.4153 900.482 34.28 899.922 34.28C899.194 34.28 898.606 34.532 898.158 35.036C897.71 35.5307 897.486 36.2353 897.486 37.15C897.486 38.074 897.71 38.788 898.158 39.292C898.606 39.796 899.194 40.048 899.922 40.048C900.482 40.048 900.949 39.9173 901.322 39.656C901.695 39.3947 901.952 39.0213 902.092 38.536H903.464C903.259 39.32 902.848 39.95 902.232 40.426C901.616 40.8927 900.846 41.126 899.922 41.126C899.194 41.126 898.545 40.9627 897.976 40.636C897.416 40.3093 896.977 39.8473 896.66 39.25C896.343 38.6527 896.184 37.9527 896.184 37.15ZM908.972 33.188C909.551 33.188 910.073 33.314 910.54 33.566C911.007 33.8087 911.371 34.1773 911.632 34.672C911.903 35.1667 912.038 35.7687 912.038 36.478V41H910.778V36.66C910.778 35.8947 910.587 35.3113 910.204 34.91C909.821 34.4993 909.299 34.294 908.636 34.294C907.964 34.294 907.427 34.504 907.026 34.924C906.634 35.344 906.438 35.9553 906.438 36.758V41H905.164V30.64H906.438V34.42C906.69 34.028 907.035 33.7247 907.474 33.51C907.922 33.2953 908.421 33.188 908.972 33.188ZM920.973 34.378H919.363V41H918.089V34.378H917.095V33.328H918.089V32.782C918.089 31.9233 918.309 31.298 918.747 30.906C919.195 30.5047 919.909 30.304 920.889 30.304V31.368C920.329 31.368 919.933 31.48 919.699 31.704C919.475 31.9187 919.363 32.278 919.363 32.782V33.328H920.973V34.378ZM925.805 41.126C925.086 41.126 924.433 40.9627 923.845 40.636C923.266 40.3093 922.809 39.8473 922.473 39.25C922.146 38.6433 921.983 37.9433 921.983 37.15C921.983 36.366 922.151 35.6753 922.487 35.078C922.832 34.4713 923.299 34.0093 923.887 33.692C924.475 33.3653 925.133 33.202 925.861 33.202C926.589 33.202 927.247 33.3653 927.835 33.692C928.423 34.0093 928.885 34.4667 929.221 35.064C929.566 35.6613 929.739 36.3567 929.739 37.15C929.739 37.9433 929.562 38.6433 929.207 39.25C928.862 39.8473 928.39 40.3093 927.793 40.636C927.196 40.9627 926.533 41.126 925.805 41.126ZM925.805 40.006C926.262 40.006 926.692 39.8987 927.093 39.684C927.494 39.4693 927.816 39.1473 928.059 38.718C928.311 38.2887 928.437 37.766 928.437 37.15C928.437 36.534 928.316 36.0113 928.073 35.582C927.83 35.1527 927.513 34.8353 927.121 34.63C926.729 34.4153 926.304 34.308 925.847 34.308C925.38 34.308 924.951 34.4153 924.559 34.63C924.176 34.8353 923.868 35.1527 923.635 35.582C923.402 36.0113 923.285 36.534 923.285 37.15C923.285 37.7753 923.397 38.3027 923.621 38.732C923.854 39.1613 924.162 39.4833 924.545 39.698C924.928 39.9033 925.348 40.006 925.805 40.006ZM932.688 34.574C932.912 34.1353 933.229 33.7947 933.64 33.552C934.06 33.3093 934.569 33.188 935.166 33.188V34.504H934.83C933.402 34.504 932.688 35.2787 932.688 36.828V41H931.414V33.328H932.688V34.574ZM939.893 37.136C939.893 36.352 940.052 35.666 940.369 35.078C940.686 34.4807 941.12 34.0187 941.671 33.692C942.231 33.3653 942.852 33.202 943.533 33.202C944.205 33.202 944.788 33.3467 945.283 33.636C945.778 33.9253 946.146 34.2893 946.389 34.728V33.328H947.677V41H946.389V39.572C946.137 40.02 945.759 40.3933 945.255 40.692C944.76 40.9813 944.182 41.126 943.519 41.126C942.838 41.126 942.222 40.958 941.671 40.622C941.12 40.286 940.686 39.8147 940.369 39.208C940.052 38.6013 939.893 37.9107 939.893 37.136ZM946.389 37.15C946.389 36.5713 946.272 36.0673 946.039 35.638C945.806 35.2087 945.488 34.882 945.087 34.658C944.695 34.4247 944.261 34.308 943.785 34.308C943.309 34.308 942.875 34.42 942.483 34.644C942.091 34.868 941.778 35.1947 941.545 35.624C941.312 36.0533 941.195 36.5573 941.195 37.136C941.195 37.724 941.312 38.2373 941.545 38.676C941.778 39.1053 942.091 39.4367 942.483 39.67C942.875 39.894 943.309 40.006 943.785 40.006C944.261 40.006 944.695 39.894 945.087 39.67C945.488 39.4367 945.806 39.1053 946.039 38.676C946.272 38.2373 946.389 37.7287 946.389 37.15ZM955.116 34.378V38.9C955.116 39.2733 955.196 39.5393 955.354 39.698C955.513 39.8473 955.788 39.922 956.18 39.922H957.118V41H955.97C955.261 41 954.729 40.8367 954.374 40.51C954.02 40.1833 953.842 39.6467 953.842 38.9V34.378H952.848V33.328H953.842V31.396H955.116V33.328H957.118V34.378H955.116ZM965.662 36.87C965.662 37.1127 965.648 37.3693 965.62 37.64H959.488C959.535 38.396 959.791 38.9887 960.258 39.418C960.734 39.838 961.308 40.048 961.98 40.048C962.531 40.048 962.988 39.922 963.352 39.67C963.725 39.4087 963.987 39.0633 964.136 38.634H965.508C965.303 39.3713 964.892 39.9733 964.276 40.44C963.66 40.8973 962.895 41.126 961.98 41.126C961.252 41.126 960.599 40.9627 960.02 40.636C959.451 40.3093 959.003 39.8473 958.676 39.25C958.349 38.6433 958.186 37.9433 958.186 37.15C958.186 36.3567 958.345 35.6613 958.662 35.064C958.979 34.4667 959.423 34.0093 959.992 33.692C960.571 33.3653 961.233 33.202 961.98 33.202C962.708 33.202 963.352 33.3607 963.912 33.678C964.472 33.9953 964.901 34.434 965.2 34.994C965.508 35.5447 965.662 36.17 965.662 36.87ZM964.346 36.604C964.346 36.1187 964.239 35.7033 964.024 35.358C963.809 35.0033 963.515 34.7373 963.142 34.56C962.778 34.3733 962.372 34.28 961.924 34.28C961.28 34.28 960.729 34.4853 960.272 34.896C959.824 35.3067 959.567 35.876 959.502 36.604H964.346ZM970.06 41.126C969.472 41.126 968.944 41.028 968.478 40.832C968.011 40.6267 967.642 40.3467 967.372 39.992C967.101 39.628 966.952 39.2127 966.924 38.746H968.24C968.277 39.1287 968.454 39.4413 968.772 39.684C969.098 39.9267 969.523 40.048 970.046 40.048C970.531 40.048 970.914 39.9407 971.194 39.726C971.474 39.5113 971.614 39.2407 971.614 38.914C971.614 38.578 971.464 38.3307 971.166 38.172C970.867 38.004 970.405 37.8407 969.78 37.682C969.21 37.5327 968.744 37.3833 968.38 37.234C968.025 37.0753 967.717 36.8467 967.456 36.548C967.204 36.24 967.078 35.8387 967.078 35.344C967.078 34.952 967.194 34.5927 967.428 34.266C967.661 33.9393 967.992 33.6827 968.422 33.496C968.851 33.3 969.341 33.202 969.892 33.202C970.741 33.202 971.427 33.4167 971.95 33.846C972.472 34.2753 972.752 34.8633 972.79 35.61H971.516C971.488 35.2087 971.324 34.8867 971.026 34.644C970.736 34.4013 970.344 34.28 969.85 34.28C969.392 34.28 969.028 34.378 968.758 34.574C968.487 34.77 968.352 35.0267 968.352 35.344C968.352 35.596 968.431 35.806 968.59 35.974C968.758 36.1327 968.963 36.2633 969.206 36.366C969.458 36.4593 969.803 36.5667 970.242 36.688C970.792 36.8373 971.24 36.9867 971.586 37.136C971.931 37.276 972.225 37.4907 972.468 37.78C972.72 38.0693 972.85 38.4473 972.86 38.914C972.86 39.334 972.743 39.712 972.51 40.048C972.276 40.384 971.945 40.65 971.516 40.846C971.096 41.0327 970.61 41.126 970.06 41.126ZM976.212 34.378V38.9C976.212 39.2733 976.291 39.5393 976.45 39.698C976.609 39.8473 976.884 39.922 977.276 39.922H978.214V41H977.066C976.357 41 975.825 40.8367 975.47 40.51C975.115 40.1833 974.938 39.6467 974.938 38.9V34.378H973.944V33.328H974.938V31.396H976.212V33.328H978.214V34.378H976.212Z" fill="#212427"/>
</svg>
