<svg width="1116" height="140" viewBox="0 0 1116 140" fill="none" xmlns="http://www.w3.org/2000/svg">
<rect x="24.5" y="20.5" width="1067" height="99" rx="11.5" stroke="black" stroke-opacity="0.06"/>
<g filter="url(#filter0_d_266_4505)">
<path fill-rule="evenodd" clip-rule="evenodd" d="M1053.83 87.4731C1053.55 87.0969 1053.22 86.3277 1052.61 85.394C1052.27 84.8658 1051.43 83.8713 1051.18 83.3662C1050.96 82.9198 1050.98 82.7196 1051.04 82.3497C1051.13 81.6916 1051.76 81.1792 1052.43 81.2483C1052.94 81.2997 1053.37 81.6591 1053.76 81.9987C1053.99 82.203 1054.28 82.6002 1054.45 82.8244C1054.61 83.0298 1054.65 83.1147 1054.82 83.3578C1055.04 83.6795 1055.11 83.8388 1055.03 83.4846C1054.96 82.9649 1054.85 82.0773 1054.68 81.2924C1054.56 80.6971 1054.53 80.6039 1054.41 80.147C1054.28 79.6607 1054.22 79.3201 1054.1 78.8046C1054.01 78.4399 1053.87 77.6948 1053.83 77.2756C1053.77 76.7024 1053.74 75.7676 1054.08 75.338C1054.35 75.0016 1054.97 74.9 1055.35 75.1074C1055.85 75.3789 1056.14 76.1585 1056.27 76.4698C1056.5 77.0294 1056.65 77.6759 1056.77 78.5248C1056.94 79.6052 1057.23 81.1048 1057.24 81.4202C1057.26 81.0335 1057.17 80.2193 1057.24 79.8483C1057.29 79.5119 1057.56 79.121 1057.89 79.0152C1058.17 78.9261 1058.5 78.8936 1058.78 78.9576C1059.09 79.0246 1059.41 79.2594 1059.53 79.4805C1059.89 80.1344 1059.9 81.4705 1059.91 81.3992C1059.99 81.0052 1059.98 80.1113 1060.19 79.7393C1060.32 79.4941 1060.67 79.273 1060.86 79.2374C1061.15 79.1829 1061.5 79.1661 1061.8 79.229C1062.05 79.2803 1062.38 79.5905 1062.47 79.7393C1062.68 80.0998 1062.8 81.1194 1062.84 81.4768C1062.85 81.6245 1062.91 81.066 1063.12 80.7055C1063.52 80.0359 1064.93 79.9059 1064.98 81.3751C1065 82.0605 1065 82.0291 1065 82.4901C1065 83.0319 1064.99 83.3578 1064.96 83.7498C1064.93 84.1689 1064.85 85.1163 1064.72 85.5753C1064.64 85.8907 1064.36 86.6001 1064.09 87.0256C1064.09 87.0256 1063.03 88.3355 1062.92 88.9255C1062.8 89.5144 1062.84 89.5186 1062.82 89.9368C1062.8 90.3538 1062.94 90.903 1062.94 90.903C1062.94 90.903 1062.15 91.0119 1061.73 90.9396C1061.35 90.8736 1060.88 90.0583 1060.75 89.8089C1060.58 89.4652 1060.23 89.5312 1060.09 89.7848C1059.87 90.1862 1059.39 90.9061 1059.06 90.9512C1058.4 91.0392 1057.05 90.9836 1055.99 90.9721C1055.99 90.9721 1056.17 89.9127 1055.76 89.549C1055.47 89.2776 1054.95 88.7274 1054.64 88.4382L1053.83 87.4731Z" fill="white"/>
<path fill-rule="evenodd" clip-rule="evenodd" d="M1053.83 87.4731C1053.55 87.0969 1053.22 86.3277 1052.61 85.394C1052.27 84.8658 1051.43 83.8713 1051.18 83.3662C1050.96 82.9198 1050.98 82.7196 1051.04 82.3497C1051.13 81.6916 1051.76 81.1792 1052.43 81.2483C1052.94 81.2997 1053.37 81.6591 1053.76 81.9987C1053.99 82.203 1054.28 82.6002 1054.45 82.8244C1054.61 83.0298 1054.65 83.1147 1054.82 83.3578C1055.04 83.6795 1055.11 83.8388 1055.03 83.4846C1054.96 82.9649 1054.85 82.0773 1054.68 81.2924C1054.56 80.6971 1054.53 80.6039 1054.41 80.147C1054.28 79.6607 1054.22 79.3201 1054.1 78.8046C1054.01 78.4399 1053.87 77.6948 1053.83 77.2756C1053.77 76.7024 1053.74 75.7676 1054.08 75.338C1054.35 75.0016 1054.97 74.9 1055.35 75.1074C1055.85 75.3789 1056.14 76.1585 1056.27 76.4698C1056.5 77.0294 1056.65 77.6759 1056.77 78.5248C1056.94 79.6052 1057.23 81.1048 1057.24 81.4202C1057.26 81.0335 1057.17 80.2193 1057.24 79.8483C1057.29 79.5119 1057.56 79.121 1057.89 79.0152C1058.17 78.9261 1058.5 78.8936 1058.78 78.9576C1059.09 79.0246 1059.41 79.2594 1059.53 79.4805C1059.89 80.1344 1059.9 81.4705 1059.91 81.3992C1059.99 81.0052 1059.98 80.1113 1060.19 79.7393C1060.32 79.4941 1060.67 79.273 1060.86 79.2374C1061.15 79.1829 1061.5 79.1661 1061.8 79.229C1062.05 79.2803 1062.38 79.5905 1062.47 79.7393C1062.68 80.0998 1062.8 81.1194 1062.84 81.4768C1062.85 81.6245 1062.91 81.066 1063.12 80.7055C1063.52 80.0359 1064.93 79.9059 1064.98 81.3751C1065 82.0605 1065 82.0291 1065 82.4901C1065 83.0319 1064.99 83.3578 1064.96 83.7498C1064.93 84.1689 1064.85 85.1163 1064.72 85.5753C1064.64 85.8907 1064.36 86.6001 1064.09 87.0256C1064.09 87.0256 1063.03 88.3355 1062.92 88.9255C1062.8 89.5144 1062.84 89.5186 1062.82 89.9368C1062.8 90.3538 1062.94 90.903 1062.94 90.903C1062.94 90.903 1062.15 91.0119 1061.73 90.9396C1061.35 90.8736 1060.88 90.0583 1060.75 89.8089C1060.58 89.4652 1060.23 89.5312 1060.09 89.7848C1059.87 90.1862 1059.39 90.9061 1059.06 90.9512C1058.4 91.0392 1057.05 90.9836 1055.99 90.9721C1055.99 90.9721 1056.17 89.9127 1055.76 89.549C1055.47 89.2776 1054.95 88.7274 1054.64 88.4382L1053.83 87.4731Z" stroke="black" stroke-width="0.75" stroke-linecap="round" stroke-linejoin="round"/>
</g>
<path fill-rule="evenodd" clip-rule="evenodd" d="M1058 84.5C1058 84.2239 1057.78 84 1057.5 84C1057.22 84 1057 84.2239 1057 84.5V87.5C1057 87.7761 1057.22 88 1057.5 88C1057.78 88 1058 87.7761 1058 87.5V84.5ZM1059.5 84C1059.78 84 1060 84.2239 1060 84.5V87.5C1060 87.7761 1059.78 88 1059.5 88C1059.22 88 1059 87.7761 1059 87.5V84.5C1059 84.2239 1059.22 84 1059.5 84ZM1061.5 84C1061.78 84 1062 84.2239 1062 84.5V87.5C1062 87.7761 1061.78 88 1061.5 88C1061.22 88 1061 87.7761 1061 87.5V84.5C1061 84.2239 1061.22 84 1061.5 84Z" fill="black"/>
<path d="M1045 44H1053H1061L1054.41 50.5858C1053.63 51.3668 1052.37 51.3668 1051.59 50.5858L1045 44Z" fill="#212427" fill-opacity="0.88"/>
<rect x="1015" y="10" width="75" height="34" rx="6" fill="#212427" fill-opacity="0.88"/>
<rect x="1015" y="10" width="75" height="34" rx="6" fill="#212427" fill-opacity="0.88"/>
<path d="M1029.3 32L1026.98 28.01H1025.44V32H1024.16V22.242H1027.31C1028.05 22.242 1028.67 22.368 1029.17 22.62C1029.69 22.872 1030.07 23.2127 1030.32 23.642C1030.57 24.0713 1030.7 24.5613 1030.7 25.112C1030.7 25.784 1030.5 26.3767 1030.11 26.89C1029.73 27.4033 1029.15 27.744 1028.38 27.912L1030.83 32H1029.3ZM1025.44 26.988H1027.31C1028 26.988 1028.52 26.82 1028.87 26.484C1029.21 26.1387 1029.38 25.6813 1029.38 25.112C1029.38 24.5333 1029.21 24.0853 1028.87 23.768C1028.53 23.4507 1028.01 23.292 1027.31 23.292H1025.44V26.988ZM1039.48 24.328V32H1038.21V30.866C1037.97 31.258 1037.63 31.566 1037.19 31.79C1036.76 32.0047 1036.28 32.112 1035.76 32.112C1035.16 32.112 1034.63 31.9907 1034.15 31.748C1033.67 31.496 1033.3 31.1227 1033.02 30.628C1032.75 30.1333 1032.61 29.5313 1032.61 28.822V24.328H1033.87V28.654C1033.87 29.41 1034.06 29.9933 1034.44 30.404C1034.83 30.8053 1035.35 31.006 1036.01 31.006C1036.69 31.006 1037.23 30.796 1037.62 30.376C1038.01 29.956 1038.21 29.3447 1038.21 28.542V24.328H1039.48ZM1045.37 24.188C1046.31 24.188 1047.06 24.4727 1047.64 25.042C1048.22 25.602 1048.51 26.414 1048.51 27.478V32H1047.25V27.66C1047.25 26.8947 1047.06 26.3113 1046.68 25.91C1046.29 25.4993 1045.77 25.294 1045.11 25.294C1044.44 25.294 1043.9 25.504 1043.5 25.924C1043.11 26.344 1042.91 26.9553 1042.91 27.758V32H1041.64V24.328H1042.91V25.42C1043.16 25.028 1043.5 24.7247 1043.93 24.51C1044.37 24.2953 1044.85 24.188 1045.37 24.188ZM1060.33 22.242V23.278H1057.67V32H1056.4V23.278H1053.72V22.242H1060.33ZM1068.9 27.87C1068.9 28.1127 1068.88 28.3693 1068.86 28.64H1062.72C1062.77 29.396 1063.03 29.9887 1063.49 30.418C1063.97 30.838 1064.54 31.048 1065.22 31.048C1065.77 31.048 1066.22 30.922 1066.59 30.67C1066.96 30.4087 1067.22 30.0633 1067.37 29.634H1068.74C1068.54 30.3713 1068.13 30.9733 1067.51 31.44C1066.9 31.8973 1066.13 32.126 1065.22 32.126C1064.49 32.126 1063.83 31.9627 1063.26 31.636C1062.69 31.3093 1062.24 30.8473 1061.91 30.25C1061.58 29.6433 1061.42 28.9433 1061.42 28.15C1061.42 27.3567 1061.58 26.6613 1061.9 26.064C1062.21 25.4667 1062.66 25.0093 1063.23 24.692C1063.81 24.3653 1064.47 24.202 1065.22 24.202C1065.94 24.202 1066.59 24.3607 1067.15 24.678C1067.71 24.9953 1068.14 25.434 1068.44 25.994C1068.74 26.5447 1068.9 27.17 1068.9 27.87ZM1067.58 27.604C1067.58 27.1187 1067.47 26.7033 1067.26 26.358C1067.04 26.0033 1066.75 25.7373 1066.38 25.56C1066.01 25.3733 1065.61 25.28 1065.16 25.28C1064.52 25.28 1063.96 25.4853 1063.51 25.896C1063.06 26.3067 1062.8 26.876 1062.74 27.604H1067.58ZM1073.29 32.126C1072.71 32.126 1072.18 32.028 1071.71 31.832C1071.25 31.6267 1070.88 31.3467 1070.61 30.992C1070.34 30.628 1070.19 30.2127 1070.16 29.746H1071.47C1071.51 30.1287 1071.69 30.4413 1072.01 30.684C1072.33 30.9267 1072.76 31.048 1073.28 31.048C1073.77 31.048 1074.15 30.9407 1074.43 30.726C1074.71 30.5113 1074.85 30.2407 1074.85 29.914C1074.85 29.578 1074.7 29.3307 1074.4 29.172C1074.1 29.004 1073.64 28.8407 1073.01 28.682C1072.45 28.5327 1071.98 28.3833 1071.61 28.234C1071.26 28.0753 1070.95 27.8467 1070.69 27.548C1070.44 27.24 1070.31 26.8387 1070.31 26.344C1070.31 25.952 1070.43 25.5927 1070.66 25.266C1070.9 24.9393 1071.23 24.6827 1071.66 24.496C1072.09 24.3 1072.58 24.202 1073.13 24.202C1073.98 24.202 1074.66 24.4167 1075.18 24.846C1075.71 25.2753 1075.99 25.8633 1076.02 26.61H1074.75C1074.72 26.2087 1074.56 25.8867 1074.26 25.644C1073.97 25.4013 1073.58 25.28 1073.08 25.28C1072.63 25.28 1072.26 25.378 1071.99 25.574C1071.72 25.77 1071.59 26.0267 1071.59 26.344C1071.59 26.596 1071.67 26.806 1071.82 26.974C1071.99 27.1327 1072.2 27.2633 1072.44 27.366C1072.69 27.4593 1073.04 27.5667 1073.48 27.688C1074.03 27.8373 1074.48 27.9867 1074.82 28.136C1075.17 28.276 1075.46 28.4907 1075.7 28.78C1075.95 29.0693 1076.09 29.4473 1076.09 29.914C1076.09 30.334 1075.98 30.712 1075.74 31.048C1075.51 31.384 1075.18 31.65 1074.75 31.846C1074.33 32.0327 1073.85 32.126 1073.29 32.126ZM1079.45 25.378V29.9C1079.45 30.2733 1079.53 30.5393 1079.69 30.698C1079.84 30.8473 1080.12 30.922 1080.51 30.922H1081.45V32H1080.3C1079.59 32 1079.06 31.8367 1078.71 31.51C1078.35 31.1833 1078.17 30.6467 1078.17 29.9V25.378H1077.18V24.328H1078.17V22.396H1079.45V24.328H1081.45V25.378H1079.45Z" fill="white"/>
<path d="M61.28 47.832V59H59.04V51.736L56.048 59H54.352L51.344 51.736V59H49.104V47.832H51.648L55.2 56.136L58.752 47.832H61.28ZM71.9746 50.136L66.4866 63.192H64.1026L66.0226 58.776L62.4706 50.136H64.9826L67.2706 56.328L69.5906 50.136H71.9746ZM80.3866 59.144C79.6613 59.144 79.0106 59.016 78.4346 58.76C77.8586 58.4933 77.4 58.136 77.0586 57.688C76.728 57.24 76.5466 56.744 76.5146 56.2H78.7706C78.8133 56.5413 78.9786 56.824 79.2666 57.048C79.5653 57.272 79.9333 57.384 80.3706 57.384C80.7973 57.384 81.128 57.2987 81.3626 57.128C81.608 56.9573 81.7306 56.7387 81.7306 56.472C81.7306 56.184 81.5813 55.9707 81.2826 55.832C80.9946 55.6827 80.5306 55.5227 79.8906 55.352C79.2293 55.192 78.6853 55.0267 78.2586 54.856C77.8426 54.6853 77.48 54.424 77.1706 54.072C76.872 53.72 76.7226 53.2453 76.7226 52.648C76.7226 52.1573 76.8613 51.7093 77.1386 51.304C77.4266 50.8987 77.832 50.5787 78.3546 50.344C78.888 50.1093 79.512 49.992 80.2266 49.992C81.2826 49.992 82.1253 50.2587 82.7546 50.792C83.384 51.3147 83.7306 52.024 83.7946 52.92H81.6506C81.6186 52.568 81.4693 52.2907 81.2026 52.088C80.9466 51.8747 80.6 51.768 80.1626 51.768C79.7573 51.768 79.4426 51.8427 79.2186 51.992C79.0053 52.1413 78.8986 52.3493 78.8986 52.616C78.8986 52.9147 79.048 53.144 79.3466 53.304C79.6453 53.4533 80.1093 53.608 80.7386 53.768C81.3786 53.928 81.9066 54.0933 82.3226 54.264C82.7386 54.4347 83.096 54.7013 83.3946 55.064C83.704 55.416 83.864 55.8853 83.8746 56.472C83.8746 56.984 83.7306 57.4427 83.4426 57.848C83.1653 58.2533 82.76 58.5733 82.2266 58.808C81.704 59.032 81.0906 59.144 80.3866 59.144ZM93.9534 54.376C93.9534 54.696 93.932 54.984 93.8894 55.24H87.4094C87.4627 55.88 87.6867 56.3813 88.0814 56.744C88.476 57.1067 88.9614 57.288 89.5374 57.288C90.3694 57.288 90.9614 56.9307 91.3134 56.216H93.7294C93.4734 57.0693 92.9827 57.7733 92.2574 58.328C91.532 58.872 90.6414 59.144 89.5854 59.144C88.732 59.144 87.964 58.9573 87.2814 58.584C86.6094 58.2 86.0814 57.6613 85.6974 56.968C85.324 56.2747 85.1374 55.4747 85.1374 54.568C85.1374 53.6507 85.324 52.8453 85.6974 52.152C86.0707 51.4587 86.5934 50.9253 87.2654 50.552C87.9374 50.1787 88.7107 49.992 89.5854 49.992C90.428 49.992 91.18 50.1733 91.8414 50.536C92.5134 50.8987 93.0307 51.416 93.3934 52.088C93.7667 52.7493 93.9534 53.512 93.9534 54.376ZM91.6334 53.736C91.6227 53.16 91.4147 52.7013 91.0094 52.36C90.604 52.008 90.108 51.832 89.5214 51.832C88.9667 51.832 88.4974 52.0027 88.1134 52.344C87.74 52.6747 87.5107 53.1387 87.4254 53.736H91.6334ZM95.0124 54.568C95.0124 53.6507 95.199 52.8507 95.5724 52.168C95.9457 51.4747 96.463 50.9413 97.1244 50.568C97.7857 50.184 98.543 49.992 99.3964 49.992C100.495 49.992 101.402 50.2693 102.116 50.824C102.842 51.368 103.327 52.136 103.572 53.128H101.156C101.028 52.744 100.81 52.4453 100.5 52.232C100.202 52.008 99.8284 51.896 99.3804 51.896C98.7404 51.896 98.2337 52.1307 97.8604 52.6C97.487 53.0587 97.3004 53.7147 97.3004 54.568C97.3004 55.4107 97.487 56.0667 97.8604 56.536C98.2337 56.9947 98.7404 57.224 99.3804 57.224C100.287 57.224 100.879 56.8187 101.156 56.008H103.572C103.327 56.968 102.842 57.7307 102.116 58.296C101.391 58.8613 100.484 59.144 99.3964 59.144C98.543 59.144 97.7857 58.9573 97.1244 58.584C96.463 58.2 95.9457 57.6667 95.5724 56.984C95.199 56.2907 95.0124 55.4853 95.0124 54.568ZM109.149 59.144C108.296 59.144 107.528 58.9573 106.845 58.584C106.163 58.2 105.624 57.6613 105.229 56.968C104.845 56.2747 104.653 55.4747 104.653 54.568C104.653 53.6613 104.851 52.8613 105.245 52.168C105.651 51.4747 106.2 50.9413 106.893 50.568C107.587 50.184 108.36 49.992 109.213 49.992C110.067 49.992 110.84 50.184 111.533 50.568C112.227 50.9413 112.771 51.4747 113.165 52.168C113.571 52.8613 113.773 53.6613 113.773 54.568C113.773 55.4747 113.565 56.2747 113.149 56.968C112.744 57.6613 112.189 58.2 111.485 58.584C110.792 58.9573 110.013 59.144 109.149 59.144ZM109.149 57.192C109.555 57.192 109.933 57.096 110.285 56.904C110.648 56.7013 110.936 56.4027 111.149 56.008C111.363 55.6133 111.469 55.1333 111.469 54.568C111.469 53.7253 111.245 53.08 110.797 52.632C110.36 52.1733 109.821 51.944 109.181 51.944C108.541 51.944 108.003 52.1733 107.565 52.632C107.139 53.08 106.925 53.7253 106.925 54.568C106.925 55.4107 107.133 56.0613 107.549 56.52C107.976 56.968 108.509 57.192 109.149 57.192ZM120.329 50.008C121.385 50.008 122.238 50.344 122.889 51.016C123.539 51.6773 123.865 52.6053 123.865 53.8V59H121.625V54.104C121.625 53.4 121.449 52.8613 121.097 52.488C120.745 52.104 120.265 51.912 119.657 51.912C119.038 51.912 118.547 52.104 118.185 52.488C117.833 52.8613 117.657 53.4 117.657 54.104V59H115.417V50.136H117.657V51.24C117.955 50.856 118.334 50.5573 118.793 50.344C119.262 50.12 119.774 50.008 120.329 50.008ZM125.419 54.536C125.419 53.64 125.595 52.8453 125.947 52.152C126.309 51.4587 126.8 50.9253 127.419 50.552C128.037 50.1787 128.725 49.992 129.483 49.992C130.059 49.992 130.608 50.12 131.131 50.376C131.653 50.6213 132.069 50.952 132.379 51.368V47.16H134.651V59H132.379V57.688C132.101 58.1253 131.712 58.4773 131.211 58.744C130.709 59.0107 130.128 59.144 129.467 59.144C128.72 59.144 128.037 58.952 127.419 58.568C126.8 58.184 126.309 57.6453 125.947 56.952C125.595 56.248 125.419 55.4427 125.419 54.536ZM132.395 54.568C132.395 54.024 132.288 53.56 132.075 53.176C131.861 52.7813 131.573 52.4827 131.211 52.28C130.848 52.0667 130.459 51.96 130.043 51.96C129.627 51.96 129.243 52.0613 128.891 52.264C128.539 52.4667 128.251 52.7653 128.027 53.16C127.813 53.544 127.707 54.0027 127.707 54.536C127.707 55.0693 127.813 55.5387 128.027 55.944C128.251 56.3387 128.539 56.6427 128.891 56.856C129.253 57.0693 129.637 57.176 130.043 57.176C130.459 57.176 130.848 57.0747 131.211 56.872C131.573 56.6587 131.861 56.36 132.075 55.976C132.288 55.5813 132.395 55.112 132.395 54.568ZM143.259 51.976V56.264C143.259 56.5627 143.328 56.7813 143.467 56.92C143.616 57.048 143.862 57.112 144.203 57.112H145.243V59H143.835C141.947 59 141.003 58.0827 141.003 56.248V51.976H139.947V50.136H141.003V47.944H143.259V50.136H145.243V51.976H143.259ZM155.094 54.376C155.094 54.696 155.073 54.984 155.03 55.24H148.55C148.603 55.88 148.827 56.3813 149.222 56.744C149.617 57.1067 150.102 57.288 150.678 57.288C151.51 57.288 152.102 56.9307 152.454 56.216H154.87C154.614 57.0693 154.123 57.7733 153.398 58.328C152.673 58.872 151.782 59.144 150.726 59.144C149.873 59.144 149.105 58.9573 148.422 58.584C147.75 58.2 147.222 57.6613 146.838 56.968C146.465 56.2747 146.278 55.4747 146.278 54.568C146.278 53.6507 146.465 52.8453 146.838 52.152C147.211 51.4587 147.734 50.9253 148.406 50.552C149.078 50.1787 149.851 49.992 150.726 49.992C151.569 49.992 152.321 50.1733 152.982 50.536C153.654 50.8987 154.171 51.416 154.534 52.088C154.907 52.7493 155.094 53.512 155.094 54.376ZM152.774 53.736C152.763 53.16 152.555 52.7013 152.15 52.36C151.745 52.008 151.249 51.832 150.662 51.832C150.107 51.832 149.638 52.0027 149.254 52.344C148.881 52.6747 148.651 53.1387 148.566 53.736H152.774ZM160.121 59.144C159.396 59.144 158.745 59.016 158.169 58.76C157.593 58.4933 157.134 58.136 156.793 57.688C156.462 57.24 156.281 56.744 156.249 56.2H158.505C158.548 56.5413 158.713 56.824 159.001 57.048C159.3 57.272 159.668 57.384 160.105 57.384C160.532 57.384 160.862 57.2987 161.097 57.128C161.342 56.9573 161.465 56.7387 161.465 56.472C161.465 56.184 161.316 55.9707 161.017 55.832C160.729 55.6827 160.265 55.5227 159.625 55.352C158.964 55.192 158.42 55.0267 157.993 54.856C157.577 54.6853 157.214 54.424 156.905 54.072C156.606 53.72 156.457 53.2453 156.457 52.648C156.457 52.1573 156.596 51.7093 156.873 51.304C157.161 50.8987 157.566 50.5787 158.089 50.344C158.622 50.1093 159.246 49.992 159.961 49.992C161.017 49.992 161.86 50.2587 162.489 50.792C163.118 51.3147 163.465 52.024 163.529 52.92H161.385C161.353 52.568 161.204 52.2907 160.937 52.088C160.681 51.8747 160.334 51.768 159.897 51.768C159.492 51.768 159.177 51.8427 158.953 51.992C158.74 52.1413 158.633 52.3493 158.633 52.616C158.633 52.9147 158.782 53.144 159.081 53.304C159.38 53.4533 159.844 53.608 160.473 53.768C161.113 53.928 161.641 54.0933 162.057 54.264C162.473 54.4347 162.83 54.7013 163.129 55.064C163.438 55.416 163.598 55.8853 163.609 56.472C163.609 56.984 163.465 57.4427 163.177 57.848C162.9 58.2533 162.494 58.5733 161.961 58.808C161.438 59.032 160.825 59.144 160.121 59.144ZM168.056 51.976V56.264C168.056 56.5627 168.125 56.7813 168.264 56.92C168.413 57.048 168.658 57.112 169 57.112H170.04V59H168.632C166.744 59 165.8 58.0827 165.8 56.248V51.976H164.744V50.136H165.8V47.944H168.056V50.136H170.04V51.976H168.056Z" fill="#212427"/>
<rect x="48" y="77" width="158" height="22" rx="4" fill="black" fill-opacity="0.02"/>
<rect x="48.5" y="77.5" width="157" height="21" rx="3.5" stroke="black" stroke-opacity="0.15"/>
<path d="M59.528 83.636C60.44 83.636 61.228 83.808 61.892 84.152C62.564 84.488 63.076 84.972 63.428 85.604C63.788 86.236 63.968 86.98 63.968 87.836C63.968 88.692 63.788 89.436 63.428 90.068C63.076 90.692 62.564 91.172 61.892 91.508C61.228 91.836 60.44 92 59.528 92H56.924V83.636H59.528ZM59.528 91.1C60.608 91.1 61.432 90.816 62 90.248C62.568 89.672 62.852 88.868 62.852 87.836C62.852 86.796 62.564 85.984 61.988 85.4C61.42 84.816 60.6 84.524 59.528 84.524H58.016V91.1H59.528ZM65.9724 84.356C65.7644 84.356 65.5884 84.284 65.4444 84.14C65.3004 83.996 65.2284 83.82 65.2284 83.612C65.2284 83.404 65.3004 83.228 65.4444 83.084C65.5884 82.94 65.7644 82.868 65.9724 82.868C66.1724 82.868 66.3404 82.94 66.4764 83.084C66.6204 83.228 66.6924 83.404 66.6924 83.612C66.6924 83.82 66.6204 83.996 66.4764 84.14C66.3404 84.284 66.1724 84.356 65.9724 84.356ZM66.5004 85.424V92H65.4084V85.424H66.5004ZM70.6895 92.108C70.1855 92.108 69.7335 92.024 69.3335 91.856C68.9335 91.68 68.6175 91.44 68.3855 91.136C68.1535 90.824 68.0255 90.468 68.0015 90.068H69.1295C69.1615 90.396 69.3135 90.664 69.5855 90.872C69.8655 91.08 70.2295 91.184 70.6775 91.184C71.0935 91.184 71.4215 91.092 71.6615 90.908C71.9015 90.724 72.0215 90.492 72.0215 90.212C72.0215 89.924 71.8935 89.712 71.6375 89.576C71.3815 89.432 70.9855 89.292 70.4495 89.156C69.9615 89.028 69.5615 88.9 69.2495 88.772C68.9455 88.636 68.6815 88.44 68.4575 88.184C68.2415 87.92 68.1335 87.576 68.1335 87.152C68.1335 86.816 68.2335 86.508 68.4335 86.228C68.6335 85.948 68.9175 85.728 69.2855 85.568C69.6535 85.4 70.0735 85.316 70.5455 85.316C71.2735 85.316 71.8615 85.5 72.3095 85.868C72.7575 86.236 72.9975 86.74 73.0295 87.38H71.9375C71.9135 87.036 71.7735 86.76 71.5175 86.552C71.2695 86.344 70.9335 86.24 70.5095 86.24C70.1175 86.24 69.8055 86.324 69.5735 86.492C69.3415 86.66 69.2255 86.88 69.2255 87.152C69.2255 87.368 69.2935 87.548 69.4295 87.692C69.5735 87.828 69.7495 87.94 69.9575 88.028C70.1735 88.108 70.4695 88.2 70.8455 88.304C71.3175 88.432 71.7015 88.56 71.9975 88.688C72.2935 88.808 72.5455 88.992 72.7535 89.24C72.9695 89.488 73.0815 89.812 73.0895 90.212C73.0895 90.572 72.9895 90.896 72.7895 91.184C72.5895 91.472 72.3055 91.7 71.9375 91.868C71.5775 92.028 71.1615 92.108 70.6895 92.108ZM74.223 88.688C74.223 88.016 74.359 87.428 74.631 86.924C74.903 86.412 75.275 86.016 75.747 85.736C76.227 85.456 76.759 85.316 77.343 85.316C77.919 85.316 78.419 85.44 78.843 85.688C79.267 85.936 79.583 86.248 79.791 86.624V85.424H80.895V92H79.791V90.776C79.575 91.16 79.251 91.48 78.819 91.736C78.395 91.984 77.899 92.108 77.331 92.108C76.747 92.108 76.219 91.964 75.747 91.676C75.275 91.388 74.903 90.984 74.631 90.464C74.359 89.944 74.223 89.352 74.223 88.688ZM79.791 88.7C79.791 88.204 79.691 87.772 79.491 87.404C79.291 87.036 79.019 86.756 78.675 86.564C78.339 86.364 77.967 86.264 77.559 86.264C77.151 86.264 76.779 86.36 76.443 86.552C76.107 86.744 75.839 87.024 75.639 87.392C75.439 87.76 75.339 88.192 75.339 88.688C75.339 89.192 75.439 89.632 75.639 90.008C75.839 90.376 76.107 90.66 76.443 90.86C76.779 91.052 77.151 91.148 77.559 91.148C77.967 91.148 78.339 91.052 78.675 90.86C79.019 90.66 79.291 90.376 79.491 90.008C79.691 89.632 79.791 89.196 79.791 88.7ZM83.8324 86.648C84.0564 86.256 84.3844 85.936 84.8164 85.688C85.2484 85.44 85.7404 85.316 86.2924 85.316C86.8844 85.316 87.4164 85.456 87.8884 85.736C88.3604 86.016 88.7324 86.412 89.0044 86.924C89.2764 87.428 89.4124 88.016 89.4124 88.688C89.4124 89.352 89.2764 89.944 89.0044 90.464C88.7324 90.984 88.3564 91.388 87.8764 91.676C87.4044 91.964 86.8764 92.108 86.2924 92.108C85.7244 92.108 85.2244 91.984 84.7924 91.736C84.3684 91.488 84.0484 91.172 83.8324 90.788V92H82.7404V83.12H83.8324V86.648ZM88.2964 88.688C88.2964 88.192 88.1964 87.76 87.9964 87.392C87.7964 87.024 87.5244 86.744 87.1804 86.552C86.8444 86.36 86.4724 86.264 86.0644 86.264C85.6644 86.264 85.2924 86.364 84.9484 86.564C84.6124 86.756 84.3404 87.04 84.1324 87.416C83.9324 87.784 83.8324 88.212 83.8324 88.7C83.8324 89.196 83.9324 89.632 84.1324 90.008C84.3404 90.376 84.6124 90.66 84.9484 90.86C85.2924 91.052 85.6644 91.148 86.0644 91.148C86.4724 91.148 86.8444 91.052 87.1804 90.86C87.5244 90.66 87.7964 90.376 87.9964 90.008C88.1964 89.632 88.2964 89.192 88.2964 88.688ZM91.9418 83.12V92H90.8498V83.12H91.9418ZM99.8029 88.46C99.8029 88.668 99.7909 88.888 99.7669 89.12H94.5109C94.5509 89.768 94.7709 90.276 95.1709 90.644C95.5789 91.004 96.0709 91.184 96.6469 91.184C97.1189 91.184 97.5109 91.076 97.8229 90.86C98.1429 90.636 98.3669 90.34 98.4949 89.972H99.6709C99.4949 90.604 99.1429 91.12 98.6149 91.52C98.0869 91.912 97.4309 92.108 96.6469 92.108C96.0229 92.108 95.4629 91.968 94.9669 91.688C94.4789 91.408 94.0949 91.012 93.8149 90.5C93.5349 89.98 93.3949 89.38 93.3949 88.7C93.3949 88.02 93.5309 87.424 93.8029 86.912C94.0749 86.4 94.4549 86.008 94.9429 85.736C95.4389 85.456 96.0069 85.316 96.6469 85.316C97.2709 85.316 97.8229 85.452 98.3029 85.724C98.7829 85.996 99.1509 86.372 99.4069 86.852C99.6709 87.324 99.8029 87.86 99.8029 88.46ZM98.6749 88.232C98.6749 87.816 98.5829 87.46 98.3989 87.164C98.2149 86.86 97.9629 86.632 97.6429 86.48C97.3309 86.32 96.9829 86.24 96.5989 86.24C96.0469 86.24 95.5749 86.416 95.1829 86.768C94.7989 87.12 94.5789 87.608 94.5229 88.232H98.6749ZM100.836 88.688C100.836 88.016 100.972 87.428 101.244 86.924C101.516 86.412 101.888 86.016 102.36 85.736C102.84 85.456 103.376 85.316 103.968 85.316C104.48 85.316 104.956 85.436 105.396 85.676C105.836 85.908 106.172 86.216 106.404 86.6V83.12H107.508V92H106.404V90.764C106.188 91.156 105.868 91.48 105.444 91.736C105.02 91.984 104.524 92.108 103.956 92.108C103.372 92.108 102.84 91.964 102.36 91.676C101.888 91.388 101.516 90.984 101.244 90.464C100.972 89.944 100.836 89.352 100.836 88.688ZM106.404 88.7C106.404 88.204 106.304 87.772 106.104 87.404C105.904 87.036 105.632 86.756 105.288 86.564C104.952 86.364 104.58 86.264 104.172 86.264C103.764 86.264 103.392 86.36 103.056 86.552C102.72 86.744 102.452 87.024 102.252 87.392C102.052 87.76 101.952 88.192 101.952 88.688C101.952 89.192 102.052 89.632 102.252 90.008C102.452 90.376 102.72 90.66 103.056 90.86C103.392 91.052 103.764 91.148 104.172 91.148C104.58 91.148 104.952 91.052 105.288 90.86C105.632 90.66 105.904 90.376 106.104 90.008C106.304 89.632 106.404 89.196 106.404 88.7ZM113.117 84.356C112.909 84.356 112.733 84.284 112.589 84.14C112.445 83.996 112.373 83.82 112.373 83.612C112.373 83.404 112.445 83.228 112.589 83.084C112.733 82.94 112.909 82.868 113.117 82.868C113.317 82.868 113.485 82.94 113.621 83.084C113.765 83.228 113.837 83.404 113.837 83.612C113.837 83.82 113.765 83.996 113.621 84.14C113.485 84.284 113.317 84.356 113.117 84.356ZM113.645 85.424V92H112.553V85.424H113.645ZM118.71 85.304C119.51 85.304 120.158 85.548 120.654 86.036C121.15 86.516 121.398 87.212 121.398 88.124V92H120.318V88.28C120.318 87.624 120.154 87.124 119.826 86.78C119.498 86.428 119.05 86.252 118.482 86.252C117.906 86.252 117.446 86.432 117.102 86.792C116.766 87.152 116.598 87.676 116.598 88.364V92H115.506V85.424H116.598V86.36C116.814 86.024 117.106 85.764 117.474 85.58C117.85 85.396 118.262 85.304 118.71 85.304ZM129.057 86.324H127.677V92H126.585V86.324H125.733V85.424H126.585V84.956C126.585 84.22 126.773 83.684 127.149 83.348C127.533 83.004 128.145 82.832 128.985 82.832V83.744C128.505 83.744 128.165 83.84 127.965 84.032C127.773 84.216 127.677 84.524 127.677 84.956V85.424H129.057V86.324ZM136.162 85.424V92H135.07V91.028C134.862 91.364 134.57 91.628 134.194 91.82C133.826 92.004 133.418 92.096 132.97 92.096C132.458 92.096 131.998 91.992 131.59 91.784C131.182 91.568 130.858 91.248 130.618 90.824C130.386 90.4 130.27 89.884 130.27 89.276V85.424H131.35V89.132C131.35 89.78 131.514 90.28 131.842 90.632C132.17 90.976 132.618 91.148 133.186 91.148C133.77 91.148 134.23 90.968 134.566 90.608C134.902 90.248 135.07 89.724 135.07 89.036V85.424H136.162ZM139.098 83.12V92H138.006V83.12H139.098ZM142.051 83.12V92H140.959V83.12H142.051ZM148.444 86.324V90.2C148.444 90.52 148.512 90.748 148.648 90.884C148.784 91.012 149.02 91.076 149.355 91.076H150.16V92H149.176C148.568 92 148.112 91.86 147.808 91.58C147.504 91.3 147.352 90.84 147.352 90.2V86.324H146.5V85.424H147.352V83.768H148.444V85.424H150.16V86.324H148.444ZM157.483 88.46C157.483 88.668 157.471 88.888 157.447 89.12H152.191C152.231 89.768 152.451 90.276 152.851 90.644C153.259 91.004 153.751 91.184 154.327 91.184C154.799 91.184 155.191 91.076 155.503 90.86C155.823 90.636 156.047 90.34 156.175 89.972H157.351C157.175 90.604 156.823 91.12 156.295 91.52C155.767 91.912 155.111 92.108 154.327 92.108C153.703 92.108 153.143 91.968 152.647 91.688C152.159 91.408 151.775 91.012 151.495 90.5C151.215 89.98 151.075 89.38 151.075 88.7C151.075 88.02 151.211 87.424 151.483 86.912C151.755 86.4 152.135 86.008 152.623 85.736C153.119 85.456 153.687 85.316 154.327 85.316C154.951 85.316 155.503 85.452 155.983 85.724C156.463 85.996 156.831 86.372 157.087 86.852C157.351 87.324 157.483 87.86 157.483 88.46ZM156.355 88.232C156.355 87.816 156.263 87.46 156.079 87.164C155.895 86.86 155.643 86.632 155.323 86.48C155.011 86.32 154.663 86.24 154.279 86.24C153.727 86.24 153.255 86.416 152.863 86.768C152.479 87.12 152.259 87.608 152.203 88.232H156.355ZM161.252 92.108C160.748 92.108 160.296 92.024 159.896 91.856C159.496 91.68 159.18 91.44 158.948 91.136C158.716 90.824 158.588 90.468 158.564 90.068H159.692C159.724 90.396 159.876 90.664 160.148 90.872C160.428 91.08 160.792 91.184 161.24 91.184C161.656 91.184 161.984 91.092 162.224 90.908C162.464 90.724 162.584 90.492 162.584 90.212C162.584 89.924 162.456 89.712 162.2 89.576C161.944 89.432 161.548 89.292 161.012 89.156C160.524 89.028 160.124 88.9 159.812 88.772C159.508 88.636 159.244 88.44 159.02 88.184C158.804 87.92 158.696 87.576 158.696 87.152C158.696 86.816 158.796 86.508 158.996 86.228C159.196 85.948 159.48 85.728 159.848 85.568C160.216 85.4 160.636 85.316 161.108 85.316C161.836 85.316 162.424 85.5 162.872 85.868C163.32 86.236 163.56 86.74 163.592 87.38H162.5C162.476 87.036 162.336 86.76 162.08 86.552C161.832 86.344 161.496 86.24 161.072 86.24C160.68 86.24 160.368 86.324 160.136 86.492C159.904 86.66 159.788 86.88 159.788 87.152C159.788 87.368 159.856 87.548 159.992 87.692C160.136 87.828 160.312 87.94 160.52 88.028C160.736 88.108 161.032 88.2 161.408 88.304C161.88 88.432 162.264 88.56 162.56 88.688C162.856 88.808 163.108 88.992 163.316 89.24C163.532 89.488 163.644 89.812 163.652 90.212C163.652 90.572 163.552 90.896 163.352 91.184C163.152 91.472 162.868 91.7 162.5 91.868C162.14 92.028 161.724 92.108 161.252 92.108ZM166.526 86.324V90.2C166.526 90.52 166.594 90.748 166.73 90.884C166.866 91.012 167.102 91.076 167.438 91.076H168.242V92H167.258C166.65 92 166.194 91.86 165.89 91.58C165.586 91.3 165.434 90.84 165.434 90.2V86.324H164.582V85.424H165.434V83.768H166.526V85.424H168.242V86.324H166.526ZM173.856 86.492C174.048 86.116 174.32 85.824 174.672 85.616C175.032 85.408 175.468 85.304 175.98 85.304V86.432H175.692C174.468 86.432 173.856 87.096 173.856 88.424V92H172.764V85.424H173.856V86.492ZM183.072 85.424V92H181.98V91.028C181.772 91.364 181.48 91.628 181.104 91.82C180.736 92.004 180.328 92.096 179.88 92.096C179.368 92.096 178.908 91.992 178.5 91.784C178.092 91.568 177.768 91.248 177.528 90.824C177.296 90.4 177.18 89.884 177.18 89.276V85.424H178.26V89.132C178.26 89.78 178.424 90.28 178.752 90.632C179.08 90.976 179.528 91.148 180.096 91.148C180.68 91.148 181.14 90.968 181.476 90.608C181.812 90.248 181.98 89.724 181.98 89.036V85.424H183.072ZM188.12 85.304C188.92 85.304 189.568 85.548 190.064 86.036C190.56 86.516 190.808 87.212 190.808 88.124V92H189.728V88.28C189.728 87.624 189.564 87.124 189.236 86.78C188.908 86.428 188.46 86.252 187.892 86.252C187.316 86.252 186.856 86.432 186.512 86.792C186.176 87.152 186.008 87.676 186.008 88.364V92H184.916V85.424H186.008V86.36C186.224 86.024 186.516 85.764 186.884 85.58C187.26 85.396 187.672 85.304 188.12 85.304ZM194.92 92.108C194.416 92.108 193.964 92.024 193.564 91.856C193.164 91.68 192.848 91.44 192.616 91.136C192.384 90.824 192.256 90.468 192.232 90.068H193.36C193.392 90.396 193.544 90.664 193.816 90.872C194.096 91.08 194.46 91.184 194.908 91.184C195.324 91.184 195.652 91.092 195.892 90.908C196.132 90.724 196.252 90.492 196.252 90.212C196.252 89.924 196.124 89.712 195.868 89.576C195.612 89.432 195.216 89.292 194.68 89.156C194.192 89.028 193.792 88.9 193.48 88.772C193.176 88.636 192.912 88.44 192.688 88.184C192.472 87.92 192.364 87.576 192.364 87.152C192.364 86.816 192.464 86.508 192.664 86.228C192.864 85.948 193.148 85.728 193.516 85.568C193.884 85.4 194.304 85.316 194.776 85.316C195.504 85.316 196.092 85.5 196.54 85.868C196.988 86.236 197.228 86.74 197.26 87.38H196.168C196.144 87.036 196.004 86.76 195.748 86.552C195.5 86.344 195.164 86.24 194.74 86.24C194.348 86.24 194.036 86.324 193.804 86.492C193.572 86.66 193.456 86.88 193.456 87.152C193.456 87.368 193.524 87.548 193.66 87.692C193.804 87.828 193.98 87.94 194.188 88.028C194.404 88.108 194.7 88.2 195.076 88.304C195.548 88.432 195.932 88.56 196.228 88.688C196.524 88.808 196.776 88.992 196.984 89.24C197.2 89.488 197.312 89.812 197.32 90.212C197.32 90.572 197.22 90.896 197.02 91.184C196.82 91.472 196.536 91.7 196.168 91.868C195.808 92.028 195.392 92.108 194.92 92.108Z" fill="#212427"/>
<circle cx="419" cy="53" r="7" fill="#54CA6E"/>
<circle cx="445" cy="53" r="7" fill="#E1654A"/>
<circle cx="471" cy="53" r="7" fill="#54CA6E"/>
<circle cx="497" cy="53" r="7" fill="#E1654A"/>
<circle cx="523" cy="53" r="7" fill="#E1654A"/>
<circle cx="549" cy="53" r="7" fill="#54CA6E"/>
<circle cx="575" cy="53" r="7" fill="#54CA6E"/>
<circle cx="601" cy="53" r="7" fill="#E1654A"/>
<circle cx="627" cy="53" r="7" fill="#54CA6E"/>
<circle cx="653" cy="53" r="7" fill="#54CA6E"/>
<path opacity="0.5" d="M417.502 92.098C416.597 92.098 415.771 91.888 415.024 91.468C414.277 91.0387 413.685 90.446 413.246 89.69C412.817 88.9247 412.602 88.066 412.602 87.114C412.602 86.162 412.817 85.308 413.246 84.552C413.685 83.7867 414.277 83.194 415.024 82.774C415.771 82.3447 416.597 82.13 417.502 82.13C418.417 82.13 419.247 82.3447 419.994 82.774C420.741 83.194 421.329 83.782 421.758 84.538C422.187 85.294 422.402 86.1527 422.402 87.114C422.402 88.0753 422.187 88.934 421.758 89.69C421.329 90.446 420.741 91.0387 419.994 91.468C419.247 91.888 418.417 92.098 417.502 92.098ZM417.502 90.992C418.183 90.992 418.795 90.8333 419.336 90.516C419.887 90.1987 420.316 89.746 420.624 89.158C420.941 88.57 421.1 87.8887 421.1 87.114C421.1 86.33 420.941 85.6487 420.624 85.07C420.316 84.482 419.891 84.0293 419.35 83.712C418.809 83.3947 418.193 83.236 417.502 83.236C416.811 83.236 416.195 83.3947 415.654 83.712C415.113 84.0293 414.683 84.482 414.366 85.07C414.058 85.6487 413.904 86.33 413.904 87.114C413.904 87.8887 414.058 88.57 414.366 89.158C414.683 89.746 415.113 90.1987 415.654 90.516C416.205 90.8333 416.821 90.992 417.502 90.992ZM425.358 81.64V92H424.084V81.64H425.358ZM427.053 88.136C427.053 87.352 427.212 86.666 427.529 86.078C427.847 85.4807 428.281 85.0187 428.831 84.692C429.391 84.3653 430.017 84.202 430.707 84.202C431.305 84.202 431.86 84.342 432.373 84.622C432.887 84.8927 433.279 85.252 433.549 85.7V81.64H434.837V92H433.549V90.558C433.297 91.0153 432.924 91.3933 432.429 91.692C431.935 91.9813 431.356 92.126 430.693 92.126C430.012 92.126 429.391 91.958 428.831 91.622C428.281 91.286 427.847 90.8147 427.529 90.208C427.212 89.6013 427.053 88.9107 427.053 88.136ZM433.549 88.15C433.549 87.5713 433.433 87.0673 433.199 86.638C432.966 86.2087 432.649 85.882 432.247 85.658C431.855 85.4247 431.421 85.308 430.945 85.308C430.469 85.308 430.035 85.42 429.643 85.644C429.251 85.868 428.939 86.1947 428.705 86.624C428.472 87.0533 428.355 87.5573 428.355 88.136C428.355 88.724 428.472 89.2373 428.705 89.676C428.939 90.1053 429.251 90.4367 429.643 90.67C430.035 90.894 430.469 91.006 430.945 91.006C431.421 91.006 431.855 90.894 432.247 90.67C432.649 90.4367 432.966 90.1053 433.199 89.676C433.433 89.2373 433.549 88.7287 433.549 88.15ZM443.99 87.87C443.99 88.1127 443.976 88.3693 443.948 88.64H437.816C437.863 89.396 438.119 89.9887 438.586 90.418C439.062 90.838 439.636 91.048 440.308 91.048C440.859 91.048 441.316 90.922 441.68 90.67C442.053 90.4087 442.315 90.0633 442.464 89.634H443.836C443.631 90.3713 443.22 90.9733 442.604 91.44C441.988 91.8973 441.223 92.126 440.308 92.126C439.58 92.126 438.927 91.9627 438.348 91.636C437.779 91.3093 437.331 90.8473 437.004 90.25C436.677 89.6433 436.514 88.9433 436.514 88.15C436.514 87.3567 436.673 86.6613 436.99 86.064C437.307 85.4667 437.751 85.0093 438.32 84.692C438.899 84.3653 439.561 84.202 440.308 84.202C441.036 84.202 441.68 84.3607 442.24 84.678C442.8 84.9953 443.229 85.434 443.528 85.994C443.836 86.5447 443.99 87.17 443.99 87.87ZM442.674 87.604C442.674 87.1187 442.567 86.7033 442.352 86.358C442.137 86.0033 441.843 85.7373 441.47 85.56C441.106 85.3733 440.7 85.28 440.252 85.28C439.608 85.28 439.057 85.4853 438.6 85.896C438.152 86.3067 437.895 86.876 437.83 87.604H442.674ZM446.946 85.574C447.17 85.1353 447.487 84.7947 447.898 84.552C448.318 84.3093 448.826 84.188 449.424 84.188V85.504H449.088C447.66 85.504 446.946 86.2787 446.946 87.828V92H445.672V84.328H446.946V85.574Z" fill="#212427"/>
<path d="M495.352 90.964H498.768V92H494.078V82.242H495.352V90.964ZM499.645 88.136C499.645 87.352 499.804 86.666 500.121 86.078C500.438 85.4807 500.872 85.0187 501.423 84.692C501.983 84.3653 502.604 84.202 503.285 84.202C503.957 84.202 504.54 84.3467 505.035 84.636C505.53 84.9253 505.898 85.2893 506.141 85.728V84.328H507.429V92H506.141V90.572C505.889 91.02 505.511 91.3933 505.007 91.692C504.512 91.9813 503.934 92.126 503.271 92.126C502.59 92.126 501.974 91.958 501.423 91.622C500.872 91.286 500.438 90.8147 500.121 90.208C499.804 89.6013 499.645 88.9107 499.645 88.136ZM506.141 88.15C506.141 87.5713 506.024 87.0673 505.791 86.638C505.558 86.2087 505.24 85.882 504.839 85.658C504.447 85.4247 504.013 85.308 503.537 85.308C503.061 85.308 502.627 85.42 502.235 85.644C501.843 85.868 501.53 86.1947 501.297 86.624C501.064 87.0533 500.947 87.5573 500.947 88.136C500.947 88.724 501.064 89.2373 501.297 89.676C501.53 90.1053 501.843 90.4367 502.235 90.67C502.627 90.894 503.061 91.006 503.537 91.006C504.013 91.006 504.447 90.894 504.839 90.67C505.24 90.4367 505.558 90.1053 505.791 89.676C506.024 89.2373 506.141 88.7287 506.141 88.15ZM512.298 92.126C511.71 92.126 511.183 92.028 510.716 91.832C510.249 91.6267 509.881 91.3467 509.61 90.992C509.339 90.628 509.19 90.2127 509.162 89.746H510.478C510.515 90.1287 510.693 90.4413 511.01 90.684C511.337 90.9267 511.761 91.048 512.284 91.048C512.769 91.048 513.152 90.9407 513.432 90.726C513.712 90.5113 513.852 90.2407 513.852 89.914C513.852 89.578 513.703 89.3307 513.404 89.172C513.105 89.004 512.643 88.8407 512.018 88.682C511.449 88.5327 510.982 88.3833 510.618 88.234C510.263 88.0753 509.955 87.8467 509.694 87.548C509.442 87.24 509.316 86.8387 509.316 86.344C509.316 85.952 509.433 85.5927 509.666 85.266C509.899 84.9393 510.231 84.6827 510.66 84.496C511.089 84.3 511.579 84.202 512.13 84.202C512.979 84.202 513.665 84.4167 514.188 84.846C514.711 85.2753 514.991 85.8633 515.028 86.61H513.754C513.726 86.2087 513.563 85.8867 513.264 85.644C512.975 85.4013 512.583 85.28 512.088 85.28C511.631 85.28 511.267 85.378 510.996 85.574C510.725 85.77 510.59 86.0267 510.59 86.344C510.59 86.596 510.669 86.806 510.828 86.974C510.996 87.1327 511.201 87.2633 511.444 87.366C511.696 87.4593 512.041 87.5667 512.48 87.688C513.031 87.8373 513.479 87.9867 513.824 88.136C514.169 88.276 514.463 88.4907 514.706 88.78C514.958 89.0693 515.089 89.4473 515.098 89.914C515.098 90.334 514.981 90.712 514.748 91.048C514.515 91.384 514.183 91.65 513.754 91.846C513.334 92.0327 512.849 92.126 512.298 92.126ZM518.45 85.378V89.9C518.45 90.2733 518.53 90.5393 518.688 90.698C518.847 90.8473 519.122 90.922 519.514 90.922H520.452V92H519.304C518.595 92 518.063 91.8367 517.708 91.51C517.354 91.1833 517.176 90.6467 517.176 89.9V85.378H516.182V84.328H517.176V82.396H518.45V84.328H520.452V85.378H518.45ZM525.182 83.04V81.878H527.814V92H526.526V83.04H525.182ZM530.003 86.834C530.003 85.2287 530.264 83.978 530.787 83.082C531.309 82.1767 532.224 81.724 533.531 81.724C534.828 81.724 535.738 82.1767 536.261 83.082C536.783 83.978 537.045 85.2287 537.045 86.834C537.045 88.4673 536.783 89.7367 536.261 90.642C535.738 91.5473 534.828 92 533.531 92C532.224 92 531.309 91.5473 530.787 90.642C530.264 89.7367 530.003 88.4673 530.003 86.834ZM535.785 86.834C535.785 86.022 535.729 85.336 535.617 84.776C535.514 84.2067 535.295 83.7493 534.959 83.404C534.632 83.0587 534.156 82.886 533.531 82.886C532.896 82.886 532.411 83.0587 532.075 83.404C531.748 83.7493 531.529 84.2067 531.417 84.776C531.314 85.336 531.263 86.022 531.263 86.834C531.263 87.674 531.314 88.3787 531.417 88.948C531.529 89.5173 531.748 89.9747 532.075 90.32C532.411 90.6653 532.896 90.838 533.531 90.838C534.156 90.838 534.632 90.6653 534.959 90.32C535.295 89.9747 535.514 89.5173 535.617 88.948C535.729 88.3787 535.785 87.674 535.785 86.834ZM544.01 85.574C544.234 85.1353 544.552 84.7947 544.962 84.552C545.382 84.3093 545.891 84.188 546.488 84.188V85.504H546.152C544.724 85.504 544.01 86.2787 544.01 87.828V92H542.736V84.328H544.01V85.574ZM554.763 84.328V92H553.489V90.866C553.246 91.258 552.906 91.566 552.467 91.79C552.038 92.0047 551.562 92.112 551.039 92.112C550.442 92.112 549.905 91.9907 549.429 91.748C548.953 91.496 548.575 91.1227 548.295 90.628C548.024 90.1333 547.889 89.5313 547.889 88.822V84.328H549.149V88.654C549.149 89.41 549.34 89.9933 549.723 90.404C550.106 90.8053 550.628 91.006 551.291 91.006C551.972 91.006 552.509 90.796 552.901 90.376C553.293 89.956 553.489 89.3447 553.489 88.542V84.328H554.763ZM560.652 84.188C561.585 84.188 562.341 84.4727 562.92 85.042C563.499 85.602 563.788 86.414 563.788 87.478V92H562.528V87.66C562.528 86.8947 562.337 86.3113 561.954 85.91C561.571 85.4993 561.049 85.294 560.386 85.294C559.714 85.294 559.177 85.504 558.776 85.924C558.384 86.344 558.188 86.9553 558.188 87.758V92H556.914V84.328H558.188V85.42C558.44 85.028 558.781 84.7247 559.21 84.51C559.649 84.2953 560.129 84.188 560.652 84.188ZM568.585 92.126C567.997 92.126 567.47 92.028 567.003 91.832C566.536 91.6267 566.168 91.3467 565.897 90.992C565.626 90.628 565.477 90.2127 565.449 89.746H566.765C566.802 90.1287 566.98 90.4413 567.297 90.684C567.624 90.9267 568.048 91.048 568.571 91.048C569.056 91.048 569.439 90.9407 569.719 90.726C569.999 90.5113 570.139 90.2407 570.139 89.914C570.139 89.578 569.99 89.3307 569.691 89.172C569.392 89.004 568.93 88.8407 568.305 88.682C567.736 88.5327 567.269 88.3833 566.905 88.234C566.55 88.0753 566.242 87.8467 565.981 87.548C565.729 87.24 565.603 86.8387 565.603 86.344C565.603 85.952 565.72 85.5927 565.953 85.266C566.186 84.9393 566.518 84.6827 566.947 84.496C567.376 84.3 567.866 84.202 568.417 84.202C569.266 84.202 569.952 84.4167 570.475 84.846C570.998 85.2753 571.278 85.8633 571.315 86.61H570.041C570.013 86.2087 569.85 85.8867 569.551 85.644C569.262 85.4013 568.87 85.28 568.375 85.28C567.918 85.28 567.554 85.378 567.283 85.574C567.012 85.77 566.877 86.0267 566.877 86.344C566.877 86.596 566.956 86.806 567.115 86.974C567.283 87.1327 567.488 87.2633 567.731 87.366C567.983 87.4593 568.328 87.5667 568.767 87.688C569.318 87.8373 569.766 87.9867 570.111 88.136C570.456 88.276 570.75 88.4907 570.993 88.78C571.245 89.0693 571.376 89.4473 571.385 89.914C571.385 90.334 571.268 90.712 571.035 91.048C570.802 91.384 570.47 91.65 570.041 91.846C569.621 92.0327 569.136 92.126 568.585 92.126Z" fill="#212427"/>
<path opacity="0.5" d="M624.75 92H623.476L618.352 84.23V92H617.078V82.228H618.352L623.476 89.984V82.228H624.75V92ZM633.922 87.87C633.922 88.1127 633.908 88.3693 633.88 88.64H627.748C627.794 89.396 628.051 89.9887 628.518 90.418C628.994 90.838 629.568 91.048 630.24 91.048C630.79 91.048 631.248 90.922 631.612 90.67C631.985 90.4087 632.246 90.0633 632.396 89.634H633.768C633.562 90.3713 633.152 90.9733 632.536 91.44C631.92 91.8973 631.154 92.126 630.24 92.126C629.512 92.126 628.858 91.9627 628.28 91.636C627.71 91.3093 627.262 90.8473 626.936 90.25C626.609 89.6433 626.446 88.9433 626.446 88.15C626.446 87.3567 626.604 86.6613 626.922 86.064C627.239 85.4667 627.682 85.0093 628.252 84.692C628.83 84.3653 629.493 84.202 630.24 84.202C630.968 84.202 631.612 84.3607 632.172 84.678C632.732 84.9953 633.161 85.434 633.46 85.994C633.768 86.5447 633.922 87.17 633.922 87.87ZM632.606 87.604C632.606 87.1187 632.498 86.7033 632.284 86.358C632.069 86.0033 631.775 85.7373 631.402 85.56C631.038 85.3733 630.632 85.28 630.184 85.28C629.54 85.28 628.989 85.4853 628.532 85.896C628.084 86.3067 627.827 86.876 627.762 87.604H632.606ZM645.823 84.328L643.429 92H642.113L640.265 85.91L638.417 92H637.101L634.693 84.328H635.995L637.759 90.768L639.663 84.328H640.965L642.827 90.782L644.563 84.328H645.823ZM654.088 87.87C654.088 88.1127 654.074 88.3693 654.046 88.64H647.914C647.96 89.396 648.217 89.9887 648.684 90.418C649.16 90.838 649.734 91.048 650.406 91.048C650.956 91.048 651.414 90.922 651.778 90.67C652.151 90.4087 652.412 90.0633 652.562 89.634H653.934C653.728 90.3713 653.318 90.9733 652.702 91.44C652.086 91.8973 651.32 92.126 650.406 92.126C649.678 92.126 649.024 91.9627 648.446 91.636C647.876 91.3093 647.428 90.8473 647.102 90.25C646.775 89.6433 646.612 88.9433 646.612 88.15C646.612 87.3567 646.77 86.6613 647.088 86.064C647.405 85.4667 647.848 85.0093 648.418 84.692C648.996 84.3653 649.659 84.202 650.406 84.202C651.134 84.202 651.778 84.3607 652.338 84.678C652.898 84.9953 653.327 85.434 653.626 85.994C653.934 86.5447 654.088 87.17 654.088 87.87ZM652.772 87.604C652.772 87.1187 652.664 86.7033 652.45 86.358C652.235 86.0033 651.941 85.7373 651.568 85.56C651.204 85.3733 650.798 85.28 650.35 85.28C649.706 85.28 649.155 85.4853 648.698 85.896C648.25 86.3067 647.993 86.876 647.928 87.604H652.772ZM657.043 85.574C657.267 85.1353 657.585 84.7947 657.995 84.552C658.415 84.3093 658.924 84.188 659.521 84.188V85.504H659.185C657.757 85.504 657.043 86.2787 657.043 87.828V92H655.769V84.328H657.043V85.574Z" fill="#212427"/>
<rect x="724" y="36" width="192" height="68" rx="6" fill="#54CA6E" fill-opacity="0.1"/>
<rect x="744" y="58" width="24" height="24" rx="12" fill="#54CA6E"/>
<path d="M761.333 66L754 73.3333L750.667 70" stroke="white" stroke-width="1.33333" stroke-linecap="round" stroke-linejoin="round"/>
<path d="M791.602 57.098C791.602 57.91 791.322 58.5867 790.762 59.128C790.211 59.66 789.367 59.926 788.228 59.926H786.352V64H785.078V54.242H788.228C789.329 54.242 790.165 54.508 790.734 55.04C791.313 55.572 791.602 56.258 791.602 57.098ZM788.228 58.876C788.937 58.876 789.46 58.722 789.796 58.414C790.132 58.106 790.3 57.6673 790.3 57.098C790.3 55.894 789.609 55.292 788.228 55.292H786.352V58.876H788.228ZM792.709 60.136C792.709 59.352 792.868 58.666 793.185 58.078C793.503 57.4807 793.937 57.0187 794.487 56.692C795.047 56.3653 795.668 56.202 796.349 56.202C797.021 56.202 797.605 56.3467 798.099 56.636C798.594 56.9253 798.963 57.2893 799.205 57.728V56.328H800.493V64H799.205V62.572C798.953 63.02 798.575 63.3933 798.071 63.692C797.577 63.9813 796.998 64.126 796.335 64.126C795.654 64.126 795.038 63.958 794.487 63.622C793.937 63.286 793.503 62.8147 793.185 62.208C792.868 61.6013 792.709 60.9107 792.709 60.136ZM799.205 60.15C799.205 59.5713 799.089 59.0673 798.855 58.638C798.622 58.2087 798.305 57.882 797.903 57.658C797.511 57.4247 797.077 57.308 796.601 57.308C796.125 57.308 795.691 57.42 795.299 57.644C794.907 57.868 794.595 58.1947 794.361 58.624C794.128 59.0533 794.011 59.5573 794.011 60.136C794.011 60.724 794.128 61.2373 794.361 61.676C794.595 62.1053 794.907 62.4367 795.299 62.67C795.691 62.894 796.125 63.006 796.601 63.006C797.077 63.006 797.511 62.894 797.903 62.67C798.305 62.4367 798.622 62.1053 798.855 61.676C799.089 61.2373 799.205 60.7287 799.205 60.15ZM805.362 64.126C804.774 64.126 804.247 64.028 803.78 63.832C803.314 63.6267 802.945 63.3467 802.674 62.992C802.404 62.628 802.254 62.2127 802.226 61.746H803.542C803.58 62.1287 803.757 62.4413 804.074 62.684C804.401 62.9267 804.826 63.048 805.348 63.048C805.834 63.048 806.216 62.9407 806.496 62.726C806.776 62.5113 806.916 62.2407 806.916 61.914C806.916 61.578 806.767 61.3307 806.468 61.172C806.17 61.004 805.708 60.8407 805.082 60.682C804.513 60.5327 804.046 60.3833 803.682 60.234C803.328 60.0753 803.02 59.8467 802.758 59.548C802.506 59.24 802.38 58.8387 802.38 58.344C802.38 57.952 802.497 57.5927 802.73 57.266C802.964 56.9393 803.295 56.6827 803.724 56.496C804.154 56.3 804.644 56.202 805.194 56.202C806.044 56.202 806.73 56.4167 807.252 56.846C807.775 57.2753 808.055 57.8633 808.092 58.61H806.818C806.79 58.2087 806.627 57.8867 806.328 57.644C806.039 57.4013 805.647 57.28 805.152 57.28C804.695 57.28 804.331 57.378 804.06 57.574C803.79 57.77 803.654 58.0267 803.654 58.344C803.654 58.596 803.734 58.806 803.892 58.974C804.06 59.1327 804.266 59.2633 804.508 59.366C804.76 59.4593 805.106 59.5667 805.544 59.688C806.095 59.8373 806.543 59.9867 806.888 60.136C807.234 60.276 807.528 60.4907 807.77 60.78C808.022 61.0693 808.153 61.4473 808.162 61.914C808.162 62.334 808.046 62.712 807.812 63.048C807.579 63.384 807.248 63.65 806.818 63.846C806.398 64.0327 805.913 64.126 805.362 64.126ZM812.677 64.126C812.089 64.126 811.561 64.028 811.095 63.832C810.628 63.6267 810.259 63.3467 809.989 62.992C809.718 62.628 809.569 62.2127 809.541 61.746H810.857C810.894 62.1287 811.071 62.4413 811.389 62.684C811.715 62.9267 812.14 63.048 812.663 63.048C813.148 63.048 813.531 62.9407 813.811 62.726C814.091 62.5113 814.231 62.2407 814.231 61.914C814.231 61.578 814.081 61.3307 813.783 61.172C813.484 61.004 813.022 60.8407 812.397 60.682C811.827 60.5327 811.361 60.3833 810.997 60.234C810.642 60.0753 810.334 59.8467 810.073 59.548C809.821 59.24 809.695 58.8387 809.695 58.344C809.695 57.952 809.811 57.5927 810.045 57.266C810.278 56.9393 810.609 56.6827 811.039 56.496C811.468 56.3 811.958 56.202 812.509 56.202C813.358 56.202 814.044 56.4167 814.567 56.846C815.089 57.2753 815.369 57.8633 815.407 58.61H814.133C814.105 58.2087 813.941 57.8867 813.643 57.644C813.353 57.4013 812.961 57.28 812.467 57.28C812.009 57.28 811.645 57.378 811.375 57.574C811.104 57.77 810.969 58.0267 810.969 58.344C810.969 58.596 811.048 58.806 811.207 58.974C811.375 59.1327 811.58 59.2633 811.823 59.366C812.075 59.4593 812.42 59.5667 812.859 59.688C813.409 59.8373 813.857 59.9867 814.203 60.136C814.548 60.276 814.842 60.4907 815.085 60.78C815.337 61.0693 815.467 61.4473 815.477 61.914C815.477 62.334 815.36 62.712 815.127 63.048C814.893 63.384 814.562 63.65 814.133 63.846C813.713 64.0327 813.227 64.126 812.677 64.126Z" fill="#212427"/>
<path d="M793.744 76.228L790.16 86H787.78L784.196 76.228H786.296L788.984 83.998L791.658 76.228H793.744ZM795.913 77.32C795.568 77.32 795.278 77.2127 795.045 76.998C794.821 76.774 794.709 76.4987 794.709 76.172C794.709 75.8453 794.821 75.5747 795.045 75.36C795.278 75.136 795.568 75.024 795.913 75.024C796.258 75.024 796.543 75.136 796.767 75.36C797 75.5747 797.117 75.8453 797.117 76.172C797.117 76.4987 797 76.774 796.767 76.998C796.543 77.2127 796.258 77.32 795.913 77.32ZM796.879 78.244V86H794.919V78.244H796.879ZM806.026 81.954C806.026 82.234 806.007 82.486 805.97 82.71H800.3C800.346 83.27 800.542 83.7087 800.888 84.026C801.233 84.3433 801.658 84.502 802.162 84.502C802.89 84.502 803.408 84.1893 803.716 83.564H805.83C805.606 84.3107 805.176 84.9267 804.542 85.412C803.907 85.888 803.128 86.126 802.204 86.126C801.457 86.126 800.785 85.9627 800.188 85.636C799.6 85.3 799.138 84.8287 798.802 84.222C798.475 83.6153 798.312 82.9153 798.312 82.122C798.312 81.3193 798.475 80.6147 798.802 80.008C799.128 79.4013 799.586 78.9347 800.174 78.608C800.762 78.2813 801.438 78.118 802.204 78.118C802.941 78.118 803.599 78.2767 804.178 78.594C804.766 78.9113 805.218 79.364 805.536 79.952C805.862 80.5307 806.026 81.198 806.026 81.954ZM803.996 81.394C803.986 80.89 803.804 80.4887 803.45 80.19C803.095 79.882 802.661 79.728 802.148 79.728C801.662 79.728 801.252 79.8773 800.916 80.176C800.589 80.4653 800.388 80.8713 800.314 81.394H803.996ZM818.208 78.244L815.94 86H813.826L812.412 80.582L810.998 86H808.87L806.588 78.244H808.576L809.948 84.152L811.432 78.244H813.504L814.96 84.138L816.332 78.244H818.208ZM826.161 79.854H824.803V86H822.815V79.854H821.933V78.244H822.815V77.852C822.815 76.9 823.085 76.2 823.627 75.752C824.168 75.304 824.985 75.094 826.077 75.122V76.774C825.601 76.7647 825.269 76.844 825.083 77.012C824.896 77.18 824.803 77.4833 824.803 77.922V78.244H826.161V79.854ZM834.753 78.244V86H832.779V85.02C832.527 85.356 832.196 85.622 831.785 85.818C831.384 86.0047 830.945 86.098 830.469 86.098C829.862 86.098 829.326 85.972 828.859 85.72C828.392 85.4587 828.024 85.0807 827.753 84.586C827.492 84.082 827.361 83.4847 827.361 82.794V78.244H829.321V82.514C829.321 83.13 829.475 83.606 829.783 83.942C830.091 84.2687 830.511 84.432 831.043 84.432C831.584 84.432 832.009 84.2687 832.317 83.942C832.625 83.606 832.779 83.13 832.779 82.514V78.244H834.753ZM838.647 75.64V86H836.687V75.64H838.647ZM842.543 75.64V86H840.583V75.64H842.543ZM849.776 79.448C850.028 79.0373 850.354 78.7153 850.756 78.482C851.166 78.2487 851.633 78.132 852.156 78.132V80.19H851.638C851.022 80.19 850.555 80.3347 850.238 80.624C849.93 80.9133 849.776 81.4173 849.776 82.136V86H847.816V78.244H849.776V79.448ZM860.686 81.954C860.686 82.234 860.667 82.486 860.63 82.71H854.96C855.006 83.27 855.202 83.7087 855.548 84.026C855.893 84.3433 856.318 84.502 856.822 84.502C857.55 84.502 858.068 84.1893 858.376 83.564H860.49C860.266 84.3107 859.836 84.9267 859.202 85.412C858.567 85.888 857.788 86.126 856.864 86.126C856.117 86.126 855.445 85.9627 854.848 85.636C854.26 85.3 853.798 84.8287 853.462 84.222C853.135 83.6153 852.972 82.9153 852.972 82.122C852.972 81.3193 853.135 80.6147 853.462 80.008C853.788 79.4013 854.246 78.9347 854.834 78.608C855.422 78.2813 856.098 78.118 856.864 78.118C857.601 78.118 858.259 78.2767 858.838 78.594C859.426 78.9113 859.878 79.364 860.196 79.952C860.522 80.5307 860.686 81.198 860.686 81.954ZM858.656 81.394C858.646 80.89 858.464 80.4887 858.11 80.19C857.755 79.882 857.321 79.728 856.808 79.728C856.322 79.728 855.912 79.8773 855.576 80.176C855.249 80.4653 855.048 80.8713 854.974 81.394H858.656ZM865.084 86.126C864.45 86.126 863.88 86.014 863.376 85.79C862.872 85.5567 862.471 85.244 862.172 84.852C861.883 84.46 861.724 84.026 861.696 83.55H863.67C863.708 83.8487 863.852 84.096 864.104 84.292C864.366 84.488 864.688 84.586 865.07 84.586C865.444 84.586 865.733 84.5113 865.938 84.362C866.153 84.2127 866.26 84.0213 866.26 83.788C866.26 83.536 866.13 83.3493 865.868 83.228C865.616 83.0973 865.21 82.9573 864.65 82.808C864.072 82.668 863.596 82.5233 863.222 82.374C862.858 82.2247 862.541 81.996 862.27 81.688C862.009 81.38 861.878 80.9647 861.878 80.442C861.878 80.0127 862 79.6207 862.242 79.266C862.494 78.9113 862.849 78.6313 863.306 78.426C863.773 78.2207 864.319 78.118 864.944 78.118C865.868 78.118 866.606 78.3513 867.156 78.818C867.707 79.2753 868.01 79.896 868.066 80.68H866.19C866.162 80.372 866.032 80.1293 865.798 79.952C865.574 79.7653 865.271 79.672 864.888 79.672C864.534 79.672 864.258 79.7373 864.062 79.868C863.876 79.9987 863.782 80.1807 863.782 80.414C863.782 80.6753 863.913 80.876 864.174 81.016C864.436 81.1467 864.842 81.282 865.392 81.422C865.952 81.562 866.414 81.7067 866.778 81.856C867.142 82.0053 867.455 82.2387 867.716 82.556C867.987 82.864 868.127 83.2747 868.136 83.788C868.136 84.236 868.01 84.6373 867.758 84.992C867.516 85.3467 867.161 85.6267 866.694 85.832C866.237 86.028 865.7 86.126 865.084 86.126ZM877.067 78.244V86H875.093V85.02C874.841 85.356 874.51 85.622 874.099 85.818C873.698 86.0047 873.259 86.098 872.783 86.098C872.177 86.098 871.64 85.972 871.173 85.72C870.707 85.4587 870.338 85.0807 870.067 84.586C869.806 84.082 869.675 83.4847 869.675 82.794V78.244H871.635V82.514C871.635 83.13 871.789 83.606 872.097 83.942C872.405 84.2687 872.825 84.432 873.357 84.432C873.899 84.432 874.323 84.2687 874.631 83.942C874.939 83.606 875.093 83.13 875.093 82.514V78.244H877.067ZM880.961 75.64V86H879.001V75.64H880.961ZM885.18 79.854V83.606C885.18 83.8673 885.24 84.0587 885.362 84.18C885.492 84.292 885.707 84.348 886.006 84.348H886.916V86H885.684C884.032 86 883.206 85.1973 883.206 83.592V79.854H882.282V78.244H883.206V76.326H885.18V78.244H886.916V79.854H885.18Z" fill="#212427"/>
<path d="M996.293 56.6667H995.707C994.999 56.6667 994.321 56.9476 993.821 57.4477C993.321 57.9478 993.04 58.6261 993.04 59.3333V59.5733C993.04 60.041 992.916 60.5002 992.682 60.9051C992.448 61.31 992.112 61.6462 991.707 61.88L991.133 62.2133C990.728 62.4474 990.268 62.5706 989.8 62.5706C989.332 62.5706 988.872 62.4474 988.467 62.2133L988.267 62.1067C987.655 61.7537 986.928 61.6579 986.245 61.8404C985.563 62.0229 984.981 62.4687 984.627 63.08L984.333 63.5867C983.98 64.1986 983.885 64.9255 984.067 65.608C984.25 66.2904 984.695 66.8726 985.307 67.2267L985.507 67.36C985.91 67.5927 986.245 67.9268 986.479 68.3291C986.713 68.7314 986.837 69.188 986.84 69.6533V70.3333C986.842 70.8032 986.72 71.2653 986.485 71.6727C986.251 72.0801 985.914 72.4184 985.507 72.6533L985.307 72.7733C984.695 73.1274 984.25 73.7095 984.067 74.392C983.885 75.0744 983.98 75.8014 984.333 76.4133L984.627 76.92C984.981 77.5313 985.563 77.9771 986.245 78.1596C986.928 78.3421 987.655 78.2463 988.267 77.8933L988.467 77.7867C988.872 77.5526 989.332 77.4294 989.8 77.4294C990.268 77.4294 990.728 77.5526 991.133 77.7867L991.707 78.12C992.112 78.3538 992.448 78.69 992.682 79.0949C992.916 79.4997 993.04 79.959 993.04 80.4267V80.6667C993.04 81.3739 993.321 82.0522 993.821 82.5523C994.321 83.0524 994.999 83.3333 995.707 83.3333H996.293C997.001 83.3333 997.679 83.0524 998.179 82.5523C998.679 82.0522 998.96 81.3739 998.96 80.6667V80.4267C998.96 79.959 999.084 79.4997 999.318 79.0949C999.552 78.69 999.888 78.3538 1000.29 78.12L1000.87 77.7867C1001.27 77.5526 1001.73 77.4294 1002.2 77.4294C1002.67 77.4294 1003.13 77.5526 1003.53 77.7867L1003.73 77.8933C1004.35 78.2463 1005.07 78.3421 1005.75 78.1596C1006.44 77.9771 1007.02 77.5313 1007.37 76.92L1007.67 76.4C1008.02 75.7881 1008.12 75.0611 1007.93 74.3787C1007.75 73.6962 1007.3 73.1141 1006.69 72.76L1006.49 72.6533C1006.09 72.4184 1005.75 72.0801 1005.51 71.6727C1005.28 71.2653 1005.16 70.8032 1005.16 70.3333V69.6667C1005.16 69.1968 1005.28 68.7347 1005.51 68.3273C1005.75 67.9199 1006.09 67.5816 1006.49 67.3467L1006.69 67.2267C1007.3 66.8726 1007.75 66.2904 1007.93 65.608C1008.12 64.9255 1008.02 64.1986 1007.67 63.5867L1007.37 63.08C1007.02 62.4687 1006.44 62.0229 1005.75 61.8404C1005.07 61.6579 1004.35 61.7537 1003.73 62.1067L1003.53 62.2133C1003.13 62.4474 1002.67 62.5706 1002.2 62.5706C1001.73 62.5706 1001.27 62.4474 1000.87 62.2133L1000.29 61.88C999.888 61.6462 999.552 61.31 999.318 60.9051C999.084 60.5002 998.96 60.041 998.96 59.5733V59.3333C998.96 58.6261 998.679 57.9478 998.179 57.4477C997.679 56.9476 997.001 56.6667 996.293 56.6667Z" stroke="#212427" stroke-width="2" stroke-linecap="round" stroke-linejoin="round"/>
<path d="M996 74C998.209 74 1000 72.2091 1000 70C1000 67.7909 998.209 66 996 66C993.791 66 992 67.7909 992 70C992 72.2091 993.791 74 996 74Z" stroke="#212427" stroke-width="2" stroke-linecap="round" stroke-linejoin="round"/>
<path d="M1052 83.3333C1059.36 83.3333 1065.33 77.3638 1065.33 70C1065.33 62.6362 1059.36 56.6667 1052 56.6667C1044.64 56.6667 1038.67 62.6362 1038.67 70C1038.67 77.3638 1044.64 83.3333 1052 83.3333Z" stroke="#388AEB" stroke-width="2" stroke-linecap="round" stroke-linejoin="round"/>
<path d="M1049.33 64.6667L1057.33 70L1049.33 75.3333V64.6667Z" stroke="#388AEB" stroke-width="2" stroke-linecap="round" stroke-linejoin="round"/>
<defs>
<filter id="filter0_d_266_4505" x="1048.62" y="73.6251" width="18.75" height="20.7499" filterUnits="userSpaceOnUse" color-interpolation-filters="sRGB">
<feFlood flood-opacity="0" result="BackgroundImageFix"/>
<feColorMatrix in="SourceAlpha" type="matrix" values="0 0 0 0 0 0 0 0 0 0 0 0 0 0 0 0 0 0 127 0" result="hardAlpha"/>
<feOffset dy="1"/>
<feGaussianBlur stdDeviation="1"/>
<feColorMatrix type="matrix" values="0 0 0 0 0 0 0 0 0 0 0 0 0 0 0 0 0 0 0.24 0"/>
<feBlend mode="normal" in2="BackgroundImageFix" result="effect1_dropShadow_266_4505"/>
<feBlend mode="normal" in="SourceGraphic" in2="effect1_dropShadow_266_4505" result="shape"/>
</filter>
</defs>
</svg>
