<svg width="1116" height="96" viewBox="0 0 1116 96" fill="none" xmlns="http://www.w3.org/2000/svg">
<mask id="path-1-inside-1_266_4500" fill="white">
<path d="M0 0H1116V96H0V0Z"/>
</mask>
<path d="M1116 95H0V97H1116V95Z" fill="black" fill-opacity="0.06" mask="url(#path-1-inside-1_266_4500)"/>
<path d="M33.3 33.84C34.0867 33.9867 34.7333 34.38 35.24 35.02C35.7467 35.66 36 36.3933 36 37.22C36 37.9667 35.8133 38.6267 35.44 39.2C35.08 39.76 34.5533 40.2 33.86 40.52C33.1667 40.84 32.3467 41 31.4 41H25.38V27.04H31.14C32.0867 27.04 32.9 27.1933 33.58 27.5C34.2733 27.8067 34.7933 28.2333 35.14 28.78C35.5 29.3267 35.68 29.9467 35.68 30.64C35.68 31.4533 35.46 32.1333 35.02 32.68C34.5933 33.2267 34.02 33.6133 33.3 33.84ZM28.18 32.8H30.74C31.4067 32.8 31.92 32.6533 32.28 32.36C32.64 32.0533 32.82 31.62 32.82 31.06C32.82 30.5 32.64 30.0667 32.28 29.76C31.92 29.4533 31.4067 29.3 30.74 29.3H28.18V32.8ZM31 38.72C31.68 38.72 32.2067 38.56 32.58 38.24C32.9667 37.92 33.16 37.4667 33.16 36.88C33.16 36.28 32.96 35.8133 32.56 35.48C32.16 35.1333 31.62 34.96 30.94 34.96H28.18V38.72H31ZM43.1516 41.18C42.0849 41.18 41.1249 40.9467 40.2716 40.48C39.4182 40 38.7449 39.3267 38.2516 38.46C37.7716 37.5933 37.5316 36.5933 37.5316 35.46C37.5316 34.3267 37.7782 33.3267 38.2716 32.46C38.7782 31.5933 39.4649 30.9267 40.3316 30.46C41.1982 29.98 42.1649 29.74 43.2316 29.74C44.2982 29.74 45.2649 29.98 46.1316 30.46C46.9982 30.9267 47.6782 31.5933 48.1716 32.46C48.6782 33.3267 48.9316 34.3267 48.9316 35.46C48.9316 36.5933 48.6716 37.5933 48.1516 38.46C47.6449 39.3267 46.9516 40 46.0716 40.48C45.2049 40.9467 44.2316 41.18 43.1516 41.18ZM43.1516 38.74C43.6582 38.74 44.1316 38.62 44.5716 38.38C45.0249 38.1267 45.3849 37.7533 45.6516 37.26C45.9182 36.7667 46.0516 36.1667 46.0516 35.46C46.0516 34.4067 45.7716 33.6 45.2116 33.04C44.6649 32.4667 43.9916 32.18 43.1916 32.18C42.3916 32.18 41.7182 32.4667 41.1716 33.04C40.6382 33.6 40.3716 34.4067 40.3716 35.46C40.3716 36.5133 40.6316 37.3267 41.1516 37.9C41.6849 38.46 42.3516 38.74 43.1516 38.74ZM54.2455 32.22V37.58C54.2455 37.9533 54.3321 38.2267 54.5055 38.4C54.6921 38.56 54.9988 38.64 55.4255 38.64H56.7255V41H54.9655C52.6055 41 51.4255 39.8533 51.4255 37.56V32.22H50.1055V29.92H51.4255V27.18H54.2455V29.92H56.7255V32.22H54.2455ZM73.005 27.04V29.3H69.285V41H66.485V29.3H62.765V27.04H73.005ZM85.348 35.22C85.348 35.62 85.3213 35.98 85.268 36.3H77.168C77.2346 37.1 77.5146 37.7267 78.008 38.18C78.5013 38.6333 79.108 38.86 79.828 38.86C80.868 38.86 81.608 38.4133 82.048 37.52H85.068C84.748 38.5867 84.1346 39.4667 83.228 40.16C82.3213 40.84 81.208 41.18 79.888 41.18C78.8213 41.18 77.8613 40.9467 77.008 40.48C76.168 40 75.508 39.3267 75.028 38.46C74.5613 37.5933 74.328 36.5933 74.328 35.46C74.328 34.3133 74.5613 33.3067 75.028 32.44C75.4946 31.5733 76.148 30.9067 76.988 30.44C77.828 29.9733 78.7946 29.74 79.888 29.74C80.9413 29.74 81.8813 29.9667 82.708 30.42C83.548 30.8733 84.1946 31.52 84.648 32.36C85.1146 33.1867 85.348 34.14 85.348 35.22ZM82.448 34.42C82.4346 33.7 82.1746 33.1267 81.668 32.7C81.1613 32.26 80.5413 32.04 79.808 32.04C79.1146 32.04 78.528 32.2533 78.048 32.68C77.5813 33.0933 77.2946 33.6733 77.188 34.42H82.448ZM91.6317 41.18C90.7251 41.18 89.9117 41.02 89.1917 40.7C88.4717 40.3667 87.8984 39.92 87.4717 39.36C87.0584 38.8 86.8317 38.18 86.7917 37.5H89.6117C89.6651 37.9267 89.8717 38.28 90.2317 38.56C90.6051 38.84 91.0651 38.98 91.6117 38.98C92.1451 38.98 92.5584 38.8733 92.8517 38.66C93.1584 38.4467 93.3117 38.1733 93.3117 37.84C93.3117 37.48 93.1251 37.2133 92.7517 37.04C92.3917 36.8533 91.8117 36.6533 91.0117 36.44C90.1851 36.24 89.5051 36.0333 88.9717 35.82C88.4517 35.6067 87.9984 35.28 87.6117 34.84C87.2384 34.4 87.0517 33.8067 87.0517 33.06C87.0517 32.4467 87.2251 31.8867 87.5717 31.38C87.9317 30.8733 88.4384 30.4733 89.0917 30.18C89.7584 29.8867 90.5384 29.74 91.4317 29.74C92.7517 29.74 93.8051 30.0733 94.5917 30.74C95.3784 31.3933 95.8117 32.28 95.8917 33.4H93.2117C93.1717 32.96 92.9851 32.6133 92.6517 32.36C92.3317 32.0933 91.8984 31.96 91.3517 31.96C90.8451 31.96 90.4517 32.0533 90.1717 32.24C89.9051 32.4267 89.7717 32.6867 89.7717 33.02C89.7717 33.3933 89.9584 33.68 90.3317 33.88C90.7051 34.0667 91.2851 34.26 92.0717 34.46C92.8717 34.66 93.5317 34.8667 94.0517 35.08C94.5717 35.2933 95.0184 35.6267 95.3917 36.08C95.7784 36.52 95.9784 37.1067 95.9917 37.84C95.9917 38.48 95.8117 39.0533 95.4517 39.56C95.1051 40.0667 94.5984 40.4667 93.9317 40.76C93.2784 41.04 92.5117 41.18 91.6317 41.18ZM101.55 32.22V37.58C101.55 37.9533 101.637 38.2267 101.81 38.4C101.997 38.56 102.303 38.64 102.73 38.64H104.03V41H102.27C99.9102 41 98.7302 39.8533 98.7302 37.56V32.22H97.4102V29.92H98.7302V27.18H101.55V29.92H104.03V32.22H101.55ZM110.284 41.18C109.377 41.18 108.564 41.02 107.844 40.7C107.124 40.3667 106.551 39.92 106.124 39.36C105.711 38.8 105.484 38.18 105.444 37.5H108.264C108.317 37.9267 108.524 38.28 108.884 38.56C109.257 38.84 109.717 38.98 110.264 38.98C110.797 38.98 111.211 38.8733 111.504 38.66C111.811 38.4467 111.964 38.1733 111.964 37.84C111.964 37.48 111.777 37.2133 111.404 37.04C111.044 36.8533 110.464 36.6533 109.664 36.44C108.837 36.24 108.157 36.0333 107.624 35.82C107.104 35.6067 106.651 35.28 106.264 34.84C105.891 34.4 105.704 33.8067 105.704 33.06C105.704 32.4467 105.877 31.8867 106.224 31.38C106.584 30.8733 107.091 30.4733 107.744 30.18C108.411 29.8867 109.191 29.74 110.084 29.74C111.404 29.74 112.457 30.0733 113.244 30.74C114.031 31.3933 114.464 32.28 114.544 33.4H111.864C111.824 32.96 111.637 32.6133 111.304 32.36C110.984 32.0933 110.551 31.96 110.004 31.96C109.497 31.96 109.104 32.0533 108.824 32.24C108.557 32.4267 108.424 32.6867 108.424 33.02C108.424 33.3933 108.611 33.68 108.984 33.88C109.357 34.0667 109.937 34.26 110.724 34.46C111.524 34.66 112.184 34.8667 112.704 35.08C113.224 35.2933 113.671 35.6267 114.044 36.08C114.431 36.52 114.631 37.1067 114.644 37.84C114.644 38.48 114.464 39.0533 114.104 39.56C113.757 40.0667 113.251 40.4667 112.584 40.76C111.931 41.04 111.164 41.18 110.284 41.18Z" fill="#212427"/>
<path d="M26.688 58.848V70H25.232V58.848H26.688ZM33.4415 61.072C34.5082 61.072 35.3722 61.3973 36.0335 62.048C36.6948 62.688 37.0255 63.616 37.0255 64.832V70H35.5855V65.04C35.5855 64.1653 35.3668 63.4987 34.9295 63.04C34.4922 62.5707 33.8948 62.336 33.1375 62.336C32.3695 62.336 31.7562 62.576 31.2975 63.056C30.8495 63.536 30.6255 64.2347 30.6255 65.152V70H29.1695V61.232H30.6255V62.48C30.9135 62.032 31.3028 61.6853 31.7935 61.44C32.2948 61.1947 32.8442 61.072 33.4415 61.072ZM51.2215 61.232L45.9415 74.128H44.4375L46.1655 69.904L42.6295 61.232H44.2455L46.9975 68.336L49.7175 61.232H51.2215ZM56.5091 70.144C55.6878 70.144 54.9411 69.9573 54.2691 69.584C53.6078 69.2107 53.0851 68.6827 52.7011 68C52.3278 67.3067 52.1411 66.5067 52.1411 65.6C52.1411 64.704 52.3331 63.9147 52.7171 63.232C53.1118 62.5387 53.6451 62.0107 54.3171 61.648C54.9891 61.2747 55.7411 61.088 56.5731 61.088C57.4051 61.088 58.1571 61.2747 58.8291 61.648C59.5011 62.0107 60.0291 62.5333 60.4131 63.216C60.8078 63.8987 61.0051 64.6933 61.0051 65.6C61.0051 66.5067 60.8025 67.3067 60.3971 68C60.0025 68.6827 59.4638 69.2107 58.7811 69.584C58.0985 69.9573 57.3411 70.144 56.5091 70.144ZM56.5091 68.864C57.0318 68.864 57.5225 68.7413 57.9811 68.496C58.4398 68.2507 58.8078 67.8827 59.0851 67.392C59.3731 66.9013 59.5171 66.304 59.5171 65.6C59.5171 64.896 59.3785 64.2987 59.1011 63.808C58.8238 63.3173 58.4611 62.9547 58.0131 62.72C57.5651 62.4747 57.0798 62.352 56.5571 62.352C56.0238 62.352 55.5331 62.4747 55.0851 62.72C54.6478 62.9547 54.2958 63.3173 54.0291 63.808C53.7625 64.2987 53.6291 64.896 53.6291 65.6C53.6291 66.3147 53.7571 66.9173 54.0131 67.408C54.2798 67.8987 54.6318 68.2667 55.0691 68.512C55.5065 68.7467 55.9865 68.864 56.5091 68.864ZM70.6955 61.232V70H69.2395V68.704C68.9622 69.152 68.5728 69.504 68.0715 69.76C67.5808 70.0053 67.0368 70.128 66.4395 70.128C65.7568 70.128 65.1435 69.9893 64.5995 69.712C64.0555 69.424 63.6235 68.9973 63.3035 68.432C62.9942 67.8667 62.8395 67.1787 62.8395 66.368V61.232H64.2795V66.176C64.2795 67.04 64.4982 67.7067 64.9355 68.176C65.3728 68.6347 65.9702 68.864 66.7275 68.864C67.5062 68.864 68.1195 68.624 68.5675 68.144C69.0155 67.664 69.2395 66.9653 69.2395 66.048V61.232H70.6955ZM74.6099 62.656C74.8659 62.1547 75.2285 61.7653 75.6979 61.488C76.1779 61.2107 76.7592 61.072 77.4419 61.072V62.576H77.0579C75.4259 62.576 74.6099 63.4613 74.6099 65.232V70H73.1539V61.232H74.6099V62.656ZM93.9323 61.072C94.6149 61.072 95.2229 61.216 95.7563 61.504C96.2896 61.7813 96.7109 62.2027 97.0203 62.768C97.3296 63.3333 97.4843 64.0213 97.4843 64.832V70H96.0443V65.04C96.0443 64.1653 95.8256 63.4987 95.3883 63.04C94.9616 62.5707 94.3803 62.336 93.6443 62.336C92.8869 62.336 92.2843 62.5813 91.8363 63.072C91.3883 63.552 91.1643 64.2507 91.1643 65.168V70H89.7243V65.04C89.7243 64.1653 89.5056 63.4987 89.0683 63.04C88.6416 62.5707 88.0603 62.336 87.3243 62.336C86.5669 62.336 85.9643 62.5813 85.5163 63.072C85.0683 63.552 84.8443 64.2507 84.8443 65.168V70H83.3883V61.232H84.8443V62.496C85.1323 62.0373 85.5163 61.6853 85.9963 61.44C86.4869 61.1947 87.0256 61.072 87.6123 61.072C88.3483 61.072 88.9989 61.2373 89.5643 61.568C90.1296 61.8987 90.5509 62.384 90.8283 63.024C91.0736 62.4053 91.4789 61.9253 92.0443 61.584C92.6096 61.2427 93.2389 61.072 93.9323 61.072ZM103.697 70.144C102.875 70.144 102.129 69.9573 101.457 69.584C100.795 69.2107 100.273 68.6827 99.8886 68C99.5153 67.3067 99.3286 66.5067 99.3286 65.6C99.3286 64.704 99.5206 63.9147 99.9046 63.232C100.299 62.5387 100.833 62.0107 101.505 61.648C102.177 61.2747 102.929 61.088 103.761 61.088C104.593 61.088 105.345 61.2747 106.017 61.648C106.689 62.0107 107.217 62.5333 107.601 63.216C107.995 63.8987 108.193 64.6933 108.193 65.6C108.193 66.5067 107.99 67.3067 107.585 68C107.19 68.6827 106.651 69.2107 105.969 69.584C105.286 69.9573 104.529 70.144 103.697 70.144ZM103.697 68.864C104.219 68.864 104.71 68.7413 105.169 68.496C105.627 68.2507 105.995 67.8827 106.273 67.392C106.561 66.9013 106.705 66.304 106.705 65.6C106.705 64.896 106.566 64.2987 106.289 63.808C106.011 63.3173 105.649 62.9547 105.201 62.72C104.753 62.4747 104.267 62.352 103.745 62.352C103.211 62.352 102.721 62.4747 102.273 62.72C101.835 62.9547 101.483 63.3173 101.217 63.808C100.95 64.2987 100.817 64.896 100.817 65.6C100.817 66.3147 100.945 66.9173 101.201 67.408C101.467 67.8987 101.819 68.2667 102.257 68.512C102.694 68.7467 103.174 68.864 103.697 68.864ZM113.211 70.144C112.539 70.144 111.936 70.032 111.403 69.808C110.87 69.5733 110.448 69.2533 110.139 68.848C109.83 68.432 109.659 67.9573 109.627 67.424H111.131C111.174 67.8613 111.376 68.2187 111.739 68.496C112.112 68.7733 112.598 68.912 113.195 68.912C113.75 68.912 114.187 68.7893 114.507 68.544C114.827 68.2987 114.987 67.9893 114.987 67.616C114.987 67.232 114.816 66.9493 114.475 66.768C114.134 66.576 113.606 66.3893 112.891 66.208C112.24 66.0373 111.707 65.8667 111.291 65.696C110.886 65.5147 110.534 65.2533 110.235 64.912C109.947 64.56 109.803 64.1013 109.803 63.536C109.803 63.088 109.936 62.6773 110.203 62.304C110.47 61.9307 110.848 61.6373 111.339 61.424C111.83 61.2 112.39 61.088 113.019 61.088C113.99 61.088 114.774 61.3333 115.371 61.824C115.968 62.3147 116.288 62.9867 116.331 63.84H114.875C114.843 63.3813 114.656 63.0133 114.315 62.736C113.984 62.4587 113.536 62.32 112.971 62.32C112.448 62.32 112.032 62.432 111.723 62.656C111.414 62.88 111.259 63.1733 111.259 63.536C111.259 63.824 111.35 64.064 111.531 64.256C111.723 64.4373 111.958 64.5867 112.235 64.704C112.523 64.8107 112.918 64.9333 113.419 65.072C114.048 65.2427 114.56 65.4133 114.955 65.584C115.35 65.744 115.686 65.9893 115.963 66.32C116.251 66.6507 116.4 67.0827 116.411 67.616C116.411 68.096 116.278 68.528 116.011 68.912C115.744 69.296 115.366 69.6 114.875 69.824C114.395 70.0373 113.84 70.144 113.211 70.144ZM120.242 62.432V67.6C120.242 68.0267 120.333 68.3307 120.514 68.512C120.696 68.6827 121.01 68.768 121.458 68.768H122.53V70H121.218C120.408 70 119.8 69.8133 119.394 69.44C118.989 69.0667 118.786 68.4533 118.786 67.6V62.432H117.65V61.232H118.786V59.024H120.242V61.232H122.53V62.432H120.242ZM130.016 62.656C130.272 62.1547 130.635 61.7653 131.104 61.488C131.584 61.2107 132.165 61.072 132.848 61.072V62.576H132.464C130.832 62.576 130.016 63.4613 130.016 65.232V70H128.56V61.232H130.016V62.656ZM142.529 65.28C142.529 65.5573 142.513 65.8507 142.481 66.16H135.473C135.526 67.024 135.82 67.7013 136.353 68.192C136.897 68.672 137.553 68.912 138.321 68.912C138.95 68.912 139.473 68.768 139.889 68.48C140.316 68.1813 140.614 67.7867 140.785 67.296H142.353C142.118 68.1387 141.649 68.8267 140.945 69.36C140.241 69.8827 139.366 70.144 138.321 70.144C137.489 70.144 136.742 69.9573 136.081 69.584C135.43 69.2107 134.918 68.6827 134.545 68C134.172 67.3067 133.985 66.5067 133.985 65.6C133.985 64.6933 134.166 63.8987 134.529 63.216C134.892 62.5333 135.398 62.0107 136.049 61.648C136.71 61.2747 137.468 61.088 138.321 61.088C139.153 61.088 139.889 61.2693 140.529 61.632C141.169 61.9947 141.66 62.496 142.001 63.136C142.353 63.7653 142.529 64.48 142.529 65.28ZM141.025 64.976C141.025 64.4213 140.902 63.9467 140.657 63.552C140.412 63.1467 140.076 62.8427 139.649 62.64C139.233 62.4267 138.769 62.32 138.257 62.32C137.521 62.32 136.892 62.5547 136.369 63.024C135.857 63.4933 135.564 64.144 135.489 64.976H141.025ZM143.907 65.6C143.907 64.6933 144.088 63.904 144.451 63.232C144.813 62.5493 145.315 62.0213 145.955 61.648C146.605 61.2747 147.347 61.088 148.179 61.088C149.256 61.088 150.141 61.3493 150.835 61.872C151.539 62.3947 152.003 63.12 152.227 64.048H150.659C150.509 63.5147 150.216 63.0933 149.779 62.784C149.352 62.4747 148.819 62.32 148.179 62.32C147.347 62.32 146.675 62.608 146.163 63.184C145.651 63.7493 145.395 64.5547 145.395 65.6C145.395 66.656 145.651 67.472 146.163 68.048C146.675 68.624 147.347 68.912 148.179 68.912C148.819 68.912 149.352 68.7627 149.779 68.464C150.205 68.1653 150.499 67.7387 150.659 67.184H152.227C151.992 68.08 151.523 68.8 150.819 69.344C150.115 69.8773 149.235 70.144 148.179 70.144C147.347 70.144 146.605 69.9573 145.955 69.584C145.315 69.2107 144.813 68.6827 144.451 68C144.088 67.3173 143.907 66.5173 143.907 65.6ZM162.17 65.28C162.17 65.5573 162.154 65.8507 162.122 66.16H155.114C155.167 67.024 155.46 67.7013 155.994 68.192C156.538 68.672 157.194 68.912 157.962 68.912C158.591 68.912 159.114 68.768 159.53 68.48C159.956 68.1813 160.255 67.7867 160.426 67.296H161.994C161.759 68.1387 161.29 68.8267 160.586 69.36C159.882 69.8827 159.007 70.144 157.962 70.144C157.13 70.144 156.383 69.9573 155.722 69.584C155.071 69.2107 154.559 68.6827 154.186 68C153.812 67.3067 153.626 66.5067 153.626 65.6C153.626 64.6933 153.807 63.8987 154.17 63.216C154.532 62.5333 155.039 62.0107 155.69 61.648C156.351 61.2747 157.108 61.088 157.962 61.088C158.794 61.088 159.53 61.2693 160.17 61.632C160.81 61.9947 161.3 62.496 161.642 63.136C161.994 63.7653 162.17 64.48 162.17 65.28ZM160.666 64.976C160.666 64.4213 160.543 63.9467 160.298 63.552C160.052 63.1467 159.716 62.8427 159.29 62.64C158.874 62.4267 158.41 62.32 157.898 62.32C157.162 62.32 156.532 62.5547 156.01 63.024C155.498 63.4933 155.204 64.144 155.13 64.976H160.666ZM168.363 61.072C169.43 61.072 170.294 61.3973 170.955 62.048C171.617 62.688 171.947 63.616 171.947 64.832V70H170.507V65.04C170.507 64.1653 170.289 63.4987 169.851 63.04C169.414 62.5707 168.817 62.336 168.059 62.336C167.291 62.336 166.678 62.576 166.219 63.056C165.771 63.536 165.547 64.2347 165.547 65.152V70H164.091V61.232H165.547V62.48C165.835 62.032 166.225 61.6853 166.715 61.44C167.217 61.1947 167.766 61.072 168.363 61.072ZM176.102 62.432V67.6C176.102 68.0267 176.192 68.3307 176.374 68.512C176.555 68.6827 176.87 68.768 177.318 68.768H178.39V70H177.078C176.267 70 175.659 69.8133 175.254 69.44C174.848 69.0667 174.646 68.4533 174.646 67.6V62.432H173.51V61.232H174.646V59.024H176.102V61.232H178.39V62.432H176.102ZM185.876 62.656C186.132 62.1547 186.494 61.7653 186.964 61.488C187.444 61.2107 188.025 61.072 188.708 61.072V62.576H188.324C186.692 62.576 185.876 63.4613 185.876 65.232V70H184.42V61.232H185.876V62.656ZM198.164 61.232V70H196.708V68.704C196.431 69.152 196.042 69.504 195.54 69.76C195.05 70.0053 194.506 70.128 193.908 70.128C193.226 70.128 192.612 69.9893 192.068 69.712C191.524 69.424 191.092 68.9973 190.772 68.432C190.463 67.8667 190.308 67.1787 190.308 66.368V61.232H191.748V66.176C191.748 67.04 191.967 67.7067 192.404 68.176C192.842 68.6347 193.439 68.864 194.196 68.864C194.975 68.864 195.588 68.624 196.036 68.144C196.484 67.664 196.708 66.9653 196.708 66.048V61.232H198.164ZM204.895 61.072C205.961 61.072 206.825 61.3973 207.487 62.048C208.148 62.688 208.479 63.616 208.479 64.832V70H207.039V65.04C207.039 64.1653 206.82 63.4987 206.383 63.04C205.945 62.5707 205.348 62.336 204.591 62.336C203.823 62.336 203.209 62.576 202.751 63.056C202.303 63.536 202.079 64.2347 202.079 65.152V70H200.623V61.232H202.079V62.48C202.367 62.032 202.756 61.6853 203.247 61.44C203.748 61.1947 204.297 61.072 204.895 61.072ZM218.947 70.144C218.125 70.144 217.379 69.9573 216.707 69.584C216.045 69.2107 215.523 68.6827 215.139 68C214.765 67.3067 214.579 66.5067 214.579 65.6C214.579 64.704 214.771 63.9147 215.155 63.232C215.549 62.5387 216.083 62.0107 216.755 61.648C217.427 61.2747 218.179 61.088 219.011 61.088C219.843 61.088 220.595 61.2747 221.267 61.648C221.939 62.0107 222.467 62.5333 222.851 63.216C223.245 63.8987 223.443 64.6933 223.443 65.6C223.443 66.5067 223.24 67.3067 222.835 68C222.44 68.6827 221.901 69.2107 221.219 69.584C220.536 69.9573 219.779 70.144 218.947 70.144ZM218.947 68.864C219.469 68.864 219.96 68.7413 220.419 68.496C220.877 68.2507 221.245 67.8827 221.523 67.392C221.811 66.9013 221.955 66.304 221.955 65.6C221.955 64.896 221.816 64.2987 221.539 63.808C221.261 63.3173 220.899 62.9547 220.451 62.72C220.003 62.4747 219.517 62.352 218.995 62.352C218.461 62.352 217.971 62.4747 217.523 62.72C217.085 62.9547 216.733 63.3173 216.467 63.808C216.2 64.2987 216.067 64.896 216.067 65.6C216.067 66.3147 216.195 66.9173 216.451 67.408C216.717 67.8987 217.069 68.2667 217.507 68.512C217.944 68.7467 218.424 68.864 218.947 68.864ZM228.925 62.432H227.085V70H225.629V62.432H224.493V61.232H225.629V60.608C225.629 59.6267 225.88 58.912 226.381 58.464C226.893 58.0053 227.709 57.776 228.829 57.776V58.992C228.189 58.992 227.736 59.12 227.469 59.376C227.213 59.6213 227.085 60.032 227.085 60.608V61.232H228.925V62.432ZM234.344 65.584C234.344 64.688 234.526 63.904 234.888 63.232C235.251 62.5493 235.747 62.0213 236.376 61.648C237.016 61.2747 237.726 61.088 238.504 61.088C239.272 61.088 239.939 61.2533 240.504 61.584C241.07 61.9147 241.491 62.3307 241.768 62.832V61.232H243.24V70H241.768V68.368C241.48 68.88 241.048 69.3067 240.472 69.648C239.907 69.9787 239.246 70.144 238.488 70.144C237.71 70.144 237.006 69.952 236.376 69.568C235.747 69.184 235.251 68.6453 234.888 67.952C234.526 67.2587 234.344 66.4693 234.344 65.584ZM241.768 65.6C241.768 64.9387 241.635 64.3627 241.368 63.872C241.102 63.3813 240.739 63.008 240.28 62.752C239.832 62.4853 239.336 62.352 238.792 62.352C238.248 62.352 237.752 62.48 237.304 62.736C236.856 62.992 236.499 63.3653 236.232 63.856C235.966 64.3467 235.832 64.9227 235.832 65.584C235.832 66.256 235.966 66.8427 236.232 67.344C236.499 67.8347 236.856 68.2133 237.304 68.48C237.752 68.736 238.248 68.864 238.792 68.864C239.336 68.864 239.832 68.736 240.28 68.48C240.739 68.2133 241.102 67.8347 241.368 67.344C241.635 66.8427 241.768 66.2613 241.768 65.6ZM247.157 58.16V70H245.701V58.16H247.157ZM251.094 58.16V70H249.638V58.16H251.094ZM265.393 61.232L260.113 74.128H258.609L260.337 69.904L256.801 61.232H258.417L261.169 68.336L263.889 61.232H265.393ZM270.681 70.144C269.86 70.144 269.113 69.9573 268.441 69.584C267.78 69.2107 267.257 68.6827 266.873 68C266.5 67.3067 266.313 66.5067 266.313 65.6C266.313 64.704 266.505 63.9147 266.889 63.232C267.284 62.5387 267.817 62.0107 268.489 61.648C269.161 61.2747 269.913 61.088 270.745 61.088C271.577 61.088 272.329 61.2747 273.001 61.648C273.673 62.0107 274.201 62.5333 274.585 63.216C274.98 63.8987 275.177 64.6933 275.177 65.6C275.177 66.5067 274.974 67.3067 274.569 68C274.174 68.6827 273.636 69.2107 272.953 69.584C272.27 69.9573 271.513 70.144 270.681 70.144ZM270.681 68.864C271.204 68.864 271.694 68.7413 272.153 68.496C272.612 68.2507 272.98 67.8827 273.257 67.392C273.545 66.9013 273.689 66.304 273.689 65.6C273.689 64.896 273.55 64.2987 273.273 63.808C272.996 63.3173 272.633 62.9547 272.185 62.72C271.737 62.4747 271.252 62.352 270.729 62.352C270.196 62.352 269.705 62.4747 269.257 62.72C268.82 62.9547 268.468 63.3173 268.201 63.808C267.934 64.2987 267.801 64.896 267.801 65.6C267.801 66.3147 267.929 66.9173 268.185 67.408C268.452 67.8987 268.804 68.2667 269.241 68.512C269.678 68.7467 270.158 68.864 270.681 68.864ZM284.867 61.232V70H283.411V68.704C283.134 69.152 282.745 69.504 282.243 69.76C281.753 70.0053 281.209 70.128 280.611 70.128C279.929 70.128 279.315 69.9893 278.771 69.712C278.227 69.424 277.795 68.9973 277.475 68.432C277.166 67.8667 277.011 67.1787 277.011 66.368V61.232H278.451V66.176C278.451 67.04 278.67 67.7067 279.107 68.176C279.545 68.6347 280.142 68.864 280.899 68.864C281.678 68.864 282.291 68.624 282.739 68.144C283.187 67.664 283.411 66.9653 283.411 66.048V61.232H284.867ZM288.782 62.656C289.038 62.1547 289.4 61.7653 289.87 61.488C290.35 61.2107 290.931 61.072 291.614 61.072V62.576H291.23C289.598 62.576 288.782 63.4613 288.782 65.232V70H287.326V61.232H288.782V62.656ZM299.336 62.432V67.6C299.336 68.0267 299.427 68.3307 299.608 68.512C299.789 68.6827 300.104 68.768 300.552 68.768H301.624V70H300.312C299.501 70 298.893 69.8133 298.488 69.44C298.083 69.0667 297.88 68.4533 297.88 67.6V62.432H296.744V61.232H297.88V59.024H299.336V61.232H301.624V62.432H299.336ZM311.388 65.28C311.388 65.5573 311.372 65.8507 311.34 66.16H304.332C304.386 67.024 304.679 67.7013 305.212 68.192C305.756 68.672 306.412 68.912 307.18 68.912C307.81 68.912 308.332 68.768 308.748 68.48C309.175 68.1813 309.474 67.7867 309.644 67.296H311.212C310.978 68.1387 310.508 68.8267 309.804 69.36C309.1 69.8827 308.226 70.144 307.18 70.144C306.348 70.144 305.602 69.9573 304.94 69.584C304.29 69.2107 303.778 68.6827 303.404 68C303.031 67.3067 302.844 66.5067 302.844 65.6C302.844 64.6933 303.026 63.8987 303.388 63.216C303.751 62.5333 304.258 62.0107 304.908 61.648C305.57 61.2747 306.327 61.088 307.18 61.088C308.012 61.088 308.748 61.2693 309.388 61.632C310.028 61.9947 310.519 62.496 310.86 63.136C311.212 63.7653 311.388 64.48 311.388 65.28ZM309.884 64.976C309.884 64.4213 309.762 63.9467 309.516 63.552C309.271 63.1467 308.935 62.8427 308.508 62.64C308.092 62.4267 307.628 62.32 307.116 62.32C306.38 62.32 305.751 62.5547 305.228 63.024C304.716 63.4933 304.423 64.144 304.348 64.976H309.884ZM316.414 70.144C315.742 70.144 315.139 70.032 314.606 69.808C314.073 69.5733 313.651 69.2533 313.342 68.848C313.033 68.432 312.862 67.9573 312.83 67.424H314.334C314.377 67.8613 314.579 68.2187 314.942 68.496C315.315 68.7733 315.801 68.912 316.398 68.912C316.953 68.912 317.39 68.7893 317.71 68.544C318.03 68.2987 318.19 67.9893 318.19 67.616C318.19 67.232 318.019 66.9493 317.678 66.768C317.337 66.576 316.809 66.3893 316.094 66.208C315.443 66.0373 314.91 65.8667 314.494 65.696C314.089 65.5147 313.737 65.2533 313.438 64.912C313.15 64.56 313.006 64.1013 313.006 63.536C313.006 63.088 313.139 62.6773 313.406 62.304C313.673 61.9307 314.051 61.6373 314.542 61.424C315.033 61.2 315.593 61.088 316.222 61.088C317.193 61.088 317.977 61.3333 318.574 61.824C319.171 62.3147 319.491 62.9867 319.534 63.84H318.078C318.046 63.3813 317.859 63.0133 317.518 62.736C317.187 62.4587 316.739 62.32 316.174 62.32C315.651 62.32 315.235 62.432 314.926 62.656C314.617 62.88 314.462 63.1733 314.462 63.536C314.462 63.824 314.553 64.064 314.734 64.256C314.926 64.4373 315.161 64.5867 315.438 64.704C315.726 64.8107 316.121 64.9333 316.622 65.072C317.251 65.2427 317.763 65.4133 318.158 65.584C318.553 65.744 318.889 65.9893 319.166 66.32C319.454 66.6507 319.603 67.0827 319.614 67.616C319.614 68.096 319.481 68.528 319.214 68.912C318.947 69.296 318.569 69.6 318.078 69.824C317.598 70.0373 317.043 70.144 316.414 70.144ZM323.446 62.432V67.6C323.446 68.0267 323.536 68.3307 323.718 68.512C323.899 68.6827 324.214 68.768 324.661 68.768H325.734V70H324.422C323.611 70 323.003 69.8133 322.598 69.44C322.192 69.0667 321.99 68.4533 321.99 67.6V62.432H320.854V61.232H321.99V59.024H323.446V61.232H325.734V62.432H323.446ZM330.602 70.144C329.93 70.144 329.327 70.032 328.794 69.808C328.26 69.5733 327.839 69.2533 327.53 68.848C327.22 68.432 327.05 67.9573 327.018 67.424H328.522C328.564 67.8613 328.767 68.2187 329.13 68.496C329.503 68.7733 329.988 68.912 330.586 68.912C331.14 68.912 331.578 68.7893 331.898 68.544C332.218 68.2987 332.378 67.9893 332.378 67.616C332.378 67.232 332.207 66.9493 331.866 66.768C331.524 66.576 330.996 66.3893 330.282 66.208C329.631 66.0373 329.098 65.8667 328.682 65.696C328.276 65.5147 327.924 65.2533 327.626 64.912C327.338 64.56 327.194 64.1013 327.194 63.536C327.194 63.088 327.327 62.6773 327.594 62.304C327.86 61.9307 328.239 61.6373 328.73 61.424C329.22 61.2 329.78 61.088 330.41 61.088C331.38 61.088 332.164 61.3333 332.762 61.824C333.359 62.3147 333.679 62.9867 333.722 63.84H332.266C332.234 63.3813 332.047 63.0133 331.706 62.736C331.375 62.4587 330.927 62.32 330.362 62.32C329.839 62.32 329.423 62.432 329.114 62.656C328.804 62.88 328.65 63.1733 328.65 63.536C328.65 63.824 328.74 64.064 328.922 64.256C329.114 64.4373 329.348 64.5867 329.626 64.704C329.914 64.8107 330.308 64.9333 330.81 65.072C331.439 65.2427 331.951 65.4133 332.346 65.584C332.74 65.744 333.076 65.9893 333.354 66.32C333.642 66.6507 333.791 67.0827 333.802 67.616C333.802 68.096 333.668 68.528 333.402 68.912C333.135 69.296 332.756 69.6 332.266 69.824C331.786 70.0373 331.231 70.144 330.602 70.144ZM337.361 67.984L335.569 72.288H334.593L335.761 67.984H337.361ZM416.469 65.584C416.469 64.688 416.651 63.904 417.013 63.232C417.376 62.5493 417.872 62.0213 418.501 61.648C419.141 61.2747 419.851 61.088 420.629 61.088C421.397 61.088 422.064 61.2533 422.629 61.584C423.195 61.9147 423.616 62.3307 423.893 62.832V61.232H425.365V70H423.893V68.368C423.605 68.88 423.173 69.3067 422.597 69.648C422.032 69.9787 421.371 70.144 420.613 70.144C419.835 70.144 419.131 69.952 418.501 69.568C417.872 69.184 417.376 68.6453 417.013 67.952C416.651 67.2587 416.469 66.4693 416.469 65.584ZM423.893 65.6C423.893 64.9387 423.76 64.3627 423.493 63.872C423.227 63.3813 422.864 63.008 422.405 62.752C421.957 62.4853 421.461 62.352 420.917 62.352C420.373 62.352 419.877 62.48 419.429 62.736C418.981 62.992 418.624 63.3653 418.357 63.856C418.091 64.3467 417.957 64.9227 417.957 65.584C417.957 66.256 418.091 66.8427 418.357 67.344C418.624 67.8347 418.981 68.2133 419.429 68.48C419.877 68.736 420.373 68.864 420.917 68.864C421.461 68.864 421.957 68.736 422.405 68.48C422.864 68.2133 423.227 67.8347 423.493 67.344C423.76 66.8427 423.893 66.2613 423.893 65.6ZM432.098 61.072C433.164 61.072 434.028 61.3973 434.69 62.048C435.351 62.688 435.682 63.616 435.682 64.832V70H434.242V65.04C434.242 64.1653 434.023 63.4987 433.586 63.04C433.148 62.5707 432.551 62.336 431.794 62.336C431.026 62.336 430.412 62.576 429.954 63.056C429.506 63.536 429.282 64.2347 429.282 65.152V70H427.826V61.232H429.282V62.48C429.57 62.032 429.959 61.6853 430.45 61.44C430.951 61.1947 431.5 61.072 432.098 61.072ZM437.516 65.584C437.516 64.688 437.697 63.904 438.06 63.232C438.423 62.5493 438.919 62.0213 439.548 61.648C440.188 61.2747 440.903 61.088 441.692 61.088C442.375 61.088 443.009 61.248 443.596 61.568C444.183 61.8773 444.631 62.288 444.94 62.8V58.16H446.412V70H444.94V68.352C444.652 68.8747 444.225 69.3067 443.66 69.648C443.095 69.9787 442.433 70.144 441.676 70.144C440.897 70.144 440.188 69.952 439.548 69.568C438.919 69.184 438.423 68.6453 438.06 67.952C437.697 67.2587 437.516 66.4693 437.516 65.584ZM444.94 65.6C444.94 64.9387 444.807 64.3627 444.54 63.872C444.273 63.3813 443.911 63.008 443.452 62.752C443.004 62.4853 442.508 62.352 441.964 62.352C441.42 62.352 440.924 62.48 440.476 62.736C440.028 62.992 439.671 63.3653 439.404 63.856C439.137 64.3467 439.004 64.9227 439.004 65.584C439.004 66.256 439.137 66.8427 439.404 67.344C439.671 67.8347 440.028 68.2133 440.476 68.48C440.924 68.736 441.42 68.864 441.964 68.864C442.508 68.864 443.004 68.736 443.452 68.48C443.911 68.2133 444.273 67.8347 444.54 67.344C444.807 66.8427 444.94 66.2613 444.94 65.6ZM509.196 70.096C508.919 70.096 508.684 70 508.492 69.808C508.3 69.616 508.204 69.3813 508.204 69.104C508.204 68.8267 508.3 68.592 508.492 68.4C508.684 68.208 508.919 68.112 509.196 68.112C509.463 68.112 509.687 68.208 509.868 68.4C510.06 68.592 510.156 68.8267 510.156 69.104C510.156 69.3813 510.06 69.616 509.868 69.808C509.687 70 509.463 70.096 509.196 70.096Z" fill="#212427"/>
<path d="M342.639 60.4V58.336H346.495V70H344.191V60.4H342.639ZM355.016 62.416C355.304 62.0107 355.699 61.6747 356.2 61.408C356.712 61.1307 357.293 60.992 357.944 60.992C358.701 60.992 359.384 61.1787 359.992 61.552C360.611 61.9253 361.096 62.4587 361.448 63.152C361.811 63.8347 361.992 64.6293 361.992 65.536C361.992 66.4427 361.811 67.248 361.448 67.952C361.096 68.6453 360.611 69.184 359.992 69.568C359.384 69.952 358.701 70.144 357.944 70.144C357.293 70.144 356.717 70.0107 356.216 69.744C355.725 69.4773 355.325 69.1413 355.016 68.736V74.224H352.776V61.136H355.016V62.416ZM359.704 65.536C359.704 65.0027 359.592 64.544 359.368 64.16C359.155 63.7653 358.867 63.4667 358.504 63.264C358.152 63.0613 357.768 62.96 357.352 62.96C356.947 62.96 356.563 63.0667 356.2 63.28C355.848 63.4827 355.56 63.7813 355.336 64.176C355.123 64.5707 355.016 65.0347 355.016 65.568C355.016 66.1013 355.123 66.5653 355.336 66.96C355.56 67.3547 355.848 67.6587 356.2 67.872C356.563 68.0747 356.947 68.176 357.352 68.176C357.768 68.176 358.152 68.0693 358.504 67.856C358.867 67.6427 359.155 67.3387 359.368 66.944C359.592 66.5493 359.704 66.08 359.704 65.536ZM363.044 65.536C363.044 64.64 363.22 63.8453 363.572 63.152C363.934 62.4587 364.42 61.9253 365.028 61.552C365.646 61.1787 366.334 60.992 367.092 60.992C367.753 60.992 368.329 61.1253 368.82 61.392C369.321 61.6587 369.721 61.9947 370.02 62.4V61.136H372.276V70H370.02V68.704C369.732 69.12 369.332 69.4667 368.82 69.744C368.318 70.0107 367.737 70.144 367.076 70.144C366.329 70.144 365.646 69.952 365.028 69.568C364.42 69.184 363.934 68.6453 363.572 67.952C363.22 67.248 363.044 66.4427 363.044 65.536ZM370.02 65.568C370.02 65.024 369.913 64.56 369.7 64.176C369.486 63.7813 369.198 63.4827 368.836 63.28C368.473 63.0667 368.084 62.96 367.668 62.96C367.252 62.96 366.868 63.0613 366.516 63.264C366.164 63.4667 365.876 63.7653 365.652 64.16C365.438 64.544 365.332 65.0027 365.332 65.536C365.332 66.0693 365.438 66.5387 365.652 66.944C365.876 67.3387 366.164 67.6427 366.516 67.856C366.878 68.0693 367.262 68.176 367.668 68.176C368.084 68.176 368.473 68.0747 368.836 67.872C369.198 67.6587 369.486 67.36 369.7 66.976C369.913 66.5813 370.02 66.112 370.02 65.568ZM377.855 70.144C377.13 70.144 376.479 70.016 375.903 69.76C375.327 69.4933 374.869 69.136 374.527 68.688C374.197 68.24 374.015 67.744 373.983 67.2H376.239C376.282 67.5413 376.447 67.824 376.735 68.048C377.034 68.272 377.402 68.384 377.839 68.384C378.266 68.384 378.597 68.2987 378.831 68.128C379.077 67.9573 379.199 67.7387 379.199 67.472C379.199 67.184 379.05 66.9707 378.751 66.832C378.463 66.6827 377.999 66.5227 377.359 66.352C376.698 66.192 376.154 66.0267 375.727 65.856C375.311 65.6853 374.949 65.424 374.639 65.072C374.341 64.72 374.191 64.2453 374.191 63.648C374.191 63.1573 374.33 62.7093 374.607 62.304C374.895 61.8987 375.301 61.5787 375.823 61.344C376.357 61.1093 376.981 60.992 377.695 60.992C378.751 60.992 379.594 61.2587 380.223 61.792C380.853 62.3147 381.199 63.024 381.263 63.92H379.119C379.087 63.568 378.938 63.2907 378.671 63.088C378.415 62.8747 378.069 62.768 377.631 62.768C377.226 62.768 376.911 62.8427 376.687 62.992C376.474 63.1413 376.367 63.3493 376.367 63.616C376.367 63.9147 376.517 64.144 376.815 64.304C377.114 64.4533 377.578 64.608 378.207 64.768C378.847 64.928 379.375 65.0933 379.791 65.264C380.207 65.4347 380.565 65.7013 380.863 66.064C381.173 66.416 381.333 66.8853 381.343 67.472C381.343 67.984 381.199 68.4427 380.911 68.848C380.634 69.2533 380.229 69.5733 379.695 69.808C379.173 70.032 378.559 70.144 377.855 70.144ZM386.574 70.144C385.849 70.144 385.198 70.016 384.622 69.76C384.046 69.4933 383.587 69.136 383.246 68.688C382.915 68.24 382.734 67.744 382.702 67.2H384.958C385.001 67.5413 385.166 67.824 385.454 68.048C385.753 68.272 386.121 68.384 386.558 68.384C386.985 68.384 387.315 68.2987 387.55 68.128C387.795 67.9573 387.918 67.7387 387.918 67.472C387.918 67.184 387.769 66.9707 387.47 66.832C387.182 66.6827 386.718 66.5227 386.078 66.352C385.417 66.192 384.873 66.0267 384.446 65.856C384.03 65.6853 383.667 65.424 383.358 65.072C383.059 64.72 382.91 64.2453 382.91 63.648C382.91 63.1573 383.049 62.7093 383.326 62.304C383.614 61.8987 384.019 61.5787 384.542 61.344C385.075 61.1093 385.699 60.992 386.414 60.992C387.47 60.992 388.313 61.2587 388.942 61.792C389.571 62.3147 389.918 63.024 389.982 63.92H387.838C387.806 63.568 387.657 63.2907 387.39 63.088C387.134 62.8747 386.787 62.768 386.35 62.768C385.945 62.768 385.63 62.8427 385.406 62.992C385.193 63.1413 385.086 63.3493 385.086 63.616C385.086 63.9147 385.235 64.144 385.534 64.304C385.833 64.4533 386.297 64.608 386.926 64.768C387.566 64.928 388.094 65.0933 388.51 65.264C388.926 65.4347 389.283 65.7013 389.582 66.064C389.891 66.416 390.051 66.8853 390.062 67.472C390.062 67.984 389.918 68.4427 389.63 68.848C389.353 69.2533 388.947 69.5733 388.414 69.808C387.891 70.032 387.278 70.144 386.574 70.144ZM400.141 65.376C400.141 65.696 400.12 65.984 400.077 66.24H393.597C393.65 66.88 393.874 67.3813 394.269 67.744C394.664 68.1067 395.149 68.288 395.725 68.288C396.557 68.288 397.149 67.9307 397.501 67.216H399.917C399.661 68.0693 399.17 68.7733 398.445 69.328C397.72 69.872 396.829 70.144 395.773 70.144C394.92 70.144 394.152 69.9573 393.469 69.584C392.797 69.2 392.269 68.6613 391.885 67.968C391.512 67.2747 391.325 66.4747 391.325 65.568C391.325 64.6507 391.512 63.8453 391.885 63.152C392.258 62.4587 392.781 61.9253 393.453 61.552C394.125 61.1787 394.898 60.992 395.773 60.992C396.616 60.992 397.368 61.1733 398.029 61.536C398.701 61.8987 399.218 62.416 399.581 63.088C399.954 63.7493 400.141 64.512 400.141 65.376ZM397.821 64.736C397.81 64.16 397.602 63.7013 397.197 63.36C396.792 63.008 396.296 62.832 395.709 62.832C395.154 62.832 394.685 63.0027 394.301 63.344C393.928 63.6747 393.698 64.1387 393.613 64.736H397.821ZM401.2 65.536C401.2 64.64 401.376 63.8453 401.728 63.152C402.091 62.4587 402.581 61.9253 403.2 61.552C403.819 61.1787 404.507 60.992 405.264 60.992C405.84 60.992 406.389 61.12 406.912 61.376C407.435 61.6213 407.851 61.952 408.16 62.368V58.16H410.432V70H408.16V68.688C407.883 69.1253 407.493 69.4773 406.992 69.744C406.491 70.0107 405.909 70.144 405.248 70.144C404.501 70.144 403.819 69.952 403.2 69.568C402.581 69.184 402.091 68.6453 401.728 67.952C401.376 67.248 401.2 66.4427 401.2 65.536ZM408.176 65.568C408.176 65.024 408.069 64.56 407.856 64.176C407.643 63.7813 407.355 63.4827 406.992 63.28C406.629 63.0667 406.24 62.96 405.824 62.96C405.408 62.96 405.024 63.0613 404.672 63.264C404.32 63.4667 404.032 63.7653 403.808 64.16C403.595 64.544 403.488 65.0027 403.488 65.536C403.488 66.0693 403.595 66.5387 403.808 66.944C404.032 67.3387 404.32 67.6427 404.672 67.856C405.035 68.0693 405.419 68.176 405.824 68.176C406.24 68.176 406.629 68.0747 406.992 67.872C407.355 67.6587 407.643 67.36 407.856 66.976C408.069 66.5813 408.176 66.112 408.176 65.568Z" fill="#54CA6E"/>
<path d="M452.482 60.4V58.336H456.338V70H454.034V60.4H452.482ZM466.684 62.976H465.132V70H462.86V62.976H461.852V61.136H462.86V60.688C462.86 59.6 463.169 58.8 463.788 58.288C464.406 57.776 465.34 57.536 466.588 57.568V59.456C466.044 59.4453 465.665 59.536 465.452 59.728C465.238 59.92 465.132 60.2667 465.132 60.768V61.136H466.684V62.976ZM467.559 65.536C467.559 64.64 467.735 63.8453 468.087 63.152C468.45 62.4587 468.935 61.9253 469.543 61.552C470.162 61.1787 470.85 60.992 471.607 60.992C472.269 60.992 472.845 61.1253 473.335 61.392C473.837 61.6587 474.237 61.9947 474.535 62.4V61.136H476.791V70H474.535V68.704C474.247 69.12 473.847 69.4667 473.335 69.744C472.834 70.0107 472.253 70.144 471.591 70.144C470.845 70.144 470.162 69.952 469.543 69.568C468.935 69.184 468.45 68.6453 468.087 67.952C467.735 67.248 467.559 66.4427 467.559 65.536ZM474.535 65.568C474.535 65.024 474.429 64.56 474.215 64.176C474.002 63.7813 473.714 63.4827 473.351 63.28C472.989 63.0667 472.599 62.96 472.183 62.96C471.767 62.96 471.383 63.0613 471.031 63.264C470.679 63.4667 470.391 63.7653 470.167 64.16C469.954 64.544 469.847 65.0027 469.847 65.536C469.847 66.0693 469.954 66.5387 470.167 66.944C470.391 67.3387 470.679 67.6427 471.031 67.856C471.394 68.0693 471.778 68.176 472.183 68.176C472.599 68.176 472.989 68.0747 473.351 67.872C473.714 67.6587 474.002 67.36 474.215 66.976C474.429 66.5813 474.535 66.112 474.535 65.568ZM480.115 60.08C479.72 60.08 479.39 59.9573 479.123 59.712C478.867 59.456 478.739 59.1413 478.739 58.768C478.739 58.3947 478.867 58.0853 479.123 57.84C479.39 57.584 479.72 57.456 480.115 57.456C480.51 57.456 480.835 57.584 481.091 57.84C481.358 58.0853 481.491 58.3947 481.491 58.768C481.491 59.1413 481.358 59.456 481.091 59.712C480.835 59.9573 480.51 60.08 480.115 60.08ZM481.219 61.136V70H478.979V61.136H481.219ZM485.672 58.16V70H483.432V58.16H485.672ZM496.125 65.376C496.125 65.696 496.104 65.984 496.061 66.24H489.581C489.635 66.88 489.859 67.3813 490.253 67.744C490.648 68.1067 491.133 68.288 491.709 68.288C492.541 68.288 493.133 67.9307 493.485 67.216H495.901C495.645 68.0693 495.155 68.7733 494.429 69.328C493.704 69.872 492.813 70.144 491.757 70.144C490.904 70.144 490.136 69.9573 489.453 69.584C488.781 69.2 488.253 68.6613 487.869 67.968C487.496 67.2747 487.309 66.4747 487.309 65.568C487.309 64.6507 487.496 63.8453 487.869 63.152C488.243 62.4587 488.765 61.9253 489.437 61.552C490.109 61.1787 490.883 60.992 491.757 60.992C492.6 60.992 493.352 61.1733 494.013 61.536C494.685 61.8987 495.203 62.416 495.565 63.088C495.939 63.7493 496.125 64.512 496.125 65.376ZM493.805 64.736C493.795 64.16 493.587 63.7013 493.181 63.36C492.776 63.008 492.28 62.832 491.693 62.832C491.139 62.832 490.669 63.0027 490.285 63.344C489.912 63.6747 489.683 64.1387 489.597 64.736H493.805ZM497.184 65.536C497.184 64.64 497.36 63.8453 497.712 63.152C498.075 62.4587 498.566 61.9253 499.184 61.552C499.803 61.1787 500.491 60.992 501.248 60.992C501.824 60.992 502.374 61.12 502.896 61.376C503.419 61.6213 503.835 61.952 504.144 62.368V58.16H506.416V70H504.144V68.688C503.867 69.1253 503.478 69.4773 502.976 69.744C502.475 70.0107 501.894 70.144 501.232 70.144C500.486 70.144 499.803 69.952 499.184 69.568C498.566 69.184 498.075 68.6453 497.712 67.952C497.36 67.248 497.184 66.4427 497.184 65.536ZM504.16 65.568C504.16 65.024 504.054 64.56 503.84 64.176C503.627 63.7813 503.339 63.4827 502.976 63.28C502.614 63.0667 502.224 62.96 501.808 62.96C501.392 62.96 501.008 63.0613 500.656 63.264C500.304 63.4667 500.016 63.7653 499.792 64.16C499.579 64.544 499.472 65.0027 499.472 65.536C499.472 66.0693 499.579 66.5387 499.792 66.944C500.016 67.3387 500.304 67.6427 500.656 67.856C501.019 68.0693 501.403 68.176 501.808 68.176C502.224 68.176 502.614 68.0747 502.976 67.872C503.339 67.6587 503.627 67.36 503.84 66.976C504.054 66.5813 504.16 66.112 504.16 65.568Z" fill="#E1654A"/>
<g filter="url(#filter0_d_266_4500)">
<rect x="797.5" y="20.5" width="142" height="31" rx="5.5" stroke="black" stroke-opacity="0.15" shape-rendering="crispEdges"/>
<path d="M813.602 36.114C813.602 35.162 813.817 34.308 814.246 33.552C814.675 32.7867 815.259 32.1893 815.996 31.76C816.743 31.3307 817.569 31.116 818.474 31.116C819.538 31.116 820.467 31.3727 821.26 31.886C822.053 32.3993 822.632 33.1273 822.996 34.07H821.47C821.199 33.482 820.807 33.0293 820.294 32.712C819.79 32.3947 819.183 32.236 818.474 32.236C817.793 32.236 817.181 32.3947 816.64 32.712C816.099 33.0293 815.674 33.482 815.366 34.07C815.058 34.6487 814.904 35.33 814.904 36.114C814.904 36.8887 815.058 37.57 815.366 38.158C815.674 38.7367 816.099 39.1847 816.64 39.502C817.181 39.8193 817.793 39.978 818.474 39.978C819.183 39.978 819.79 39.824 820.294 39.516C820.807 39.1987 821.199 38.746 821.47 38.158H822.996C822.632 39.0913 822.053 39.8147 821.26 40.328C820.467 40.832 819.538 41.084 818.474 41.084C817.569 41.084 816.743 40.874 815.996 40.454C815.259 40.0247 814.675 39.432 814.246 38.676C813.817 37.92 813.602 37.066 813.602 36.114ZM826.166 34.574C826.39 34.1353 826.708 33.7947 827.118 33.552C827.538 33.3093 828.047 33.188 828.644 33.188V34.504H828.308C826.88 34.504 826.166 35.2787 826.166 36.828V41H824.892V33.328H826.166V34.574ZM837.115 36.87C837.115 37.1127 837.101 37.3693 837.073 37.64H830.941C830.988 38.396 831.244 38.9887 831.711 39.418C832.187 39.838 832.761 40.048 833.433 40.048C833.984 40.048 834.441 39.922 834.805 39.67C835.178 39.4087 835.44 39.0633 835.589 38.634H836.961C836.756 39.3713 836.345 39.9733 835.729 40.44C835.113 40.8973 834.348 41.126 833.433 41.126C832.705 41.126 832.052 40.9627 831.473 40.636C830.904 40.3093 830.456 39.8473 830.129 39.25C829.802 38.6433 829.639 37.9433 829.639 37.15C829.639 36.3567 829.798 35.6613 830.115 35.064C830.432 34.4667 830.876 34.0093 831.445 33.692C832.024 33.3653 832.686 33.202 833.433 33.202C834.161 33.202 834.805 33.3607 835.365 33.678C835.925 33.9953 836.354 34.434 836.653 34.994C836.961 35.5447 837.115 36.17 837.115 36.87ZM835.799 36.604C835.799 36.1187 835.692 35.7033 835.477 35.358C835.262 35.0033 834.968 34.7373 834.595 34.56C834.231 34.3733 833.825 34.28 833.377 34.28C832.733 34.28 832.182 34.4853 831.725 34.896C831.277 35.3067 831.02 35.876 830.955 36.604H835.799ZM838.321 37.136C838.321 36.352 838.479 35.666 838.797 35.078C839.114 34.4807 839.548 34.0187 840.099 33.692C840.659 33.3653 841.279 33.202 841.961 33.202C842.633 33.202 843.216 33.3467 843.711 33.636C844.205 33.9253 844.574 34.2893 844.817 34.728V33.328H846.105V41H844.817V39.572C844.565 40.02 844.187 40.3933 843.683 40.692C843.188 40.9813 842.609 41.126 841.947 41.126C841.265 41.126 840.649 40.958 840.099 40.622C839.548 40.286 839.114 39.8147 838.797 39.208C838.479 38.6013 838.321 37.9107 838.321 37.136ZM844.817 37.15C844.817 36.5713 844.7 36.0673 844.467 35.638C844.233 35.2087 843.916 34.882 843.515 34.658C843.123 34.4247 842.689 34.308 842.213 34.308C841.737 34.308 841.303 34.42 840.911 34.644C840.519 34.868 840.206 35.1947 839.973 35.624C839.739 36.0533 839.623 36.5573 839.623 37.136C839.623 37.724 839.739 38.2373 839.973 38.676C840.206 39.1053 840.519 39.4367 840.911 39.67C841.303 39.894 841.737 40.006 842.213 40.006C842.689 40.006 843.123 39.894 843.515 39.67C843.916 39.4367 844.233 39.1053 844.467 38.676C844.7 38.2373 844.817 37.7287 844.817 37.15ZM849.812 34.378V38.9C849.812 39.2733 849.891 39.5393 850.05 39.698C850.208 39.8473 850.484 39.922 850.876 39.922H851.814V41H850.666C849.956 41 849.424 40.8367 849.07 40.51C848.715 40.1833 848.538 39.6467 848.538 38.9V34.378H847.544V33.328H848.538V31.396H849.812V33.328H851.814V34.378H849.812ZM860.357 36.87C860.357 37.1127 860.343 37.3693 860.315 37.64H854.183C854.23 38.396 854.487 38.9887 854.953 39.418C855.429 39.838 856.003 40.048 856.675 40.048C857.226 40.048 857.683 39.922 858.047 39.67C858.421 39.4087 858.682 39.0633 858.831 38.634H860.203C859.998 39.3713 859.587 39.9733 858.971 40.44C858.355 40.8973 857.59 41.126 856.675 41.126C855.947 41.126 855.294 40.9627 854.715 40.636C854.146 40.3093 853.698 39.8473 853.371 39.25C853.045 38.6433 852.881 37.9433 852.881 37.15C852.881 36.3567 853.04 35.6613 853.357 35.064C853.675 34.4667 854.118 34.0093 854.687 33.692C855.266 33.3653 855.929 33.202 856.675 33.202C857.403 33.202 858.047 33.3607 858.607 33.678C859.167 33.9953 859.597 34.434 859.895 34.994C860.203 35.5447 860.357 36.17 860.357 36.87ZM859.041 36.604C859.041 36.1187 858.934 35.7033 858.719 35.358C858.505 35.0033 858.211 34.7373 857.837 34.56C857.473 34.3733 857.067 34.28 856.619 34.28C855.975 34.28 855.425 34.4853 854.967 34.896C854.519 35.3067 854.263 35.876 854.197 36.604H859.041ZM869.509 33.188C870.443 33.188 871.199 33.4727 871.777 34.042C872.356 34.602 872.645 35.414 872.645 36.478V41H871.385V36.66C871.385 35.8947 871.194 35.3113 870.811 34.91C870.429 34.4993 869.906 34.294 869.243 34.294C868.571 34.294 868.035 34.504 867.633 34.924C867.241 35.344 867.045 35.9553 867.045 36.758V41H865.771V33.328H867.045V34.42C867.297 34.028 867.638 33.7247 868.067 33.51C868.506 33.2953 868.987 33.188 869.509 33.188ZM881.726 36.87C881.726 37.1127 881.712 37.3693 881.684 37.64H875.552C875.599 38.396 875.856 38.9887 876.322 39.418C876.798 39.838 877.372 40.048 878.044 40.048C878.595 40.048 879.052 39.922 879.416 39.67C879.79 39.4087 880.051 39.0633 880.2 38.634H881.572C881.367 39.3713 880.956 39.9733 880.34 40.44C879.724 40.8973 878.959 41.126 878.044 41.126C877.316 41.126 876.663 40.9627 876.084 40.636C875.515 40.3093 875.067 39.8473 874.74 39.25C874.414 38.6433 874.25 37.9433 874.25 37.15C874.25 36.3567 874.409 35.6613 874.726 35.064C875.044 34.4667 875.487 34.0093 876.056 33.692C876.635 33.3653 877.298 33.202 878.044 33.202C878.772 33.202 879.416 33.3607 879.976 33.678C880.536 33.9953 880.966 34.434 881.264 34.994C881.572 35.5447 881.726 36.17 881.726 36.87ZM880.41 36.604C880.41 36.1187 880.303 35.7033 880.088 35.358C879.874 35.0033 879.58 34.7373 879.206 34.56C878.842 34.3733 878.436 34.28 877.988 34.28C877.344 34.28 876.794 34.4853 876.336 34.896C875.888 35.3067 875.632 35.876 875.566 36.604H880.41ZM893.628 33.328L891.234 41H889.918L888.07 34.91L886.222 41H884.906L882.498 33.328H883.8L885.564 39.768L887.468 33.328H888.77L890.632 39.782L892.368 33.328H893.628ZM900.179 34.378V38.9C900.179 39.2733 900.258 39.5393 900.417 39.698C900.576 39.8473 900.851 39.922 901.243 39.922H902.181V41H901.033C900.324 41 899.792 40.8367 899.437 40.51C899.082 40.1833 898.905 39.6467 898.905 38.9V34.378H897.911V33.328H898.905V31.396H900.179V33.328H902.181V34.378H900.179ZM910.724 36.87C910.724 37.1127 910.71 37.3693 910.682 37.64H904.55C904.597 38.396 904.854 38.9887 905.32 39.418C905.796 39.838 906.37 40.048 907.042 40.048C907.593 40.048 908.05 39.922 908.414 39.67C908.788 39.4087 909.049 39.0633 909.198 38.634H910.57C910.365 39.3713 909.954 39.9733 909.338 40.44C908.722 40.8973 907.957 41.126 907.042 41.126C906.314 41.126 905.661 40.9627 905.082 40.636C904.513 40.3093 904.065 39.8473 903.738 39.25C903.412 38.6433 903.248 37.9433 903.248 37.15C903.248 36.3567 903.407 35.6613 903.724 35.064C904.042 34.4667 904.485 34.0093 905.054 33.692C905.633 33.3653 906.296 33.202 907.042 33.202C907.77 33.202 908.414 33.3607 908.974 33.678C909.534 33.9953 909.964 34.434 910.262 34.994C910.57 35.5447 910.724 36.17 910.724 36.87ZM909.408 36.604C909.408 36.1187 909.301 35.7033 909.086 35.358C908.872 35.0033 908.578 34.7373 908.204 34.56C907.84 34.3733 907.434 34.28 906.986 34.28C906.342 34.28 905.792 34.4853 905.334 34.896C904.886 35.3067 904.63 35.876 904.564 36.604H909.408ZM915.122 41.126C914.534 41.126 914.007 41.028 913.54 40.832C913.073 40.6267 912.705 40.3467 912.434 39.992C912.163 39.628 912.014 39.2127 911.986 38.746H913.302C913.339 39.1287 913.517 39.4413 913.834 39.684C914.161 39.9267 914.585 40.048 915.108 40.048C915.593 40.048 915.976 39.9407 916.256 39.726C916.536 39.5113 916.676 39.2407 916.676 38.914C916.676 38.578 916.527 38.3307 916.228 38.172C915.929 38.004 915.467 37.8407 914.842 37.682C914.273 37.5327 913.806 37.3833 913.442 37.234C913.087 37.0753 912.779 36.8467 912.518 36.548C912.266 36.24 912.14 35.8387 912.14 35.344C912.14 34.952 912.257 34.5927 912.49 34.266C912.723 33.9393 913.055 33.6827 913.484 33.496C913.913 33.3 914.403 33.202 914.954 33.202C915.803 33.202 916.489 33.4167 917.012 33.846C917.535 34.2753 917.815 34.8633 917.852 35.61H916.578C916.55 35.2087 916.387 34.8867 916.088 34.644C915.799 34.4013 915.407 34.28 914.912 34.28C914.455 34.28 914.091 34.378 913.82 34.574C913.549 34.77 913.414 35.0267 913.414 35.344C913.414 35.596 913.493 35.806 913.652 35.974C913.82 36.1327 914.025 36.2633 914.268 36.366C914.52 36.4593 914.865 36.5667 915.304 36.688C915.855 36.8373 916.303 36.9867 916.648 37.136C916.993 37.276 917.287 37.4907 917.53 37.78C917.782 38.0693 917.913 38.4473 917.922 38.914C917.922 39.334 917.805 39.712 917.572 40.048C917.339 40.384 917.007 40.65 916.578 40.846C916.158 41.0327 915.673 41.126 915.122 41.126ZM921.275 34.378V38.9C921.275 39.2733 921.354 39.5393 921.513 39.698C921.671 39.8473 921.947 39.922 922.339 39.922H923.277V41H922.129C921.419 41 920.887 40.8367 920.533 40.51C920.178 40.1833 920.001 39.6467 920.001 38.9V34.378H919.007V33.328H920.001V31.396H921.275V33.328H923.277V34.378H921.275Z" fill="#212427"/>
</g>
<g filter="url(#filter1_d_266_4500)">
<rect x="952" y="20" width="140" height="32" rx="6" fill="#388AEB" shape-rendering="crispEdges"/>
<rect x="952.5" y="20.5" width="139" height="31" rx="5.5" stroke="#388AEB" shape-rendering="crispEdges"/>
<path d="M970 36C970 34.4087 970.632 32.8826 971.757 31.7574C972.883 30.6321 974.409 30 976 30C977.677 30.0063 979.287 30.6608 980.493 31.8267L982 33.3333" stroke="#FDFCFA" stroke-width="1.33333" stroke-linecap="round" stroke-linejoin="round"/>
<path d="M982 30V33.3333H978.667" stroke="#FDFCFA" stroke-width="1.33333" stroke-linecap="round" stroke-linejoin="round"/>
<path d="M982 36C982 37.5913 981.368 39.1174 980.243 40.2426C979.117 41.3679 977.591 42 976 42C974.323 41.9937 972.713 41.3392 971.507 40.1733L970 38.6667" stroke="#FDFCFA" stroke-width="1.33333" stroke-linecap="round" stroke-linejoin="round"/>
<path d="M973.333 38.6667H970V42" stroke="#FDFCFA" stroke-width="1.33333" stroke-linecap="round" stroke-linejoin="round"/>
<path d="M998.216 41L995.892 37.01H994.352V41H993.078V31.242H996.228C996.965 31.242 997.586 31.368 998.09 31.62C998.603 31.872 998.986 32.2127 999.238 32.642C999.49 33.0713 999.616 33.5613 999.616 34.112C999.616 34.784 999.42 35.3767 999.028 35.89C998.645 36.4033 998.067 36.744 997.292 36.912L999.742 41H998.216ZM994.352 35.988H996.228C996.919 35.988 997.437 35.82 997.782 35.484C998.127 35.1387 998.3 34.6813 998.3 34.112C998.3 33.5333 998.127 33.0853 997.782 32.768C997.446 32.4507 996.928 32.292 996.228 32.292H994.352V35.988ZM1008.4 33.328V41H1007.13V39.866C1006.88 40.258 1006.54 40.566 1006.1 40.79C1005.67 41.0047 1005.2 41.112 1004.68 41.112C1004.08 41.112 1003.54 40.9907 1003.07 40.748C1002.59 40.496 1002.21 40.1227 1001.93 39.628C1001.66 39.1333 1001.53 38.5313 1001.53 37.822V33.328H1002.79V37.654C1002.79 38.41 1002.98 38.9933 1003.36 39.404C1003.74 39.8053 1004.26 40.006 1004.93 40.006C1005.61 40.006 1006.15 39.796 1006.54 39.376C1006.93 38.956 1007.13 38.3447 1007.13 37.542V33.328H1008.4ZM1014.29 33.188C1015.22 33.188 1015.98 33.4727 1016.56 34.042C1017.14 34.602 1017.42 35.414 1017.42 36.478V41H1016.16V36.66C1016.16 35.8947 1015.97 35.3113 1015.59 34.91C1015.21 34.4993 1014.69 34.294 1014.02 34.294C1013.35 34.294 1012.81 34.504 1012.41 34.924C1012.02 35.344 1011.82 35.9553 1011.82 36.758V41H1010.55V33.328H1011.82V34.42C1012.08 34.028 1012.42 33.7247 1012.85 33.51C1013.29 33.2953 1013.77 33.188 1014.29 33.188ZM1022.76 37.136C1022.76 36.352 1022.92 35.666 1023.24 35.078C1023.56 34.4807 1023.99 34.0187 1024.54 33.692C1025.1 33.3653 1025.72 33.202 1026.4 33.202C1027.07 33.202 1027.66 33.3467 1028.15 33.636C1028.65 33.9253 1029.02 34.2893 1029.26 34.728V33.328H1030.55V41H1029.26V39.572C1029.01 40.02 1028.63 40.3933 1028.12 40.692C1027.63 40.9813 1027.05 41.126 1026.39 41.126C1025.71 41.126 1025.09 40.958 1024.54 40.622C1023.99 40.286 1023.56 39.8147 1023.24 39.208C1022.92 38.6013 1022.76 37.9107 1022.76 37.136ZM1029.26 37.15C1029.26 36.5713 1029.14 36.0673 1028.91 35.638C1028.67 35.2087 1028.36 34.882 1027.96 34.658C1027.56 34.4247 1027.13 34.308 1026.65 34.308C1026.18 34.308 1025.74 34.42 1025.35 34.644C1024.96 34.868 1024.65 35.1947 1024.41 35.624C1024.18 36.0533 1024.06 36.5573 1024.06 37.136C1024.06 37.724 1024.18 38.2373 1024.41 38.676C1024.65 39.1053 1024.96 39.4367 1025.35 39.67C1025.74 39.894 1026.18 40.006 1026.65 40.006C1027.13 40.006 1027.56 39.894 1027.96 39.67C1028.36 39.4367 1028.67 39.1053 1028.91 38.676C1029.14 38.2373 1029.26 37.7287 1029.26 37.15ZM1033.97 30.64V41H1032.7V30.64H1033.97ZM1037.42 30.64V41H1036.14V30.64H1037.42ZM1044.88 34.378V38.9C1044.88 39.2733 1044.96 39.5393 1045.11 39.698C1045.27 39.8473 1045.55 39.922 1045.94 39.922H1046.88V41H1045.73C1045.02 41 1044.49 40.8367 1044.13 40.51C1043.78 40.1833 1043.6 39.6467 1043.6 38.9V34.378H1042.61V33.328H1043.6V31.396H1044.88V33.328H1046.88V34.378H1044.88ZM1055.42 36.87C1055.42 37.1127 1055.41 37.3693 1055.38 37.64H1049.25C1049.29 38.396 1049.55 38.9887 1050.02 39.418C1050.49 39.838 1051.07 40.048 1051.74 40.048C1052.29 40.048 1052.75 39.922 1053.11 39.67C1053.49 39.4087 1053.75 39.0633 1053.9 38.634H1055.27C1055.06 39.3713 1054.65 39.9733 1054.04 40.44C1053.42 40.8973 1052.65 41.126 1051.74 41.126C1051.01 41.126 1050.36 40.9627 1049.78 40.636C1049.21 40.3093 1048.76 39.8473 1048.44 39.25C1048.11 38.6433 1047.95 37.9433 1047.95 37.15C1047.95 36.3567 1048.1 35.6613 1048.42 35.064C1048.74 34.4667 1049.18 34.0093 1049.75 33.692C1050.33 33.3653 1050.99 33.202 1051.74 33.202C1052.47 33.202 1053.11 33.3607 1053.67 33.678C1054.23 33.9953 1054.66 34.434 1054.96 34.994C1055.27 35.5447 1055.42 36.17 1055.42 36.87ZM1054.11 36.604C1054.11 36.1187 1054 35.7033 1053.78 35.358C1053.57 35.0033 1053.28 34.7373 1052.9 34.56C1052.54 34.3733 1052.13 34.28 1051.68 34.28C1051.04 34.28 1050.49 34.4853 1050.03 34.896C1049.58 35.3067 1049.33 35.876 1049.26 36.604H1054.11ZM1059.82 41.126C1059.23 41.126 1058.7 41.028 1058.24 40.832C1057.77 40.6267 1057.4 40.3467 1057.13 39.992C1056.86 39.628 1056.71 39.2127 1056.68 38.746H1058C1058.04 39.1287 1058.21 39.4413 1058.53 39.684C1058.86 39.9267 1059.28 40.048 1059.81 40.048C1060.29 40.048 1060.67 39.9407 1060.95 39.726C1061.23 39.5113 1061.37 39.2407 1061.37 38.914C1061.37 38.578 1061.22 38.3307 1060.93 38.172C1060.63 38.004 1060.16 37.8407 1059.54 37.682C1058.97 37.5327 1058.5 37.3833 1058.14 37.234C1057.78 37.0753 1057.48 36.8467 1057.22 36.548C1056.96 36.24 1056.84 35.8387 1056.84 35.344C1056.84 34.952 1056.95 34.5927 1057.19 34.266C1057.42 33.9393 1057.75 33.6827 1058.18 33.496C1058.61 33.3 1059.1 33.202 1059.65 33.202C1060.5 33.202 1061.19 33.4167 1061.71 33.846C1062.23 34.2753 1062.51 34.8633 1062.55 35.61H1061.28C1061.25 35.2087 1061.08 34.8867 1060.79 34.644C1060.5 34.4013 1060.1 34.28 1059.61 34.28C1059.15 34.28 1058.79 34.378 1058.52 34.574C1058.25 34.77 1058.11 35.0267 1058.11 35.344C1058.11 35.596 1058.19 35.806 1058.35 35.974C1058.52 36.1327 1058.72 36.2633 1058.97 36.366C1059.22 36.4593 1059.56 36.5667 1060 36.688C1060.55 36.8373 1061 36.9867 1061.35 37.136C1061.69 37.276 1061.98 37.4907 1062.23 37.78C1062.48 38.0693 1062.61 38.4473 1062.62 38.914C1062.62 39.334 1062.5 39.712 1062.27 40.048C1062.04 40.384 1061.7 40.65 1061.28 40.846C1060.86 41.0327 1060.37 41.126 1059.82 41.126ZM1065.97 34.378V38.9C1065.97 39.2733 1066.05 39.5393 1066.21 39.698C1066.37 39.8473 1066.64 39.922 1067.04 39.922H1067.97V41H1066.83C1066.12 41 1065.58 40.8367 1065.23 40.51C1064.88 40.1833 1064.7 39.6467 1064.7 38.9V34.378H1063.7V33.328H1064.7V31.396H1065.97V33.328H1067.97V34.378H1065.97ZM1072.23 41.126C1071.65 41.126 1071.12 41.028 1070.65 40.832C1070.18 40.6267 1069.82 40.3467 1069.55 39.992C1069.27 39.628 1069.13 39.2127 1069.1 38.746H1070.41C1070.45 39.1287 1070.63 39.4413 1070.95 39.684C1071.27 39.9267 1071.7 40.048 1072.22 40.048C1072.7 40.048 1073.09 39.9407 1073.37 39.726C1073.65 39.5113 1073.79 39.2407 1073.79 38.914C1073.79 38.578 1073.64 38.3307 1073.34 38.172C1073.04 38.004 1072.58 37.8407 1071.95 37.682C1071.38 37.5327 1070.92 37.3833 1070.55 37.234C1070.2 37.0753 1069.89 36.8467 1069.63 36.548C1069.38 36.24 1069.25 35.8387 1069.25 35.344C1069.25 34.952 1069.37 34.5927 1069.6 34.266C1069.83 33.9393 1070.17 33.6827 1070.6 33.496C1071.02 33.3 1071.51 33.202 1072.07 33.202C1072.91 33.202 1073.6 33.4167 1074.12 33.846C1074.65 34.2753 1074.93 34.8633 1074.96 35.61H1073.69C1073.66 35.2087 1073.5 34.8867 1073.2 34.644C1072.91 34.4013 1072.52 34.28 1072.02 34.28C1071.57 34.28 1071.2 34.378 1070.93 34.574C1070.66 34.77 1070.53 35.0267 1070.53 35.344C1070.53 35.596 1070.6 35.806 1070.76 35.974C1070.93 36.1327 1071.14 36.2633 1071.38 36.366C1071.63 36.4593 1071.98 36.5667 1072.42 36.688C1072.97 36.8373 1073.41 36.9867 1073.76 37.136C1074.1 37.276 1074.4 37.4907 1074.64 37.78C1074.89 38.0693 1075.02 38.4473 1075.03 38.914C1075.03 39.334 1074.92 39.712 1074.68 40.048C1074.45 40.384 1074.12 40.65 1073.69 40.846C1073.27 41.0327 1072.78 41.126 1072.23 41.126Z" fill="#FDFCFA"/>
</g>
<defs>
<filter id="filter0_d_266_4500" x="797" y="20" width="143" height="34" filterUnits="userSpaceOnUse" color-interpolation-filters="sRGB">
<feFlood flood-opacity="0" result="BackgroundImageFix"/>
<feColorMatrix in="SourceAlpha" type="matrix" values="0 0 0 0 0 0 0 0 0 0 0 0 0 0 0 0 0 0 127 0" result="hardAlpha"/>
<feOffset dy="2"/>
<feComposite in2="hardAlpha" operator="out"/>
<feColorMatrix type="matrix" values="0 0 0 0 0 0 0 0 0 0 0 0 0 0 0 0 0 0 0.02 0"/>
<feBlend mode="normal" in2="BackgroundImageFix" result="effect1_dropShadow_266_4500"/>
<feBlend mode="normal" in="SourceGraphic" in2="effect1_dropShadow_266_4500" result="shape"/>
</filter>
<filter id="filter1_d_266_4500" x="952" y="20" width="140" height="34" filterUnits="userSpaceOnUse" color-interpolation-filters="sRGB">
<feFlood flood-opacity="0" result="BackgroundImageFix"/>
<feColorMatrix in="SourceAlpha" type="matrix" values="0 0 0 0 0 0 0 0 0 0 0 0 0 0 0 0 0 0 127 0" result="hardAlpha"/>
<feOffset dy="2"/>
<feComposite in2="hardAlpha" operator="out"/>
<feColorMatrix type="matrix" values="0 0 0 0 0 0 0 0 0 0 0 0 0 0 0 0 0 0 0.02 0"/>
<feBlend mode="normal" in2="BackgroundImageFix" result="effect1_dropShadow_266_4500"/>
<feBlend mode="normal" in="SourceGraphic" in2="effect1_dropShadow_266_4500" result="shape"/>
</filter>
</defs>
</svg>
