<svg width="1116" height="140" viewBox="0 0 1116 140" fill="none" xmlns="http://www.w3.org/2000/svg">
<rect x="24.5" y="20.5" width="1067" height="99" rx="11.5" stroke="black" stroke-opacity="0.06"/>
<path d="M61.28 64.832V76H59.04V68.736L56.048 76H54.352L51.344 68.736V76H49.104V64.832H51.648L55.2 73.136L58.752 64.832H61.28ZM71.9746 67.136L66.4866 80.192H64.1026L66.0226 75.776L62.4706 67.136H64.9826L67.2706 73.328L69.5906 67.136H71.9746ZM79.6026 68.976V73.264C79.6026 73.5627 79.672 73.7813 79.8106 73.92C79.96 74.048 80.2053 74.112 80.5466 74.112H81.5866V76H80.1786C78.2906 76 77.3466 75.0827 77.3466 73.248V68.976H76.2906V67.136H77.3466V64.944H79.6026V67.136H81.5866V68.976H79.6026ZM88.1898 67.008C88.8618 67.008 89.4591 67.1573 89.9818 67.456C90.5044 67.744 90.9098 68.176 91.1978 68.752C91.4964 69.3173 91.6458 70 91.6458 70.8V76H89.4058V71.104C89.4058 70.4 89.2298 69.8613 88.8778 69.488C88.5258 69.104 88.0458 68.912 87.4378 68.912C86.8191 68.912 86.3284 69.104 85.9658 69.488C85.6138 69.8613 85.4378 70.4 85.4378 71.104V76H83.1978V64.16H85.4378V68.24C85.7258 67.856 86.1098 67.5573 86.5898 67.344C87.0698 67.12 87.6031 67.008 88.1898 67.008ZM94.9119 66.08C94.5172 66.08 94.1865 65.9573 93.9199 65.712C93.6639 65.456 93.5359 65.1413 93.5359 64.768C93.5359 64.3947 93.6639 64.0853 93.9199 63.84C94.1865 63.584 94.5172 63.456 94.9119 63.456C95.3065 63.456 95.6319 63.584 95.8879 63.84C96.1545 64.0853 96.2879 64.3947 96.2879 64.768C96.2879 65.1413 96.1545 65.456 95.8879 65.712C95.6319 65.9573 95.3065 66.08 94.9119 66.08ZM96.0159 67.136V76H93.7759V67.136H96.0159ZM100.469 68.512C100.757 68.0427 101.13 67.6747 101.589 67.408C102.058 67.1413 102.592 67.008 103.189 67.008V69.36H102.597C101.893 69.36 101.36 69.5253 100.997 69.856C100.645 70.1867 100.469 70.7627 100.469 71.584V76H98.229V67.136H100.469V68.512ZM104.122 71.536C104.122 70.64 104.298 69.8453 104.65 69.152C105.012 68.4587 105.503 67.9253 106.122 67.552C106.74 67.1787 107.428 66.992 108.186 66.992C108.762 66.992 109.311 67.12 109.834 67.376C110.356 67.6213 110.772 67.952 111.082 68.368V64.16H113.354V76H111.082V74.688C110.804 75.1253 110.415 75.4773 109.914 75.744C109.412 76.0107 108.831 76.144 108.17 76.144C107.423 76.144 106.74 75.952 106.122 75.568C105.503 75.184 105.012 74.6453 104.65 73.952C104.298 73.248 104.122 72.4427 104.122 71.536ZM111.098 71.568C111.098 71.024 110.991 70.56 110.778 70.176C110.564 69.7813 110.276 69.4827 109.914 69.28C109.551 69.0667 109.162 68.96 108.746 68.96C108.33 68.96 107.946 69.0613 107.594 69.264C107.242 69.4667 106.954 69.7653 106.73 70.16C106.516 70.544 106.41 71.0027 106.41 71.536C106.41 72.0693 106.516 72.5387 106.73 72.944C106.954 73.3387 107.242 73.6427 107.594 73.856C107.956 74.0693 108.34 74.176 108.746 74.176C109.162 74.176 109.551 74.0747 109.914 73.872C110.276 73.6587 110.564 73.36 110.778 72.976C110.991 72.5813 111.098 72.112 111.098 71.568ZM121.962 68.976V73.264C121.962 73.5627 122.031 73.7813 122.17 73.92C122.319 74.048 122.565 74.112 122.906 74.112H123.946V76H122.538C120.65 76 119.706 75.0827 119.706 73.248V68.976H118.65V67.136H119.706V64.944H121.962V67.136H123.946V68.976H121.962ZM133.797 71.376C133.797 71.696 133.776 71.984 133.733 72.24H127.253C127.306 72.88 127.53 73.3813 127.925 73.744C128.32 74.1067 128.805 74.288 129.381 74.288C130.213 74.288 130.805 73.9307 131.157 73.216H133.573C133.317 74.0693 132.826 74.7733 132.101 75.328C131.376 75.872 130.485 76.144 129.429 76.144C128.576 76.144 127.808 75.9573 127.125 75.584C126.453 75.2 125.925 74.6613 125.541 73.968C125.168 73.2747 124.981 72.4747 124.981 71.568C124.981 70.6507 125.168 69.8453 125.541 69.152C125.914 68.4587 126.437 67.9253 127.109 67.552C127.781 67.1787 128.554 66.992 129.429 66.992C130.272 66.992 131.024 67.1733 131.685 67.536C132.357 67.8987 132.874 68.416 133.237 69.088C133.61 69.7493 133.797 70.512 133.797 71.376ZM131.477 70.736C131.466 70.16 131.258 69.7013 130.853 69.36C130.448 69.008 129.952 68.832 129.365 68.832C128.81 68.832 128.341 69.0027 127.957 69.344C127.584 69.6747 127.354 70.1387 127.269 70.736H131.477ZM138.824 76.144C138.099 76.144 137.448 76.016 136.872 75.76C136.296 75.4933 135.837 75.136 135.496 74.688C135.165 74.24 134.984 73.744 134.952 73.2H137.208C137.251 73.5413 137.416 73.824 137.704 74.048C138.003 74.272 138.371 74.384 138.808 74.384C139.235 74.384 139.565 74.2987 139.8 74.128C140.045 73.9573 140.168 73.7387 140.168 73.472C140.168 73.184 140.019 72.9707 139.72 72.832C139.432 72.6827 138.968 72.5227 138.328 72.352C137.667 72.192 137.123 72.0267 136.696 71.856C136.28 71.6853 135.917 71.424 135.608 71.072C135.309 70.72 135.16 70.2453 135.16 69.648C135.16 69.1573 135.299 68.7093 135.576 68.304C135.864 67.8987 136.269 67.5787 136.792 67.344C137.325 67.1093 137.949 66.992 138.664 66.992C139.72 66.992 140.563 67.2587 141.192 67.792C141.821 68.3147 142.168 69.024 142.232 69.92H140.088C140.056 69.568 139.907 69.2907 139.64 69.088C139.384 68.8747 139.037 68.768 138.6 68.768C138.195 68.768 137.88 68.8427 137.656 68.992C137.443 69.1413 137.336 69.3493 137.336 69.616C137.336 69.9147 137.485 70.144 137.784 70.304C138.083 70.4533 138.547 70.608 139.176 70.768C139.816 70.928 140.344 71.0933 140.76 71.264C141.176 71.4347 141.533 71.7013 141.832 72.064C142.141 72.416 142.301 72.8853 142.312 73.472C142.312 73.984 142.168 74.4427 141.88 74.848C141.603 75.2533 141.197 75.5733 140.664 75.808C140.141 76.032 139.528 76.144 138.824 76.144ZM146.759 68.976V73.264C146.759 73.5627 146.828 73.7813 146.967 73.92C147.116 74.048 147.362 74.112 147.703 74.112H148.743V76H147.335C145.447 76 144.503 75.0827 144.503 73.248V68.976H143.447V67.136H144.503V64.944H146.759V67.136H148.743V68.976H146.759Z" fill="#212427"/>
<circle cx="419" cy="53" r="7" fill="#54CA6E"/>
<circle cx="445" cy="53" r="7" fill="#E1654A"/>
<circle cx="471" cy="53" r="7" fill="#54CA6E"/>
<circle cx="497" cy="53" r="7" fill="#E1654A"/>
<circle cx="523" cy="53" r="7" fill="#E1654A"/>
<circle cx="549" cy="53" r="7" fill="#54CA6E"/>
<circle cx="575" cy="53" r="7" fill="#54CA6E"/>
<circle cx="601" cy="53" r="7" fill="#E1654A"/>
<circle cx="627" cy="53" r="7" fill="#54CA6E"/>
<circle cx="653" cy="53" r="7" fill="#54CA6E"/>
<path opacity="0.5" d="M417.502 92.098C416.597 92.098 415.771 91.888 415.024 91.468C414.277 91.0387 413.685 90.446 413.246 89.69C412.817 88.9247 412.602 88.066 412.602 87.114C412.602 86.162 412.817 85.308 413.246 84.552C413.685 83.7867 414.277 83.194 415.024 82.774C415.771 82.3447 416.597 82.13 417.502 82.13C418.417 82.13 419.247 82.3447 419.994 82.774C420.741 83.194 421.329 83.782 421.758 84.538C422.187 85.294 422.402 86.1527 422.402 87.114C422.402 88.0753 422.187 88.934 421.758 89.69C421.329 90.446 420.741 91.0387 419.994 91.468C419.247 91.888 418.417 92.098 417.502 92.098ZM417.502 90.992C418.183 90.992 418.795 90.8333 419.336 90.516C419.887 90.1987 420.316 89.746 420.624 89.158C420.941 88.57 421.1 87.8887 421.1 87.114C421.1 86.33 420.941 85.6487 420.624 85.07C420.316 84.482 419.891 84.0293 419.35 83.712C418.809 83.3947 418.193 83.236 417.502 83.236C416.811 83.236 416.195 83.3947 415.654 83.712C415.113 84.0293 414.683 84.482 414.366 85.07C414.058 85.6487 413.904 86.33 413.904 87.114C413.904 87.8887 414.058 88.57 414.366 89.158C414.683 89.746 415.113 90.1987 415.654 90.516C416.205 90.8333 416.821 90.992 417.502 90.992ZM425.358 81.64V92H424.084V81.64H425.358ZM427.053 88.136C427.053 87.352 427.212 86.666 427.529 86.078C427.847 85.4807 428.281 85.0187 428.831 84.692C429.391 84.3653 430.017 84.202 430.707 84.202C431.305 84.202 431.86 84.342 432.373 84.622C432.887 84.8927 433.279 85.252 433.549 85.7V81.64H434.837V92H433.549V90.558C433.297 91.0153 432.924 91.3933 432.429 91.692C431.935 91.9813 431.356 92.126 430.693 92.126C430.012 92.126 429.391 91.958 428.831 91.622C428.281 91.286 427.847 90.8147 427.529 90.208C427.212 89.6013 427.053 88.9107 427.053 88.136ZM433.549 88.15C433.549 87.5713 433.433 87.0673 433.199 86.638C432.966 86.2087 432.649 85.882 432.247 85.658C431.855 85.4247 431.421 85.308 430.945 85.308C430.469 85.308 430.035 85.42 429.643 85.644C429.251 85.868 428.939 86.1947 428.705 86.624C428.472 87.0533 428.355 87.5573 428.355 88.136C428.355 88.724 428.472 89.2373 428.705 89.676C428.939 90.1053 429.251 90.4367 429.643 90.67C430.035 90.894 430.469 91.006 430.945 91.006C431.421 91.006 431.855 90.894 432.247 90.67C432.649 90.4367 432.966 90.1053 433.199 89.676C433.433 89.2373 433.549 88.7287 433.549 88.15ZM443.99 87.87C443.99 88.1127 443.976 88.3693 443.948 88.64H437.816C437.863 89.396 438.119 89.9887 438.586 90.418C439.062 90.838 439.636 91.048 440.308 91.048C440.859 91.048 441.316 90.922 441.68 90.67C442.053 90.4087 442.315 90.0633 442.464 89.634H443.836C443.631 90.3713 443.22 90.9733 442.604 91.44C441.988 91.8973 441.223 92.126 440.308 92.126C439.58 92.126 438.927 91.9627 438.348 91.636C437.779 91.3093 437.331 90.8473 437.004 90.25C436.677 89.6433 436.514 88.9433 436.514 88.15C436.514 87.3567 436.673 86.6613 436.99 86.064C437.307 85.4667 437.751 85.0093 438.32 84.692C438.899 84.3653 439.561 84.202 440.308 84.202C441.036 84.202 441.68 84.3607 442.24 84.678C442.8 84.9953 443.229 85.434 443.528 85.994C443.836 86.5447 443.99 87.17 443.99 87.87ZM442.674 87.604C442.674 87.1187 442.567 86.7033 442.352 86.358C442.137 86.0033 441.843 85.7373 441.47 85.56C441.106 85.3733 440.7 85.28 440.252 85.28C439.608 85.28 439.057 85.4853 438.6 85.896C438.152 86.3067 437.895 86.876 437.83 87.604H442.674ZM446.946 85.574C447.17 85.1353 447.487 84.7947 447.898 84.552C448.318 84.3093 448.826 84.188 449.424 84.188V85.504H449.088C447.66 85.504 446.946 86.2787 446.946 87.828V92H445.672V84.328H446.946V85.574Z" fill="#212427"/>
<path d="M495.352 90.964H498.768V92H494.078V82.242H495.352V90.964ZM499.645 88.136C499.645 87.352 499.804 86.666 500.121 86.078C500.438 85.4807 500.872 85.0187 501.423 84.692C501.983 84.3653 502.604 84.202 503.285 84.202C503.957 84.202 504.54 84.3467 505.035 84.636C505.53 84.9253 505.898 85.2893 506.141 85.728V84.328H507.429V92H506.141V90.572C505.889 91.02 505.511 91.3933 505.007 91.692C504.512 91.9813 503.934 92.126 503.271 92.126C502.59 92.126 501.974 91.958 501.423 91.622C500.872 91.286 500.438 90.8147 500.121 90.208C499.804 89.6013 499.645 88.9107 499.645 88.136ZM506.141 88.15C506.141 87.5713 506.024 87.0673 505.791 86.638C505.558 86.2087 505.24 85.882 504.839 85.658C504.447 85.4247 504.013 85.308 503.537 85.308C503.061 85.308 502.627 85.42 502.235 85.644C501.843 85.868 501.53 86.1947 501.297 86.624C501.064 87.0533 500.947 87.5573 500.947 88.136C500.947 88.724 501.064 89.2373 501.297 89.676C501.53 90.1053 501.843 90.4367 502.235 90.67C502.627 90.894 503.061 91.006 503.537 91.006C504.013 91.006 504.447 90.894 504.839 90.67C505.24 90.4367 505.558 90.1053 505.791 89.676C506.024 89.2373 506.141 88.7287 506.141 88.15ZM512.298 92.126C511.71 92.126 511.183 92.028 510.716 91.832C510.249 91.6267 509.881 91.3467 509.61 90.992C509.339 90.628 509.19 90.2127 509.162 89.746H510.478C510.515 90.1287 510.693 90.4413 511.01 90.684C511.337 90.9267 511.761 91.048 512.284 91.048C512.769 91.048 513.152 90.9407 513.432 90.726C513.712 90.5113 513.852 90.2407 513.852 89.914C513.852 89.578 513.703 89.3307 513.404 89.172C513.105 89.004 512.643 88.8407 512.018 88.682C511.449 88.5327 510.982 88.3833 510.618 88.234C510.263 88.0753 509.955 87.8467 509.694 87.548C509.442 87.24 509.316 86.8387 509.316 86.344C509.316 85.952 509.433 85.5927 509.666 85.266C509.899 84.9393 510.231 84.6827 510.66 84.496C511.089 84.3 511.579 84.202 512.13 84.202C512.979 84.202 513.665 84.4167 514.188 84.846C514.711 85.2753 514.991 85.8633 515.028 86.61H513.754C513.726 86.2087 513.563 85.8867 513.264 85.644C512.975 85.4013 512.583 85.28 512.088 85.28C511.631 85.28 511.267 85.378 510.996 85.574C510.725 85.77 510.59 86.0267 510.59 86.344C510.59 86.596 510.669 86.806 510.828 86.974C510.996 87.1327 511.201 87.2633 511.444 87.366C511.696 87.4593 512.041 87.5667 512.48 87.688C513.031 87.8373 513.479 87.9867 513.824 88.136C514.169 88.276 514.463 88.4907 514.706 88.78C514.958 89.0693 515.089 89.4473 515.098 89.914C515.098 90.334 514.981 90.712 514.748 91.048C514.515 91.384 514.183 91.65 513.754 91.846C513.334 92.0327 512.849 92.126 512.298 92.126ZM518.45 85.378V89.9C518.45 90.2733 518.53 90.5393 518.688 90.698C518.847 90.8473 519.122 90.922 519.514 90.922H520.452V92H519.304C518.595 92 518.063 91.8367 517.708 91.51C517.354 91.1833 517.176 90.6467 517.176 89.9V85.378H516.182V84.328H517.176V82.396H518.45V84.328H520.452V85.378H518.45ZM525.182 83.04V81.878H527.814V92H526.526V83.04H525.182ZM530.003 86.834C530.003 85.2287 530.264 83.978 530.787 83.082C531.309 82.1767 532.224 81.724 533.531 81.724C534.828 81.724 535.738 82.1767 536.261 83.082C536.783 83.978 537.045 85.2287 537.045 86.834C537.045 88.4673 536.783 89.7367 536.261 90.642C535.738 91.5473 534.828 92 533.531 92C532.224 92 531.309 91.5473 530.787 90.642C530.264 89.7367 530.003 88.4673 530.003 86.834ZM535.785 86.834C535.785 86.022 535.729 85.336 535.617 84.776C535.514 84.2067 535.295 83.7493 534.959 83.404C534.632 83.0587 534.156 82.886 533.531 82.886C532.896 82.886 532.411 83.0587 532.075 83.404C531.748 83.7493 531.529 84.2067 531.417 84.776C531.314 85.336 531.263 86.022 531.263 86.834C531.263 87.674 531.314 88.3787 531.417 88.948C531.529 89.5173 531.748 89.9747 532.075 90.32C532.411 90.6653 532.896 90.838 533.531 90.838C534.156 90.838 534.632 90.6653 534.959 90.32C535.295 89.9747 535.514 89.5173 535.617 88.948C535.729 88.3787 535.785 87.674 535.785 86.834ZM544.01 85.574C544.234 85.1353 544.552 84.7947 544.962 84.552C545.382 84.3093 545.891 84.188 546.488 84.188V85.504H546.152C544.724 85.504 544.01 86.2787 544.01 87.828V92H542.736V84.328H544.01V85.574ZM554.763 84.328V92H553.489V90.866C553.246 91.258 552.906 91.566 552.467 91.79C552.038 92.0047 551.562 92.112 551.039 92.112C550.442 92.112 549.905 91.9907 549.429 91.748C548.953 91.496 548.575 91.1227 548.295 90.628C548.024 90.1333 547.889 89.5313 547.889 88.822V84.328H549.149V88.654C549.149 89.41 549.34 89.9933 549.723 90.404C550.106 90.8053 550.628 91.006 551.291 91.006C551.972 91.006 552.509 90.796 552.901 90.376C553.293 89.956 553.489 89.3447 553.489 88.542V84.328H554.763ZM560.652 84.188C561.585 84.188 562.341 84.4727 562.92 85.042C563.499 85.602 563.788 86.414 563.788 87.478V92H562.528V87.66C562.528 86.8947 562.337 86.3113 561.954 85.91C561.571 85.4993 561.049 85.294 560.386 85.294C559.714 85.294 559.177 85.504 558.776 85.924C558.384 86.344 558.188 86.9553 558.188 87.758V92H556.914V84.328H558.188V85.42C558.44 85.028 558.781 84.7247 559.21 84.51C559.649 84.2953 560.129 84.188 560.652 84.188ZM568.585 92.126C567.997 92.126 567.47 92.028 567.003 91.832C566.536 91.6267 566.168 91.3467 565.897 90.992C565.626 90.628 565.477 90.2127 565.449 89.746H566.765C566.802 90.1287 566.98 90.4413 567.297 90.684C567.624 90.9267 568.048 91.048 568.571 91.048C569.056 91.048 569.439 90.9407 569.719 90.726C569.999 90.5113 570.139 90.2407 570.139 89.914C570.139 89.578 569.99 89.3307 569.691 89.172C569.392 89.004 568.93 88.8407 568.305 88.682C567.736 88.5327 567.269 88.3833 566.905 88.234C566.55 88.0753 566.242 87.8467 565.981 87.548C565.729 87.24 565.603 86.8387 565.603 86.344C565.603 85.952 565.72 85.5927 565.953 85.266C566.186 84.9393 566.518 84.6827 566.947 84.496C567.376 84.3 567.866 84.202 568.417 84.202C569.266 84.202 569.952 84.4167 570.475 84.846C570.998 85.2753 571.278 85.8633 571.315 86.61H570.041C570.013 86.2087 569.85 85.8867 569.551 85.644C569.262 85.4013 568.87 85.28 568.375 85.28C567.918 85.28 567.554 85.378 567.283 85.574C567.012 85.77 566.877 86.0267 566.877 86.344C566.877 86.596 566.956 86.806 567.115 86.974C567.283 87.1327 567.488 87.2633 567.731 87.366C567.983 87.4593 568.328 87.5667 568.767 87.688C569.318 87.8373 569.766 87.9867 570.111 88.136C570.456 88.276 570.75 88.4907 570.993 88.78C571.245 89.0693 571.376 89.4473 571.385 89.914C571.385 90.334 571.268 90.712 571.035 91.048C570.802 91.384 570.47 91.65 570.041 91.846C569.621 92.0327 569.136 92.126 568.585 92.126Z" fill="#212427"/>
<path opacity="0.5" d="M624.75 92H623.476L618.352 84.23V92H617.078V82.228H618.352L623.476 89.984V82.228H624.75V92ZM633.922 87.87C633.922 88.1127 633.908 88.3693 633.88 88.64H627.748C627.794 89.396 628.051 89.9887 628.518 90.418C628.994 90.838 629.568 91.048 630.24 91.048C630.79 91.048 631.248 90.922 631.612 90.67C631.985 90.4087 632.246 90.0633 632.396 89.634H633.768C633.562 90.3713 633.152 90.9733 632.536 91.44C631.92 91.8973 631.154 92.126 630.24 92.126C629.512 92.126 628.858 91.9627 628.28 91.636C627.71 91.3093 627.262 90.8473 626.936 90.25C626.609 89.6433 626.446 88.9433 626.446 88.15C626.446 87.3567 626.604 86.6613 626.922 86.064C627.239 85.4667 627.682 85.0093 628.252 84.692C628.83 84.3653 629.493 84.202 630.24 84.202C630.968 84.202 631.612 84.3607 632.172 84.678C632.732 84.9953 633.161 85.434 633.46 85.994C633.768 86.5447 633.922 87.17 633.922 87.87ZM632.606 87.604C632.606 87.1187 632.498 86.7033 632.284 86.358C632.069 86.0033 631.775 85.7373 631.402 85.56C631.038 85.3733 630.632 85.28 630.184 85.28C629.54 85.28 628.989 85.4853 628.532 85.896C628.084 86.3067 627.827 86.876 627.762 87.604H632.606ZM645.823 84.328L643.429 92H642.113L640.265 85.91L638.417 92H637.101L634.693 84.328H635.995L637.759 90.768L639.663 84.328H640.965L642.827 90.782L644.563 84.328H645.823ZM654.088 87.87C654.088 88.1127 654.074 88.3693 654.046 88.64H647.914C647.96 89.396 648.217 89.9887 648.684 90.418C649.16 90.838 649.734 91.048 650.406 91.048C650.956 91.048 651.414 90.922 651.778 90.67C652.151 90.4087 652.412 90.0633 652.562 89.634H653.934C653.728 90.3713 653.318 90.9733 652.702 91.44C652.086 91.8973 651.32 92.126 650.406 92.126C649.678 92.126 649.024 91.9627 648.446 91.636C647.876 91.3093 647.428 90.8473 647.102 90.25C646.775 89.6433 646.612 88.9433 646.612 88.15C646.612 87.3567 646.77 86.6613 647.088 86.064C647.405 85.4667 647.848 85.0093 648.418 84.692C648.996 84.3653 649.659 84.202 650.406 84.202C651.134 84.202 651.778 84.3607 652.338 84.678C652.898 84.9953 653.327 85.434 653.626 85.994C653.934 86.5447 654.088 87.17 654.088 87.87ZM652.772 87.604C652.772 87.1187 652.664 86.7033 652.45 86.358C652.235 86.0033 651.941 85.7373 651.568 85.56C651.204 85.3733 650.798 85.28 650.35 85.28C649.706 85.28 649.155 85.4853 648.698 85.896C648.25 86.3067 647.993 86.876 647.928 87.604H652.772ZM657.043 85.574C657.267 85.1353 657.585 84.7947 657.995 84.552C658.415 84.3093 658.924 84.188 659.521 84.188V85.504H659.185C657.757 85.504 657.043 86.2787 657.043 87.828V92H655.769V84.328H657.043V85.574Z" fill="#212427"/>
<rect x="724" y="36" width="192" height="68" rx="6" fill="#E1654A" fill-opacity="0.1"/>
<rect x="744" y="58" width="24" height="24" rx="12" fill="#E1654A"/>
<path d="M760 66L752 74" stroke="white" stroke-width="1.33333" stroke-linecap="round" stroke-linejoin="round"/>
<path d="M752 66L760 74" stroke="white" stroke-width="1.33333" stroke-linecap="round" stroke-linejoin="round"/>
<path d="M790.594 54.242V55.278H786.352V58.568H789.796V59.604H786.352V64H785.078V54.242H790.594ZM791.657 60.136C791.657 59.352 791.815 58.666 792.133 58.078C792.45 57.4807 792.884 57.0187 793.435 56.692C793.995 56.3653 794.615 56.202 795.297 56.202C795.969 56.202 796.552 56.3467 797.047 56.636C797.541 56.9253 797.91 57.2893 798.153 57.728V56.328H799.441V64H798.153V62.572C797.901 63.02 797.523 63.3933 797.019 63.692C796.524 63.9813 795.945 64.126 795.283 64.126C794.601 64.126 793.985 63.958 793.435 63.622C792.884 63.286 792.45 62.8147 792.133 62.208C791.815 61.6013 791.657 60.9107 791.657 60.136ZM798.153 60.15C798.153 59.5713 798.036 59.0673 797.803 58.638C797.569 58.2087 797.252 57.882 796.851 57.658C796.459 57.4247 796.025 57.308 795.549 57.308C795.073 57.308 794.639 57.42 794.247 57.644C793.855 57.868 793.542 58.1947 793.309 58.624C793.075 59.0533 792.959 59.5573 792.959 60.136C792.959 60.724 793.075 61.2373 793.309 61.676C793.542 62.1053 793.855 62.4367 794.247 62.67C794.639 62.894 795.073 63.006 795.549 63.006C796.025 63.006 796.459 62.894 796.851 62.67C797.252 62.4367 797.569 62.1053 797.803 61.676C798.036 61.2373 798.153 60.7287 798.153 60.15ZM802.252 55.082C802.009 55.082 801.804 54.998 801.636 54.83C801.468 54.662 801.384 54.4567 801.384 54.214C801.384 53.9713 801.468 53.766 801.636 53.598C801.804 53.43 802.009 53.346 802.252 53.346C802.485 53.346 802.681 53.43 802.84 53.598C803.008 53.766 803.092 53.9713 803.092 54.214C803.092 54.4567 803.008 54.662 802.84 54.83C802.681 54.998 802.485 55.082 802.252 55.082ZM802.868 56.328V64H801.594V56.328H802.868ZM806.313 53.64V64H805.039V53.64H806.313Z" fill="#212427"/>
<path d="M793.744 76.228L790.16 86H787.78L784.196 76.228H786.296L788.984 83.998L791.658 76.228H793.744ZM795.913 77.32C795.568 77.32 795.278 77.2127 795.045 76.998C794.821 76.774 794.709 76.4987 794.709 76.172C794.709 75.8453 794.821 75.5747 795.045 75.36C795.278 75.136 795.568 75.024 795.913 75.024C796.258 75.024 796.543 75.136 796.767 75.36C797 75.5747 797.117 75.8453 797.117 76.172C797.117 76.4987 797 76.774 796.767 76.998C796.543 77.2127 796.258 77.32 795.913 77.32ZM796.879 78.244V86H794.919V78.244H796.879ZM806.026 81.954C806.026 82.234 806.007 82.486 805.97 82.71H800.3C800.346 83.27 800.542 83.7087 800.888 84.026C801.233 84.3433 801.658 84.502 802.162 84.502C802.89 84.502 803.408 84.1893 803.716 83.564H805.83C805.606 84.3107 805.176 84.9267 804.542 85.412C803.907 85.888 803.128 86.126 802.204 86.126C801.457 86.126 800.785 85.9627 800.188 85.636C799.6 85.3 799.138 84.8287 798.802 84.222C798.475 83.6153 798.312 82.9153 798.312 82.122C798.312 81.3193 798.475 80.6147 798.802 80.008C799.128 79.4013 799.586 78.9347 800.174 78.608C800.762 78.2813 801.438 78.118 802.204 78.118C802.941 78.118 803.599 78.2767 804.178 78.594C804.766 78.9113 805.218 79.364 805.536 79.952C805.862 80.5307 806.026 81.198 806.026 81.954ZM803.996 81.394C803.986 80.89 803.804 80.4887 803.45 80.19C803.095 79.882 802.661 79.728 802.148 79.728C801.662 79.728 801.252 79.8773 800.916 80.176C800.589 80.4653 800.388 80.8713 800.314 81.394H803.996ZM818.208 78.244L815.94 86H813.826L812.412 80.582L810.998 86H808.87L806.588 78.244H808.576L809.948 84.152L811.432 78.244H813.504L814.96 84.138L816.332 78.244H818.208ZM826.161 79.854H824.803V86H822.815V79.854H821.933V78.244H822.815V77.852C822.815 76.9 823.085 76.2 823.627 75.752C824.168 75.304 824.985 75.094 826.077 75.122V76.774C825.601 76.7647 825.269 76.844 825.083 77.012C824.896 77.18 824.803 77.4833 824.803 77.922V78.244H826.161V79.854ZM834.753 78.244V86H832.779V85.02C832.527 85.356 832.196 85.622 831.785 85.818C831.384 86.0047 830.945 86.098 830.469 86.098C829.862 86.098 829.326 85.972 828.859 85.72C828.392 85.4587 828.024 85.0807 827.753 84.586C827.492 84.082 827.361 83.4847 827.361 82.794V78.244H829.321V82.514C829.321 83.13 829.475 83.606 829.783 83.942C830.091 84.2687 830.511 84.432 831.043 84.432C831.584 84.432 832.009 84.2687 832.317 83.942C832.625 83.606 832.779 83.13 832.779 82.514V78.244H834.753ZM838.647 75.64V86H836.687V75.64H838.647ZM842.543 75.64V86H840.583V75.64H842.543ZM849.776 79.448C850.028 79.0373 850.354 78.7153 850.756 78.482C851.166 78.2487 851.633 78.132 852.156 78.132V80.19H851.638C851.022 80.19 850.555 80.3347 850.238 80.624C849.93 80.9133 849.776 81.4173 849.776 82.136V86H847.816V78.244H849.776V79.448ZM860.686 81.954C860.686 82.234 860.667 82.486 860.63 82.71H854.96C855.006 83.27 855.202 83.7087 855.548 84.026C855.893 84.3433 856.318 84.502 856.822 84.502C857.55 84.502 858.068 84.1893 858.376 83.564H860.49C860.266 84.3107 859.836 84.9267 859.202 85.412C858.567 85.888 857.788 86.126 856.864 86.126C856.117 86.126 855.445 85.9627 854.848 85.636C854.26 85.3 853.798 84.8287 853.462 84.222C853.135 83.6153 852.972 82.9153 852.972 82.122C852.972 81.3193 853.135 80.6147 853.462 80.008C853.788 79.4013 854.246 78.9347 854.834 78.608C855.422 78.2813 856.098 78.118 856.864 78.118C857.601 78.118 858.259 78.2767 858.838 78.594C859.426 78.9113 859.878 79.364 860.196 79.952C860.522 80.5307 860.686 81.198 860.686 81.954ZM858.656 81.394C858.646 80.89 858.464 80.4887 858.11 80.19C857.755 79.882 857.321 79.728 856.808 79.728C856.322 79.728 855.912 79.8773 855.576 80.176C855.249 80.4653 855.048 80.8713 854.974 81.394H858.656ZM865.084 86.126C864.45 86.126 863.88 86.014 863.376 85.79C862.872 85.5567 862.471 85.244 862.172 84.852C861.883 84.46 861.724 84.026 861.696 83.55H863.67C863.708 83.8487 863.852 84.096 864.104 84.292C864.366 84.488 864.688 84.586 865.07 84.586C865.444 84.586 865.733 84.5113 865.938 84.362C866.153 84.2127 866.26 84.0213 866.26 83.788C866.26 83.536 866.13 83.3493 865.868 83.228C865.616 83.0973 865.21 82.9573 864.65 82.808C864.072 82.668 863.596 82.5233 863.222 82.374C862.858 82.2247 862.541 81.996 862.27 81.688C862.009 81.38 861.878 80.9647 861.878 80.442C861.878 80.0127 862 79.6207 862.242 79.266C862.494 78.9113 862.849 78.6313 863.306 78.426C863.773 78.2207 864.319 78.118 864.944 78.118C865.868 78.118 866.606 78.3513 867.156 78.818C867.707 79.2753 868.01 79.896 868.066 80.68H866.19C866.162 80.372 866.032 80.1293 865.798 79.952C865.574 79.7653 865.271 79.672 864.888 79.672C864.534 79.672 864.258 79.7373 864.062 79.868C863.876 79.9987 863.782 80.1807 863.782 80.414C863.782 80.6753 863.913 80.876 864.174 81.016C864.436 81.1467 864.842 81.282 865.392 81.422C865.952 81.562 866.414 81.7067 866.778 81.856C867.142 82.0053 867.455 82.2387 867.716 82.556C867.987 82.864 868.127 83.2747 868.136 83.788C868.136 84.236 868.01 84.6373 867.758 84.992C867.516 85.3467 867.161 85.6267 866.694 85.832C866.237 86.028 865.7 86.126 865.084 86.126ZM877.067 78.244V86H875.093V85.02C874.841 85.356 874.51 85.622 874.099 85.818C873.698 86.0047 873.259 86.098 872.783 86.098C872.177 86.098 871.64 85.972 871.173 85.72C870.707 85.4587 870.338 85.0807 870.067 84.586C869.806 84.082 869.675 83.4847 869.675 82.794V78.244H871.635V82.514C871.635 83.13 871.789 83.606 872.097 83.942C872.405 84.2687 872.825 84.432 873.357 84.432C873.899 84.432 874.323 84.2687 874.631 83.942C874.939 83.606 875.093 83.13 875.093 82.514V78.244H877.067ZM880.961 75.64V86H879.001V75.64H880.961ZM885.18 79.854V83.606C885.18 83.8673 885.24 84.0587 885.362 84.18C885.492 84.292 885.707 84.348 886.006 84.348H886.916V86H885.684C884.032 86 883.206 85.1973 883.206 83.592V79.854H882.282V78.244H883.206V76.326H885.18V78.244H886.916V79.854H885.18Z" fill="#212427"/>
<path d="M996.293 56.6667H995.707C994.999 56.6667 994.321 56.9476 993.821 57.4477C993.321 57.9478 993.04 58.6261 993.04 59.3333V59.5733C993.04 60.041 992.916 60.5002 992.682 60.9051C992.448 61.31 992.112 61.6462 991.707 61.88L991.133 62.2133C990.728 62.4474 990.268 62.5706 989.8 62.5706C989.332 62.5706 988.872 62.4474 988.467 62.2133L988.267 62.1067C987.655 61.7537 986.928 61.6579 986.245 61.8404C985.563 62.0229 984.981 62.4687 984.627 63.08L984.333 63.5867C983.98 64.1986 983.885 64.9255 984.067 65.608C984.25 66.2904 984.695 66.8726 985.307 67.2267L985.507 67.36C985.91 67.5927 986.245 67.9268 986.479 68.3291C986.713 68.7314 986.837 69.188 986.84 69.6533V70.3333C986.842 70.8032 986.72 71.2653 986.485 71.6727C986.251 72.0801 985.914 72.4184 985.507 72.6533L985.307 72.7733C984.695 73.1274 984.25 73.7095 984.067 74.392C983.885 75.0744 983.98 75.8014 984.333 76.4133L984.627 76.92C984.981 77.5313 985.563 77.9771 986.245 78.1596C986.928 78.3421 987.655 78.2463 988.267 77.8933L988.467 77.7867C988.872 77.5526 989.332 77.4294 989.8 77.4294C990.268 77.4294 990.728 77.5526 991.133 77.7867L991.707 78.12C992.112 78.3538 992.448 78.69 992.682 79.0949C992.916 79.4997 993.04 79.959 993.04 80.4267V80.6667C993.04 81.3739 993.321 82.0522 993.821 82.5523C994.321 83.0524 994.999 83.3333 995.707 83.3333H996.293C997.001 83.3333 997.679 83.0524 998.179 82.5523C998.679 82.0522 998.96 81.3739 998.96 80.6667V80.4267C998.96 79.959 999.084 79.4997 999.318 79.0949C999.552 78.69 999.888 78.3538 1000.29 78.12L1000.87 77.7867C1001.27 77.5526 1001.73 77.4294 1002.2 77.4294C1002.67 77.4294 1003.13 77.5526 1003.53 77.7867L1003.73 77.8933C1004.35 78.2463 1005.07 78.3421 1005.75 78.1596C1006.44 77.9771 1007.02 77.5313 1007.37 76.92L1007.67 76.4C1008.02 75.7881 1008.12 75.0611 1007.93 74.3787C1007.75 73.6962 1007.3 73.1141 1006.69 72.76L1006.49 72.6533C1006.09 72.4184 1005.75 72.0801 1005.51 71.6727C1005.28 71.2653 1005.16 70.8032 1005.16 70.3333V69.6667C1005.16 69.1968 1005.28 68.7347 1005.51 68.3273C1005.75 67.9199 1006.09 67.5816 1006.49 67.3467L1006.69 67.2267C1007.3 66.8726 1007.75 66.2904 1007.93 65.608C1008.12 64.9255 1008.02 64.1986 1007.67 63.5867L1007.37 63.08C1007.02 62.4687 1006.44 62.0229 1005.75 61.8404C1005.07 61.6579 1004.35 61.7537 1003.73 62.1067L1003.53 62.2133C1003.13 62.4474 1002.67 62.5706 1002.2 62.5706C1001.73 62.5706 1001.27 62.4474 1000.87 62.2133L1000.29 61.88C999.888 61.6462 999.552 61.31 999.318 60.9051C999.084 60.5002 998.96 60.041 998.96 59.5733V59.3333C998.96 58.6261 998.679 57.9478 998.179 57.4477C997.679 56.9476 997.001 56.6667 996.293 56.6667Z" stroke="#60A1EF" stroke-width="2" stroke-linecap="round" stroke-linejoin="round"/>
<path d="M996 74C998.209 74 1000 72.2091 1000 70C1000 67.7909 998.209 66 996 66C993.791 66 992 67.7909 992 70C992 72.2091 993.791 74 996 74Z" stroke="#60A1EF" stroke-width="2" stroke-linecap="round" stroke-linejoin="round"/>
<path d="M1052 83.3333C1059.36 83.3333 1065.33 77.3638 1065.33 70C1065.33 62.6362 1059.36 56.6667 1052 56.6667C1044.64 56.6667 1038.67 62.6362 1038.67 70C1038.67 77.3638 1044.64 83.3333 1052 83.3333Z" stroke="#212427" stroke-width="2" stroke-linecap="round" stroke-linejoin="round"/>
<path d="M1049.33 64.6667L1057.33 70L1049.33 75.3333V64.6667Z" stroke="#212427" stroke-width="2" stroke-linecap="round" stroke-linejoin="round"/>
<path d="M988 43H996H1004L997.414 49.5858C996.633 50.3668 995.367 50.3668 994.586 49.5858L988 43Z" fill="#212427" fill-opacity="0.88"/>
<rect x="948" y="9" width="95" height="34" rx="6" fill="#212427" fill-opacity="0.88"/>
<rect x="948" y="9" width="95" height="34" rx="6" fill="#212427" fill-opacity="0.88"/>
<path d="M967.067 21.312V31H965.793V23.776L962.573 31H961.677L958.443 23.762V31H957.169V21.312H958.541L962.125 29.32L965.709 21.312H967.067ZM972.573 31.126C971.855 31.126 971.201 30.9627 970.613 30.636C970.035 30.3093 969.577 29.8473 969.241 29.25C968.915 28.6433 968.751 27.9433 968.751 27.15C968.751 26.366 968.919 25.6753 969.255 25.078C969.601 24.4713 970.067 24.0093 970.655 23.692C971.243 23.3653 971.901 23.202 972.629 23.202C973.357 23.202 974.015 23.3653 974.603 23.692C975.191 24.0093 975.653 24.4667 975.989 25.064C976.335 25.6613 976.507 26.3567 976.507 27.15C976.507 27.9433 976.33 28.6433 975.975 29.25C975.63 29.8473 975.159 30.3093 974.561 30.636C973.964 30.9627 973.301 31.126 972.573 31.126ZM972.573 30.006C973.031 30.006 973.46 29.8987 973.861 29.684C974.263 29.4693 974.585 29.1473 974.827 28.718C975.079 28.2887 975.205 27.766 975.205 27.15C975.205 26.534 975.084 26.0113 974.841 25.582C974.599 25.1527 974.281 24.8353 973.889 24.63C973.497 24.4153 973.073 24.308 972.615 24.308C972.149 24.308 971.719 24.4153 971.327 24.63C970.945 24.8353 970.637 25.1527 970.403 25.582C970.17 26.0113 970.053 26.534 970.053 27.15C970.053 27.7753 970.165 28.3027 970.389 28.732C970.623 29.1613 970.931 29.4833 971.313 29.698C971.696 29.9033 972.116 30.006 972.573 30.006ZM977.706 27.136C977.706 26.352 977.865 25.666 978.182 25.078C978.5 24.4807 978.934 24.0187 979.484 23.692C980.044 23.3653 980.67 23.202 981.36 23.202C981.958 23.202 982.513 23.342 983.026 23.622C983.54 23.8927 983.932 24.252 984.202 24.7V20.64H985.49V31H984.202V29.558C983.95 30.0153 983.577 30.3933 983.082 30.692C982.588 30.9813 982.009 31.126 981.346 31.126C980.665 31.126 980.044 30.958 979.484 30.622C978.934 30.286 978.5 29.8147 978.182 29.208C977.865 28.6013 977.706 27.9107 977.706 27.136ZM984.202 27.15C984.202 26.5713 984.086 26.0673 983.852 25.638C983.619 25.2087 983.302 24.882 982.9 24.658C982.508 24.4247 982.074 24.308 981.598 24.308C981.122 24.308 980.688 24.42 980.296 24.644C979.904 24.868 979.592 25.1947 979.358 25.624C979.125 26.0533 979.008 26.5573 979.008 27.136C979.008 27.724 979.125 28.2373 979.358 28.676C979.592 29.1053 979.904 29.4367 980.296 29.67C980.688 29.894 981.122 30.006 981.598 30.006C982.074 30.006 982.508 29.894 982.9 29.67C983.302 29.4367 983.619 29.1053 983.852 28.676C984.086 28.2373 984.202 27.7287 984.202 27.15ZM988.301 22.082C988.059 22.082 987.853 21.998 987.685 21.83C987.517 21.662 987.433 21.4567 987.433 21.214C987.433 20.9713 987.517 20.766 987.685 20.598C987.853 20.43 988.059 20.346 988.301 20.346C988.535 20.346 988.731 20.43 988.889 20.598C989.057 20.766 989.141 20.9713 989.141 21.214C989.141 21.4567 989.057 21.662 988.889 21.83C988.731 21.998 988.535 22.082 988.301 22.082ZM988.917 23.328V31H987.643V23.328H988.917ZM994.211 24.378H992.601V31H991.327V24.378H990.333V23.328H991.327V22.782C991.327 21.9233 991.546 21.298 991.985 20.906C992.433 20.5047 993.147 20.304 994.127 20.304V21.368C993.567 21.368 993.17 21.48 992.937 21.704C992.713 21.9187 992.601 22.278 992.601 22.782V23.328H994.211V24.378ZM1002.3 23.328L997.684 34.612H996.368L997.88 30.916L994.786 23.328H996.2L998.608 29.544L1000.99 23.328H1002.3ZM1013.32 21.242V22.278H1010.66V31H1009.39V22.278H1006.72V21.242H1013.32ZM1021.89 26.87C1021.89 27.1127 1021.88 27.3693 1021.85 27.64H1015.72C1015.76 28.396 1016.02 28.9887 1016.49 29.418C1016.96 29.838 1017.54 30.048 1018.21 30.048C1018.76 30.048 1019.22 29.922 1019.58 29.67C1019.95 29.4087 1020.22 29.0633 1020.37 28.634H1021.74C1021.53 29.3713 1021.12 29.9733 1020.51 30.44C1019.89 30.8973 1019.12 31.126 1018.21 31.126C1017.48 31.126 1016.83 30.9627 1016.25 30.636C1015.68 30.3093 1015.23 29.8473 1014.91 29.25C1014.58 28.6433 1014.42 27.9433 1014.42 27.15C1014.42 26.3567 1014.57 25.6613 1014.89 25.064C1015.21 24.4667 1015.65 24.0093 1016.22 23.692C1016.8 23.3653 1017.46 23.202 1018.21 23.202C1018.94 23.202 1019.58 23.3607 1020.14 23.678C1020.7 23.9953 1021.13 24.434 1021.43 24.994C1021.74 25.5447 1021.89 26.17 1021.89 26.87ZM1020.58 26.604C1020.58 26.1187 1020.47 25.7033 1020.25 25.358C1020.04 25.0033 1019.74 24.7373 1019.37 24.56C1019.01 24.3733 1018.6 24.28 1018.15 24.28C1017.51 24.28 1016.96 24.4853 1016.5 24.896C1016.05 25.3067 1015.8 25.876 1015.73 26.604H1020.58ZM1026.29 31.126C1025.7 31.126 1025.17 31.028 1024.71 30.832C1024.24 30.6267 1023.87 30.3467 1023.6 29.992C1023.33 29.628 1023.18 29.2127 1023.15 28.746H1024.47C1024.51 29.1287 1024.68 29.4413 1025 29.684C1025.33 29.9267 1025.75 30.048 1026.28 30.048C1026.76 30.048 1027.14 29.9407 1027.42 29.726C1027.7 29.5113 1027.84 29.2407 1027.84 28.914C1027.84 28.578 1027.69 28.3307 1027.4 28.172C1027.1 28.004 1026.63 27.8407 1026.01 27.682C1025.44 27.5327 1024.97 27.3833 1024.61 27.234C1024.25 27.0753 1023.95 26.8467 1023.69 26.548C1023.43 26.24 1023.31 25.8387 1023.31 25.344C1023.31 24.952 1023.42 24.5927 1023.66 24.266C1023.89 23.9393 1024.22 23.6827 1024.65 23.496C1025.08 23.3 1025.57 23.202 1026.12 23.202C1026.97 23.202 1027.66 23.4167 1028.18 23.846C1028.7 24.2753 1028.98 24.8633 1029.02 25.61H1027.75C1027.72 25.2087 1027.55 24.8867 1027.26 24.644C1026.97 24.4013 1026.57 24.28 1026.08 24.28C1025.62 24.28 1025.26 24.378 1024.99 24.574C1024.72 24.77 1024.58 25.0267 1024.58 25.344C1024.58 25.596 1024.66 25.806 1024.82 25.974C1024.99 26.1327 1025.19 26.2633 1025.44 26.366C1025.69 26.4593 1026.03 26.5667 1026.47 26.688C1027.02 26.8373 1027.47 26.9867 1027.82 27.136C1028.16 27.276 1028.45 27.4907 1028.7 27.78C1028.95 28.0693 1029.08 28.4473 1029.09 28.914C1029.09 29.334 1028.97 29.712 1028.74 30.048C1028.51 30.384 1028.17 30.65 1027.75 30.846C1027.33 31.0327 1026.84 31.126 1026.29 31.126ZM1032.44 24.378V28.9C1032.44 29.2733 1032.52 29.5393 1032.68 29.698C1032.84 29.8473 1033.11 29.922 1033.51 29.922H1034.44V31H1033.3C1032.59 31 1032.05 30.8367 1031.7 30.51C1031.34 30.1833 1031.17 29.6467 1031.17 28.9V24.378H1030.17V23.328H1031.17V21.396H1032.44V23.328H1034.44V24.378H1032.44Z" fill="white"/>
<g filter="url(#filter0_d_3304_19222)">
<path fill-rule="evenodd" clip-rule="evenodd" d="M996.831 86.4731C996.553 86.0969 996.215 85.3277 995.614 84.394C995.274 83.8658 994.429 82.8713 994.178 82.3662C993.96 81.9198 993.983 81.7196 994.035 81.3497C994.127 80.6916 994.757 80.1792 995.429 80.2483C995.937 80.2997 996.368 80.6591 996.755 80.9987C996.989 81.203 997.277 81.6002 997.45 81.8244C997.609 82.0298 997.649 82.1147 997.819 82.3578C998.044 82.6795 998.114 82.8388 998.028 82.4846C997.959 81.9649 997.845 81.0773 997.681 80.2924C997.556 79.6971 997.525 79.6039 997.406 79.147C997.28 78.6607 997.215 78.3201 997.097 77.8046C997.015 77.4399 996.867 76.6948 996.827 76.2756C996.771 75.7024 996.742 74.7676 997.085 74.338C997.354 74.0016 997.971 73.9 998.354 74.1074C998.855 74.3789 999.14 75.1585 999.27 75.4698C999.504 76.0294 999.649 76.6759 999.775 77.5248C999.935 78.6052 1000.23 80.1048 1000.24 80.4202C1000.26 80.0335 1000.17 79.2193 1000.24 78.8483C1000.29 78.5119 1000.56 78.121 1000.89 78.0152C1001.17 77.9261 1001.5 77.8936 1001.78 77.9576C1002.09 78.0246 1002.41 78.2594 1002.53 78.4805C1002.89 79.1344 1002.9 80.4705 1002.91 80.3992C1002.99 80.0052 1002.98 79.1113 1003.19 78.7393C1003.32 78.4941 1003.67 78.273 1003.86 78.2374C1004.15 78.1829 1004.5 78.1661 1004.8 78.229C1005.05 78.2803 1005.38 78.5905 1005.47 78.7393C1005.68 79.0998 1005.8 80.1194 1005.84 80.4768C1005.85 80.6245 1005.91 80.066 1006.12 79.7055C1006.52 79.0359 1007.93 78.9059 1007.98 80.3751C1008 81.0605 1008 81.0291 1008 81.4901C1008 82.0319 1007.99 82.3578 1007.96 82.7498C1007.93 83.1689 1007.85 84.1163 1007.72 84.5753C1007.64 84.8907 1007.36 85.6001 1007.09 86.0256C1007.09 86.0256 1006.03 87.3355 1005.92 87.9255C1005.8 88.5144 1005.84 88.5186 1005.82 88.9368C1005.8 89.3538 1005.94 89.903 1005.94 89.903C1005.94 89.903 1005.15 90.0119 1004.73 89.9396C1004.35 89.8736 1003.88 89.0583 1003.75 88.8089C1003.58 88.4652 1003.23 88.5312 1003.09 88.7848C1002.87 89.1862 1002.39 89.9061 1002.06 89.9512C1001.4 90.0392 1000.05 89.9836 998.986 89.9721C998.986 89.9721 999.167 88.9127 998.764 88.549C998.466 88.2776 997.952 87.7274 997.645 87.4382L996.831 86.4731Z" fill="white"/>
<path fill-rule="evenodd" clip-rule="evenodd" d="M996.831 86.4731C996.553 86.0969 996.215 85.3277 995.614 84.394C995.274 83.8658 994.429 82.8713 994.178 82.3662C993.96 81.9198 993.983 81.7196 994.035 81.3497C994.127 80.6916 994.757 80.1792 995.429 80.2483C995.937 80.2997 996.368 80.6591 996.755 80.9987C996.989 81.203 997.277 81.6002 997.45 81.8244C997.609 82.0298 997.649 82.1147 997.819 82.3578C998.044 82.6795 998.114 82.8388 998.028 82.4846C997.959 81.9649 997.845 81.0773 997.681 80.2924C997.556 79.6971 997.525 79.6039 997.406 79.147C997.28 78.6607 997.215 78.3201 997.097 77.8046C997.015 77.4399 996.867 76.6948 996.827 76.2756C996.771 75.7024 996.742 74.7676 997.085 74.338C997.354 74.0016 997.971 73.9 998.354 74.1074C998.855 74.3789 999.14 75.1585 999.27 75.4698C999.504 76.0294 999.649 76.6759 999.775 77.5248C999.935 78.6052 1000.23 80.1048 1000.24 80.4202C1000.26 80.0335 1000.17 79.2193 1000.24 78.8483C1000.29 78.5119 1000.56 78.121 1000.89 78.0152C1001.17 77.9261 1001.5 77.8936 1001.78 77.9576C1002.09 78.0246 1002.41 78.2594 1002.53 78.4805C1002.89 79.1344 1002.9 80.4705 1002.91 80.3992C1002.99 80.0052 1002.98 79.1113 1003.19 78.7393C1003.32 78.4941 1003.67 78.273 1003.86 78.2374C1004.15 78.1829 1004.5 78.1661 1004.8 78.229C1005.05 78.2803 1005.38 78.5905 1005.47 78.7393C1005.68 79.0998 1005.8 80.1194 1005.84 80.4768C1005.85 80.6245 1005.91 80.066 1006.12 79.7055C1006.52 79.0359 1007.93 78.9059 1007.98 80.3751C1008 81.0605 1008 81.0291 1008 81.4901C1008 82.0319 1007.99 82.3578 1007.96 82.7498C1007.93 83.1689 1007.85 84.1163 1007.72 84.5753C1007.64 84.8907 1007.36 85.6001 1007.09 86.0256C1007.09 86.0256 1006.03 87.3355 1005.92 87.9255C1005.8 88.5144 1005.84 88.5186 1005.82 88.9368C1005.8 89.3538 1005.94 89.903 1005.94 89.903C1005.94 89.903 1005.15 90.0119 1004.73 89.9396C1004.35 89.8736 1003.88 89.0583 1003.75 88.8089C1003.58 88.4652 1003.23 88.5312 1003.09 88.7848C1002.87 89.1862 1002.39 89.9061 1002.06 89.9512C1001.4 90.0392 1000.05 89.9836 998.986 89.9721C998.986 89.9721 999.167 88.9127 998.764 88.549C998.466 88.2776 997.952 87.7274 997.645 87.4382L996.831 86.4731Z" stroke="black" stroke-width="0.75" stroke-linecap="round" stroke-linejoin="round"/>
</g>
<path fill-rule="evenodd" clip-rule="evenodd" d="M1001 83.5C1001 83.2239 1000.78 83 1000.5 83C1000.22 83 1000 83.2239 1000 83.5V86.5C1000 86.7761 1000.22 87 1000.5 87C1000.78 87 1001 86.7761 1001 86.5V83.5ZM1002.5 83C1002.78 83 1003 83.2239 1003 83.5V86.5C1003 86.7761 1002.78 87 1002.5 87C1002.22 87 1002 86.7761 1002 86.5V83.5C1002 83.2239 1002.22 83 1002.5 83ZM1004.5 83C1004.78 83 1005 83.2239 1005 83.5V86.5C1005 86.7761 1004.78 87 1004.5 87C1004.22 87 1004 86.7761 1004 86.5V83.5C1004 83.2239 1004.22 83 1004.5 83Z" fill="black"/>
<defs>
<filter id="filter0_d_3304_19222" x="991.625" y="72.6251" width="18.75" height="20.7499" filterUnits="userSpaceOnUse" color-interpolation-filters="sRGB">
<feFlood flood-opacity="0" result="BackgroundImageFix"/>
<feColorMatrix in="SourceAlpha" type="matrix" values="0 0 0 0 0 0 0 0 0 0 0 0 0 0 0 0 0 0 127 0" result="hardAlpha"/>
<feOffset dy="1"/>
<feGaussianBlur stdDeviation="1"/>
<feColorMatrix type="matrix" values="0 0 0 0 0 0 0 0 0 0 0 0 0 0 0 0 0 0 0.24 0"/>
<feBlend mode="normal" in2="BackgroundImageFix" result="effect1_dropShadow_3304_19222"/>
<feBlend mode="normal" in="SourceGraphic" in2="effect1_dropShadow_3304_19222" result="shape"/>
</filter>
</defs>
</svg>
